<?xml version="1.0" standalone="no"?>
<!DOCTYPE svg PUBLIC "-//W3C//DTD SVG 20010904//EN"
 "http://www.w3.org/TR/2001/REC-SVG-20010904/DTD/svg10.dtd">
<svg version="1.0" xmlns="http://www.w3.org/2000/svg"
 width="1877.000000pt" height="1877.000000pt" viewBox="0 0 1877.000000 1877.000000"
 preserveAspectRatio="xMidYMid meet">
<metadata>
Created by potrace 1.14, written by Peter Selinger 2001-2017
</metadata>
<g transform="translate(0.000000,1877.000000) scale(0.100000,-0.100000)"
fill="#000000" stroke="none">
<path d="M9298 18463 c-97 -66 -383 -260 -563 -382 -231 -158 -376 -256 -399
-271 -13 -8 -59 -40 -103 -69 -43 -30 -125 -87 -183 -125 -58 -39 -109 -74
-115 -79 -13 -10 -662 -452 -770 -523 -44 -30 -123 -83 -175 -119 -52 -36
-178 -122 -280 -191 -190 -129 -588 -399 -721 -490 -41 -28 -229 -156 -419
-285 -190 -129 -399 -271 -465 -316 -66 -45 -210 -142 -320 -217 -110 -75
-270 -183 -355 -241 -85 -59 -231 -158 -325 -221 -93 -64 -224 -152 -290 -197
-127 -87 -779 -530 -1002 -682 -73 -49 -239 -162 -368 -250 -130 -88 -243
-164 -253 -170 -9 -5 -19 -13 -22 -16 -3 -3 -126 -88 -275 -188 -148 -100
-364 -247 -480 -327 -115 -79 -217 -147 -225 -151 -8 -4 -20 -12 -26 -18 -6
-6 -49 -35 -95 -65 -46 -30 -91 -60 -99 -67 -8 -6 -58 -40 -110 -75 -183 -124
-446 -302 -558 -380 -62 -43 -117 -78 -122 -78 -4 0 -10 -4 -12 -8 -2 -4 -40
-32 -85 -62 l-83 -55 0 -1932 c0 -1063 3 -1933 6 -1933 5 0 134 82 418 267
372 243 434 283 533 348 60 38 178 115 263 170 299 195 380 248 640 416 58 37
110 73 117 78 7 6 15 11 18 11 3 0 33 19 68 43 34 24 69 47 77 50 8 4 96 61
195 126 99 66 224 148 278 183 152 97 165 105 637 413 492 320 631 411 648
420 9 6 78 50 152 99 134 87 254 166 462 301 359 234 434 283 538 349 63 41
120 79 127 85 7 6 15 11 18 11 3 0 34 20 69 45 36 25 67 45 69 45 3 0 72 44
153 98 82 54 190 124 239 156 50 32 160 104 246 159 86 56 229 149 318 207 89
58 230 150 314 205 84 55 196 127 247 160 52 33 163 105 247 160 84 55 201
131 260 170 60 38 178 115 263 170 193 126 255 166 770 500 228 148 417 273
418 277 2 5 8 8 13 8 4 0 66 38 136 84 70 45 194 126 276 179 l148 97 82 -53
c113 -73 243 -158 362 -235 104 -68 145 -94 360 -234 72 -47 171 -111 220
-143 252 -164 553 -359 723 -470 59 -38 152 -99 207 -134 55 -36 160 -104 233
-153 74 -48 138 -88 143 -88 5 0 9 -4 9 -10 0 -5 4 -10 10 -10 8 0 200 -123
282 -181 15 -10 30 -19 33 -19 3 0 11 -5 18 -11 7 -5 84 -57 172 -114 88 -56
212 -137 275 -178 130 -85 370 -241 475 -309 39 -25 131 -85 205 -133 74 -48
167 -108 205 -133 39 -25 126 -82 195 -127 203 -133 351 -228 418 -271 35 -21
75 -49 90 -61 15 -13 30 -23 34 -23 4 0 70 -42 147 -92 77 -51 187 -123 243
-159 57 -37 171 -111 253 -165 83 -55 155 -101 160 -103 6 -2 35 -21 65 -41
51 -35 195 -129 405 -265 219 -142 268 -174 405 -263 80 -52 183 -120 230
-150 47 -30 121 -78 165 -107 44 -29 130 -84 190 -123 61 -39 115 -76 122 -82
7 -5 14 -10 17 -10 3 0 25 -13 48 -29 68 -46 529 -345 626 -406 35 -22 75 -50
90 -62 15 -13 30 -23 35 -23 4 0 33 -17 65 -39 55 -37 244 -161 387 -253 39
-25 131 -85 205 -133 74 -48 167 -108 205 -133 39 -25 122 -79 185 -121 63
-42 119 -78 124 -80 5 -2 63 -39 129 -83 67 -45 122 -75 126 -70 10 17 5 3852
-5 3861 -5 5 -88 61 -184 126 -96 65 -222 151 -280 190 -58 39 -170 116 -250
170 -80 54 -179 122 -220 150 -41 28 -158 107 -260 176 -102 68 -187 126 -190
129 -3 3 -68 48 -145 100 -77 52 -179 121 -228 155 -48 33 -98 67 -112 75 -13
8 -100 67 -192 130 -92 63 -208 141 -258 175 -49 33 -95 65 -101 70 -11 10
-380 260 -413 280 -9 6 -18 12 -21 15 -3 3 -13 10 -22 15 -10 6 -70 46 -135
91 -65 44 -183 125 -263 179 -80 54 -192 131 -250 170 -58 39 -161 109 -230
156 -69 46 -127 87 -130 90 -3 4 -19 15 -36 25 -34 21 -102 66 -299 201 -178
121 -483 329 -580 394 -44 29 -82 56 -85 59 -3 3 -88 61 -190 129 -102 69
-241 163 -310 210 -268 183 -388 265 -455 309 -38 25 -72 49 -75 52 -3 3 -104
72 -225 153 -250 169 -458 310 -658 447 -76 52 -155 106 -177 120 -21 14 -108
72 -192 129 -84 58 -193 132 -243 165 -49 34 -92 63 -95 66 -3 3 -39 28 -80
55 -41 28 -151 102 -243 165 -93 63 -176 120 -185 125 -9 6 -19 12 -22 15 -3
3 -39 28 -80 55 -230 155 -326 221 -338 232 -7 7 -17 13 -22 13 -5 0 -15 6
-22 13 -7 6 -58 42 -113 79 -55 36 -183 123 -285 193 -102 69 -243 165 -313
213 -70 48 -136 93 -146 100 -15 11 -29 5 -103 -45z"/>
<path d="M9320 12685 c-47 -30 -92 -58 -100 -62 -8 -4 -35 -21 -60 -38 -25
-18 -50 -34 -55 -36 -6 -2 -91 -55 -190 -117 -99 -62 -297 -187 -440 -277
-143 -90 -345 -217 -448 -282 -104 -65 -199 -125 -213 -133 -54 -33 -341 -214
-374 -235 -52 -34 -122 -78 -143 -90 -17 -10 -634 -398 -889 -559 -70 -45
-136 -85 -146 -91 -9 -5 -32 -20 -49 -32 -17 -13 -36 -23 -42 -23 -6 0 -11 -4
-11 -10 0 -5 -4 -10 -10 -10 -5 0 -61 -34 -125 -75 -63 -41 -117 -75 -119 -75
-2 0 -73 -44 -158 -98 -84 -54 -209 -133 -278 -176 -69 -43 -167 -104 -218
-137 -51 -32 -95 -59 -98 -59 -3 0 -10 -5 -17 -10 -7 -6 -113 -74 -237 -152
-124 -77 -310 -194 -413 -259 -103 -66 -192 -119 -197 -119 -4 0 -10 -3 -12
-8 -3 -8 -165 -112 -174 -112 -3 0 -10 -5 -17 -10 -14 -12 -17 -14 -402 -256
-165 -103 -466 -292 -670 -421 -203 -128 -392 -246 -420 -263 -101 -61 -670
-419 -681 -429 -6 -5 -24 -16 -40 -25 -16 -9 -41 -24 -56 -34 -14 -9 -68 -43
-120 -75 -51 -32 -153 -96 -226 -142 -74 -47 -137 -85 -142 -85 -5 0 -10 -4
-12 -8 -2 -6 -161 -108 -458 -292 -22 -14 -194 -122 -381 -240 -188 -118 -353
-222 -368 -230 -14 -9 -45 -28 -68 -44 l-43 -29 0 -1442 0 -1443 252 -169
c139 -92 258 -170 263 -172 6 -2 12 -7 15 -10 6 -8 391 -265 405 -270 5 -2 12
-7 15 -10 3 -3 34 -25 68 -48 l64 -42 36 23 c21 13 100 64 177 114 527 341
510 330 651 420 55 35 178 115 274 178 96 63 191 123 210 134 19 11 96 61 170
110 74 49 151 99 170 110 19 11 100 63 180 115 80 52 181 117 225 145 44 28
127 82 185 120 58 38 141 92 185 120 77 49 163 105 553 357 101 65 191 123
200 128 9 6 44 28 77 49 90 59 222 144 295 191 36 23 144 93 240 155 96 62
236 152 310 200 74 48 214 138 310 200 96 62 204 132 240 155 36 23 90 57 120
77 30 19 107 69 170 110 63 41 304 196 535 345 231 149 457 295 502 324 45 30
101 66 125 81 24 15 52 33 63 40 11 7 34 23 52 35 17 13 34 23 36 23 2 0 37
22 78 48 41 27 112 73 159 104 47 30 128 82 180 116 52 34 172 111 265 171
518 334 1057 682 1324 855 l35 22 58 -35 c32 -20 166 -106 299 -191 133 -85
253 -162 268 -170 14 -9 60 -38 101 -65 41 -27 127 -82 190 -122 63 -40 123
-79 133 -86 10 -6 55 -35 100 -64 179 -113 228 -144 397 -253 96 -62 184 -118
195 -124 19 -11 144 -91 245 -157 25 -16 146 -94 270 -173 124 -79 343 -220
488 -313 144 -92 270 -172 280 -178 23 -13 297 -189 439 -282 62 -40 117 -73
122 -73 5 0 11 -4 13 -8 2 -4 73 -52 158 -106 85 -54 214 -135 285 -181 284
-182 376 -240 395 -250 11 -5 20 -13 20 -17 0 -5 5 -8 10 -8 6 0 16 -5 23 -10
7 -6 66 -45 132 -86 66 -42 143 -91 170 -109 28 -17 88 -56 135 -86 539 -346
774 -496 795 -509 32 -20 236 -150 400 -255 118 -76 379 -243 545 -348 36 -22
112 -72 169 -109 57 -37 105 -68 107 -68 2 0 48 -29 102 -64 136 -89 305 -197
344 -221 9 -5 119 -75 243 -155 124 -80 236 -152 250 -160 14 -8 130 -82 257
-164 128 -82 243 -156 254 -163 18 -12 24 -12 35 -1 8 8 32 27 54 43 22 17 45
35 51 40 7 6 53 42 104 80 50 39 164 126 253 194 89 69 209 161 267 205 58 44
107 83 110 86 3 3 23 19 45 35 l40 30 -1 1438 c-1 1226 -3 1440 -15 1451 -8 8
-77 53 -154 101 -77 49 -162 103 -190 120 -27 18 -95 60 -150 95 -103 65 -206
131 -285 182 -25 16 -94 60 -155 98 -60 38 -183 115 -273 172 -89 57 -191 121
-226 143 -34 22 -134 85 -220 140 -86 55 -165 105 -174 110 -16 9 -80 50 -347
220 -115 73 -422 268 -442 280 -44 28 -580 366 -593 375 -8 6 -64 41 -125 80
-107 67 -266 167 -525 330 -69 44 -132 84 -140 90 -39 26 -377 241 -390 247
-8 4 -58 35 -110 69 -52 34 -178 114 -280 177 -102 64 -190 120 -196 124 -5 4
-18 13 -27 18 -9 6 -141 89 -292 185 -152 96 -283 180 -292 185 -9 6 -60 37
-112 71 -53 33 -159 100 -236 149 -77 49 -162 103 -190 121 -237 150 -443 281
-457 289 -10 6 -99 62 -199 125 -99 63 -209 133 -244 155 -35 22 -120 76 -189
120 -70 44 -152 96 -184 116 -31 20 -214 136 -407 257 -192 122 -357 226 -365
232 -14 9 -145 92 -186 117 -86 54 -211 134 -219 141 -6 5 -15 11 -21 13 -6 2
-88 54 -182 114 -95 61 -183 117 -196 125 -67 40 -160 100 -248 157 -54 35
-103 63 -110 63 -7 0 -51 -25 -98 -55z"/>
<path d="M9289 6748 c-129 -83 -306 -197 -394 -254 -88 -56 -165 -108 -172
-113 -7 -6 -15 -11 -18 -11 -3 0 -27 -15 -53 -33 -26 -18 -117 -77 -202 -132
-159 -101 -346 -222 -435 -280 -95 -62 -340 -221 -500 -324 -88 -56 -243 -156
-345 -222 -102 -66 -221 -143 -265 -171 -44 -29 -136 -88 -205 -133 -69 -45
-154 -100 -190 -123 -36 -23 -129 -83 -207 -134 -79 -51 -178 -115 -220 -142
-43 -27 -118 -76 -166 -108 -48 -32 -92 -58 -96 -58 -5 0 -11 -4 -13 -8 -2 -6
-277 -186 -384 -252 -25 -16 -999 -645 -1214 -785 -69 -45 -215 -139 -325
-210 -110 -71 -213 -138 -230 -149 -16 -12 -38 -26 -47 -31 -10 -6 -101 -64
-203 -130 -102 -66 -193 -124 -202 -130 -9 -5 -22 -14 -27 -18 -6 -5 -112 -73
-236 -153 -413 -266 -550 -356 -550 -363 0 -3 130 -91 288 -196 158 -104 289
-193 290 -197 2 -5 10 -8 18 -8 8 0 14 -4 14 -10 0 -5 6 -10 14 -10 8 0 16 -3
18 -7 1 -5 95 -69 208 -143 113 -74 207 -138 208 -142 2 -5 10 -8 18 -8 8 0
14 -4 14 -10 0 -5 6 -10 14 -10 8 0 16 -3 18 -7 2 -5 95 -69 208 -143 113 -74
207 -138 208 -142 2 -5 10 -8 18 -8 8 0 14 -4 14 -10 0 -5 6 -10 14 -10 8 0
16 -3 18 -7 1 -5 196 -136 433 -293 236 -157 434 -289 440 -293 33 -26 520
-347 527 -347 4 0 8 -5 8 -10 0 -12 66 20 205 100 55 32 141 80 190 107 50 28
106 59 125 70 19 11 112 63 205 115 94 52 188 106 210 118 22 13 60 34 85 48
25 13 59 32 75 42 33 19 101 57 185 103 30 16 60 33 65 37 6 4 30 18 55 32 62
34 192 107 210 118 19 11 137 77 215 120 77 43 83 46 318 178 108 62 200 112
203 112 3 0 18 8 32 19 15 10 63 38 107 61 44 24 92 51 107 62 14 10 29 18 32
18 3 0 44 22 92 50 48 27 88 50 89 50 1 0 63 34 136 76 74 42 162 91 196 110
34 19 85 47 113 64 28 16 53 30 55 30 2 0 42 22 87 49 46 26 180 102 298 168
118 66 232 130 253 142 41 23 94 53 147 83 l36 19 294 -171 c316 -184 357
-208 465 -271 39 -22 86 -49 105 -61 19 -11 136 -79 260 -151 124 -71 288
-167 365 -212 77 -45 228 -133 335 -195 107 -62 231 -134 275 -160 78 -47 665
-388 735 -427 19 -11 70 -41 113 -67 43 -25 81 -46 83 -46 3 0 17 -8 32 -19
15 -10 68 -42 117 -70 50 -28 97 -56 105 -61 8 -5 51 -30 95 -55 44 -25 87
-50 95 -55 16 -11 156 -92 205 -120 17 -9 87 -50 155 -90 69 -40 130 -73 135
-73 6 0 48 27 95 60 47 33 157 108 245 168 165 112 294 200 495 338 63 43 144
99 180 123 36 24 97 65 135 91 39 27 126 86 195 133 69 47 127 87 130 90 3 3
77 54 165 113 88 60 207 141 265 180 58 40 197 135 310 212 236 160 263 178
270 185 3 3 68 47 145 99 216 146 299 203 312 215 9 8 -825 569 -3429 2306
-1893 1262 -3452 2300 -3464 2307 -19 11 -44 -2 -255 -139z"/>
</g>
</svg>
