<svg width="142" height="142" viewBox="0 0 142 142" fill="none" xmlns="http://www.w3.org/2000/svg">
<g filter="url(#filter0_d_6248_2837)">
<circle cx="67" cy="68" r="59" fill="#152968"/>
</g>
<mask id="mask0_6248_2837" style="mask-type:luminance" maskUnits="userSpaceOnUse" x="81" y="47" width="16" height="61">
<path d="M81.4072 47.8086H96.6291V107.996H81.4072V47.8086Z" fill="white"/>
</mask>
<g mask="url(#mask0_6248_2837)">
<path d="M93.9375 48.5829C93.8309 48.3686 93.675 48.1981 93.4708 48.0724C93.2677 47.9468 93.0456 47.8828 92.8055 47.8828C92.5665 47.8828 92.3444 47.9468 92.1402 48.0724C91.9372 48.1981 91.7812 48.3686 91.6735 48.5829L89.1425 53.6449C89.1055 53.7189 89.0763 53.7963 89.0539 53.876C89.0326 53.9568 89.018 54.0387 89.0124 54.1206C89.0068 54.2036 89.009 54.2866 89.0191 54.3696C89.0292 54.4515 89.0472 54.5323 89.0741 54.6108C89.0999 54.6905 89.1335 54.7656 89.175 54.8374C89.2166 54.9104 89.2637 54.9777 89.3187 55.0405C89.3725 55.1033 89.4331 55.1606 89.4982 55.211C89.5643 55.2615 89.6339 55.3064 89.7091 55.3434C89.7831 55.3804 89.8605 55.4096 89.9402 55.4321C90.021 55.4545 90.1017 55.468 90.1848 55.4736C90.2678 55.4792 90.3508 55.4769 90.4327 55.4668C90.5157 55.4567 90.5965 55.4377 90.675 55.4119C90.7536 55.3861 90.8298 55.3513 90.9016 55.3109C90.9734 55.2694 91.0419 55.2211 91.1047 55.1673C91.1675 55.1123 91.2236 55.0528 91.2752 54.9867C91.3257 54.9216 91.3695 54.8509 91.4065 54.7769L91.54 54.5099V105.463H82.6815C82.5985 105.463 82.5166 105.472 82.4347 105.488C82.3539 105.503 82.2743 105.528 82.198 105.559C82.1206 105.592 82.0476 105.63 81.9792 105.676C81.9096 105.723 81.8457 105.775 81.7874 105.834C81.7279 105.893 81.6763 105.957 81.6292 106.026C81.5832 106.095 81.545 106.168 81.5125 106.245C81.4811 106.321 81.4564 106.401 81.4407 106.482C81.425 106.564 81.416 106.645 81.416 106.729C81.416 106.812 81.425 106.895 81.4407 106.975C81.4564 107.057 81.4811 107.137 81.5125 107.213C81.545 107.289 81.5832 107.362 81.6292 107.432C81.6763 107.501 81.7279 107.565 81.7874 107.624C81.8457 107.682 81.9096 107.735 81.9792 107.781C82.0476 107.827 82.1206 107.866 82.198 107.899C82.2743 107.93 82.3539 107.954 82.4347 107.97C82.5166 107.986 82.5985 107.994 82.6815 107.994H92.1728C92.2973 107.994 92.4207 107.982 92.543 107.958C92.6653 107.933 92.7842 107.898 92.8997 107.849C93.0142 107.802 93.1241 107.743 93.2273 107.674C93.3305 107.605 93.427 107.526 93.5145 107.438C93.6032 107.35 93.6817 107.254 93.7513 107.15C93.8197 107.047 93.8792 106.937 93.9263 106.823C93.9745 106.707 94.0104 106.588 94.0351 106.466C94.0587 106.344 94.071 106.22 94.071 106.096V54.5099L94.2045 54.7769C94.2415 54.8509 94.2864 54.9216 94.3369 54.9867C94.3885 55.0528 94.4446 55.1123 94.5074 55.1673C94.5702 55.2211 94.6376 55.2694 94.7105 55.3109C94.7823 55.3524 94.8574 55.3861 94.9371 55.4119C95.0156 55.4377 95.0964 55.4567 95.1783 55.4668C95.2613 55.4769 95.3444 55.4792 95.4263 55.4736C95.5093 55.468 95.5912 55.4545 95.6719 55.4321C95.7516 55.4096 95.829 55.3804 95.9031 55.3434C95.9771 55.3064 96.0478 55.2615 96.1129 55.211C96.179 55.1606 96.2385 55.1033 96.2935 55.0405C96.3484 54.9777 96.3956 54.9104 96.4371 54.8374C96.4775 54.7656 96.5122 54.6905 96.538 54.6108C96.5639 54.5323 96.5829 54.4515 96.593 54.3696C96.6031 54.2866 96.6054 54.2036 96.5998 54.1206C96.5941 54.0387 96.5796 53.9568 96.5582 53.876C96.5358 53.7963 96.5066 53.7189 96.4685 53.6449L93.9375 48.5829Z" fill="white"/>
</g>
<mask id="mask1_6248_2837" style="mask-type:luminance" maskUnits="userSpaceOnUse" x="38" y="47" width="16" height="61">
<path d="M38.3262 47.8086H53.8353V107.996H38.3262V47.8086Z" fill="white"/>
</mask>
<g mask="url(#mask1_6248_2837)">
<path d="M52.3098 105.463H43.4513V54.5099L43.5848 54.7769C43.6218 54.8509 43.6667 54.9216 43.7172 54.9867C43.7688 55.0528 43.8249 55.1123 43.8877 55.1673C43.9505 55.2211 44.0178 55.2694 44.0908 55.3109C44.1626 55.3513 44.2377 55.3861 44.3174 55.4119C44.3959 55.4377 44.4767 55.4567 44.5586 55.4668C44.6416 55.4769 44.7246 55.4792 44.8065 55.4736C44.8896 55.468 44.9715 55.4545 45.0522 55.4321C45.1319 55.4096 45.2093 55.3804 45.2833 55.3434C45.3574 55.3064 45.4281 55.2615 45.4931 55.211C45.5593 55.1606 45.6188 55.1033 45.6738 55.0405C45.7287 54.9777 45.7759 54.9104 45.8174 54.8374C45.8577 54.7656 45.8925 54.6905 45.9183 54.6108C45.9441 54.5323 45.9632 54.4515 45.9733 54.3696C45.9834 54.2866 45.9856 54.2036 45.98 54.1206C45.9744 54.0387 45.9598 53.9568 45.9385 53.876C45.9161 53.7963 45.8869 53.7189 45.8488 53.6449L43.3178 48.5829C43.2112 48.3686 43.0553 48.1981 42.8511 48.0724C42.648 47.9468 42.4259 47.8828 42.1858 47.8828C41.9468 47.8828 41.7247 47.9468 41.5205 48.0724C41.3174 48.1981 41.1615 48.3686 41.0538 48.5829L38.5228 53.6449C38.4858 53.7189 38.4566 53.7963 38.4342 53.876C38.4128 53.9568 38.3994 54.0375 38.3927 54.1206C38.387 54.2036 38.3893 54.2866 38.3994 54.3685C38.4106 54.4515 38.4286 54.5323 38.4544 54.6108C38.4813 54.6894 38.5149 54.7645 38.5565 54.8374C38.5968 54.9092 38.6451 54.9766 38.6989 55.0394C38.7539 55.1022 38.8145 55.1594 38.8796 55.2099C38.9457 55.2615 39.0153 55.3053 39.0894 55.3423C39.1634 55.3793 39.2408 55.4085 39.3216 55.4309C39.4012 55.4534 39.4831 55.4668 39.5662 55.4724C39.6481 55.478 39.7311 55.4758 39.8141 55.4657C39.896 55.4556 39.9768 55.4377 40.0553 55.4107C40.1338 55.3849 40.2101 55.3513 40.2819 55.3098C40.3537 55.2683 40.4222 55.2211 40.4839 55.1662C40.5467 55.1123 40.6039 55.0517 40.6555 54.9867C40.706 54.9205 40.7498 54.8509 40.7868 54.7769L40.9203 54.5099V106.096C40.9214 106.22 40.9326 106.344 40.9573 106.466C40.982 106.588 41.0179 106.707 41.0661 106.823C41.1133 106.937 41.1716 107.047 41.2411 107.15C41.3107 107.254 41.3892 107.35 41.4767 107.438C41.5654 107.526 41.6607 107.605 41.7651 107.674C41.8683 107.743 41.9782 107.802 42.0927 107.849C42.2082 107.898 42.3271 107.933 42.4483 107.958C42.5706 107.982 42.694 107.994 42.8185 107.994H52.3098C52.3928 107.994 52.4758 107.986 52.5566 107.97C52.6385 107.954 52.7181 107.93 52.7944 107.899C52.8707 107.866 52.9436 107.827 53.0132 107.781C53.0828 107.735 53.1467 107.682 53.205 107.624C53.2634 107.565 53.3161 107.501 53.3621 107.432C53.4081 107.362 53.4474 107.289 53.4799 107.213C53.5113 107.137 53.5349 107.057 53.5517 106.975C53.5674 106.895 53.5753 106.812 53.5753 106.729C53.5753 106.645 53.5674 106.564 53.5517 106.482C53.5349 106.401 53.5113 106.321 53.4799 106.245C53.4474 106.168 53.4081 106.095 53.3621 106.026C53.3161 105.957 53.2634 105.893 53.205 105.834C53.1467 105.775 53.0828 105.723 53.0132 105.676C52.9436 105.63 52.8707 105.592 52.7944 105.559C52.7181 105.528 52.6385 105.503 52.5566 105.488C52.4758 105.472 52.3928 105.463 52.3098 105.463Z" fill="white"/>
</g>
<mask id="mask2_6248_2837" style="mask-type:luminance" maskUnits="userSpaceOnUse" x="49" y="45" width="14" height="63">
<path d="M49.5283 45.8008H62.1654V107.999H49.5283V45.8008Z" fill="white"/>
</mask>
<g mask="url(#mask2_6248_2837)">
<path d="M56.4146 48.5193H62.014C60.6868 47.8809 59.5054 47.0373 58.4722 45.9883H56.4146C56.1981 45.9883 55.9816 45.9984 55.7662 46.0197C55.5496 46.0399 55.3365 46.0713 55.1233 46.1139C54.9102 46.1554 54.7004 46.2071 54.4928 46.2699C54.2853 46.3327 54.0811 46.4045 53.8814 46.4875C53.6806 46.5705 53.4854 46.6625 53.2935 46.7635C53.1017 46.8656 52.9166 46.9767 52.7359 47.0967C52.5553 47.2168 52.3814 47.3447 52.2131 47.4815C52.0448 47.6184 51.8844 47.7642 51.7307 47.9168C51.577 48.0694 51.4312 48.2298 51.2932 48.397C51.1552 48.563 51.0262 48.7369 50.905 48.9164C50.7838 49.0971 50.6716 49.2822 50.5695 49.4729C50.4663 49.6636 50.3732 49.8588 50.2902 50.0585C50.2061 50.2593 50.132 50.4624 50.0692 50.67C50.0052 50.8764 49.9514 51.0862 49.9088 51.2993C49.8661 51.5114 49.8336 51.7257 49.8111 51.9411C49.7887 52.1565 49.7775 52.373 49.7764 52.5895V81.2854C49.7775 81.5445 49.8033 81.8003 49.8549 82.0539C49.9065 82.3074 49.9817 82.5542 50.0815 82.7932C50.1814 83.0322 50.3037 83.2588 50.4473 83.4731C50.592 83.6885 50.7558 83.887 50.9398 84.0699C51.1226 84.2517 51.3223 84.4143 51.5377 84.5579C51.7531 84.7015 51.9809 84.8227 52.2199 84.9214C52.4588 85.0202 52.7056 85.0942 52.9592 85.1447C53.2127 85.1941 53.4696 85.2199 53.7288 85.2187H57.3694V106.732C57.3694 106.815 57.3783 106.898 57.394 106.979C57.4097 107.061 57.4344 107.141 57.4658 107.217C57.4984 107.293 57.5365 107.366 57.5825 107.436C57.6296 107.505 57.6812 107.569 57.7407 107.627C57.799 107.686 57.863 107.739 57.9326 107.785C58.001 107.831 58.0739 107.87 58.1513 107.902C58.2276 107.934 58.3073 107.957 58.388 107.974C58.4699 107.99 58.5518 107.998 58.6349 107.998C58.7179 107.998 58.8009 107.99 58.8817 107.974C58.9636 107.957 59.0432 107.934 59.1195 107.902C59.1958 107.87 59.2687 107.831 59.3383 107.785C59.4078 107.739 59.4718 107.686 59.5301 107.627C59.5885 107.569 59.6412 107.505 59.6872 107.436C59.7332 107.366 59.7725 107.293 59.805 107.217C59.8364 107.141 59.86 107.061 59.8768 106.979C59.8925 106.898 59.9004 106.815 59.9004 106.732V71.2983C59.9004 71.2152 59.8925 71.1333 59.8768 71.0514C59.86 70.9707 59.8364 70.891 59.805 70.8147C59.7725 70.7373 59.7332 70.6644 59.6872 70.5959C59.6412 70.5264 59.5885 70.4624 59.5301 70.4041C59.4718 70.3446 59.4078 70.293 59.3383 70.2459C59.2687 70.1999 59.1958 70.1618 59.1195 70.1292C59.0432 70.0978 58.9636 70.0743 58.8817 70.0574C58.8009 70.0417 58.7179 70.0328 58.6349 70.0328C58.5518 70.0328 58.4699 70.0417 58.388 70.0574C58.3073 70.0743 58.2276 70.0978 58.1513 70.1292C58.0739 70.1618 58.001 70.1999 57.9326 70.2459C57.863 70.293 57.799 70.3446 57.7407 70.4041C57.6812 70.4624 57.6296 70.5264 57.5825 70.5959C57.5365 70.6644 57.4984 70.7373 57.4658 70.8147C57.4344 70.891 57.4097 70.9707 57.394 71.0514C57.3783 71.1333 57.3694 71.2152 57.3694 71.2983V82.6877H53.7288C53.6357 82.6889 53.5437 82.6799 53.4528 82.6631C53.3619 82.6451 53.2733 82.6182 53.1881 82.5834C53.1017 82.5486 53.0209 82.506 52.9435 82.4544C52.8661 82.4039 52.7943 82.3456 52.7281 82.2805C52.6619 82.2154 52.6035 82.1447 52.5508 82.0673C52.4992 81.991 52.4555 81.9103 52.4196 81.825C52.3825 81.7397 52.3556 81.6511 52.3365 81.5602C52.3186 81.4694 52.3085 81.3785 52.3074 81.2854V52.5895C52.3096 52.3214 52.3365 52.0555 52.3904 51.793C52.4442 51.5293 52.5239 51.2747 52.6271 51.0267C52.7314 50.7799 52.8582 50.5443 53.0085 50.3222C53.1589 50.1 53.3294 49.8947 53.5201 49.7051C53.7097 49.5166 53.9173 49.3484 54.1417 49.2003C54.3649 49.0522 54.6005 48.9265 54.8496 48.8256C55.0975 48.7235 55.3533 48.6472 55.617 48.5956C55.8806 48.544 56.1465 48.5193 56.4146 48.5193Z" fill="white"/>
</g>
<mask id="mask3_6248_2837" style="mask-type:luminance" maskUnits="userSpaceOnUse" x="72" y="45" width="14" height="63">
<path d="M72.793 45.8008H85.43V107.999H72.793V45.8008Z" fill="white"/>
</mask>
<g mask="url(#mask3_6248_2837)">
<path d="M85.215 81.2854V52.5895C85.215 52.373 85.2027 52.1565 85.1814 51.9411C85.1589 51.7257 85.1264 51.5114 85.0838 51.2993C85.04 51.0862 84.9873 50.8764 84.9233 50.67C84.8594 50.4624 84.7865 50.2593 84.7023 50.0585C84.6193 49.8588 84.5262 49.6636 84.423 49.4729C84.3198 49.2822 84.2087 49.0971 84.0875 48.9164C83.9664 48.7369 83.8373 48.563 83.6994 48.397C83.5614 48.2298 83.4155 48.0694 83.2618 47.9168C83.1081 47.7642 82.9466 47.6184 82.7794 47.4815C82.6111 47.3447 82.4372 47.2168 82.2566 47.0967C82.076 46.9767 81.8897 46.8656 81.699 46.7635C81.5072 46.6625 81.312 46.5705 81.1111 46.4875C80.9103 46.4045 80.7061 46.3327 80.4997 46.2699C80.2922 46.2071 80.0812 46.1554 79.8692 46.1139C79.656 46.0713 79.4418 46.0399 79.2264 46.0197C79.0109 45.9984 78.7944 45.9883 78.5779 45.9883H76.5203C75.486 47.0373 74.3057 47.8809 72.9785 48.5193H78.5779C78.846 48.5193 79.1119 48.544 79.3756 48.5956C79.6392 48.6472 79.895 48.7235 80.1429 48.8256C80.3909 48.9265 80.6276 49.0522 80.8509 49.2003C81.0752 49.3484 81.2817 49.5166 81.4724 49.7051C81.6631 49.8947 81.8336 50.1 81.984 50.3222C82.1343 50.5443 82.2611 50.7799 82.3654 51.0267C82.4686 51.2747 82.5483 51.5293 82.601 51.793C82.6549 52.0555 82.6829 52.3214 82.684 52.5895V81.2854C82.684 81.3785 82.6739 81.4694 82.6549 81.5602C82.6369 81.6511 82.6089 81.7397 82.573 81.825C82.5371 81.9103 82.4933 81.991 82.4406 82.0673C82.389 82.1447 82.3306 82.2154 82.2644 82.2805C82.1983 82.3456 82.1265 82.4039 82.049 82.4544C81.9716 82.506 81.8909 82.5486 81.8045 82.5834C81.7192 82.6182 81.6306 82.6451 81.5397 82.6631C81.4488 82.6799 81.3568 82.6889 81.2637 82.6877H77.622V71.2983C77.622 71.2152 77.6142 71.1333 77.5985 71.0514C77.5817 70.9707 77.5581 70.891 77.5267 70.8147C77.4941 70.7373 77.4549 70.6644 77.4089 70.5959C77.3629 70.5264 77.3102 70.4624 77.2518 70.4041C77.1935 70.3446 77.1295 70.293 77.06 70.2459C76.9904 70.1999 76.9175 70.1618 76.8412 70.1292C76.7649 70.0978 76.6853 70.0743 76.6034 70.0574C76.5226 70.0417 76.4396 70.0328 76.3565 70.0328C76.2735 70.0328 76.1916 70.0417 76.1097 70.0574C76.029 70.0743 75.9493 70.0978 75.873 70.1292C75.7956 70.1618 75.7227 70.1999 75.6542 70.2459C75.5847 70.293 75.5207 70.3446 75.4624 70.4041C75.4029 70.4624 75.3513 70.5264 75.3042 70.5959C75.2582 70.6644 75.2201 70.7373 75.1875 70.8147C75.1561 70.891 75.1314 70.9707 75.1157 71.0514C75.1 71.1333 75.091 71.2152 75.091 71.2983V106.732C75.091 106.815 75.1 106.898 75.1157 106.979C75.1314 107.061 75.1561 107.141 75.1875 107.217C75.2201 107.293 75.2582 107.366 75.3042 107.436C75.3513 107.505 75.4029 107.569 75.4624 107.627C75.5207 107.686 75.5847 107.739 75.6542 107.785C75.7227 107.831 75.7956 107.87 75.873 107.902C75.9493 107.934 76.029 107.957 76.1097 107.974C76.1916 107.99 76.2735 107.998 76.3565 107.998C76.4396 107.998 76.5226 107.99 76.6034 107.974C76.6853 107.957 76.7649 107.934 76.8412 107.902C76.9175 107.87 76.9904 107.831 77.06 107.785C77.1295 107.739 77.1935 107.686 77.2518 107.627C77.3102 107.569 77.3629 107.505 77.4089 107.436C77.4549 107.366 77.4941 107.293 77.5267 107.217C77.5581 107.141 77.5817 107.061 77.5985 106.979C77.6142 106.898 77.622 106.815 77.622 106.732V85.2187H81.2637C81.5229 85.2199 81.7787 85.1941 82.0333 85.1447C82.2869 85.0942 82.5337 85.0202 82.7727 84.9214C83.0116 84.8227 83.2394 84.7015 83.4548 84.5579C83.6702 84.4143 83.8699 84.2517 84.0527 84.0699C84.2367 83.887 84.4005 83.6885 84.5441 83.4731C84.6889 83.2588 84.8112 83.0322 84.911 82.7932C85.0108 82.5542 85.086 82.3074 85.1376 82.0539C85.1881 81.8003 85.215 81.5445 85.215 81.2854Z" fill="white"/>
</g>
<mask id="mask4_6248_2837" style="mask-type:luminance" maskUnits="userSpaceOnUse" x="57" y="27" width="21" height="21">
<path d="M57.2773 27H77.6689V47.5172H57.2773V27Z" fill="white"/>
</mask>
<g mask="url(#mask4_6248_2837)">
<path d="M67.4931 47.248C67.8252 47.248 68.1562 47.2323 68.486 47.1997C68.8158 47.1672 69.1434 47.119 69.4688 47.0539C69.7941 46.9888 70.115 46.9092 70.4325 46.8127C70.75 46.7162 71.0619 46.6051 71.3682 46.4772C71.6744 46.3505 71.974 46.2091 72.2657 46.0532C72.5585 45.8972 72.8423 45.7267 73.1183 45.5427C73.3943 45.3576 73.6602 45.1612 73.916 44.9503C74.1729 44.7405 74.4175 44.5173 74.6519 44.2828C74.8864 44.0483 75.1097 43.8038 75.3195 43.5468C75.5304 43.291 75.7267 43.0252 75.9118 42.7492C76.0958 42.4732 76.2664 42.1893 76.4223 41.8965C76.5782 41.6048 76.7196 41.3053 76.8464 40.999C76.9743 40.6927 77.0853 40.3809 77.1818 40.0634C77.2783 39.7459 77.358 39.425 77.423 39.0996C77.4881 38.7743 77.5363 38.4467 77.5689 38.1169C77.6014 37.787 77.6171 37.4561 77.6171 37.124C77.6171 36.793 77.6014 36.4621 77.5689 36.1322C77.5363 35.8024 77.4881 35.4748 77.423 35.1495C77.358 34.8241 77.2783 34.5032 77.1818 34.1857C77.0853 33.8682 76.9743 33.5564 76.8464 33.2501C76.7196 32.9438 76.5782 32.6443 76.4223 32.3514C76.2664 32.0598 76.0958 31.7759 75.9118 31.4999C75.7267 31.2239 75.5304 30.958 75.3195 30.7023C75.1097 30.4453 74.8864 30.1996 74.6519 29.9652C74.4175 29.7307 74.1729 29.5086 73.916 29.2988C73.6602 29.0878 73.3943 28.8904 73.1183 28.7064C72.8423 28.5224 72.5585 28.3519 72.2657 28.1959C71.974 28.04 71.6744 27.8975 71.3682 27.7707C71.0619 27.644 70.75 27.5329 70.4325 27.4364C70.115 27.3399 69.7941 27.2592 69.4688 27.1952C69.1434 27.1301 68.8158 27.0819 68.486 27.0494C68.1562 27.0168 67.8252 27 67.4931 27C67.1622 27 66.8312 27.0168 66.5014 27.0494C66.1715 27.0819 65.8439 27.1301 65.5186 27.1952C65.1932 27.2592 64.8724 27.3399 64.5549 27.4364C64.2374 27.5329 63.9255 27.644 63.6192 27.7707C63.3129 27.8975 63.0134 28.04 62.7206 28.1959C62.4289 28.3519 62.1451 28.5224 61.8691 28.7064C61.5931 28.8904 61.3272 29.0878 61.0714 29.2988C60.8145 29.5086 60.5688 29.7307 60.3343 29.9652C60.0998 30.1996 59.8777 30.4453 59.6679 30.7023C59.457 30.958 59.2595 31.2239 59.0755 31.4999C58.8916 31.7759 58.721 32.0598 58.5651 32.3514C58.4091 32.6443 58.2667 32.9438 58.1399 33.2501C58.0131 33.5564 57.902 33.8682 57.8056 34.1857C57.7091 34.5032 57.6283 34.8241 57.5644 35.1495C57.4993 35.4748 57.451 35.8024 57.4185 36.1322C57.386 36.4621 57.3691 36.793 57.3691 37.124C57.3703 37.4561 57.3871 37.787 57.4196 38.1169C57.4522 38.4467 57.5015 38.7732 57.5655 39.0985C57.6305 39.4239 57.7113 39.7447 57.8078 40.0622C57.9043 40.3786 58.0165 40.6905 58.1432 40.9968C58.27 41.3031 58.4125 41.6026 58.5684 41.8943C58.7244 42.1871 58.8949 42.4709 59.0789 42.7458C59.264 43.0218 59.4604 43.2877 59.6713 43.5435C59.8811 43.8004 60.1043 44.045 60.3377 44.2794C60.5722 44.5139 60.8178 44.7361 61.0736 44.947C61.3306 45.1568 61.5964 45.3542 61.8713 45.5382C62.1473 45.7233 62.4311 45.8927 62.7239 46.0498C63.0156 46.2057 63.3152 46.3471 63.6215 46.475C63.9277 46.6018 64.2385 46.714 64.556 46.8093C64.8735 46.9058 65.1944 46.9866 65.5197 47.0516C65.8439 47.1167 66.1715 47.1661 66.5014 47.1986C66.8312 47.2311 67.1622 47.248 67.4931 47.248ZM67.4931 29.531C67.7422 29.531 67.9901 29.5433 68.2381 29.568C68.4849 29.5927 68.7306 29.6286 68.9752 29.6768C69.2186 29.7262 69.4598 29.7857 69.6977 29.8586C69.9355 29.9304 70.17 30.0145 70.3988 30.1099C70.6288 30.2041 70.8532 30.3107 71.0731 30.4285C71.2919 30.5452 71.505 30.6731 71.7115 30.8111C71.919 30.9491 72.1187 31.0972 72.3105 31.2554C72.5024 31.4124 72.6864 31.5796 72.8625 31.7557C73.0387 31.9307 73.2047 32.1147 73.3629 32.3077C73.5211 32.4995 73.6692 32.6992 73.8072 32.9057C73.9452 33.1132 74.073 33.3252 74.1897 33.5451C74.3075 33.7639 74.413 33.9894 74.5083 34.2183C74.6037 34.4483 74.6878 34.6827 74.7596 34.9206C74.8314 35.1584 74.892 35.3996 74.9403 35.6431C74.9896 35.8865 75.0255 36.1322 75.0502 36.3802C75.0749 36.6281 75.0861 36.876 75.0861 37.124C75.0861 37.373 75.0749 37.621 75.0502 37.8689C75.0255 38.1157 74.9896 38.3614 74.9403 38.606C74.892 38.8495 74.8314 39.0907 74.7596 39.3285C74.6878 39.5664 74.6037 39.8008 74.5083 40.0297C74.413 40.2597 74.3075 40.4841 74.1897 40.704C74.073 40.9227 73.9452 41.1359 73.8072 41.3423C73.6692 41.5499 73.5211 41.7496 73.3629 41.9414C73.2047 42.1333 73.0387 42.3172 72.8625 42.4934C72.6864 42.6695 72.5024 42.8356 72.3105 42.9937C72.1187 43.1519 71.919 43.3 71.7115 43.438C71.505 43.576 71.2919 43.7039 71.0731 43.8206C70.8532 43.9384 70.6288 44.0438 70.3988 44.1392C70.17 44.2346 69.9355 44.3187 69.6977 44.3905C69.4598 44.4623 69.2186 44.5229 68.9752 44.5711C68.7306 44.6205 68.4849 44.6564 68.2381 44.6811C67.9901 44.7058 67.7422 44.717 67.4931 44.717C67.2452 44.717 66.9973 44.7058 66.7493 44.6811C66.5014 44.6564 66.2557 44.6205 66.0122 44.5711C65.7688 44.5229 65.5276 44.4623 65.2897 44.3905C65.0519 44.3187 64.8174 44.2346 64.5874 44.1392C64.3586 44.0438 64.1331 43.9384 63.9143 43.8206C63.6944 43.7039 63.4824 43.576 63.2748 43.438C63.0684 43.3 62.8687 43.1519 62.6768 42.9937C62.4839 42.8356 62.2999 42.6695 62.1249 42.4934C61.9487 42.3172 61.7816 42.1333 61.6245 41.9414C61.4663 41.7496 61.3182 41.5499 61.1802 41.3423C61.0422 41.1359 60.9143 40.9227 60.7977 40.704C60.6799 40.4841 60.5733 40.2597 60.479 40.0297C60.3837 39.8008 60.2995 39.5664 60.2277 39.3285C60.1548 39.0907 60.0953 38.8495 60.046 38.606C59.9977 38.3614 59.9618 38.1157 59.9372 37.8689C59.9125 37.621 59.9001 37.373 59.9001 37.124C59.9013 36.876 59.9136 36.6281 59.9383 36.3802C59.963 36.1334 59.9989 35.8877 60.0482 35.6442C60.0965 35.3996 60.1571 35.1595 60.23 34.9217C60.3018 34.6839 60.3859 34.4494 60.4813 34.2205C60.5755 33.9905 60.6821 33.7662 60.7999 33.5463C60.9166 33.3275 61.0445 33.1143 61.1825 32.9079C61.3205 32.7015 61.4685 32.5018 61.6267 32.3099C61.7849 32.1181 61.951 31.9341 62.1271 31.758C62.3032 31.5818 62.4872 31.4158 62.6791 31.2576C62.8709 31.0994 63.0706 30.9513 63.277 30.8133C63.4835 30.6753 63.6966 30.5474 63.9154 30.4308C64.1353 30.313 64.3597 30.2064 64.5897 30.1121C64.8185 30.0168 65.053 29.9326 65.2908 29.8608C65.5287 29.7879 65.7688 29.7273 66.0133 29.6791C66.2568 29.6297 66.5025 29.5938 66.7493 29.5691C66.9973 29.5445 67.2452 29.5321 67.4931 29.531Z" fill="white"/>
</g>
<mask id="mask5_6248_2837" style="mask-type:luminance" maskUnits="userSpaceOnUse" x="66" y="82" width="3" height="26">
<path d="M66.1855 82.5625H68.7704V107.998H66.1855V82.5625Z" fill="white"/>
</mask>
<g mask="url(#mask5_6248_2837)">
<path d="M67.493 82.6875C67.41 82.6875 67.3281 82.6965 67.2462 82.7122C67.1654 82.729 67.0858 82.7526 67.0095 82.784C66.9321 82.8165 66.8592 82.8547 66.7907 82.9007C66.7212 82.9478 66.6572 82.9994 66.5989 83.0588C66.5394 83.1172 66.4878 83.1811 66.4407 83.2507C66.3947 83.3191 66.3566 83.3921 66.324 83.4695C66.2926 83.5458 66.269 83.6254 66.2522 83.7062C66.2365 83.7881 66.2275 83.87 66.2275 83.953V106.732C66.2275 106.815 66.2365 106.898 66.2522 106.979C66.2679 107.061 66.2926 107.14 66.324 107.217C66.3566 107.293 66.3947 107.366 66.4407 107.435C66.4878 107.505 66.5394 107.569 66.5989 107.627C66.6572 107.686 66.7212 107.738 66.7907 107.784C66.8592 107.83 66.9321 107.87 67.0095 107.902C67.0858 107.934 67.1654 107.957 67.2462 107.974C67.3281 107.99 67.41 107.997 67.493 107.997C67.5761 107.997 67.6591 107.99 67.7399 107.974C67.8218 107.957 67.9014 107.934 67.9777 107.902C68.054 107.87 68.1269 107.83 68.1965 107.784C68.266 107.738 68.33 107.686 68.3883 107.627C68.4466 107.569 68.4994 107.505 68.5454 107.435C68.5914 107.366 68.6306 107.293 68.6632 107.217C68.6946 107.14 68.7181 107.061 68.735 106.979C68.7507 106.898 68.7585 106.815 68.7585 106.732V83.953C68.7585 83.87 68.7507 83.7881 68.735 83.7062C68.7181 83.6254 68.6946 83.5458 68.6621 83.4695C68.6306 83.3921 68.5914 83.3191 68.5454 83.2507C68.4994 83.1811 68.4466 83.1172 68.3883 83.0588C68.33 82.9994 68.266 82.9478 68.1965 82.9007C68.1269 82.8547 68.054 82.8165 67.9777 82.784C67.9014 82.7526 67.8218 82.729 67.7399 82.7122C67.6591 82.6965 67.5761 82.6875 67.493 82.6875Z" fill="white"/>
</g>
<mask id="mask6_6248_2837" style="mask-type:luminance" maskUnits="userSpaceOnUse" x="97" y="78" width="11" height="30">
<path d="M97.7783 78.832H107.992V108.001H97.7783V78.832Z" fill="white"/>
</mask>
<g mask="url(#mask6_6248_2837)">
<path d="M106.726 105.47H102.93V85.5216L103.063 85.7886C103.1 85.8626 103.145 85.9333 103.196 85.9984C103.247 86.0646 103.303 86.124 103.366 86.179C103.429 86.2329 103.496 86.2811 103.569 86.3215C103.641 86.363 103.716 86.3966 103.796 86.4236C103.874 86.4494 103.955 86.4673 104.037 86.4785C104.12 86.4886 104.202 86.4909 104.285 86.4853C104.368 86.4785 104.45 86.4651 104.53 86.4426C104.61 86.4213 104.688 86.3922 104.762 86.354C104.836 86.317 104.907 86.2732 104.972 86.2228C105.038 86.1711 105.097 86.1139 105.152 86.0522C105.206 85.9894 105.254 85.921 105.295 85.8492C105.336 85.7774 105.37 85.7011 105.397 85.6225C105.423 85.544 105.441 85.4632 105.452 85.3802C105.462 85.2983 105.464 85.2153 105.459 85.1323C105.452 85.0504 105.438 84.9685 105.416 84.8877C105.395 84.808 105.365 84.7306 105.327 84.6566L102.796 79.5946C102.69 79.3803 102.534 79.2098 102.33 79.0841C102.127 78.9585 101.904 78.8945 101.664 78.8945C101.425 78.8945 101.203 78.9585 100.999 79.0841C100.796 79.2098 100.64 79.3803 100.532 79.5946L98.0013 84.6566C97.9643 84.7306 97.9351 84.808 97.9127 84.8877C97.8914 84.9685 97.8768 85.0504 97.8712 85.1323C97.8656 85.2153 97.8678 85.2983 97.8779 85.3802C97.888 85.4632 97.9071 85.544 97.9329 85.6225C97.9598 85.7011 97.9935 85.7774 98.0338 85.8492C98.0754 85.921 98.1236 85.9894 98.1774 86.0522C98.2324 86.1139 98.2919 86.1711 98.3581 86.2228C98.4231 86.2732 98.4938 86.317 98.5679 86.354C98.6419 86.3922 98.7193 86.4213 98.799 86.4426C98.8798 86.4651 98.9617 86.4785 99.0436 86.4853C99.1266 86.4909 99.2096 86.4886 99.2915 86.4785C99.3745 86.4673 99.4553 86.4494 99.5338 86.4236C99.6124 86.3966 99.6886 86.363 99.7604 86.3215C99.8322 86.2811 99.9007 86.2329 99.9635 86.179C100.025 86.124 100.082 86.0646 100.134 85.9984C100.185 85.9333 100.228 85.8626 100.265 85.7886L100.399 85.5216V106.735C100.399 106.819 100.408 106.902 100.423 106.982C100.44 107.064 100.464 107.144 100.495 107.22C100.528 107.296 100.566 107.369 100.612 107.439C100.659 107.508 100.711 107.572 100.77 107.631C100.828 107.689 100.892 107.742 100.962 107.788C101.03 107.834 101.103 107.873 101.181 107.905C101.257 107.937 101.337 107.961 101.417 107.977C101.499 107.993 101.581 108.001 101.664 108.001H106.726C106.809 108.001 106.892 107.993 106.973 107.977C107.055 107.961 107.135 107.937 107.211 107.906C107.287 107.873 107.36 107.834 107.43 107.788C107.499 107.742 107.563 107.689 107.622 107.631C107.68 107.572 107.733 107.508 107.779 107.439C107.825 107.369 107.864 107.296 107.896 107.22C107.928 107.144 107.951 107.064 107.968 106.982C107.984 106.902 107.992 106.819 107.992 106.735C107.992 106.652 107.984 106.571 107.968 106.489C107.951 106.408 107.928 106.328 107.896 106.252C107.864 106.175 107.825 106.102 107.779 106.033C107.733 105.964 107.68 105.9 107.622 105.841C107.563 105.782 107.499 105.73 107.43 105.683C107.36 105.637 107.287 105.599 107.211 105.566C107.135 105.535 107.055 105.51 106.973 105.495C106.892 105.479 106.809 105.47 106.726 105.47Z" fill="white"/>
</g>
<mask id="mask7_6248_2837" style="mask-type:luminance" maskUnits="userSpaceOnUse" x="27" y="78" width="11" height="30">
<path d="M27 78.832H37.1778V108.001H27V78.832Z" fill="white"/>
</mask>
<g mask="url(#mask7_6248_2837)">
<path d="M34.4595 79.5946C34.3529 79.3803 34.197 79.2098 33.9928 79.0841C33.7897 78.9585 33.5676 78.8945 33.3275 78.8945C33.0885 78.8945 32.8664 78.9585 32.6622 79.0841C32.4591 79.2098 32.3032 79.3803 32.1955 79.5946L29.6645 84.6566C29.6275 84.7306 29.5983 84.808 29.5759 84.8877C29.5534 84.9685 29.54 85.0504 29.5344 85.1334C29.5276 85.2153 29.5299 85.2983 29.5411 85.3813C29.5512 85.4632 29.5691 85.544 29.5961 85.6237C29.6219 85.7022 29.6555 85.7774 29.697 85.8503C29.7374 85.9221 29.7857 85.9894 29.8406 86.0522C29.8945 86.1151 29.9551 86.1723 30.0201 86.2228C30.0863 86.2744 30.1559 86.3181 30.2299 86.3551C30.3051 86.3922 30.3825 86.4225 30.4622 86.4438C30.5429 86.4662 30.6237 86.4797 30.7067 86.4864C30.7898 86.492 30.8728 86.4898 30.9547 86.4797C31.0377 86.4684 31.1185 86.4505 31.197 86.4236C31.2755 86.3978 31.3518 86.3641 31.4236 86.3226C31.4966 86.2811 31.5639 86.234 31.6267 86.179C31.6895 86.124 31.7456 86.0646 31.7972 85.9984C31.8477 85.9333 31.8915 85.8626 31.9285 85.7886L32.062 85.5216V105.47H28.2655C28.1825 105.47 28.1006 105.479 28.0187 105.495C27.9379 105.51 27.8583 105.535 27.782 105.566C27.7046 105.599 27.6316 105.637 27.5632 105.683C27.4936 105.73 27.4297 105.782 27.3713 105.841C27.3119 105.9 27.2603 105.964 27.2132 106.033C27.1672 106.102 27.129 106.175 27.0965 106.252C27.0651 106.328 27.0415 106.408 27.0247 106.489C27.009 106.571 27 106.652 27 106.735C27 106.819 27.009 106.902 27.0247 106.982C27.0415 107.064 27.0651 107.144 27.0965 107.22C27.129 107.296 27.1672 107.369 27.2132 107.439C27.2603 107.508 27.3119 107.572 27.3713 107.631C27.4297 107.689 27.4936 107.742 27.5632 107.788C27.6316 107.834 27.7046 107.873 27.782 107.906C27.8583 107.937 27.9379 107.961 28.0187 107.977C28.1006 107.993 28.1825 108.001 28.2655 108.001H33.3275C33.4105 108.001 33.4935 107.993 33.5743 107.977C33.6562 107.961 33.7359 107.937 33.8122 107.905C33.8884 107.873 33.9614 107.834 34.0309 107.788C34.1005 107.742 34.1644 107.689 34.2228 107.631C34.2811 107.572 34.3338 107.508 34.3798 107.439C34.4258 107.369 34.4651 107.296 34.4976 107.22C34.529 107.144 34.5526 107.064 34.5694 106.982C34.5851 106.902 34.593 106.819 34.593 106.735V85.5216L34.7265 85.7886C34.7646 85.8626 34.8084 85.9322 34.8589 85.9984C34.9105 86.0634 34.9666 86.124 35.0294 86.1779C35.0922 86.2329 35.1595 86.28 35.2325 86.3215C35.3043 86.3619 35.3794 86.3955 35.4591 86.4225C35.5376 86.4483 35.6184 86.4662 35.7003 86.4774C35.7833 86.4875 35.8652 86.4898 35.9482 86.4842C36.0313 86.4774 36.1132 86.464 36.1928 86.4415C36.2725 86.4202 36.3499 86.3899 36.4239 86.3529C36.4991 86.3159 36.5686 86.2721 36.6337 86.2216C36.6999 86.17 36.7594 86.1139 36.8143 86.0511C36.8682 85.9883 36.9164 85.921 36.9579 85.848C36.9983 85.7762 37.032 85.7011 37.0589 85.6225C37.0847 85.5429 37.1038 85.4632 37.1139 85.3802C37.124 85.2983 37.1262 85.2153 37.1206 85.1323C37.115 85.0493 37.1016 84.9685 37.0791 84.8877C37.0578 84.808 37.0275 84.7306 36.9905 84.6566L34.4595 79.5946Z" fill="white"/>
</g>
<defs>
<filter id="filter0_d_6248_2837" x="0.6" y="0.6" width="140.8" height="140.8" filterUnits="userSpaceOnUse" color-interpolation-filters="sRGB">
<feFlood flood-opacity="0" result="BackgroundImageFix"/>
<feColorMatrix in="SourceAlpha" type="matrix" values="0 0 0 0 0 0 0 0 0 0 0 0 0 0 0 0 0 0 127 0" result="hardAlpha"/>
<feOffset dx="4" dy="3"/>
<feGaussianBlur stdDeviation="5.7"/>
<feComposite in2="hardAlpha" operator="out"/>
<feColorMatrix type="matrix" values="0 0 0 0 0.128333 0 0 0 0 0.119778 0 0 0 0 0.119778 0 0 0 0.25 0"/>
<feBlend mode="normal" in2="BackgroundImageFix" result="effect1_dropShadow_6248_2837"/>
<feBlend mode="normal" in="SourceGraphic" in2="effect1_dropShadow_6248_2837" result="shape"/>
</filter>
</defs>
</svg>
