<svg width="142" height="142" fill="none" xmlns="http://www.w3.org/2000/svg"><g filter="url(#a)"><circle cx="67" cy="68" r="59" fill="#152968"/></g><mask id="b" style="mask-type:luminance" maskUnits="userSpaceOnUse" x="24" y="25" width="87" height="85"><path d="M24 25h86.952v85H24V25Z" fill="#fff"/></mask><g mask="url(#b)"><path d="m83.305 82.803-12.237 7.129a6.78 6.78 0 0 1-1.11.52 5.64 5.64 0 0 0 .245-.715c.67-2.497-.81-5.103-3.367-5.933a1.547 1.547 0 0 0-.183-.046c-3.491-.63-6.95-1.879-9.728-2.884-.97-.351-1.888-.683-2.672-.936-3.25-1.055-6.16.234-8.578 1.633l-8.829 5.113-.7-1.24a3.185 3.185 0 0 0-1.933-1.507 3.18 3.18 0 0 0-2.434.297l-3.433 1.943a3.208 3.208 0 0 0-1.211 4.367L37.23 108.38a3.178 3.178 0 0 0 1.932 1.508 3.18 3.18 0 0 0 2.433-.298l3.434-1.942a3.21 3.21 0 0 0 1.21-4.367l-.887-1.566 1.691-.976 15.548 4.166c.892.239 1.78.358 2.654.358 1.768 0 3.476-.487 5.038-1.449l22.209-13.675c2.163-1.332 2.856-4.68 1.453-7.022-.678-1.132-3.45-4.501-10.64-.314Zm-39.657 22.404-3.433 1.944a.397.397 0 0 1-.304.035.401.401 0 0 1-.241-.186L29.575 89.162a.404.404 0 0 1 .152-.544l3.432-1.945a.392.392 0 0 1 .192-.05.405.405 0 0 1 .354.201L43.8 104.664a.403.403 0 0 1-.152.544Zm47.375-17.456-22.208 13.676c-1.685 1.037-3.535 1.295-5.498.77L47.21 97.88a1.4 1.4 0 0 0-1.063.14l-2.173 1.255-5.746-10.152 8.853-5.125c1.977-1.145 4.11-2.107 6.31-1.394.737.24 1.592.549 2.582.906 2.851 1.031 6.392 2.312 10.08 2.99 1.105.397 1.724 1.463 1.443 2.51-.299 1.115-1.132 1.601-2.478 1.45-1.784-.37-3.485-.854-5.284-1.368-.861-.245-1.75-.5-2.668-.745a1.402 1.402 0 0 0-.725 2.707c.894.24 1.773.491 2.623.734 1.873.536 3.643 1.04 5.555 1.431a.764.764 0 0 0 .056.01l1.522.249c2.351.375 4.439.009 6.382-1.124l12.238-7.129c3.305-1.923 5.92-2.179 6.825-.667.61 1.02.345 2.662-.518 3.193ZM34 89.844a1.226 1.226 0 1 1-2.426.355A1.226 1.226 0 0 1 34 89.844Zm18.81-48.056c.44.86.683 1.333.742 1.66.057.33-.009.857-.129 1.814l-.108.873a4.353 4.353 0 0 0 2.626 4.548c.205.088.395.168.572.242l-3.628 7.794a1.4 1.4 0 0 0 1.511 1.972l3.91-.683L60.3 63.44c.252.434.715.698 1.213.698.02 0 .042 0 .064-.002a1.398 1.398 0 0 0 1.206-.807l3.726-8.003c.44-.128.74-.198.96-.198.333 0 .84.157 1.763.442l.16.05 2.65 6.15a1.403 1.403 0 0 0 2.478.184l2.093-3.373 3.888.797a1.403 1.403 0 0 0 1.569-1.928l-2.942-6.83a4.346 4.346 0 0 0 2.494-4.484c-.038-.325-.075-.614-.107-.873-.12-.958-.187-1.485-.128-1.813.057-.328.3-.802.74-1.66l.4-.783a4.353 4.353 0 0 0-.913-5.172c-.238-.224-.451-.421-.642-.6-.708-.656-1.098-1.017-1.265-1.306-.167-.287-.285-.807-.499-1.748l-.197-.856a4.352 4.352 0 0 0-4.023-3.376l-.878-.046c-.964-.047-1.495-.074-1.808-.188-.313-.113-.737-.435-1.506-1.018l-.701-.53a4.352 4.352 0 0 0-5.252 0l-.702.53c-.77.583-1.193.905-1.506 1.018-.313.114-.845.141-1.81.19-.259.012-.55.026-.876.044a4.351 4.351 0 0 0-4.023 3.377c-.075.318-.139.6-.197.856-.215.94-.333 1.46-.5 1.748-.166.288-.556.65-1.264 1.307a76.49 76.49 0 0 0-.642.598 4.35 4.35 0 0 0-.912 5.172c.147.291.28.55.4.782Zm8.566 17.922-1.135-1.955a1.406 1.406 0 0 0-1.455-.677l-2.226.39 2.337-5.02c.154.223.332.499.556.845.141.22.299.463.477.736a4.352 4.352 0 0 0 3.177 1.962l-1.731 3.72Zm14.842-4.071a1.4 1.4 0 0 0-1.472.634l-1.192 1.92-1.009-2.343a4.359 4.359 0 0 0 2.462-1.82c.18-.273.337-.517.478-.737.525-.81.814-1.257 1.068-1.471a.17.17 0 0 1 .03-.023l1.85 4.293-2.215-.453Zm-20.976-17.76c.234-.22.442-.414.63-.588 1.876-1.74 2.021-1.993 2.591-4.488.057-.25.12-.528.194-.84a1.55 1.55 0 0 1 1.449-1.216c.32-.018.604-.032.86-.044 2.556-.127 2.83-.227 4.869-1.773.204-.154.431-.327.688-.519a1.548 1.548 0 0 1 1.892 0l.689.52c2.04 1.545 2.311 1.645 4.868 1.772.255.012.54.026.86.044.717.04 1.286.518 1.45 1.217.073.311.136.59.193.84.57 2.494.714 2.746 2.59 4.487.19.174.398.367.632.588.523.49.651 1.221.328 1.862-.145.287-.275.54-.392.769-1.168 2.276-1.217 2.562-.9 5.102.033.254.068.537.106.855a1.548 1.548 0 0 1-.946 1.639l-.794.337c-2.358.993-2.58 1.18-3.969 3.33-.138.216-.293.455-.469.723-.393.6-1.09.855-1.777.647l-.825-.252c-1.223-.378-1.906-.566-2.59-.566-.684 0-1.368.188-2.59.566l-.824.252a1.55 1.55 0 0 1-1.779-.647l-.47-.724c-1.387-2.149-1.61-2.336-3.968-3.33-.235-.099-.498-.21-.794-.337a1.547 1.547 0 0 1-.945-1.637c.038-.32.073-.602.106-.856.318-2.54.267-2.825-.9-5.102-.117-.228-.248-.482-.392-.769a1.547 1.547 0 0 1 .329-1.862Zm12.227 12.515c5.373 0 9.743-4.37 9.743-9.743 0-5.372-4.37-9.744-9.743-9.744-5.372 0-9.742 4.372-9.742 9.744 0 5.373 4.37 9.743 9.742 9.743Zm0-16.682c3.827 0 6.94 3.113 6.94 6.939 0 3.827-3.113 6.94-6.94 6.94a6.947 6.947 0 0 1-6.94-6.94 6.948 6.948 0 0 1 6.94-6.94Zm-2.625 10.452-2.288-2.288a1.402 1.402 0 0 1 1.983-1.982l1.343 1.342 4.566-4.144a1.4 1.4 0 1 1 1.885 2.077l-5.556 5.04a1.403 1.403 0 0 1-1.933-.046Zm33.534-4.986c-6.915 0-12.54 5.626-12.54 12.54 0 6.917 5.625 12.543 12.54 12.543 6.915 0 12.542-5.626 12.542-12.542 0-6.915-5.627-12.541-12.542-12.541Zm0 22.28c-5.369 0-9.738-4.369-9.738-9.74 0-5.368 4.37-9.737 9.738-9.737 5.371 0 9.739 4.369 9.739 9.738 0 5.37-4.368 9.74-9.739 9.74Zm4.946-7.3c.128 1.057-.158 2.024-.827 2.8-.632.73-1.602 1.254-2.716 1.493v.318a1.401 1.401 0 1 1-2.803 0v-.342c-1.766-.434-3.11-1.673-3.534-3.372a1.401 1.401 0 0 1 2.72-.678c.27 1.079 1.418 1.44 2.326 1.415.785-.018 1.562-.294 1.886-.67.104-.12.206-.29.165-.626-.039-.318-.129-1.065-2.38-1.434-3.68-.604-4.327-2.7-4.385-3.895-.094-1.94 1.182-3.57 3.2-4.129v-.368a1.402 1.402 0 0 1 2.805 0v.355c1.3.346 2.517 1.214 3.169 2.767a1.4 1.4 0 1 1-2.584 1.086c-.527-1.255-1.834-1.325-2.522-1.168-.31.07-1.314.371-1.267 1.32.011.258.044.938 2.04 1.267 2.87.47 4.454 1.77 4.707 3.861ZM36.56 64.261c6.915 0 12.541-5.626 12.541-12.542 0-6.915-5.626-12.541-12.54-12.541-6.917 0-12.543 5.626-12.543 12.54 0 6.917 5.626 12.543 12.542 12.543Zm0-22.28c5.37 0 9.738 4.369 9.738 9.738 0 5.37-4.369 9.74-9.738 9.74-5.37 0-9.738-4.37-9.738-9.74s4.368-9.738 9.738-9.738Zm-5.527 14.573a1.7 1.7 0 0 0 .646 1.836c.58.422 1.344.441 1.946.047l2.935-1.921 2.935 1.922a1.707 1.707 0 0 0 1.945-.048 1.701 1.701 0 0 0 .647-1.836l-.92-3.385 2.733-2.197a1.7 1.7 0 0 0 .556-1.865 1.701 1.701 0 0 0-1.546-1.183l-3.502-.17-1.246-3.28a1.7 1.7 0 0 0-1.602-1.104 1.7 1.7 0 0 0-1.602 1.104l-1.245 3.28-3.503.17c-.718.035-1.325.5-1.547 1.183a1.7 1.7 0 0 0 .557 1.865l2.733 2.197-.92 3.385Zm3.528-6.035a1.716 1.716 0 0 0 1.52-1.104l.48-1.262.479 1.263c.242.636.838 1.07 1.518 1.103l1.35.065-1.053.846a1.716 1.716 0 0 0-.581 1.786l.355 1.303-1.13-.739a1.712 1.712 0 0 0-1.878 0l-1.13.74.354-1.305a1.711 1.711 0 0 0-.58-1.785l-1.052-.846 1.348-.065Zm18.196 23.646a1.402 1.402 0 0 1-1.982 1.982l-6.655-6.654a1.402 1.402 0 0 1 1.983-1.982l6.654 6.654Zm14.712-8.443c.775 0 1.402.627 1.402 1.402v9.41a1.401 1.401 0 1 1-2.803 0v-9.41c0-.775.627-1.402 1.4-1.402Zm14.713 8.443 6.654-6.654a1.402 1.402 0 0 1 1.982 1.982l-6.654 6.654a1.398 1.398 0 0 1-1.982 0 1.402 1.402 0 0 1 0-1.982Z" fill="#fff"/></g><defs><filter id="a" x=".6" y=".6" width="140.8" height="140.8" filterUnits="userSpaceOnUse" color-interpolation-filters="sRGB"><feFlood flood-opacity="0" result="BackgroundImageFix"/><feColorMatrix in="SourceAlpha" values="0 0 0 0 0 0 0 0 0 0 0 0 0 0 0 0 0 0 127 0" result="hardAlpha"/><feOffset dx="4" dy="3"/><feGaussianBlur stdDeviation="5.7"/><feComposite in2="hardAlpha" operator="out"/><feColorMatrix values="0 0 0 0 0.128333 0 0 0 0 0.119778 0 0 0 0 0.119778 0 0 0 0.25 0"/><feBlend in2="BackgroundImageFix" result="effect1_dropShadow_6248_2839"/><feBlend in="SourceGraphic" in2="effect1_dropShadow_6248_2839" result="shape"/></filter></defs></svg>