<svg width="683" height="684" fill="none" xmlns="http://www.w3.org/2000/svg"><path d="M177.359 37.85c167.845-90.51 364.458 18.136 421.193 82.847 16.186 18.45 72.416 84.44 81.149 185.346 8.611 99.382-33.722 237.327-146.304 315.725-138.241 96.264-348.072 81.341-458.93-48.167-117.936-137.763-56.334-326.313-50.37-343.64 9.44-27.375 46.34-134.454 153.262-192.112Z" fill="#CADDFF"/><path d="M115.312 145.587c1.55-.514 144.162-144.345 144.162-144.345l55.255 25.433h-45.477L167.31 128.478l-51.998 26.574v-9.465Z" fill="#fff"/><path d="M116.548 146.105v6.922l50.03-25.572L268.39 25.792c.226-.227.539-.357.87-.357h39.844L259.743 2.718c-4.867 4.902-37.997 38.302-70.892 71.363-57.963 58.241-69.665 69.691-72.303 72.024Zm-1.236 10.17a1.15 1.15 0 0 1-.645-.183 1.22 1.22 0 0 1-.592-1.045v-9.473c0-.435.235-.836.601-1.053 3.587-2.83 95.612-95.438 143.927-144.154.366-.374.923-.47 1.393-.252l55.255 25.433c.531.244.818.819.688 1.385a1.23 1.23 0 0 1-1.202.966h-44.972L168.189 129.344c-.096.087-.2.166-.313.218l-51.998 26.583c-.175.087-.375.13-.566.13Z" fill="#5479F7"/><path d="M86.71 114.237v-12.312l33.748-61.437v73.749H86.71Z" fill="#fff"/><path d="M87.937 113.001h31.285V45.304l-31.285 56.935v10.762Zm32.521 2.473H86.71a1.236 1.236 0 0 1-1.237-1.237v-12.312c0-.209.052-.409.148-.592l33.757-61.436c.27-.488.845-.74 1.385-.601.548.14.931.636.931 1.193v73.748c0 .679-.557 1.237-1.236 1.237Z" fill="#5479F7"/><path d="M86.7 225.745V166.59h33.758v59.155H86.701Z" fill="#99B9FF"/><path d="M87.937 224.51h31.285v-56.683H87.937v56.683Zm32.521 2.464H86.701c-.68 0-1.228-.548-1.228-1.228V166.6c0-.688.549-1.237 1.228-1.237h33.757c.679 0 1.236.549 1.236 1.237v59.146c0 .68-.557 1.228-1.236 1.228Z" fill="#5479F7"/><path d="M144.872 303.351v-93.835h25.155v93.835h-25.155Z" fill="#fff"/><path d="M146.109 302.129h22.682v-91.371h-22.682v91.371Zm23.918 2.464h-25.154a1.236 1.236 0 0 1-1.237-1.236v-93.835c0-.68.549-1.237 1.237-1.237h25.154c.679 0 1.228.557 1.228 1.237v93.835c0 .679-.549 1.236-1.228 1.236Z" fill="#5479F7"/><path d="M37.141 303.637v-93.844h25.155v93.844H37.14Z" fill="#fff"/><path d="M38.377 302.394H61.06v-91.371H38.377v91.371Zm23.918 2.464H37.141a1.228 1.228 0 0 1-1.237-1.228v-93.844c0-.679.549-1.227 1.237-1.227h25.154c.68 0 1.237.548 1.237 1.227v93.844c0 .68-.558 1.228-1.237 1.228Z" fill="#5479F7"/><path d="M120.458 155.047H21.416v-53.121h99.042v53.121Z" fill="#fff"/><path d="M22.652 153.808h96.57v-50.649h-96.57v50.649Zm97.806 2.473H21.416c-.68 0-1.228-.557-1.228-1.237v-53.121c0-.679.549-1.228 1.228-1.228h99.042c.679 0 1.236.549 1.236 1.228v53.121a1.24 1.24 0 0 1-1.236 1.237Z" fill="#5479F7"/><path d="M64.324 140.194h-23.44v-23.413h23.44v23.413ZM104.385 140.194h-23.44v-23.413h23.44v23.413ZM140.467 178.012H21.416v-22.969h119.051v22.969Z" fill="#99B9FF"/><path d="M22.652 176.782H139.23v-20.497H22.652v20.497Zm117.815 2.472H21.416c-.68 0-1.228-.557-1.228-1.236v-22.969c0-.679.549-1.237 1.228-1.237h119.051c.687 0 1.236.558 1.236 1.237v22.969c0 .679-.549 1.236-1.236 1.236Z" fill="#5479F7"/><path d="M170.028 226.373H37.141v-33.705h132.887v33.705Z" fill="#99B9FF"/><path d="M38.377 225.138h130.414v-31.24H38.377v31.24Zm131.65 2.473H37.141a1.235 1.235 0 0 1-1.237-1.236V192.67c0-.679.549-1.236 1.237-1.236h132.886c.679 0 1.228.557 1.228 1.236v33.705c0 .679-.549 1.236-1.228 1.236ZM120.458 41.727c-.54 0-1.036-.348-1.184-.897a1.228 1.228 0 0 1 .845-1.524L259.143.046a1.23 1.23 0 1 1 .671 2.368l-139.016 39.27a1.518 1.518 0 0 1-.34.043ZM321.511 54.764h-13.556V33.867h13.556v20.897Z" fill="#5479F7"/><path d="M315.094 73.906c-4.397 0-7.975-3.58-7.975-7.976 0-.67.548-1.228 1.236-1.228a1.24 1.24 0 0 1 1.236 1.228 5.504 5.504 0 0 0 5.503 5.503c3.039 0 5.512-2.464 5.512-5.503 0-3.021-2.473-5.494-5.512-5.494a1.235 1.235 0 0 1-1.236-1.237V26.67a1.236 1.236 0 1 1 2.473 0v31.398c3.813.592 6.748 3.9 6.748 7.862 0 4.397-3.579 7.975-7.985 7.975Z" fill="#5479F7"/><path d="M443.941 237.533h-95.22V114.242l95.22 2.412v120.879Z" fill="#99B9FF"/><path d="M349.958 236.3h92.747V117.85l-92.747-2.351V236.3Zm93.983 2.465h-95.22a1.236 1.236 0 0 1-1.236-1.237V114.237a1.232 1.232 0 0 1 1.271-1.237l95.211 2.412a1.235 1.235 0 0 1 1.202 1.237v120.879c0 .688-.549 1.237-1.228 1.237Z" fill="#5479F7"/><path d="M363.105 224.087a1.23 1.23 0 0 1-1.237-1.237v-95.977c0-.679.549-1.236 1.237-1.236.679 0 1.227.557 1.227 1.236v95.977c0 .688-.548 1.237-1.227 1.237ZM379.875 224.086a1.229 1.229 0 0 1-1.237-1.228v-47.993a1.236 1.236 0 1 1 2.473 0v47.993c0 .679-.557 1.228-1.236 1.228ZM396.749 224.093c-.68 0-1.237-.557-1.237-1.237v-29.342c0-.688.557-1.237 1.237-1.237a1.23 1.23 0 0 1 1.236 1.237v29.342c0 .68-.549 1.237-1.236 1.237ZM379.875 153.637a1.229 1.229 0 0 1-1.237-1.228v-14.192c0-.679.549-1.237 1.237-1.237.679 0 1.227.558 1.227 1.237v14.192c0 .679-.548 1.228-1.227 1.228Z" fill="#5479F7"/><path d="M348.721 237.533V114.242l-134.846 18.259v109.264l134.846-4.232Z" fill="#fff"/><path d="M215.112 133.567v106.922l132.373-4.153V115.648l-132.373 17.919Zm-1.236 109.43a1.23 1.23 0 0 1-.862-.349 1.248 1.248 0 0 1-.375-.888V132.496c0-.618.462-1.141 1.071-1.228l134.846-18.258a1.25 1.25 0 0 1 .975.296c.27.235.426.574.426.931v123.3a1.23 1.23 0 0 1-1.192 1.228l-134.846 4.232h-.043Z" fill="#5479F7"/><path d="M334.754 224.096a1.236 1.236 0 0 1-1.236-1.236v-94.889a1.236 1.236 0 1 1 2.473 0v94.889a1.24 1.24 0 0 1-1.237 1.236ZM319.343 224.091a1.233 1.233 0 0 1-1.236-1.227v-92.835a1.24 1.24 0 0 1 1.236-1.236c.679 0 1.237.557 1.237 1.236v92.835c0 .679-.558 1.227-1.237 1.227ZM303.932 225.268a1.236 1.236 0 0 1-1.237-1.236v-91.964c0-.679.558-1.236 1.237-1.236.688 0 1.236.557 1.236 1.236v91.964a1.23 1.23 0 0 1-1.236 1.236ZM288.529 225.269a1.24 1.24 0 0 1-1.236-1.236v-89.918a1.24 1.24 0 0 1 1.236-1.236c.68 0 1.237.557 1.237 1.236v89.918a1.24 1.24 0 0 1-1.237 1.236ZM273.118 184.602a1.24 1.24 0 0 1-1.236-1.236v-47.192c0-.688.557-1.236 1.236-1.236a1.23 1.23 0 0 1 1.237 1.236v47.192c0 .679-.549 1.236-1.237 1.236ZM273.118 225.269a1.235 1.235 0 0 1-1.236-1.236v-17.676a1.236 1.236 0 1 1 2.473 0v17.676a1.23 1.23 0 0 1-1.237 1.236ZM257.715 167.829a1.237 1.237 0 0 1-1.245-1.236v-28.376c0-.679.557-1.237 1.245-1.237.679 0 1.228.558 1.228 1.237v28.376c0 .688-.549 1.236-1.228 1.236ZM242.304 167.521a1.236 1.236 0 0 1-1.236-1.237v-26.016c0-.68.557-1.237 1.236-1.237.679 0 1.237.557 1.237 1.237v26.016c0 .688-.558 1.237-1.237 1.237ZM242.304 227.613a1.227 1.227 0 0 1-1.236-1.227v-26.025c0-.68.548-1.228 1.236-1.228.679 0 1.228.548 1.228 1.228v26.025c0 .679-.549 1.227-1.228 1.227ZM226.893 227.604c-.68 0-1.237-.548-1.237-1.227v-84.075c0-.679.557-1.228 1.237-1.228.679 0 1.236.549 1.236 1.228v84.075c0 .679-.557 1.227-1.236 1.227Z" fill="#99B9FF"/><path d="M348.721 115.473c-.4 0-.783-.191-1.018-.54l-26.879-39.242a1.242 1.242 0 0 1 .313-1.724 1.244 1.244 0 0 1 1.724.33l26.879 39.243a1.24 1.24 0 0 1-1.019 1.933ZM276.27 118.017c-.296 0-.583-.095-.819-.304a1.24 1.24 0 0 1-.104-1.75l31.685-35.656a1.23 1.23 0 0 1 1.741-.104c.505.453.557 1.228.105 1.741l-31.685 35.664c-.244.27-.584.409-.923.409Z" fill="#5479F7"/><path d="M213.875 133.727c-.391 0-.783-.192-1.027-.549a1.233 1.233 0 0 1 .34-1.706L314.05 64.114c.339-.226.757-.27 1.14-.122l129.203 51.276c.636.253.941.967.697 1.602a1.241 1.241 0 0 1-1.611.688L314.877 66.526l-100.314 66.992a1.183 1.183 0 0 1-.688.209Z" fill="#5479F7"/><path d="M494.555 383.609h-95.742v-123.3l95.742 2.411v120.889Z" fill="#99B9FF"/><path d="M400.04 382.37h93.278V263.92l-93.278-2.351V382.37Zm94.514 2.464h-95.742a1.236 1.236 0 0 1-1.245-1.228v-123.3c0-.331.139-.653.383-.879.235-.235.549-.357.888-.348l95.751 2.403a1.234 1.234 0 0 1 1.202 1.236v120.888c0 .679-.549 1.228-1.237 1.228Z" fill="#5479F7"/><path d="M398.812 383.609v-123.3l-134.314 10.465v106.078l134.314 6.757Z" fill="#fff"/><path d="m265.735 375.672 131.841 6.626V261.636L265.735 271.91v103.762Zm133.078 9.16h-.061l-134.315-6.757a1.226 1.226 0 0 1-1.166-1.228V270.77c0-.645.496-1.176 1.131-1.228l134.315-10.466c.339-.035.679.087.931.322.253.235.401.558.401.906v123.3c0 .331-.139.653-.392.888a1.22 1.22 0 0 1-.844.34Z" fill="#5479F7"/><path d="M386.004 298.962a1.236 1.236 0 0 1-1.236-1.237v-24.606c0-.679.548-1.236 1.236-1.236.679 0 1.228.557 1.228 1.236v24.606c0 .679-.549 1.237-1.228 1.237ZM370.315 298.968a1.24 1.24 0 0 1-1.237-1.236v-22.656a1.236 1.236 0 1 1 2.473 0v22.656c0 .679-.549 1.236-1.236 1.236ZM355.277 295.451a1.242 1.242 0 0 1-1.236-1.237v-19.138a1.24 1.24 0 0 1 1.236-1.236c.68 0 1.237.557 1.237 1.236v19.138c0 .679-.557 1.237-1.237 1.237ZM339.588 292.272c-.68 0-1.228-.549-1.228-1.236V275.72c0-.679.548-1.228 1.228-1.228.679 0 1.236.549 1.236 1.228v15.316c0 .687-.557 1.236-1.236 1.236ZM309.835 292.272a1.236 1.236 0 0 1-1.236-1.237V277.67a1.24 1.24 0 0 1 1.236-1.236 1.24 1.24 0 0 1 1.236 1.236v13.365c0 .688-.557 1.237-1.236 1.237ZM294.207 287.64a1.237 1.237 0 0 1-1.237-1.237v-8.733c0-.679.549-1.236 1.237-1.236.679 0 1.227.557 1.227 1.236v8.733c0 .679-.548 1.237-1.227 1.237ZM680.179 257.931H570.323V115.676l109.856 2.786v139.469Z" fill="#99B9FF"/><path d="M571.56 256.701h107.392v-137.04l-107.392-2.716v139.756Zm108.62 2.473H570.323a1.248 1.248 0 0 1-1.236-1.245V115.673c0-.322.139-.644.374-.879.244-.235.558-.357.897-.348l109.848 2.777c.679.026 1.21.566 1.21 1.237v139.469c0 .679-.557 1.245-1.236 1.245Z" fill="#5479F7"/><path d="M570.323 257.93V115.684l-155.576 21.062v123.883l155.576-2.699Z" fill="#fff"/><path d="M415.983 137.815v123.666l153.112-11.886V117.083l-153.112 20.732Zm-1.237 126.234c-.305 0-.609-.113-.836-.331a1.233 1.233 0 0 1-.4-.905V136.744c0-.618.461-1.141 1.071-1.228l155.585-21.062c.34-.052.706.061.967.296.27.226.426.566.426.923v135.054c0 .645-.487 1.185-1.131 1.237L414.842 264.04c-.035.009-.061.009-.096.009ZM587.711 236.897c-.68 0-1.237-.549-1.237-1.228V131.525c0-.68.557-1.228 1.237-1.228.679 0 1.236.548 1.236 1.228v104.144c0 .679-.557 1.228-1.236 1.228ZM606.144 236.898c-.68 0-1.237-.549-1.237-1.237V131.525a1.236 1.236 0 1 1 2.473 0v104.136a1.23 1.23 0 0 1-1.236 1.237ZM624.577 203.213a1.234 1.234 0 0 1-1.228-1.236v-69.073c0-.687.549-1.236 1.228-1.236a1.23 1.23 0 0 1 1.236 1.236v69.073c0 .679-.548 1.236-1.236 1.236ZM643.009 238.268a1.235 1.235 0 0 1-1.237-1.228V132.904a1.236 1.236 0 0 1 2.473 0V237.04c0 .679-.557 1.228-1.236 1.228ZM661.442 238.268a1.228 1.228 0 0 1-1.236-1.228V132.904c0-.679.548-1.236 1.236-1.236.679 0 1.237.557 1.237 1.236V237.04c0 .679-.558 1.228-1.237 1.228Z" fill="#5479F7"/><path d="M554.207 239.658a1.24 1.24 0 0 1-1.228-1.237V131.525c0-.679.557-1.236 1.228-1.236.688 0 1.245.557 1.245 1.236v106.896c0 .68-.557 1.237-1.245 1.237ZM536.436 241.973a1.234 1.234 0 0 1-1.228-1.237V133.893c0-.688.549-1.237 1.228-1.237.679 0 1.236.549 1.236 1.237v106.843a1.24 1.24 0 0 1-1.236 1.237ZM518.655 243.422a1.236 1.236 0 0 1-1.236-1.237V136.247c0-.679.557-1.227 1.236-1.227.688 0 1.237.548 1.237 1.227v105.938a1.23 1.23 0 0 1-1.237 1.237ZM500.877 218.702a1.23 1.23 0 0 1-1.236-1.237v-78.842a1.235 1.235 0 1 1 2.472 0v78.842c0 .688-.557 1.237-1.236 1.237ZM483.096 246.35a1.234 1.234 0 0 1-1.228-1.236V140.978c0-.679.549-1.228 1.228-1.228.688 0 1.236.549 1.236 1.228v104.136c0 .679-.548 1.236-1.236 1.236ZM465.317 246.353a1.229 1.229 0 0 1-1.228-1.237v-27.653c0-.679.549-1.236 1.228-1.236.688 0 1.236.557 1.236 1.236v27.653a1.23 1.23 0 0 1-1.236 1.237ZM465.316 190.477a1.234 1.234 0 0 1-1.236-1.228v-45.903a1.237 1.237 0 1 1 2.473 0v45.903c0 .679-.549 1.228-1.237 1.228ZM447.536 247.638a1.234 1.234 0 0 1-1.227-1.237v-16.926c0-.688.548-1.237 1.227-1.237.688 0 1.245.549 1.245 1.237v16.926c0 .679-.557 1.237-1.245 1.237ZM447.536 213.702a1.225 1.225 0 0 1-1.227-1.228v-66.765c0-.679.548-1.236 1.227-1.236.688 0 1.237.557 1.237 1.236v66.765c0 .68-.549 1.228-1.237 1.228ZM429.766 249.94a1.235 1.235 0 0 1-1.237-1.228V148.076c0-.679.558-1.236 1.237-1.236a1.24 1.24 0 0 1 1.236 1.236v100.636c0 .679-.557 1.228-1.236 1.228ZM680.179 392.876H569.704V250.621l110.475 2.778v139.477Z" fill="#99B9FF"/><path d="M570.941 391.65h108.011V254.619l-108.011-2.726V391.65Zm109.239 2.472H569.705a1.234 1.234 0 0 1-1.228-1.236V250.631c0-.34.131-.653.375-.888.235-.227.557-.348.888-.348l110.466 2.786c.679.017 1.21.566 1.21 1.227v139.478a1.24 1.24 0 0 1-1.236 1.236Z" fill="#5479F7"/><path d="M587.711 327.892c-.68 0-1.237-.558-1.237-1.237v-57.84c0-.68.557-1.237 1.237-1.237a1.24 1.24 0 0 1 1.236 1.237v57.84c0 .679-.557 1.237-1.236 1.237ZM606.144 330.321c-.68 0-1.237-.549-1.237-1.228v-60.287c0-.679.557-1.228 1.237-1.228.687 0 1.236.549 1.236 1.228v60.287c0 .679-.549 1.228-1.236 1.228ZM624.577 374.185a1.228 1.228 0 0 1-1.228-1.236V270.197c0-.679.549-1.236 1.228-1.236.688 0 1.236.557 1.236 1.236v102.752a1.23 1.23 0 0 1-1.236 1.236ZM643.009 375.57a1.242 1.242 0 0 1-1.237-1.237V270.197c0-.679.558-1.236 1.237-1.236a1.24 1.24 0 0 1 1.236 1.236v104.136c0 .679-.557 1.237-1.236 1.237ZM661.442 375.567a1.235 1.235 0 0 1-1.236-1.237v-72.816a1.23 1.23 0 0 1 1.236-1.237c.679 0 1.237.549 1.237 1.237v72.816c0 .68-.558 1.237-1.237 1.237Z" fill="#5479F7"/><path d="M569.714 392.876V250.621l-154.967 12.077v122.385l154.967 7.793Z" fill="#fff"/><path d="M554.207 326.679a1.231 1.231 0 0 1-1.228-1.228V262.97c0-.679.557-1.228 1.228-1.228.688 0 1.245.549 1.245 1.228v62.481c0 .68-.557 1.228-1.245 1.228ZM536.435 295.446a1.23 1.23 0 0 1-1.236-1.236v-28.873c0-.679.548-1.228 1.236-1.228.679 0 1.228.549 1.228 1.228v28.873c0 .687-.549 1.236-1.228 1.236ZM518.655 321.91a1.235 1.235 0 0 1-1.236-1.236v-52.965a1.23 1.23 0 0 1 1.236-1.236c.679 0 1.228.548 1.228 1.236v52.965c0 .679-.549 1.236-1.228 1.236ZM500.877 320.005a1.24 1.24 0 0 1-1.236-1.236v-49.526c0-.679.557-1.227 1.236-1.227.679 0 1.236.548 1.236 1.227v49.526a1.24 1.24 0 0 1-1.236 1.236ZM483.105 317.656a1.23 1.23 0 0 1-1.237-1.236v-45.625c0-.679.549-1.236 1.237-1.236.679 0 1.227.557 1.227 1.236v45.625c0 .688-.548 1.236-1.227 1.236ZM465.317 313.209a1.234 1.234 0 0 1-1.228-1.236v-20.941c0-.679.549-1.227 1.228-1.227.688 0 1.236.548 1.236 1.227v20.941c0 .679-.548 1.236-1.236 1.236ZM447.536 311.085a1.233 1.233 0 0 1-1.227-1.236v-36.805c0-.679.548-1.228 1.227-1.228.688 0 1.245.549 1.245 1.228v36.805c0 .679-.557 1.236-1.245 1.236ZM429.766 307.894a1.236 1.236 0 0 1-1.237-1.236v-32.886c0-.68.558-1.237 1.237-1.237a1.24 1.24 0 0 1 1.236 1.237v32.886c0 .688-.557 1.236-1.236 1.236Z" fill="#99B9FF"/><path d="m415.983 383.915 152.494 7.671V251.96l-152.494 11.885v120.07Zm153.731 10.205c-.027 0-.044 0-.07-.009l-154.959-7.793a1.233 1.233 0 0 1-1.175-1.228V262.705a1.24 1.24 0 0 1 1.14-1.228L569.618 249.4c.339-.034.679.087.931.323.253.235.392.557.392.905v142.255c0 .331-.13.662-.383.897-.226.209-.531.34-.844.34Z" fill="#5479F7"/><path d="M48.904 613.368h20.4V259.219L7.537 275.37C.484 320.333-4.47 383.929 6.092 458.696a621.275 621.275 0 0 0 42.812 154.672Z" fill="#fff"/><path d="M69.304 614.598h-20.4a1.228 1.228 0 0 1-1.237-1.227 1.23 1.23 0 0 1 1.237-1.237h19.164v-351.31L7.85 276.566a1.24 1.24 0 0 1-1.506-.879 1.237 1.237 0 0 1 .88-1.507l61.767-16.142a1.206 1.206 0 0 1 1.07.209c.306.235.48.6.48.975v354.149c0 .679-.549 1.227-1.237 1.227Z" fill="#252525"/><path d="M598.943 613.368H69.303V259.219l529.64 82.063v272.086Z" fill="#99B9FF"/><path d="M97.828 339.781v273.583h149.639V359.328L97.828 339.781ZM247.467 338.501v-27.697L97.828 286.703v30.039l149.639 21.759ZM455.992 386.562v226.801h114.244V401.486l-114.244-14.924ZM570.236 385.423V363.02l-114.244-18.485v24.275l114.244 16.613ZM286.17 364.383v248.985h133.47V381.823l-133.47-17.44ZM419.64 363.527V338.66l-133.47-21.594v27.062l133.47 19.399Z" fill="#5479F7"/><path d="M126.692 614.596H69.304c-.679 0-1.236-.548-1.236-1.228v-354.14c0-.357.165-.705.435-.94.279-.235.636-.34.993-.279l529.639 82.046c.6.096 1.044.619 1.044 1.228v73.183a1.23 1.23 0 0 1-1.236 1.236 1.229 1.229 0 0 1-1.228-1.236v-72.129L70.541 260.665v351.467h56.151a1.23 1.23 0 0 1 1.237 1.236c0 .68-.549 1.228-1.237 1.228Z" fill="#252525"/><path d="M465.098 579.297H455.051c-4.11 0-7.436 9.778-7.436 21.802 0 12.016 3.326 21.803 7.436 21.803H465.098c4.11 0 7.436-9.778 7.436-21.803 0-12.024-3.326-21.802-7.436-21.802Z" fill="#5479F7"/><path d="M543.2 611.782v-146.13l-201.166 25.86v111.345l201.166 8.925Z" fill="#5479F7"/><path d="m517.253 574.191 6.278 5.869-1.715 39.591c-.096 2.272 1.715 4.17 3.979 4.17h35.464v-49.508l-44.006-.122Z" fill="#5479F7"/><path d="M627.502 575.494H510.201V424.453h117.301v151.041Z" fill="#99B9FF"/><path d="M627.502 576.724h-18.755a1.235 1.235 0 0 1-1.236-1.236c0-.679.557-1.237 1.236-1.237h17.519V425.675H511.438v149.813c0 .688-.557 1.236-1.237 1.236a1.235 1.235 0 0 1-1.236-1.236V424.447a1.24 1.24 0 0 1 1.236-1.236h117.301c.679 0 1.237.557 1.237 1.236v151.041c0 .688-.558 1.236-1.237 1.236ZM553.353 588.5h-11.606c-4.746 0-8.594 11.293-8.594 25.181 0 13.887 3.848 25.18 8.594 25.18h11.606c4.745 0 8.594-11.293 8.594-25.18 0-13.888-3.849-25.181-8.594-25.181Z" fill="#5479F7"/><path d="M550.34 613.838c0 13.879-3.848 25.137-8.594 25.137-4.736 0-8.585-11.258-8.585-25.137 0-13.896 3.849-25.154 8.585-25.154 4.746 0 8.594 11.258 8.594 25.154Z" fill="#99B9FF"/><path d="M648.059 587.277h-11.606c-4.745 0-8.594 11.293-8.594 25.172 0 13.897 3.849 25.19 8.594 25.19h11.606c4.746 0 8.594-11.293 8.594-25.181 0-13.888-3.848-25.181-8.594-25.181Z" fill="#5479F7"/><path d="M644.82 612.497c0 13.888-3.848 25.146-8.585 25.146-4.745 0-8.594-11.258-8.594-25.146 0-13.887 3.849-25.145 8.594-25.145 4.737 0 8.585 11.258 8.585 25.145Z" fill="#99B9FF"/><path d="m517.001 469.84-.348 104.945 3.962 3.335a6.148 6.148 0 0 1 2.176 4.955l-1.637 37.805c-.061 1.611 1.211 2.961 2.813 2.961 1.21 0 2.342-.009 2.342-.044 0-23.613 4.44-42.969 10.187-42.969 5.747 0 10.405 19.138 10.405 42.752 0 .078 13.748.243 13.748.243V470.275l-43.648-.435Z" fill="#fff"/><path d="M658.412 469.996h-97.005v153.827h105.224c3.143 0 5.677-2.551 5.677-5.712v-49.325c0-13.705-1.202-27.375-3.596-40.862l-10.3-57.928Z" fill="#99B9FF"/><path d="M562.643 622.597h103.988c2.456 0 4.45-2.011 4.45-4.484v-49.325c0-13.592-1.202-27.262-3.588-40.644l-10.109-56.918h-94.741v151.371Zm103.988 2.464H561.407a1.24 1.24 0 0 1-1.236-1.236V469.989c0-.679.557-1.227 1.236-1.227h97.005a1.24 1.24 0 0 1 1.219 1.018l10.3 57.928a235.553 235.553 0 0 1 3.622 41.08v49.325c0 3.831-3.108 6.948-6.922 6.948Z" fill="#5479F7"/><path d="m545.116 538.995 5.111.879c1.681.287 3.222-1.019 3.222-2.734v-31.868c0-2.176-1.75-3.944-3.909-3.944h-7.097c-1.811 0-3.265 1.48-3.265 3.291v27.288c0 3.5 2.508 6.496 5.938 7.088Z" fill="#CADDFF"/><path d="M542.443 502.562c-1.123 0-2.029.923-2.029 2.055v27.287a5.94 5.94 0 0 0 4.92 5.878l5.102.87c.444.079.888-.043 1.228-.331.348-.296.557-.722.557-1.184V505.27a2.695 2.695 0 0 0-2.69-2.708h-7.088Zm8.254 38.581c-.226 0-.461-.018-.679-.061l-5.102-.871a8.4 8.4 0 0 1-6.974-8.307v-27.287c0-2.491 2.02-4.519 4.501-4.519h7.088c2.847 0 5.154 2.316 5.154 5.172v31.867a3.964 3.964 0 0 1-1.428 3.065 3.923 3.923 0 0 1-2.56.941Z" fill="#5479F7"/><path d="M510.21 575.494V424.453L332.299 445.89v129.769l177.911-.165ZM645.247 469.696H517.341l5.746-26.905c1.08-5.12 5.877-8.803 11.45-8.803h96.395c4.354 0 8.08 2.926 8.847 6.94l5.468 28.768Z" fill="#fff"/><path d="M518.873 468.469h124.885l-5.198-27.305c-.653-3.439-3.857-5.938-7.627-5.938h-96.396c-4.971 0-9.281 3.291-10.248 7.819l-5.416 25.424Zm126.374 2.464H517.341a1.23 1.23 0 0 1-.958-.453 1.27 1.27 0 0 1-.252-1.036l5.746-26.913c1.211-5.66 6.531-9.769 12.66-9.769h96.396c4.954 0 9.186 3.335 10.056 7.941l5.468 28.767c.07.357-.026.732-.261 1.019a1.245 1.245 0 0 1-.949.444Z" fill="#5479F7"/><path d="M639.779 440.928c-.766-4.014-4.493-6.94-8.846-6.94h-96.396c-2.621 0-5.067.827-7.035 2.229l41.802 33.479h75.943l-5.468-28.768Z" fill="#99B9FF"/><path d="M569.739 468.469h74.019l-5.199-27.305c-.653-3.439-3.857-5.938-7.627-5.938h-96.395c-1.724 0-3.387.392-4.885 1.132l40.087 32.111Zm75.507 2.464h-75.933c-.288 0-.558-.096-.775-.27l-41.82-33.487a1.244 1.244 0 0 1-.462-.992 1.27 1.27 0 0 1 .523-.976c2.264-1.602 4.945-2.446 7.758-2.446h96.395c4.954 0 9.186 3.335 10.057 7.941l5.468 28.767c.069.357-.026.732-.262 1.019a1.245 1.245 0 0 1-.949.444Z" fill="#5479F7"/><path d="M575.103 498.363h75.551c3.578 0 6.617 2.578 7.244 6.113l6.417 36.787c.627 3.552-2.09 6.809-5.677 6.809h-85.111c-3.187 0-5.773-2.604-5.773-5.799v-36.517c0-4.084 3.292-7.393 7.349-7.393Z" fill="#99B9FF"/><path d="M624.942 533.539c-4.423-4.502-10.448-7.07-16.735-7.07h-40.531v15.803c0 3.195 2.664 5.694 5.851 5.694h85.111c3.587 0 6.304-3.195 5.677-6.748l-.113-.618h-22.534c-6.286 0-12.312-2.56-16.726-7.061Z" fill="#CADDFF"/><path d="M575.103 499.597c-3.369 0-6.112 2.76-6.112 6.156v36.517c0 2.516 2.037 4.562 4.536 4.562h85.111a4.504 4.504 0 0 0 3.457-1.61 4.593 4.593 0 0 0 1.01-3.744l-6.426-36.796a6.118 6.118 0 0 0-6.025-5.085h-75.551Zm83.535 49.7h-85.111c-3.866 0-7.009-3.152-7.009-7.027v-36.517c0-4.754 3.849-8.62 8.585-8.62h75.551a8.575 8.575 0 0 1 8.454 7.131l6.426 36.787a6.988 6.988 0 0 1-1.55 5.755 6.969 6.969 0 0 1-5.346 2.491ZM490.479 582.984h-11.293c-4.606 0-8.35 11.058-8.35 24.563 0 13.504 3.744 24.571 8.35 24.571h11.293c4.615 0 8.35-11.058 8.35-24.571 0-13.496-3.735-24.563-8.35-24.563Z" fill="#5479F7"/><path d="M487.536 607.27c0 13.505-3.735 24.45-8.35 24.45-4.614 0-8.35-10.945-8.35-24.45 0-13.504 3.736-24.458 8.35-24.458 4.615 0 8.35 10.954 8.35 24.458Z" fill="#99B9FF"/><path d="M367.153 579.906h-9.682c-3.953 0-7.157 9.151-7.157 20.575 0 11.432 3.204 20.583 7.157 20.583h9.682c3.953 0 7.157-9.151 7.157-20.583 0-11.424-3.204-20.575-7.157-20.575Z" fill="#5479F7"/><path d="M364.637 600.129c0 11.424-3.213 20.688-7.166 20.688-3.953 0-7.157-9.264-7.157-20.688 0-11.423 3.204-20.688 7.157-20.688s7.166 9.265 7.166 20.688Z" fill="#99B9FF"/><path d="M385.482 581.137H375.809c-3.953 0-7.166 9.142-7.166 20.566 0 11.423 3.213 20.583 7.166 20.583H385.482c3.953 0 7.158-9.151 7.158-20.583 0-11.424-3.205-20.566-7.158-20.566Z" fill="#5479F7"/><path d="M382.966 601.36c0 11.432-3.204 20.688-7.157 20.688s-7.166-9.256-7.166-20.688c0-11.424 3.213-20.688 7.166-20.688 3.953 0 7.157 9.264 7.157 20.688Z" fill="#99B9FF"/><path d="M404.611 581.137h-10.048c-4.109 0-7.436 9.778-7.436 21.793 0 12.025 3.327 21.811 7.436 21.811h10.048c4.101 0 7.436-9.786 7.436-21.811 0-12.015-3.335-21.793-7.436-21.793Z" fill="#5479F7"/><path d="M401.99 602.588c0 12.024-3.326 21.767-7.427 21.767-4.109 0-7.436-9.743-7.436-21.767 0-12.016 3.327-21.768 7.436-21.768 4.101 0 7.427 9.752 7.427 21.768Z" fill="#99B9FF"/><path d="M589.426 607.009h-13.644c-2.351 0-4.249-1.916-4.249-4.276v-7.671h10.788c3.657 0 6.922 2.325 8.141 5.791l1.088 3.134c.514 1.472-.566 3.022-2.124 3.022Z" fill="#CADDFF"/><path d="M572.761 596.297v6.434c0 1.672 1.35 3.039 3.013 3.039h13.644c.339 0 .635-.156.836-.426a1.05 1.05 0 0 0 .13-.949l-1.097-3.135c-1.045-2.969-3.84-4.963-6.974-4.963h-9.552Zm16.657 11.937h-13.644c-3.021 0-5.485-2.464-5.485-5.503v-7.67c0-.68.557-1.237 1.236-1.237h10.788a9.87 9.87 0 0 1 9.299 6.618l1.106 3.143a3.527 3.527 0 0 1-.453 3.187 3.502 3.502 0 0 1-2.847 1.462Z" fill="#5479F7"/><path d="M646.231 606.188h13.644c2.351 0 4.249-1.915 4.249-4.275v-7.671h-10.788a8.625 8.625 0 0 0-8.133 5.799l-1.097 3.135c-.513 1.471.566 3.012 2.125 3.012Z" fill="#CADDFF"/><path d="M653.337 595.473a7.388 7.388 0 0 0-6.966 4.963l-1.097 3.134a.999.999 0 0 0 .13.949c.192.27.497.427.819.427h13.652a3.032 3.032 0 0 0 3.022-3.039v-6.434h-9.56Zm6.538 11.946h-13.652a3.492 3.492 0 0 1-3.283-4.658l1.089-3.135c1.393-3.962 5.128-6.626 9.308-6.626h10.788c.687 0 1.236.557 1.236 1.236v7.671c0 3.039-2.464 5.512-5.486 5.512ZM636.488 615.088H600.58a5.137 5.137 0 0 1-4.467-2.603l-1.584-2.786c-.54-.949.139-2.125 1.219-2.125h45.572c1.089 0 1.759 1.176 1.219 2.125l-1.576 2.786a5.16 5.16 0 0 1-4.475 2.603ZM543.097 535.371h-8.168a2.75 2.75 0 0 1-2.751-2.743v-23.752a2.11 2.11 0 0 1 2.116-2.099h8.794c.531 0 .958.427.958.967v26.678a.951.951 0 0 1-.949.949ZM680.406 536.577h-6.417a.604.604 0 0 1-.601-.61v-29.752a.46.46 0 0 1 .462-.461h7.34a1.5 1.5 0 0 1 1.506 1.506v27.027a2.293 2.293 0 0 1-2.29 2.29ZM664.751 564.863h-95.159c-.549 0-1.002.453-1.002 1.002v6.234a3.812 3.812 0 0 0 3.805 3.822h2.874c1.471 0 2.821.862 3.448 2.212l2.969 6.417c2.594 5.598 8.184 9.186 14.331 9.186h45.181c6.139 0 11.728-3.588 14.314-9.186l2.978-6.417a3.806 3.806 0 0 1 3.457-2.212c2.098 0 3.796-1.706 3.796-3.822v-6.234a1 1 0 0 0-.992-1.002ZM333.527 446.973v127.444l175.438-.47V425.841l-175.438 21.132Zm-1.236 129.908a1.232 1.232 0 0 1-1.236-1.227v-129.77c0-.626.47-1.149 1.088-1.219l177.91-21.445c.357-.043.706.07.967.305.27.235.418.566.418.923v150.736c0 .67-.549 1.227-1.228 1.227l-177.91.47h-.009ZM274.233 584.117h-11.737c-4.789 0-8.681 11.415-8.681 25.451 0 14.035 3.892 25.459 8.681 25.459h11.737c4.789 0 8.681-11.424 8.681-25.459 0-14.036-3.892-25.451-8.681-25.451Z" fill="#5479F7"/><path d="M365.421 622.036V451.422l-234.889 30.196v129.995l234.889 10.423Z" fill="#5479F7"/><path d="m335.121 578.164 7.331 6.844-1.994 46.225c-.113 2.656 2.003 4.876 4.641 4.876h41.402v-57.806l-51.38-.139Z" fill="#5479F7"/><path d="M463.845 579.68H326.884V403.328h136.961V579.68Z" fill="#99B9FF"/><path d="M463.845 580.918h-21.898a1.24 1.24 0 0 1-1.237-1.236 1.24 1.24 0 0 1 1.237-1.236h20.661V404.567H328.129v175.115c0 .679-.558 1.236-1.246 1.236a1.233 1.233 0 0 1-1.227-1.236V403.33c0-.679.548-1.236 1.227-1.236h136.962c.679 0 1.227.557 1.227 1.236v176.352c0 .679-.548 1.236-1.227 1.236Z" fill="#252525"/><path d="M377.271 594.875h-13.556c-5.529 0-10.022 13.182-10.022 29.395 0 16.221 4.493 29.403 10.022 29.403h13.556c5.547 0 10.031-13.182 10.031-29.403 0-16.213-4.484-29.395-10.031-29.395Z" fill="#5479F7"/><path d="M373.745 623.836c0 16.221-4.484 29.36-10.03 29.36-5.529 0-10.022-13.139-10.022-29.36 0-16.213 4.493-29.352 10.022-29.352 5.546 0 10.03 13.139 10.03 29.352Z" fill="#99B9FF"/><path d="M363.714 595.727c-4.153 0-8.785 11.545-8.785 28.115 0 16.578 4.632 28.132 8.785 28.132 4.162 0 8.794-11.554 8.794-28.132 0-16.57-4.632-28.115-8.794-28.115Zm0 58.711c-7.314 0-11.258-15.76-11.258-30.596 0-14.828 3.944-30.588 11.258-30.588 7.323 0 11.267 15.76 11.267 30.588 0 14.836-3.944 30.596-11.267 30.596Z" fill="#252525"/><path d="M487.85 593.438h-13.557c-5.537 0-10.03 13.191-10.03 29.403 0 16.213 4.493 29.395 10.03 29.395h13.557c5.529 0 10.022-13.182 10.022-29.395 0-16.212-4.493-29.403-10.022-29.403Z" fill="#5479F7"/><path d="M484.324 622.646c0 16.343-4.528 29.586-10.109 29.586s-10.109-13.243-10.109-29.586c0-16.343 4.528-29.595 10.109-29.595s10.109 13.252 10.109 29.595Z" fill="#99B9FF"/><path d="m334.825 456.32-.401 122.543 4.624 3.883a7.164 7.164 0 0 1 2.542 5.79l-1.907 44.145c-.078 1.872 1.411 3.448 3.283 3.448 1.41 0 2.734-.009 2.734-.052 0-27.567 5.181-50.17 11.894-50.17 6.704 0 12.137 22.351 12.137 49.917 0 .096 16.065.287 16.065.287V456.834l-50.971-.514Z" fill="#fff"/><path d="M499.936 456.504H386.675v179.608h122.856c3.665 0 6.634-2.986 6.634-6.669v-57.589c0-16.003-1.401-31.963-4.205-47.705l-12.024-67.645Z" fill="#99B9FF"/><path d="M387.911 634.87h121.611c2.987 0 5.407-2.438 5.407-5.433v-57.588c0-15.882-1.41-31.859-4.188-47.488l-11.85-66.626h-110.98V634.87Zm121.611 2.473H386.675a1.237 1.237 0 0 1-1.237-1.237V456.498c0-.679.558-1.236 1.237-1.236h113.252c.609 0 1.114.435 1.219 1.018l12.024 67.645a274.649 274.649 0 0 1 4.232 47.924v57.588c0 4.353-3.535 7.906-7.88 7.906Z" fill="#252525"/><path d="m367.659 537.065 5.964 1.019c1.968.339 3.761-1.184 3.761-3.196v-37.205c0-2.534-2.046-4.597-4.571-4.597h-8.28a3.822 3.822 0 0 0-3.814 3.831v31.868c0 4.092 2.926 7.583 6.94 8.28Z" fill="#99B9FF"/><path d="M326.883 579.68V403.328l-207.714 25.033v151.502l207.714-.183ZM484.559 456.15H335.225l6.704-31.415c1.272-5.973 6.87-10.274 13.374-10.274H467.85c5.085 0 9.43 3.413 10.327 8.106l6.382 33.583Z" fill="#fff"/><path d="M336.757 454.92H483.07l-6.104-32.129c-.783-4.11-4.623-7.096-9.125-7.096H355.303c-5.903 0-11.023 3.909-12.163 9.29l-6.383 29.935Zm147.802 2.464H335.225a1.24 1.24 0 0 1-.958-.462 1.212 1.212 0 0 1-.252-1.027l6.704-31.424c1.393-6.521 7.523-11.241 14.584-11.241h112.538c5.695 0 10.545 3.823 11.546 9.099l6.382 33.592c.079.357-.026.731-.261 1.01a1.202 1.202 0 0 1-.949.453Z" fill="#252525"/><path d="M478.177 422.567c-.897-4.693-5.242-8.106-10.327-8.106H355.303c-3.064 0-5.92.966-8.219 2.595l48.82 39.094h88.655l-6.382-33.583Z" fill="#99B9FF"/><path d="M396.331 454.92h86.739l-6.112-32.129c-.775-4.11-4.615-7.096-9.117-7.096H355.303c-2.159 0-4.231.513-6.086 1.497l47.114 37.728Zm88.228 2.464h-88.664c-.278 0-.548-.096-.775-.27l-48.811-39.095a1.22 1.22 0 0 1-.462-1.001 1.23 1.23 0 0 1 .514-.966c2.612-1.846 5.703-2.822 8.942-2.822h112.538c5.686 0 10.545 3.823 11.546 9.099l6.382 33.592c.07.357-.026.731-.261 1.019a1.25 1.25 0 0 1-.949.444Z" fill="#252525"/><path d="M402.661 489.633h88.211c4.171 0 7.732 3.012 8.455 7.131l7.496 42.96c.732 4.145-2.446 7.941-6.634 7.941h-99.374c-3.717 0-6.739-3.03-6.739-6.774v-42.63c0-4.771 3.849-8.628 8.585-8.628Z" fill="#5479F7"/><path d="M460.849 530.691c-5.154-5.259-12.189-8.246-19.538-8.246h-47.323v18.442c0 3.744 3.109 6.661 6.827 6.661h99.373c4.188 0 7.366-3.744 6.634-7.889l-.13-.723h-26.313c-7.34 0-14.375-2.986-19.53-8.245Z" fill="#CADDFF"/><path d="M402.66 490.871c-4.048 0-7.34 3.309-7.34 7.392v42.63c0 3.056 2.465 5.538 5.503 5.538h99.365c1.628 0 3.16-.714 4.205-1.959a5.574 5.574 0 0 0 1.219-4.537l-7.497-42.96c-.626-3.535-3.665-6.104-7.235-6.104h-88.22Zm97.528 58.032h-99.365c-4.397 0-7.975-3.596-7.975-8.01v-42.63c0-5.441 4.405-9.865 9.812-9.865h88.22c4.771 0 8.838 3.431 9.665 8.159l7.496 42.952a7.986 7.986 0 0 1-1.758 6.556 7.971 7.971 0 0 1-6.095 2.838Z" fill="#252525"/><path d="M303.862 588.418H290.68c-5.39 0-9.752 12.912-9.752 28.681 0 15.768 4.362 28.689 9.752 28.689h13.182c5.381 0 9.752-12.921 9.752-28.689 0-15.769-4.371-28.681-9.752-28.681Z" fill="#5479F7"/><path d="M300.432 616.773c0 15.768-4.371 28.55-9.752 28.55-5.39 0-9.752-12.782-9.752-28.55s4.362-28.55 9.752-28.55c5.381 0 9.752 12.782 9.752 28.55Z" fill="#99B9FF"/><path d="M159.875 584.836H148.573c-4.615 0-8.359 10.675-8.359 24.023 0 13.339 3.744 24.022 8.359 24.022H159.875c4.615 0 8.359-10.683 8.359-24.022 0-13.34-3.744-24.023-8.359-24.023Z" fill="#5479F7"/><path d="M156.932 608.454c0 13.339-3.744 24.153-8.359 24.153s-8.359-10.814-8.359-24.153c0-13.339 3.744-24.153 8.359-24.153s8.359 10.814 8.359 24.153Z" fill="#99B9FF"/><path d="M181.276 586.273H169.974c-4.615 0-8.359 10.675-8.359 24.023 0 13.331 3.744 24.023 8.359 24.023H181.276c4.614 0 8.358-10.684 8.358-24.023 0-13.348-3.744-24.023-8.358-24.023Z" fill="#5479F7"/><path d="M178.333 609.884c0 13.339-3.744 24.153-8.359 24.153s-8.359-10.814-8.359-24.153c0-13.339 3.744-24.154 8.359-24.154s8.359 10.815 8.359 24.154Z" fill="#99B9FF"/><path d="M203.601 586.273h-11.728c-4.798 0-8.681 11.415-8.681 25.451 0 14.036 3.883 25.459 8.681 25.459h11.728c4.798 0 8.681-11.423 8.681-25.45 0-14.036-3.883-25.46-8.681-25.46Z" fill="#5479F7"/><path d="M200.554 611.31c0 14.036-3.884 25.416-8.681 25.416-4.798 0-8.681-11.38-8.681-25.416 0-14.035 3.883-25.415 8.681-25.415 4.797 0 8.681 11.38 8.681 25.415Z" fill="#99B9FF"/><path d="M419.387 616.471h-15.934c-2.742 0-4.963-2.238-4.963-4.989v-8.951h12.599c4.275 0 8.08 2.708 9.5 6.757l1.28 3.666c.6 1.715-.671 3.517-2.482 3.517Z" fill="#CADDFF"/><path d="M399.726 603.765v7.723c0 2.072 1.672 3.753 3.727 3.753h15.934c.461 0 .87-.218 1.132-.584a1.41 1.41 0 0 0 .182-1.297l-1.28-3.657c-1.245-3.552-4.588-5.938-8.332-5.938h-11.363Zm19.661 13.94h-15.934c-3.422 0-6.2-2.786-6.2-6.217v-8.951c0-.688.558-1.236 1.237-1.236h12.599c4.789 0 9.073 3.047 10.666 7.584l1.28 3.665a3.907 3.907 0 0 1-.496 3.535 3.871 3.871 0 0 1-3.152 1.62Z" fill="#252525"/><path d="M485.708 615.51h15.934c2.742 0 4.963-2.237 4.963-4.989v-8.951h-12.599c-4.267 0-8.08 2.708-9.5 6.757l-1.28 3.666c-.6 1.715.671 3.517 2.482 3.517Z" fill="#CADDFF"/><path d="M494.006 602.796c-3.736 0-7.088 2.386-8.333 5.938l-1.28 3.657a1.41 1.41 0 0 0 .183 1.298c.261.374.679.583 1.132.583h15.934c2.054 0 3.726-1.68 3.726-3.753v-7.723h-11.362Zm7.636 13.94h-15.934a3.855 3.855 0 0 1-3.143-1.619 3.852 3.852 0 0 1-.505-3.536l1.279-3.665a11.322 11.322 0 0 1 10.667-7.584h12.599a1.23 1.23 0 0 1 1.236 1.236v8.951c0 3.431-2.778 6.217-6.199 6.217Z" fill="#252525"/><path d="M474.346 625.893h-41.933a5.996 5.996 0 0 1-5.215-3.039l-1.855-3.248c-.627-1.105.166-2.481 1.437-2.481h53.2c1.262 0 2.054 1.376 1.428 2.481l-1.855 3.248a5.993 5.993 0 0 1-5.207 3.039ZM365.299 532.832h-9.543a3.2 3.2 0 0 1-3.204-3.196v-27.731a2.46 2.46 0 0 1 2.464-2.456h10.266c.618 0 1.123.505 1.123 1.132v31.145c0 .61-.496 1.106-1.106 1.106Z" fill="#5479F7"/><path d="M359.823 500.684c-3.326 0-6.034 2.699-6.034 6.025v16.674c0 4.528 3.691 8.219 8.228 8.219h1.114a2.047 2.047 0 0 0 2.038-2.046v-26.783a2.09 2.09 0 0 0-2.09-2.089h-3.256Zm3.308 33.382h-1.114c-5.904 0-10.701-4.797-10.701-10.683v-16.674c0-4.684 3.814-8.498 8.507-8.498h3.256a4.567 4.567 0 0 1 4.563 4.562v26.783c0 2.482-2.02 4.51-4.511 4.51Z" fill="#252525"/><path d="M524.785 534.244h-7.479a.71.71 0 0 1-.705-.714v-34.732c0-.305.235-.54.539-.54h8.568c.967 0 1.759.783 1.759 1.75v31.563a2.682 2.682 0 0 1-2.682 2.673ZM507.327 567.273H396.226c-.636 0-1.167.514-1.167 1.167v7.271c0 2.464 1.994 4.466 4.441 4.466h3.352c1.733 0 3.3 1.002 4.022 2.578l3.483 7.496c3.022 6.539 9.552 10.719 16.726 10.719h52.748c7.174 0 13.696-4.18 16.726-10.719l3.474-7.496a4.424 4.424 0 0 1 4.022-2.578c2.447 0 4.441-2.002 4.441-4.466v-7.271c0-.653-.522-1.167-1.167-1.167Z" fill="#5479F7"/><path d="M498.935 575.945h-89.247a1.234 1.234 0 0 1-1.236-1.228c0-.688.557-1.237 1.236-1.237h89.247c.679 0 1.236.549 1.236 1.237 0 .679-.557 1.228-1.236 1.228ZM490.645 583.425h-72.886a1.236 1.236 0 0 1-1.237-1.236c0-.68.558-1.228 1.237-1.228h72.886c.679 0 1.237.548 1.237 1.228 0 .687-.558 1.236-1.237 1.236ZM481.085 590.895h-55.89a1.229 1.229 0 0 1-1.228-1.237c0-.679.549-1.236 1.228-1.236h55.89a1.237 1.237 0 1 1 0 2.473ZM120.406 429.458v149.177l205.25-.549V404.721l-205.25 24.737Zm-1.236 151.641a1.238 1.238 0 0 1-1.237-1.236V428.361c0-.627.47-1.15 1.088-1.228L326.745 402.1c.348-.035.696.07.966.305.261.235.418.575.418.923v175.986c0 .679-.557 1.237-1.236 1.237l-207.723.548Z" fill="#252525"/><path d="M497.881 83.886c0 6.991-5.677 12.66-12.678 12.66-6.991 0-12.668-5.669-12.668-12.66 0-6.983 5.677-12.652 12.668-12.652 7.001 0 12.678 5.669 12.678 12.652Z" fill="#fff"/></svg>