<svg width="142" height="142" fill="none" xmlns="http://www.w3.org/2000/svg"><g filter="url(#a)"><circle cx="67" cy="68" r="59" fill="#152968"/></g><path d="M75.657 96.848H56.625c-.748 0-1.36.611-1.36 1.36 0 .747.612 1.359 1.36 1.359h19.032c.748 0 1.36-.612 1.36-1.36 0-.748-.612-1.36-1.36-1.36Z" fill="#fff"/><mask id="b" style="mask-type:luminance" maskUnits="userSpaceOnUse" x="57" y="102" width="18" height="4"><path d="M57.645 102.207h16.967v2.804H57.645v-2.804Z" fill="#fff"/></mask><g mask="url(#b)"><path d="M72.94 102.293H59.346c-.748 0-1.36.611-1.36 1.359s.612 1.36 1.36 1.36H72.94c.748 0 1.36-.612 1.36-1.36 0-.748-.612-1.359-1.36-1.359Z" fill="#fff"/></g><path d="M65.19 73.738h1.903c1.766 0 3.262-1.36 3.262-3.059V69.32c.951-.272 1.834-.68 2.72-1.155l.95.95c1.155 1.156 3.195 1.088 4.418-.134l1.36-1.36c1.29-1.292 1.359-3.262.136-4.419l-.952-.95c.476-.884.815-1.769 1.156-2.72h1.36c1.698 0 3.058-1.427 3.058-3.262v-1.904c0-1.767-1.36-3.262-3.059-3.262h-1.359c-.272-.952-.68-1.836-1.156-2.719l.952-.952c1.155-1.155 1.087-3.194-.137-4.418l-1.36-1.36c-1.29-1.291-3.262-1.359-4.417-.135l-.95.951c-.886-.476-1.769-.815-2.72-1.155v-1.36c0-1.698-1.428-3.058-3.262-3.058h-1.904c-1.767 0-3.262 1.36-3.262 3.059v1.36c-.952.271-1.836.678-2.719 1.154l-.952-.95c-1.155-1.157-3.195-1.088-4.418.135l-1.36 1.36c-.61.61-1.02 1.495-1.02 2.378 0 .816.273 1.564.816 2.108l.953.95c-.476.884-.816 1.769-1.157 2.72h-1.36c-1.562 0-2.92 1.496-2.92 3.262v1.903c0 1.768 1.358 3.263 3.057 3.263h1.36c.272.952.679 1.835 1.155 2.719l-.95.952c-1.157 1.155-1.088 3.194.134 4.418l1.36 1.36c1.291 1.29 3.262 1.358 4.418.134l.952-.95c.883.476 1.766.815 2.718 1.155v1.36c-.067 1.63 1.428 2.99 3.195 2.99Zm-5.438-8.361-.952-.611-2.447 2.447c-.068.067-.407.067-.612-.136l-1.36-1.36c-.203-.203-.271-.475-.136-.612l2.447-2.447-.611-.95c-.748-1.225-1.292-2.515-1.564-3.875l-.203-1.087H50.78c-.137 0-.341-.204-.341-.544v-1.903c0-.341.204-.544.34-.544h3.535l.203-1.087c.272-1.36.816-2.652 1.564-3.876l.611-.95-2.447-2.448c-.067-.067-.067-.136-.067-.136 0-.136.067-.34.204-.407l1.36-1.36c.204-.204.543-.272.61-.136l2.448 2.447.952-.612a10.806 10.806 0 0 1 3.874-1.563l1.087-.203v-3.535c0-.137.205-.34.544-.34h1.903c.34 0 .544.203.544.34v3.535l1.088.203c1.359.271 2.65.815 3.874 1.563l.952.612 2.447-2.447c.067-.068.34-.068.611.136l1.36 1.36c.204.204.272.476.135.611l-2.447 2.447.613.952a11.355 11.355 0 0 1 1.562 3.874l.204 1.088h3.467c.135 0 .34.204.34.544v1.903c0 .34-.205.543-.34.543h-3.467l-.407 1.088c-.272 1.36-.816 2.651-1.564 3.874l-.611.952 2.447 2.447c.068.068.068.34-.137.611l-1.36 1.36c-.203.204-.475.272-.61.135l-2.447-2.447-.953.613a10.828 10.828 0 0 1-3.874 1.562l-1.087.205v3.534c0 .137-.204.34-.544.34h-1.903c-.34 0-.544-.203-.544-.34v-3.534l-.883-.272a10.806 10.806 0 0 1-3.874-1.564Z" fill="#fff"/><path d="M73.277 55.388a7.137 7.137 0 1 0-14.273 0 7.136 7.136 0 1 0 14.273 0Zm-11.554 0a4.41 4.41 0 0 1 4.418-4.42 4.41 4.41 0 0 1 4.417 4.42 4.409 4.409 0 0 1-4.418 4.418 4.409 4.409 0 0 1-4.417-4.418Z" fill="#fff"/><mask id="c" style="mask-type:luminance" maskUnits="userSpaceOnUse" x="65" y="18" width="5" height="7"><path d="M65.951 18h3.117v6.978H65.95V18Z" fill="#fff"/></mask><g mask="url(#c)"><path d="M67.502 24.797c.748 0 1.36-.611 1.36-1.36V19.36c0-.748-.612-1.359-1.36-1.359-.748 0-1.36.611-1.36 1.36v4.078c0 .748.612 1.359 1.36 1.359Z" fill="#fff"/></g><path d="M51.665 26.843c.205.543.748.815 1.223.815.204 0 .341 0 .544-.136.68-.272 1.02-1.088.748-1.767l-1.564-3.671c-.272-.68-1.087-1.02-1.766-.748-.68.272-1.02 1.087-.748 1.768l1.563 3.739ZM39.632 35.541c.272.272.612.408.951.408.34 0 .68-.136.953-.408a1.314 1.314 0 0 0 0-1.903l-2.856-2.855a1.314 1.314 0 0 0-1.903 0 1.314 1.314 0 0 0 0 1.903l2.855 2.855ZM32.839 45.67l-3.74-1.564c-.68-.272-1.495.067-1.767.748-.272.679.069 1.494.748 1.766l3.739 1.564c.204.068.34.137.543.137.544 0 1.02-.341 1.223-.816.272-.748-.067-1.564-.746-1.836Z" fill="#fff"/><mask id="d" style="mask-type:luminance" maskUnits="userSpaceOnUse" x="24" y="59" width="7" height="5"><path d="M24 59.957h6.978v3.117H24v-3.117Z" fill="#fff"/></mask><g mask="url(#d)"><path d="M30.797 61.5c0-.748-.611-1.36-1.36-1.36H25.36c-.748 0-1.359.612-1.359 1.36 0 .748.611 1.36 1.36 1.36h4.078c.748 0 1.359-.612 1.359-1.36Z" fill="#fff"/></g><path d="M31.819 74.827 28.08 76.39c-.679.271-1.02 1.087-.748 1.766.204.544.748.816 1.224.816.204 0 .34 0 .544-.136l3.739-1.563c.679-.272 1.018-1.088.746-1.767-.272-.68-1.087-.952-1.766-.68ZM39.632 87.47l-2.855 2.854a1.314 1.314 0 0 0 0 1.904c.272.272.611.408.952.408.34 0 .68-.136.951-.408l2.856-2.854a1.314 1.314 0 0 0 0-1.904 1.314 1.314 0 0 0-1.904 0ZM95.368 87.47a1.314 1.314 0 0 0-1.903 0 1.314 1.314 0 0 0 0 1.904l2.853 2.854c.272.272.612.408.953.408.34 0 .679-.136.95-.408a1.314 1.314 0 0 0 0-1.904l-2.853-2.854ZM106.923 76.392l-3.738-1.564c-.679-.272-1.495.068-1.767.748-.272.68.068 1.495.748 1.767l3.737 1.563c.205.068.341.137.544.137.544 0 1.02-.34 1.224-.816.34-.748 0-1.563-.748-1.835Z" fill="#fff"/><mask id="e" style="mask-type:luminance" maskUnits="userSpaceOnUse" x="104" y="59" width="7" height="5"><path d="M104.039 59.957h6.959v3.117h-6.959v-3.117Z" fill="#fff"/></mask><g mask="url(#e)"><path d="M109.641 60.14h-4.078c-.748 0-1.36.612-1.36 1.36 0 .748.612 1.36 1.36 1.36h4.078c.748 0 1.359-.612 1.359-1.36 0-.748-.611-1.36-1.359-1.36Z" fill="#fff"/></g><path d="M102.641 48.32c.204 0 .341 0 .544-.136l3.738-1.564c.681-.272 1.02-1.087.748-1.766-.271-.68-1.087-1.02-1.768-.748l-3.737 1.563c-.68.272-1.02 1.088-.748 1.767.204.544.748.885 1.223.885ZM96.319 30.715l-2.855 2.854a1.314 1.314 0 0 0 0 1.903c.272.272.612.409.951.409.34 0 .68-.137.953-.409l2.854-2.854a1.314 1.314 0 0 0 0-1.903c-.544-.544-1.36-.476-1.903 0ZM81.574 27.587c.204.069.34.136.544.136.543 0 1.02-.34 1.222-.815l1.564-3.739c.272-.679-.068-1.495-.748-1.767-.68-.271-1.495.068-1.767.747l-1.563 3.739c-.272.611 0 1.427.748 1.699ZM92.853 71.29c-.611-.95-.474-1.563-.407-1.766l1.292-1.564c.475-.544.407-1.36-.137-1.903-.204-.137-.34-.34-.407-.409.544-.543.883-1.087.951-1.699.068-.611-.135-1.087-.34-1.359l-.815-1.564c-.068-.203 0-.34 0-.407.068-.067.272-.136.407-.136.137 0 .204 0 .341-.068 2.106-.544 3.263-1.427 3.67-2.651.272-1.019-.136-1.903-.544-2.447l-6.117-8.768c-.476-.679-.68-1.564-.884-2.447v-.135c-.068-.341-.203-.748-.272-1.088-3.466-12.1-16.448-16.721-27.46-15.09-14.07 2.175-24.537 14.275-24.537 28.276 0 6.934 2.65 14.07 7.34 19.508 6.254 7.273 6.662 9.379 7.68 15.02l.205 1.02c.272 1.564 1.36 2.583 2.651 2.583H67.5c.749 0 1.36-.611 1.36-1.36v-15.02c0-.749-.611-1.36-1.36-1.36-.747 0-1.359.611-1.359 1.36v13.593H55.606c-.068-.067-.068-.204-.136-.339l-.204-1.02c-1.02-5.777-1.495-8.428-8.292-16.313-4.214-4.894-6.661-11.351-6.661-17.672 0-12.642 9.515-23.586 22.09-25.49 9.787-1.494 21.343 2.584 24.401 13.12.068.34.205.679.272.95v.137c.272 1.088.544 2.31 1.292 3.398l6.186 8.768c0 .07.067.07.067.137-.136.135-.543.407-1.563.679-.477.069-1.632.204-2.31 1.156-.41.544-.816 1.427-.41 2.854 0 .137.069.205.137.34l.816 1.564c-.069.067-.272.271-.544.408-.136.068-.272.203-.408.407-.476.748-.34 1.632.476 2.651l-.68.816c-.068.068-.136.135-.136.204-.067.135-.952 1.903.34 4.214-.068.883-.272 2.583-1.223 3.534-.476.476-1.156.68-1.972.612h-5.641c-2.583 0-3.603 3.195-4.078 4.758l-.069.205c-.95 2.99-1.29 6.32-1.018 9.99h-2.72c-.747 0-1.359.613-1.359 1.36 0 .748.612 1.359 1.36 1.359h3.398c.543 0 1.087-.203 1.427-.68a2.608 2.608 0 0 0 .612-1.698c-.34-3.534-.069-6.73.816-9.516l.068-.204c.883-2.719 1.427-2.855 1.494-2.855h5.507c1.562.068 2.99-.408 4.01-1.428 2.107-2.038 2.039-5.437 2.039-5.844.068-.272 0-.477-.137-.68Z" fill="#fff"/><defs><filter id="a" x=".6" y=".6" width="140.8" height="140.8" filterUnits="userSpaceOnUse" color-interpolation-filters="sRGB"><feFlood flood-opacity="0" result="BackgroundImageFix"/><feColorMatrix in="SourceAlpha" values="0 0 0 0 0 0 0 0 0 0 0 0 0 0 0 0 0 0 127 0" result="hardAlpha"/><feOffset dx="4" dy="3"/><feGaussianBlur stdDeviation="5.7"/><feComposite in2="hardAlpha" operator="out"/><feColorMatrix values="0 0 0 0 0.128333 0 0 0 0 0.119778 0 0 0 0 0.119778 0 0 0 0.25 0"/><feBlend in2="BackgroundImageFix" result="effect1_dropShadow_6017_3344"/><feBlend in="SourceGraphic" in2="effect1_dropShadow_6017_3344" result="shape"/></filter></defs></svg>