<svg width="142" height="142" fill="none" xmlns="http://www.w3.org/2000/svg"><g filter="url(#a)"><circle cx="67" cy="68" r="59" fill="#152968"/></g><mask id="b" style="mask-type:luminance" maskUnits="userSpaceOnUse" x="26" y="26" width="79" height="79"><path d="M26 26h79v79H26V26Z" fill="#fff"/></mask><g mask="url(#b)"><path d="M98.45 66.62a3.379 3.379 0 0 0 3.178 2.254A3.376 3.376 0 0 0 105 65.5a3.375 3.375 0 0 0-3.372-3.372 3.377 3.377 0 0 0-3.179 2.253H80.055a14.5 14.5 0 0 0-2.073-6.44h14.16c.619 0 1.12-.502 1.12-1.12V44.462h4.197a3.375 3.375 0 0 0 3.177 2.253 3.376 3.376 0 0 0 3.372-3.373 3.376 3.376 0 0 0-3.372-3.372 3.374 3.374 0 0 0-3.177 2.253h-5.316c-.62 0-1.12.501-1.12 1.119v12.359H76.31a14.563 14.563 0 0 0-10.81-4.798c-8.048 0-14.596 6.548-14.596 14.596 0 8.05 6.548 14.597 14.596 14.597 4.28 0 8.137-1.852 10.81-4.797h14.713v12.357c0 .618.5 1.12 1.12 1.12h5.316a3.376 3.376 0 0 0 3.177 2.252 3.375 3.375 0 0 0 3.372-3.372 3.375 3.375 0 0 0-3.372-3.372 3.375 3.375 0 0 0-3.177 2.252h-4.198V74.18c0-.618-.5-1.119-1.118-1.119h-14.16a14.499 14.499 0 0 0 2.072-6.441h18.394Zm2.186-24.41a1.135 1.135 0 1 1-1.133 1.134c0-.625.508-1.135 1.133-1.135Zm0 44.313a1.135 1.135 0 1 1-.001 2.27 1.135 1.135 0 0 1 .001-2.27Zm.992-22.157c.625 0 1.134.509 1.134 1.134a1.135 1.135 0 0 1-2.268 0c0-.625.508-1.134 1.134-1.134Zm-28.24.015c-.087-2.068-.413-3.998-.93-5.707a19.942 19.942 0 0 0 2.683-.892 12.295 12.295 0 0 1 2.664 6.6h-4.417Zm-9.007 12.753c-.986-.452-1.941-1.48-2.72-2.975.878-.124 1.79-.203 2.72-.24v3.215Zm0-5.455a29.04 29.04 0 0 0-3.6.353c-.5-1.542-.835-3.367-.927-5.412h4.527v5.06Zm-4.527-7.298c.088-1.973.403-3.742.875-5.248 1.172.194 2.397.315 3.652.361v4.887h-4.527Zm1.725-7.378c.793-1.58 1.78-2.668 2.802-3.136v3.388a27.355 27.355 0 0 1-2.802-.252Zm5.04-3.137c1.021.468 2.01 1.555 2.803 3.137-.905.13-1.843.214-2.802.252v-3.39Zm3.598.214a12.396 12.396 0 0 1 3.223 1.96c-.561.198-1.153.373-1.767.524a12.725 12.725 0 0 0-1.456-2.484Zm-10.889 2.484a18.851 18.851 0 0 1-1.767-.524 12.394 12.394 0 0 1 3.223-1.96 12.602 12.602 0 0 0-1.456 2.484Zm-.786 2.11c-.516 1.709-.842 3.639-.929 5.707h-4.418a12.295 12.295 0 0 1 2.665-6.6c.833.348 1.732.648 2.682.893Zm-.929 7.946c.09 2.133.433 4.12.979 5.867-.931.238-1.81.528-2.63.862a12.31 12.31 0 0 1-2.767-6.73h4.418Zm1.786 7.972c.406.874.87 1.656 1.385 2.328a12.394 12.394 0 0 1-3.076-1.837c.54-.185 1.104-.349 1.69-.49Zm7.22 2.542V73.92c.93.037 1.842.116 2.721.24-.779 1.494-1.735 2.523-2.72 2.975Zm4.984-2.543c.586.144 1.151.307 1.69.492a12.41 12.41 0 0 1-3.076 1.837c.514-.672.98-1.454 1.386-2.329ZM66.62 71.68v-5.06h4.526c-.09 2.046-.427 3.871-.926 5.413a29.061 29.061 0 0 0-3.6-.353Zm0-7.298v-4.887a29.07 29.07 0 0 0 3.653-.36c.47 1.505.785 3.274.873 5.247H66.62Zm8.419 8.968c-.82-.335-1.7-.624-2.63-.862.545-1.747.89-3.734.98-5.867h4.416a12.298 12.298 0 0 1-2.766 6.73Zm11.687 18.782V89.61a1.12 1.12 0 0 0-1.12-1.119h-.001l-18.985.014v-4.248c0-.618-.5-1.119-1.12-1.119-9.724 0-17.636-7.912-17.636-17.637 0-9.724 7.912-17.636 17.636-17.636.62 0 1.12-.5 1.12-1.12v-4.248l18.985.015h.001a1.122 1.122 0 0 0 1.12-1.12v-2.523a3.375 3.375 0 0 0 2.252-3.177 3.376 3.376 0 0 0-3.372-3.372 3.376 3.376 0 0 0-3.372 3.372c0 1.467.942 2.714 2.252 3.177v1.403l-17.866-.013v-4.079l9.39.014a1.119 1.119 0 0 0 1.12-1.12v-2.522a3.375 3.375 0 0 0 2.253-3.178A3.377 3.377 0 0 0 76.01 26a3.377 3.377 0 0 0-3.372 3.373c0 1.466.943 2.715 2.253 3.178v1.401l-8.271-.011V27.12c0-.618-.5-1.12-1.12-1.12h-3.838a3.645 3.645 0 0 0-3.64 3.642c0 3.034-1.745 5.643-4.555 6.805-2.81 1.164-5.889.555-8.035-1.591a3.618 3.618 0 0 0-2.575-1.066 3.62 3.62 0 0 0-2.574 1.066l-5.427 5.428a3.612 3.612 0 0 0-1.066 2.575c0 .97.377 1.886 1.066 2.574 2.149 2.148 2.762 5.228 1.598 8.037-1.163 2.808-3.774 4.552-6.813 4.552A3.645 3.645 0 0 0 26 61.662v7.676a3.645 3.645 0 0 0 3.64 3.641c3.036 0 5.645 1.746 6.807 4.555 1.164 2.81.554 5.889-1.591 8.034a3.615 3.615 0 0 0-1.066 2.575c0 .972.377 1.887 1.066 2.574l5.428 5.428a3.644 3.644 0 0 0 5.148 0c2.146-2.146 5.225-2.756 8.035-1.593 2.81 1.164 4.555 3.773 4.555 6.808a3.644 3.644 0 0 0 3.64 3.64H65.5c.62 0 1.12-.501 1.12-1.119v-6.82l8.27-.012v1.402a3.375 3.375 0 0 0-2.252 3.177A3.375 3.375 0 0 0 76.01 105a3.375 3.375 0 0 0 3.373-3.372 3.375 3.375 0 0 0-2.253-3.177v-2.523a1.122 1.122 0 0 0-1.12-1.12l-9.39.012v-4.076l17.866-.014v1.401a3.376 3.376 0 0 0-2.252 3.178 3.377 3.377 0 0 0 3.372 3.373 3.377 3.377 0 0 0 3.372-3.373 3.376 3.376 0 0 0-2.252-3.177Zm-1.12-57.573a1.135 1.135 0 0 1 0 2.267 1.135 1.135 0 0 1 0-2.267ZM76.01 28.24a1.135 1.135 0 0 1 0 2.267 1.135 1.135 0 0 1 0-2.268Zm0 74.522a1.135 1.135 0 0 1 0-2.268 1.135 1.135 0 0 1 0 2.268Zm-11.629 0h-2.719c-.772 0-1.401-.63-1.401-1.402 0-3.957-2.276-7.359-5.937-8.876a9.784 9.784 0 0 0-3.746-.758c-2.473 0-4.87.977-6.73 2.835a1.401 1.401 0 0 1-1.981 0l-5.428-5.427a1.393 1.393 0 0 1-.41-.991c0-.375.145-.726.41-.992 2.798-2.798 3.595-6.812 2.077-10.474C37 73.016 33.6 70.74 29.642 70.74a1.402 1.402 0 0 1-1.402-1.401v-7.676c0-.772.628-1.401 1.402-1.401 3.96 0 7.364-2.274 8.88-5.934 1.517-3.662.719-7.676-2.083-10.478a1.393 1.393 0 0 1-.41-.99c0-.376.145-.728.41-.992l5.428-5.428c.264-.264.617-.41.99-.41.375 0 .727.145.992.41 2.798 2.798 6.812 3.595 10.475 2.077C57.986 37 60.26 33.6 60.26 29.642c0-.774.629-1.402 1.401-1.402h2.72v17.416c-10.442.584-18.757 9.26-18.757 19.844 0 10.583 8.315 19.262 18.756 19.844v17.418Zm21.225-6.32a1.135 1.135 0 0 1 0-2.267 1.135 1.135 0 0 1 0 2.267Z" fill="#fff"/></g><defs><filter id="a" x=".6" y=".6" width="140.8" height="140.8" filterUnits="userSpaceOnUse" color-interpolation-filters="sRGB"><feFlood flood-opacity="0" result="BackgroundImageFix"/><feColorMatrix in="SourceAlpha" values="0 0 0 0 0 0 0 0 0 0 0 0 0 0 0 0 0 0 127 0" result="hardAlpha"/><feOffset dx="4" dy="3"/><feGaussianBlur stdDeviation="5.7"/><feComposite in2="hardAlpha" operator="out"/><feColorMatrix values="0 0 0 0 0.128333 0 0 0 0 0.119778 0 0 0 0 0.119778 0 0 0 0.25 0"/><feBlend in2="BackgroundImageFix" result="effect1_dropShadow_6017_3420"/><feBlend in="SourceGraphic" in2="effect1_dropShadow_6017_3420" result="shape"/></filter></defs></svg>