<svg xmlns="http://www.w3.org/2000/svg" width="41" height="47" fill="none"><mask id="a" width="41" height="47" x="0" y="0" maskUnits="userSpaceOnUse" style="mask-type:luminance"><path fill="#fff" d="M0 0h40.34v47H0V0Z"/></mask><g mask="url(#a)"><path fill="#006" d="m40.316 11.98-.001-.013v-.027c-.002-.017-.002-.031-.005-.047l-.003-.023c-.003-.017-.005-.034-.01-.051a.835.835 0 0 0-.045-.14c0-.004-.003-.008-.004-.012l-.028-.056-.003-.003c0-.003-.002-.003-.004-.006a.795.795 0 0 0-.044-.067c-.005-.006-.01-.01-.012-.017a.612.612 0 0 0-.058-.065l-.012-.01a.64.64 0 0 0-.05-.044l-.034-.025a.226.226 0 0 0-.028-.019c-.01-.006-.019-.015-.03-.02L20.539.13a.745.745 0 0 0-.748.002L.38 11.337a.746.746 0 0 0-.369.693v22.36c0 .256.134.507.374.644l19.347 11.169.006.003a.814.814 0 0 0 .083.05l.02.01c.027.013.054.023.082.034.005 0 .01.003.014.005.032.01.065.017.098.023l.024.003a.778.778 0 0 0 .105.008h.001c.036 0 .07-.003.105-.008l.024-.003a.687.687 0 0 0 .099-.023l.012-.005a.816.816 0 0 0 .084-.034l.02-.01a.755.755 0 0 0 .083-.05l.006-.004 6.561-3.788c.364.655.719 1.283 1.049 1.865.507.896.947 1.676 1.256 2.263a.744.744 0 0 0 1.319 0c.305-.583.744-1.358 1.249-2.251 1.12-1.983 2.553-4.52 3.553-6.74l4.362-2.517a.74.74 0 0 0 .372-.645l-.003-22.41ZM20.164 22.326l-.556-.322L2.245 11.981l5.362-3.096 17.92 10.344-2.199 1.27-3.164 1.827Zm-6.47-16.954 17.92 10.343-4.598 2.654L9.096 8.025l4.599-2.653Zm14.194 14.274c1.49-.863 2.978-1.732 4.467-2.601v3.098l-4.467 2.58v-3.077Zm-7.724-18.01 17.92 10.345-4.983 2.876-17.92-10.344 4.983-2.877ZM1.5 13.27l17.013 9.819.905.522v20.692L1.498 33.959 1.5 13.27Zm29.234 30.292-.613 1.088-.622-1.105c-1.841-3.257-4.556-8.055-4.556-9.946 0-1.466.581-2.792 1.52-3.749a5.113 5.113 0 0 1 3.658-1.544c1.429 0 2.722.59 3.658 1.544a5.333 5.333 0 0 1 1.52 3.75c0 .691-.368 1.778-.923 3.037a.74.74 0 0 0-.073.167c-.961 2.142-2.434 4.747-3.569 6.758Zm5.722-8.233c.211-.67.335-1.261.335-1.731 0-1.87-.746-3.564-1.95-4.793a6.593 6.593 0 0 0-4.72-1.994 6.594 6.594 0 0 0-4.72 1.994 6.824 6.824 0 0 0-1.95 4.793c0 1.631 1.457 4.67 2.99 7.511l-5.53 3.192V23.617c1.83-1.02 3.657-2.06 5.482-3.11v3.504a.747.747 0 0 0 1.179.61l5.9-3.406a.743.743 0 0 0 .373-.645h.004v-4.399c1.662-.97 3.321-1.94 4.98-2.901v20.688l-2.373 1.37Zm-28.3-.568a.745.745 0 0 1-1.016.275L3.267 32.8a.745.745 0 0 1 .742-1.29l3.873 2.235c.356.205.478.659.274 1.015Zm21.965-4.538c-.845 0-1.61.35-2.164.914a3.119 3.119 0 0 0-.893 2.188c0 .852.342 1.627.893 2.19.553.564 1.319.914 2.164.914.844 0 1.61-.35 2.164-.915a3.118 3.118 0 0 0 .893-2.189c0-.85-.342-1.626-.893-2.188a3.022 3.022 0 0 0-2.164-.914Zm1.102 4.246a1.539 1.539 0 0 1-2.205 0 1.63 1.63 0 0 1-.46-1.144c0-.448.175-.853.46-1.143a1.542 1.542 0 0 1 2.205 0c.285.29.462.695.462 1.143 0 .45-.177.853-.462 1.144Z"/></g></svg>