<svg xmlns="http://www.w3.org/2000/svg" width="63" height="42" fill="none"><path fill="#006" d="M15.777 21.02a.825.825 0 0 0-.822-.829H6.212a.825.825 0 0 0-.821.829c0 .456.367.828.821.828h8.743a.825.825 0 0 0 .822-.828ZM14.955 7.082H6.212a.825.825 0 0 0-.821.828c0 .458.367.828.821.828h8.743c.454 0 .822-.37.822-.828a.825.825 0 0 0-.822-.828Z"/><mask id="a" width="13" height="3" x="0" y="13" maskUnits="userSpaceOnUse" style="mask-type:luminance"><path fill="#fff" d="M0 13.492h12.486v1.873H0v-1.873Z"/></mask><g mask="url(#a)"><path fill="#006" d="M.822 15.297h10.824c.454 0 .822-.37.822-.828a.825.825 0 0 0-.822-.828H.822a.825.825 0 0 0-.822.828c0 .457.368.828.822.828Z"/></g><path fill="#006" d="M53.803 34.047c-.926 0-1.676.756-1.676 1.688 0 .933.75 1.688 1.676 1.688.924 0 1.675-.755 1.675-1.688 0-.932-.75-1.688-1.675-1.688ZM22.534 34.047c-.925 0-1.675.756-1.675 1.688 0 .933.75 1.688 1.675 1.688a1.68 1.68 0 0 0 1.675-1.688c0-.932-.75-1.688-1.675-1.688ZM57.24 24.173h-9.3V14.8h3.216l6.084 6.132v3.24ZM46.296 13.145v12.684h12.588v-5.582l-7.047-7.102h-5.54Z"/><mask id="b" width="50" height="42" x="13" y="0" maskUnits="userSpaceOnUse" style="mask-type:luminance"><path fill="#fff" d="M13.312 0H63v41.63H13.312V0Z"/></mask><g mask="url(#b)"><path fill="#006" d="M61.356 34.108c0 .43-.347.779-.772.779h-1.003c-.41-2.846-2.842-5.041-5.779-5.041s-5.368 2.195-5.78 5.04h-19.71c-.411-2.845-2.842-5.04-5.779-5.04-2.936 0-5.366 2.194-5.778 5.04a1.799 1.799 0 0 1-1.775-1.803v-4.417h28.812V10.659h6.169c1.898 0 3.681.745 5.023 2.097l4.292 4.325a7.14 7.14 0 0 1 2.08 5.061v11.966Zm-7.554 5.866c-2.317 0-4.204-1.9-4.204-4.236s1.887-4.236 4.204-4.236c2.318 0 4.204 1.9 4.204 4.236s-1.886 4.236-4.204 4.236Zm-31.269 0c-2.318 0-4.203-1.9-4.203-4.236s1.885-4.236 4.203-4.236c2.318 0 4.204 1.9 4.204 4.236s-1.886 4.236-4.204 4.236Zm33.613-28.389a8.654 8.654 0 0 0-6.185-2.581h-6.17V2.62c0-1.445-1.165-2.62-2.6-2.62H15.936c-1.433 0-2.6 1.175-2.6 2.62v2.313c0 .458.369.828.822.828.455 0 .823-.37.823-.828V2.62a.96.96 0 0 1 .955-.964h25.257c.527 0 .957.433.957.964v24.39h-27.17v-2.6a.825.825 0 0 0-.821-.829.825.825 0 0 0-.822.829v8.673c0 1.9 1.528 3.446 3.411 3.458.391 2.87 2.833 5.09 5.786 5.09 2.953 0 5.395-2.219 5.787-5.088h19.696c.392 2.869 2.833 5.088 5.786 5.088 2.953 0 5.395-2.219 5.787-5.088h.995A2.428 2.428 0 0 0 63 34.108V22.142c0-2.354-.91-4.567-2.562-6.232l-4.291-4.325Z"/></g></svg>