<svg xmlns="http://www.w3.org/2000/svg" width="46" height="45" fill="none"><mask id="a" width="41" height="41" x="0" y="0" maskUnits="userSpaceOnUse" style="mask-type:luminance"><path fill="#fff" d="M0 0h40.43v40.107H0V0Z"/></mask><g mask="url(#a)"><path fill="#006" d="M25.622 37.631a17.801 17.801 0 0 1-4.654.825v-9.874c.784.028 1.565.104 2.34.23a.814.814 0 0 0 .823-.363.823.823 0 0 0 .124-.45.762.762 0 0 0-.148-.443.799.799 0 0 0-.525-.328 20.194 20.194 0 0 0-2.614-.253v-6.103h9.379a24.492 24.492 0 0 1-.118 1.683.754.754 0 0 0 .036.312.808.808 0 0 0 1.166.455.82.82 0 0 0 .326-.336.755.755 0 0 0 .085-.302c.063-.6.102-1.205.124-1.812h6.731a17.062 17.062 0 0 1-.834 4.616.813.813 0 0 0-.028.31.817.817 0 0 0 .179.425.813.813 0 0 0 1.395-.255C43.447 13.672 33.856.393 20.917.091c-.25-.018-.5-.023-.75-.012h-.01a19.556 19.556 0 0 0-1.974.098 20.924 20.924 0 0 0-1.955.29 20.572 20.572 0 0 0-2.856.786 19.817 19.817 0 0 0-1.826.751 20.589 20.589 0 0 0-2.577 1.45 20.2 20.2 0 0 0-3.735 3.196 20.178 20.178 0 0 0-2.353 3.146 19.561 19.561 0 0 0-.932 1.729 20.202 20.202 0 0 0-.757 1.811 19.69 19.69 0 0 0-.793 2.833 20.43 20.43 0 0 0-.292 1.94 20.623 20.623 0 0 0-.017 3.869 19.485 19.485 0 0 0 .725 3.752 19.286 19.286 0 0 0 2.43 5.187 19.58 19.58 0 0 0 2.423 2.969c.071.129.17.231.298.307a19.67 19.67 0 0 0 10.267 5.498 19.853 19.853 0 0 0 3.924.364c2.01-.12 3.99-.416 5.945-.89a.765.765 0 0 0 .278-.15.794.794 0 0 0 .258-.389.835.835 0 0 0 .029-.312.784.784 0 0 0-.295-.54.856.856 0 0 0-.28-.146.806.806 0 0 0-.47.002ZM6.408 32.34a17.822 17.822 0 0 1-4.367-8.33 17.66 17.66 0 0 1-.396-3.138h6.739a27.883 27.883 0 0 0 1.437 8.91 19.732 19.732 0 0 0-3.413 2.558ZM33.894 7.82a18.695 18.695 0 0 1 4.798 11.444h-6.713a30.076 30.076 0 0 0-1.512-8.874 19.973 19.973 0 0 0 3.427-2.57Zm-3.987 1.037a18.339 18.339 0 0 0-3.989-6.291 18.358 18.358 0 0 1 6.845 4.093 16.694 16.694 0 0 1-2.856 2.198Zm-10.56 4.321v6.086h-9.313c.09-2.746.516-5.44 1.28-8.083a20.12 20.12 0 0 0 8.033 1.997Zm-7.516-3.536c1.554-4.216 4.08-7.39 7.516-7.887v9.762a18.89 18.89 0 0 1-7.516-1.875Zm9.137-7.925c3.108.342 5.799 3.584 7.496 7.934a18.874 18.874 0 0 1-7.496 1.866v-9.8ZM10.403 8.854a16.727 16.727 0 0 1-2.876-2.218 18.61 18.61 0 0 1 6.695-3.977 17.224 17.224 0 0 0-3.819 6.195Zm-.535 1.548a33.782 33.782 0 0 0-1.464 8.862H1.65a18.16 18.16 0 0 1 2.815-8.958 18.29 18.29 0 0 1 1.921-2.52 19.99 19.99 0 0 0 3.483 2.616Zm9.48 27.984c-3.017-.44-5.775-3.322-7.528-7.86a18.605 18.605 0 0 1 7.527-1.942v9.802Zm0-11.409a20.275 20.275 0 0 0-8.09 2.032 26.595 26.595 0 0 1-1.242-8.137h9.331v6.105Zm1.62-13.799a20.093 20.093 0 0 0 8.036-1.999 28.996 28.996 0 0 1 1.352 8.085h-9.389v-6.086ZM7.544 33.484a18.122 18.122 0 0 1 2.851-2.17c.43 1.156.976 2.254 1.64 3.296a17.518 17.518 0 0 0 2.293 2.887 19.1 19.1 0 0 1-6.784-4.013Z"/></g><mask id="b" width="22" height="22" x="24" y="24" maskUnits="userSpaceOnUse" style="mask-type:luminance"><path fill="#fff" d="M24.566 24.54h20.657v20.464H24.566V24.539Z"/></mask><g mask="url(#b)"><path fill="#006" d="m44.421 40.465-3.143-3.149a.836.836 0 0 0-.414-.22.863.863 0 0 0-.316-.001.8.8 0 0 0-.292.118.829.829 0 0 0-.124.098l-.72.706-2.052-2.055a6.994 6.994 0 0 0 1.44-3.203c.067-.39.1-.781.1-1.176-.374-9.385-13.903-9.388-14.278 0a6.959 6.959 0 0 0 .278 1.962 7.07 7.07 0 0 0 1.406 2.612 7.11 7.11 0 0 0 2.361 1.811 7.116 7.116 0 0 0 1.905.599 7.223 7.223 0 0 0 1.998.051 7.233 7.233 0 0 0 1.933-.5 7.203 7.203 0 0 0 1.717-1.014l2.042 2.044-.72.707a.796.796 0 0 0-.238.567.8.8 0 0 0 .233.57l3.144 3.148a2.623 2.623 0 0 0 1.87.774 2.645 2.645 0 0 0 1.114-.261c.116-.056.227-.12.334-.19a2.746 2.746 0 0 0 .565-.513 2.56 2.56 0 0 0 .394-.652 2.582 2.582 0 0 0 .159-1.496 2.696 2.696 0 0 0-.25-.72 2.579 2.579 0 0 0-.446-.617Zm-18.179-8.882a5.325 5.325 0 0 1 .107-1.068 5.578 5.578 0 0 1 .314-1.026 5.675 5.675 0 0 1 .51-.946 5.383 5.383 0 0 1 .687-.829 5.434 5.434 0 0 1 1.79-1.186 5.528 5.528 0 0 1 2.11-.416 5.651 5.651 0 0 1 1.077.105 5.47 5.47 0 0 1 1.035.311 5.657 5.657 0 0 1 .954.506 5.574 5.574 0 0 1 1.2 1.078c.114.138.222.282.322.43a5.69 5.69 0 0 1 .51.947 5.44 5.44 0 0 1 .01 4.174 5.564 5.564 0 0 1-1.164 1.778l-.004.005c-3.006 2.988-9.259 1.704-9.458-3.863Zm17.021 11.433a.991.991 0 0 1-.519.273 1.022 1.022 0 0 1-.759-.154 1.02 1.02 0 0 1-.153-.125l-2.574-2.578 1.439-1.414 2.573 2.578a.982.982 0 0 1 .275.515.999.999 0 0 1-.282.905Z"/></g></svg>