<svg width="142" height="142" fill="none" xmlns="http://www.w3.org/2000/svg"><g filter="url(#a)"><circle cx="67" cy="68" r="59" fill="#152968"/></g><mask id="b" style="mask-type:luminance" maskUnits="userSpaceOnUse" x="33" y="31" width="64" height="74"><path d="M33 31h63.75v74H33V31Z" fill="#fff"/></mask><g mask="url(#b)"><path d="M95.75 30.941H44.26a.972.972 0 0 0-.965.966v46.33c0 .529.438.966.966.966a.973.973 0 0 0 .965-.965V32.872h49.56v60.81c0 2.496-.966 4.838-2.73 6.602a9.27 9.27 0 0 1-6.603 2.728 9.267 9.267 0 0 1-6.603-2.728 9.266 9.266 0 0 1-2.73-6.603.966.966 0 0 0-.966-.965H45.226v-4.182a.973.973 0 0 0-.965-.965.972.972 0 0 0-.966.965v4.182h-9.333a.973.973 0 0 0-.965.965 11.21 11.21 0 0 0 3.295 7.966 11.198 11.198 0 0 0 7.969 3.296h41.191c3.014 0 5.832-1.172 7.969-3.296a11.19 11.19 0 0 0 3.296-7.966V31.907a.973.973 0 0 0-.966-.966Zm-51.49 72.071a9.27 9.27 0 0 1-6.603-2.728 9.178 9.178 0 0 1-2.678-5.637h39.262c.218 2.651 1.364 5.096 3.257 7 .514.516 1.067.966 1.647 1.365H44.261Zm-.965-18.34V82.1c0-.528.438-.965.966-.965.527 0 .965.437.965.965v2.574a.972.972 0 0 1-.965.965.972.972 0 0 1-.966-.965Zm6.758-36.357a.973.973 0 0 1-.966-.965V39.63c0-.528.438-.965.966-.965.527 0 .966.437.966.965v7.721a.972.972 0 0 1-.965.965Zm3.862 0a.972.972 0 0 1-.966-.965V39.63c0-.451.31-.837.747-.94a.955.955 0 0 1 1.082.502l2.034 4.067v-3.63c0-.527.437-.964.965-.964s.965.437.965.965v7.721a.965.965 0 0 1-.965.965.98.98 0 0 1-.863-.527l-2.034-4.067v3.63a.972.972 0 0 1-.965.964Zm8.69-.732-1.906-7.723a.972.972 0 0 1 .708-1.171.973.973 0 0 1 1.171.708l.978 3.977 1.017-3.977a.956.956 0 0 1 1.172-.695.965.965 0 0 1 .695 1.17l-1.957 7.723a.966.966 0 0 1-.94.734.988.988 0 0 1-.939-.734v-.012Zm10.94-2.163v-3.86a2.9 2.9 0 0 0-2.896-2.896 2.9 2.9 0 0 0-2.896 2.895v3.86a2.9 2.9 0 0 0 2.896 2.896 2.9 2.9 0 0 0 2.897-2.895Zm-3.861 0v-3.86c0-.529.438-.966.965-.966.528 0 .966.437.966.965v3.86a.973.973 0 0 1-.966.966.973.973 0 0 1-.965-.965Zm6.115 2.895a.972.972 0 0 1-.966-.965V39.63c0-.528.438-.965.966-.965s.965.437.965.965v7.721a.972.972 0 0 1-.965.965Zm5.033-6.872c-.54.541-.85 1.288-.85 2.047 0 .76.31 1.505.85 2.046.553.54 1.274.849 2.047.849.527 0 .965.438.965.965a.973.973 0 0 1-.965.965 4.791 4.791 0 0 1-3.412-1.415 4.862 4.862 0 0 1-1.416-3.41c0-1.262.514-2.51 1.416-3.411a4.791 4.791 0 0 1 3.412-1.415c.527 0 .965.437.965.965a.973.973 0 0 1-.965.965 2.84 2.84 0 0 0-2.047.85Zm6.23-.849v1.93h1.61c.527 0 .965.438.965.966a.972.972 0 0 1-.965.964h-1.61v1.93h2.896c.528 0 .966.44.966.966a.973.973 0 0 1-.966.965h-3.861a.972.972 0 0 1-.965-.965V39.63c0-.528.437-.965.965-.965h3.86c.529 0 .967.437.967.965a.974.974 0 0 1-.966.965h-2.896ZM48.444 55.072v23.166c0 .528.437.965.965.965h41.193a.972.972 0 0 0 .965-.965V55.072a.972.972 0 0 0-.965-.965H49.41a.972.972 0 0 0-.965.965ZM89.637 69.55H60.673v-5.79h28.964v5.79Zm-30.895 0h-8.367v-5.79h8.367v5.79Zm-8.367 1.931h8.367v5.792h-8.367V71.48Zm10.298 5.792V71.48h28.964v5.792H60.673Zm28.964-15.444H60.673v-5.791h28.964v5.791Zm-39.263-5.791h8.368v5.791h-8.367v-5.791Zm-1.93 32.496c0-.528.437-.965.965-.965h12.873c.528 0 .966.437.966.965a.973.973 0 0 1-.966.965H49.41a.973.973 0 0 1-.965-.965Z" fill="#fff"/></g><defs><filter id="a" x=".6" y=".6" width="140.8" height="140.8" filterUnits="userSpaceOnUse" color-interpolation-filters="sRGB"><feFlood flood-opacity="0" result="BackgroundImageFix"/><feColorMatrix in="SourceAlpha" values="0 0 0 0 0 0 0 0 0 0 0 0 0 0 0 0 0 0 127 0" result="hardAlpha"/><feOffset dx="4" dy="3"/><feGaussianBlur stdDeviation="5.7"/><feComposite in2="hardAlpha" operator="out"/><feColorMatrix values="0 0 0 0 0.128333 0 0 0 0 0.119778 0 0 0 0 0.119778 0 0 0 0.25 0"/><feBlend in2="BackgroundImageFix" result="effect1_dropShadow_5335_2933"/><feBlend in="SourceGraphic" in2="effect1_dropShadow_5335_2933" result="shape"/></filter></defs></svg>