<svg xmlns="http://www.w3.org/2000/svg" width="142" height="142" fill="none"><g filter="url(#a)"><circle cx="67" cy="68" r="59" fill="#152968"/></g><path fill="#fff" fill-rule="evenodd" d="M67 79.138c-5.95 0-10.767-4.813-10.767-10.807 0-5.947 4.817-10.76 10.766-10.76 5.95 0 10.815 4.813 10.815 10.76 0 5.994-4.865 10.807-10.815 10.807Zm0-19.444c-4.77 0-8.642 3.87-8.642 8.637 0 4.766 3.873 8.636 8.641 8.636 4.77 0 8.642-3.87 8.642-8.636 0-4.767-3.872-8.637-8.642-8.637Z" clip-rule="evenodd"/><mask id="b" width="36" height="63" x="33" y="34" maskUnits="userSpaceOnUse" style="mask-type:luminance"><path fill="#fff" d="M33 34.121h35.32V96.64H33V34.121Z"/></mask><g mask="url(#b)"><path fill="#fff" fill-rule="evenodd" d="M48.442 96.601a.95.95 0 0 1-.613-.188C38.573 90.04 33 79.564 33 68.332c0-18.736 15.253-33.98 34-33.98.614 0 1.087.472 1.087 1.085 0 .614-.473 1.086-1.087 1.086-17.519 0-31.828 14.3-31.828 31.809a31.836 31.836 0 0 0 13.884 26.287c.472.33.614 1.038.283 1.51-.236.284-.566.472-.897.472Z" clip-rule="evenodd"/></g><mask id="c" width="13" height="16" x="65" y="28" maskUnits="userSpaceOnUse" style="mask-type:luminance"><path fill="#fff" d="M65.653 28H77.21v15.007H65.653V28Z"/></mask><g mask="url(#c)"><path fill="#fff" fill-rule="evenodd" d="M67 42.81a1.68 1.68 0 0 1-.472-.096 1.1 1.1 0 0 1-.614-.99V29.17c0-.424.236-.755.614-.944.33-.189.803-.189 1.134.047l8.924 6.277c.284.236.425.566.425.897 0 .377-.141.707-.424.897l-8.925 6.276c-.19.142-.426.19-.662.19Zm1.087-11.563v8.4l5.996-4.2-5.996-4.2Z" clip-rule="evenodd"/></g><mask id="d" width="36" height="63" x="65" y="40" maskUnits="userSpaceOnUse" style="mask-type:luminance"><path fill="#fff" d="M65.654 40.031H101v62.518H65.654V40.031Z"/></mask><g mask="url(#d)"><path fill="#fff" fill-rule="evenodd" d="M67 102.312c-.566 0-1.085-.472-1.085-1.038 0-.613.52-1.086 1.085-1.086 17.567 0 31.875-14.3 31.875-31.856 0-10.477-5.194-20.341-13.883-26.24-.52-.378-.613-1.039-.284-1.511.332-.519.992-.614 1.512-.283C95.476 46.623 101 57.147 101 68.332c0 18.736-15.252 33.98-34 33.98Z" clip-rule="evenodd"/></g><mask id="e" width="13" height="16" x="56" y="93" maskUnits="userSpaceOnUse" style="mask-type:luminance"><path fill="#fff" d="M56.765 93.68H68.32v14.993H56.765V93.68Z"/></mask><g mask="url(#e)"><path fill="#fff" fill-rule="evenodd" d="M66.999 108.638c-.189 0-.425-.095-.614-.236l-8.925-6.277a1.055 1.055 0 0 1-.472-.85c0-.377.189-.708.473-.897l8.924-6.276a1.089 1.089 0 0 1 1.133-.095c.331.189.567.567.567.944v12.601c0 .377-.236.755-.567.944a.953.953 0 0 1-.52.142Zm-7.036-7.363 5.95 4.201v-8.4l-5.95 4.199Z" clip-rule="evenodd"/></g><path fill="#fff" fill-rule="evenodd" d="M70.353 91.318h-6.659c-.518 0-.99-.377-1.085-.897l-1.18-7.314a15.703 15.703 0 0 1-4.392-2.549L50.095 83.2c-.472.19-1.04-.046-1.322-.47l-3.306-5.759c-.283-.472-.19-1.085.237-1.415l5.76-4.673c-.141-.802-.236-1.699-.236-2.548 0-.85.095-1.7.236-2.549l-5.76-4.672c-.426-.33-.52-.897-.236-1.368l3.305-5.759c.282-.472.85-.66 1.322-.472l6.942 2.644a15.703 15.703 0 0 1 4.391-2.549l1.18-7.316a1.112 1.112 0 0 1 1.086-.896h6.659c.52 0 .992.378 1.04.896l1.18 7.316c1.605.614 3.117 1.463 4.438 2.549l6.895-2.644c.52-.188 1.086 0 1.322.472l3.353 5.759c.236.47.14 1.038-.284 1.368l-5.714 4.672c.142.85.19 1.7.19 2.549 0 .85-.048 1.699-.19 2.548l5.714 4.673c.425.33.52.943.284 1.415l-3.353 5.758c-.236.425-.802.614-1.322.425l-6.895-2.596c-1.321 1.086-2.833 1.935-4.438 2.549l-1.18 7.314c-.048.52-.52.897-1.04.897Zm-5.76-2.17h4.815l1.133-7.032c.095-.379.379-.709.756-.85 1.748-.567 3.353-1.51 4.77-2.784a1.113 1.113 0 0 1 1.086-.19l6.706 2.55 2.36-4.154-5.525-4.53a1.058 1.058 0 0 1-.33-1.039 18.03 18.03 0 0 0 .236-2.784c0-.897-.094-1.84-.236-2.738-.095-.424.048-.802.33-1.085l5.526-4.484-2.361-4.153-6.706 2.549a1.027 1.027 0 0 1-1.086-.236c-1.417-1.227-3.022-2.172-4.77-2.738a1.24 1.24 0 0 1-.756-.85l-1.133-7.031h-4.816L63.458 54.6c-.046.377-.33.708-.708.85a12.99 12.99 0 0 0-4.769 2.737c-.33.283-.756.377-1.134.236l-6.657-2.549-2.409 4.153 5.524 4.484c.331.283.473.66.379 1.085a13.609 13.609 0 0 0 0 5.522.994.994 0 0 1-.379 1.039l-5.524 4.53 2.409 4.153 6.657-2.548c.378-.142.803-.047 1.134.189a12.476 12.476 0 0 0 4.769 2.784c.378.141.662.471.708.85l1.134 7.031Z" clip-rule="evenodd"/><defs><filter id="a" width="140.8" height="140.8" x=".6" y=".6" color-interpolation-filters="sRGB" filterUnits="userSpaceOnUse"><feFlood flood-opacity="0" result="BackgroundImageFix"/><feColorMatrix in="SourceAlpha" result="hardAlpha" values="0 0 0 0 0 0 0 0 0 0 0 0 0 0 0 0 0 0 127 0"/><feOffset dx="4" dy="3"/><feGaussianBlur stdDeviation="5.7"/><feComposite in2="hardAlpha" operator="out"/><feColorMatrix values="0 0 0 0 0.128333 0 0 0 0 0.119778 0 0 0 0 0.119778 0 0 0 0.25 0"/><feBlend in2="BackgroundImageFix" result="effect1_dropShadow_5335_2905"/><feBlend in="SourceGraphic" in2="effect1_dropShadow_5335_2905" result="shape"/></filter></defs></svg>