<svg width="142" height="142" fill="none" xmlns="http://www.w3.org/2000/svg"><g filter="url(#a)"><circle cx="67" cy="68" r="59" fill="#152968"/></g><mask id="b" style="mask-type:luminance" maskUnits="userSpaceOnUse" x="33" y="28" width="69" height="80"><path d="M33 28h68.092v79.332H33V28Z" fill="#fff"/></mask><g mask="url(#b)"><path d="M101.05 48.223c0-.008 0-.014-.002-.022l-.001-.045c-.002-.029-.002-.053-.007-.08l-.005-.038c-.005-.029-.008-.057-.016-.086l-.006-.026c-.008-.032-.016-.064-.026-.095a.12.12 0 0 1-.005-.018c-.013-.034-.025-.068-.039-.1l-.008-.017a4.153 4.153 0 0 0-.047-.095l-.004-.006-.008-.01a1.395 1.395 0 0 0-.075-.113c-.006-.01-.014-.017-.02-.028a.967.967 0 0 0-.097-.11l-.02-.018a.926.926 0 0 0-.085-.073c-.02-.016-.037-.03-.057-.043a.387.387 0 0 0-.048-.032c-.015-.01-.031-.025-.049-.034l-32.76-18.91a1.257 1.257 0 0 0-1.261.002L33.642 47.138a1.258 1.258 0 0 0-.623 1.17v37.74c0 .434.226.858.63 1.089l32.658 18.851.009.006c.046.031.091.059.14.085l.034.016c.046.021.092.04.139.058.008.001.016.005.024.007.053.018.109.03.164.04l.042.006c.057.007.116.013.176.013h.002c.06 0 .118-.006.178-.013l.04-.006c.057-.01.112-.022.166-.04.008-.002.014-.006.022-.007.047-.016.094-.037.14-.058.012-.007.022-.01.033-.016.05-.026.096-.054.141-.085l.01-.006 11.076-6.394a409.456 409.456 0 0 0 1.77 3.148c.855 1.511 1.599 2.828 2.12 3.82a1.255 1.255 0 0 0 2.226 0c.516-.984 1.256-2.294 2.108-3.801 1.89-3.347 4.31-7.629 5.998-11.376l7.362-4.248a1.25 1.25 0 0 0 .629-1.089l-.006-37.825ZM67.035 65.686l-.94-.542-29.306-16.92L45.84 43l30.246 17.46-3.71 2.143-5.341 3.084Zm-10.92-28.617 30.247 17.459-7.761 4.479-30.246-17.46 7.76-4.478Zm23.958 24.094a2567.7 2567.7 0 0 0 7.54-4.391v5.23l-7.54 4.353v-5.192Zm-13.038-30.4 30.248 17.461-8.41 4.855-30.248-17.46 8.41-4.855ZM35.53 50.402 64.25 66.974l1.527.881v34.927l-30.247-17.46.002-34.921Zm49.346 51.13-1.036 1.837-1.049-1.866c-3.108-5.496-7.69-13.596-7.69-16.787 0-2.475.98-4.714 2.564-6.329a8.63 8.63 0 0 1 6.175-2.606c2.412 0 4.595.997 6.175 2.606a9.002 9.002 0 0 1 2.565 6.329c0 1.167-.62 3.002-1.557 5.127a1.24 1.24 0 0 0-.124.283c-1.622 3.615-4.107 8.012-6.023 11.406Zm9.658-13.897c.356-1.13.566-2.128.566-2.921 0-3.156-1.26-6.017-3.293-8.09-2.038-2.079-4.856-3.366-7.967-3.366-3.11 0-5.927 1.287-7.967 3.366a11.52 11.52 0 0 0-3.292 8.09c0 2.753 2.462 7.882 5.05 12.678l-9.336 5.388V67.865a763.02 763.02 0 0 0 9.254-5.25v5.915a1.26 1.26 0 0 0 1.99 1.03l9.958-5.749c.404-.232.63-.653.63-1.088h.006v-7.425c2.805-1.64 5.607-3.275 8.406-4.897l.002 34.92-4.007 2.313Zm-47.768-.958c-.345.6-1.113.808-1.714.463l-6.538-3.772a1.258 1.258 0 0 1-.464-1.714 1.258 1.258 0 0 1 1.716-.464l6.537 3.773c.602.347.808 1.112.463 1.714Zm37.074-7.66a5.1 5.1 0 0 0-3.652 1.543 5.265 5.265 0 0 0-1.507 3.694c0 1.438.577 2.745 1.507 3.694a5.1 5.1 0 0 0 3.652 1.544 5.1 5.1 0 0 0 3.653-1.544 5.262 5.262 0 0 0 1.507-3.694 5.262 5.262 0 0 0-1.507-3.694 5.1 5.1 0 0 0-3.653-1.544Zm1.861 7.167a2.599 2.599 0 0 1-3.721 0 2.75 2.75 0 0 1-.778-1.93c0-.758.296-1.44.778-1.93a2.598 2.598 0 0 1 3.722 0c.48.49.778 1.172.778 1.93s-.298 1.439-.779 1.93Z" fill="#FAFAFA"/></g><defs><filter id="a" x=".6" y=".6" width="140.8" height="140.8" filterUnits="userSpaceOnUse" color-interpolation-filters="sRGB"><feFlood flood-opacity="0" result="BackgroundImageFix"/><feColorMatrix in="SourceAlpha" values="0 0 0 0 0 0 0 0 0 0 0 0 0 0 0 0 0 0 127 0" result="hardAlpha"/><feOffset dx="4" dy="3"/><feGaussianBlur stdDeviation="5.7"/><feComposite in2="hardAlpha" operator="out"/><feColorMatrix values="0 0 0 0 0.128333 0 0 0 0 0.119778 0 0 0 0 0.119778 0 0 0 0.25 0"/><feBlend in2="BackgroundImageFix" result="effect1_dropShadow_5327_2742"/><feBlend in="SourceGraphic" in2="effect1_dropShadow_5327_2742" result="shape"/></filter></defs></svg>