<svg xmlns="http://www.w3.org/2000/svg" width="142" height="142" fill="none"><g filter="url(#a)"><circle cx="67" cy="68" r="59" fill="#152968"/></g><mask id="b" width="78" height="81" x="28" y="28" maskUnits="userSpaceOnUse" style="mask-type:luminance"><path fill="#fff" d="M28 28h78v80.373H28V28Z"/></mask><g mask="url(#b)"><path fill="#fff" fill-rule="evenodd" d="M104.993 77.624c-.737-1.243-3.764-4.934-11.758-.233L89.3 79.706c.7-1.765 1.123-3.62 1.242-5.507.234-3.722-.67-7.422-2.685-10.997-2.174-3.853-5.483-8.206-10.346-13.596a4.34 4.34 0 0 0 2.252-3.81c0-2.187-1.613-3.999-3.7-4.289l2.902-2.932a4.45 4.45 0 0 0 0-6.244 4.366 4.366 0 0 0-5.453-.592.326.326 0 0 1-.338.031.333.333 0 0 1-.218-.262c-.436-2.015-2.232-3.477-4.271-3.477-2.04 0-3.836 1.462-4.27 3.477a.331.331 0 0 1-.218.262.326.326 0 0 1-.338-.03 4.366 4.366 0 0 0-5.454.591 4.41 4.41 0 0 0-1.276 3.122c0 1.182.453 2.29 1.276 3.121l2.903 2.933c-2.087.29-3.7 2.102-3.7 4.29a4.34 4.34 0 0 0 2.25 3.809c-4.86 5.388-8.17 9.743-10.344 13.597-2.62 4.644-3.366 9.544-2.182 14.234l-7.974 4.662-.993-1.774a3.305 3.305 0 0 0-4.524-1.266l-3.959 2.262c-1.592.91-2.154 2.96-1.253 4.569l11.636 20.764a3.318 3.318 0 0 0 2.895 1.701c.553 0 1.114-.14 1.629-.435l3.957-2.262c1.594-.911 2.156-2.961 1.255-4.57l-1.204-2.147 2.403-1.402 18.07 4.889c1.02.277 2.02.415 3 .415 1.952 0 3.818-.548 5.574-1.641l25.598-15.918c2.33-1.449 3.069-5.1 1.551-7.66Zm-45.379-42.17a1.884 1.884 0 0 1 2.902-1.601 2.791 2.791 0 0 0 2.632.236 2.835 2.835 0 0 0 1.694-2.046 1.906 1.906 0 0 1 1.843-1.503c.88 0 1.655.632 1.843 1.503.202.935.82 1.68 1.695 2.046.875.366 1.834.28 2.63-.237a1.884 1.884 0 0 1 2.904 1.602c0 .511-.195.989-.548 1.346l-4.621 4.666h-7.805L60.162 36.8a1.896 1.896 0 0 1-.548-1.346Zm2.28 8.521h13.582c.993 0 1.801.818 1.801 1.821 0 1.003-.808 1.82-1.8 1.82H61.893a1.812 1.812 0 0 1-1.8-1.821c0-1.002.808-1.82 1.8-1.82Zm-10.22 20.47c2.233-3.963 5.764-8.522 11.088-14.32h11.847c5.323 5.798 8.854 10.358 11.088 14.32 3.378 5.992 3.182 12.424-.526 17.69l-6.04 3.554a7.75 7.75 0 0 1-2.201.89c.282-.454.505-.97.656-1.539.72-2.714-.877-5.547-3.637-6.45a1.188 1.188 0 0 0-.162-.04 35.445 35.445 0 0 1-.863-.17c.448-.287.842-.62 1.164-.996.833-.974 1.188-2.194 1.028-3.53-.491-4.082-4.843-4.804-6.273-5.04-3.61-.6-3.683-2.108-3.71-2.677-.079-1.644 1.25-2.54 2.52-2.831.298-.068.608-.108.922-.117.045.003.089.002.132 0 1.44.004 2.929.684 3.624 2.355.266.639.994.94 1.627.671a1.26 1.26 0 0 0 .664-1.643c-.95-2.288-2.826-3.448-4.752-3.783v-1.205a1.25 1.25 0 0 0-1.243-1.254c-.686 0-1.242.562-1.242 1.254V60.8a5.357 5.357 0 0 0-.282.059c-2.787.637-4.577 2.808-4.452 5.4.09 1.872 1.167 4.265 5.79 5.031 3.493.58 4.084 1.837 4.208 2.867.075.632-.069 1.15-.44 1.585-1.274 1.486-3.874 1.612-5.569.894-.779-.331-1.759-1.005-2.092-2.353a1.242 1.242 0 0 0-1.506-.915 1.257 1.257 0 0 0-.906 1.523l.045.162c-.993-.362-1.928-.7-2.735-.965-3.607-1.181-6.87.283-9.586 1.87l-.277.162c-.78-3.84-.07-7.844 2.09-11.675Zm-4.152 39.029-3.958 2.261a.84.84 0 0 1-1.136-.318L30.792 84.654a.858.858 0 0 1 .315-1.148l3.958-2.263a.844.844 0 0 1 1.136.318l11.636 20.765a.86.86 0 0 1-.315 1.148Zm54.617-20.328-25.597 15.92c-2.034 1.263-4.263 1.579-6.629.939L51.346 94.98a1.232 1.232 0 0 0-.944.125l-2.83 1.651-6.99-12.473 10.524-6.153c2.354-1.377 4.902-2.53 7.574-1.654a101.4 101.4 0 0 1 2.99 1.059c3.28 1.199 7.356 2.686 11.586 3.468 1.48.521 2.306 1.964 1.93 3.387-.497 1.871-2.042 2.104-3.269 1.962-2.079-.431-4.053-1.001-6.143-1.603-.99-.286-2.015-.582-3.068-.867a1.243 1.243 0 0 0-1.522.888 1.258 1.258 0 0 0 .879 1.537c1.033.28 2.048.572 3.03.855 2.152.621 4.185 1.207 6.374 1.66l1.804.296c2.62.424 4.946.011 7.11-1.26l14.105-8.298c4.065-2.39 7.196-2.632 8.374-.647.812 1.37.448 3.506-.721 4.233Zm-65.922 2.116a1.426 1.426 0 0 1-1.193 1.618 1.416 1.416 0 0 1-1.603-1.206 1.425 1.425 0 0 1 1.194-1.619 1.415 1.415 0 0 1 1.602 1.207Z" clip-rule="evenodd"/></g><defs><filter id="a" width="140.8" height="140.8" x=".6" y=".6" color-interpolation-filters="sRGB" filterUnits="userSpaceOnUse"><feFlood flood-opacity="0" result="BackgroundImageFix"/><feColorMatrix in="SourceAlpha" result="hardAlpha" values="0 0 0 0 0 0 0 0 0 0 0 0 0 0 0 0 0 0 127 0"/><feOffset dx="4" dy="3"/><feGaussianBlur stdDeviation="5.7"/><feComposite in2="hardAlpha" operator="out"/><feColorMatrix values="0 0 0 0 0.128333 0 0 0 0 0.119778 0 0 0 0 0.119778 0 0 0 0.25 0"/><feBlend in2="BackgroundImageFix" result="effect1_dropShadow_5335_2928"/><feBlend in="SourceGraphic" in2="effect1_dropShadow_5335_2928" result="shape"/></filter></defs></svg>