<svg xmlns="http://www.w3.org/2000/svg" width="142" height="142" fill="none"><path fill="#fff" d="M41.943 76.644a.86.86 0 0 0 0 1.72h15.78a.858.858 0 0 0 .852-.867.864.864 0 0 0-.852-.853h-15.78Z"/><g filter="url(#a)"><circle cx="67" cy="68" r="59" fill="#152968"/></g><mask id="b" width="77" height="70" x="29" y="37" maskUnits="userSpaceOnUse" style="mask-type:luminance"><path fill="#fff" d="M29 37h76.091v70H29V37Z"/></mask><g mask="url(#b)"><path fill="#fff" d="M32.601 40.02h68.876c.338 0 .608.262.608.598v46.328c0 .33-.27.591-.608.591H32.601a.595.595 0 0 1-.601-.59v-46.33c0-.335.27-.598.601-.598Zm-2.094-2.98c-.83 0-1.507.663-1.507 1.49v50.51c0 .826.676 1.492 1.5 1.492H59.432c.832 0 1.507.67 1.507 1.497v2.712c0 4.947-4.04 8.962-9.019 8.962h-.708v3.062H82.88v-3.062h-.71c-4.978 0-9.017-4.015-9.017-8.962v-2.712c0-.826.675-1.497 1.506-1.497h28.933c.823 0 1.499-.666 1.499-1.492V38.53c0-.827-.676-1.49-1.499-1.49H30.507Z"/></g><path fill="#fff" d="M41.943 73.016a.859.859 0 0 0 0 1.718h15.78a.858.858 0 0 0 .852-.866.863.863 0 0 0-.852-.852h-15.78ZM50.698 46.785v10.392l9.052 5.19c2.607-5.445.29-11.957-5.188-14.548a11.072 11.072 0 0 0-3.864-1.034Z"/><path fill="#fff" d="M48.97 46.785v11.38l9.916 5.692c-3.438 4.968-10.275 6.223-15.273 2.806-5-3.417-6.269-10.21-2.83-15.179a11.007 11.007 0 0 1 8.187-4.699ZM82.697 60.34l-3.77-5.935a1.735 1.735 0 0 0-2.79-.181l-4.863 5.821-1.338-1.101 4.871-5.82a3.475 3.475 0 0 1 5.587.362l3.77 5.934a1.728 1.728 0 0 0 2.384.537c.182-.114.338-.254.46-.422L92.6 52.11l-.83-.618 3.161-1.047-.121 3.317-.825-.619-5.593 7.418a3.468 3.468 0 0 1-4.837.699 3.464 3.464 0 0 1-.852-.92h-.006ZM90.967 59.867h3.295v15.588h-3.295V59.867ZM83.326 75.45v-8.868h3.303v8.869h-3.303Z"/><path fill="#fff" d="M75.686 75.45V57.895h3.303v17.557h-3.303ZM71.35 75.451h-3.296V62.844h3.296V75.45Z"/><defs><filter id="a" width="140.8" height="140.8" x=".6" y=".6" color-interpolation-filters="sRGB" filterUnits="userSpaceOnUse"><feFlood flood-opacity="0" result="BackgroundImageFix"/><feColorMatrix in="SourceAlpha" result="hardAlpha" values="0 0 0 0 0 0 0 0 0 0 0 0 0 0 0 0 0 0 127 0"/><feOffset dx="4" dy="3"/><feGaussianBlur stdDeviation="5.7"/><feComposite in2="hardAlpha" operator="out"/><feColorMatrix values="0 0 0 0 0.128333 0 0 0 0 0.119778 0 0 0 0 0.119778 0 0 0 0.25 0"/><feBlend in2="BackgroundImageFix" result="effect1_dropShadow_5335_2992"/><feBlend in="SourceGraphic" in2="effect1_dropShadow_5335_2992" result="shape"/></filter></defs></svg>