<svg width="142" height="142" fill="none" xmlns="http://www.w3.org/2000/svg"><g filter="url(#a)"><circle cx="67" cy="68" r="59" fill="#152968"/></g><path d="M90.015 56.062h2.28c.628 0 1.141-.512 1.141-1.138 0-.626-.513-1.139-1.14-1.139h-2.281c-.627 0-1.141.513-1.141 1.139s.514 1.138 1.14 1.138ZM84.54 66.998l1.597 1.595c.455.455 1.197.455 1.596 0a1.099 1.099 0 0 0 0-1.595l-1.596-1.594a1.104 1.104 0 0 0-1.597 0 1.1 1.1 0 0 0 0 1.594ZM61.956 44.44c.456.456 1.197.456 1.597 0a1.1 1.1 0 0 0 0-1.594l-1.597-1.594a1.103 1.103 0 0 0-1.596 0 1.099 1.099 0 0 0 0 1.594l1.596 1.594Z" fill="#fff"/><mask id="b" style="mask-type:luminance" maskUnits="userSpaceOnUse" x="76" y="94" width="14" height="8"><path d="M76.998 94.27h12.96v7.348h-12.96v-7.349Z" fill="#fff"/></mask><g mask="url(#b)"><path d="M87.676 94.27c0 .17.057.34.057.512 0 2.505-2.053 4.556-4.562 4.556-1.825 0-3.422-1.082-4.163-2.677l-1.768 1.594c1.198 1.995 3.364 3.36 5.874 3.36 3.764 0 6.844-3.074 6.844-6.833v-.513h-2.282Z" fill="#fff"/></g><path d="M72.906 70.245c0-1.71-1.369-3.076-3.023-3.076-.627 0-2.395-.284-3.593-.513l-3.08-3.246c-.684.456-1.425.798-2.224.968l3.936 4.1c.17.172.399.286.627.343.342.057 3.25.57 4.334.57.399 0 .742.341.742.797 0 .342-.457.74-1.084.797l-5.703-.513-4.334-3.417c-.514-.399-1.198-.285-1.597.17-.4.514-.286 1.197.171 1.596l4.563 3.588c.17.114.398.227.627.227 0 0 6.158.57 6.216.57 1.882.057 3.422-1.31 3.422-2.961ZM55.682 55.209l-.342 1.651c-.285 1.253-.057 2.507.627 3.532a4.199 4.199 0 0 0 2.681 1.822c2.395.456 4.733-1.253 5.246-3.588l.343-1.652c.285-1.252.056-2.506-.628-3.53a4.19 4.19 0 0 0-2.68-1.823c-2.338-.513-4.734 1.138-5.247 3.588Zm1.882 2.107.342-1.651c.229-1.14 1.198-1.88 2.225-1.88 1.369 0 2.167 1.48 1.882 2.733l-.343 1.652c-.285 1.253-1.426 2.107-2.566 1.88-1.198-.286-1.768-1.595-1.54-2.734ZM31.844 85.106h-2.282c-.627 0-1.14.512-1.14 1.138 0 .627.513 1.14 1.14 1.14h2.282c.627 0 1.14-.513 1.14-1.14 0-.626-.513-1.138-1.14-1.138ZM31.844 94.219h-2.282c-.627 0-1.14.512-1.14 1.138 0 .626.513 1.139 1.14 1.139h2.282c.627 0 1.14-.513 1.14-1.139s-.513-1.138-1.14-1.138Z" fill="#fff"/><mask id="c" style="mask-type:luminance" maskUnits="userSpaceOnUse" x="25" y="89" width="9" height="4"><path d="M25 89.52h8.092v2.645H25v-2.646Z" fill="#fff"/></mask><g mask="url(#c)"><path d="M31.844 89.668H26.14c-.627 0-1.141.512-1.141 1.138 0 .628.514 1.14 1.14 1.14h5.704c.627 0 1.14-.512 1.14-1.14 0-.626-.513-1.138-1.14-1.138Z" fill="#fff"/></g><path d="M48.897 83.68h6.957l6.844 9.111c.399.57 1.14.97 1.825.97h5.818c.342 0 .627-.115.855-.4l5.475-6.208c.285-.284.342-.683.227-1.081l-3.135-10.82a1.189 1.189 0 0 0-.344-.571l-.398-.341c-.627.512-1.426.854-2.282 1.025l.913.797 2.851 9.91-4.733 5.353h-5.304l-6.9-9.112c-.4-.57-1.141-.968-1.825-.968h-4.906c-.342.968-1.083 1.766-1.938 2.335Z" fill="#fff"/><path d="m82.601 82.431-3.479-7.517.799-.513c.912-.569 1.54-1.709 1.54-2.733V69.73c0-1.253-1.026-2.278-2.339-2.278H74.39c.4.683.684 1.48.741 2.278h4.05v1.937c0 .227-.228.682-.457.797l-1.71 1.025c-.514.285-.684.911-.457 1.424l4.277 9.055c.172.398.57.627.97.684.228 0 5.418.341 7.357 5.068h-8.84c-.285 0-.57.114-.741.284l-5.988 5.411c-.285.228-.913.513-1.255.513H59.79c-.456 0-.741-.342-1.026-.627l-4.448-4.613a1.125 1.125 0 0 0-.799-.342H38.118c.285-1.707 1.425-4.783 5.36-6.264l-3.08-.911c-3.65 2.449-4.39 6.094-4.562 7.404-.113.968.627 2.106 1.654 2.106h15.57l4.048 4.215c.57.797 1.711 1.367 2.681 1.367h12.547c.913 0 2.11-.456 2.794-1.082l5.647-5.126h9.296c.513 0 1.026-.228 1.311-.626.285-.399.399-.911.228-1.367-1.482-5.354-6.216-7.233-9.01-7.632Z" fill="#fff"/><mask id="d" style="mask-type:luminance" maskUnits="userSpaceOnUse" x="50" y="31" width="48" height="47"><path d="M50.019 31h47.98v46.344H50.02V31Z" fill="#fff"/></mask><g mask="url(#d)"><path d="M51.747 57.996c.342.114.627.227.913.34-.172-1.138-.285-2.277-.285-3.416 0-11.96 9.695-21.642 21.671-21.642 11.976 0 21.671 9.682 21.671 21.642 0 8.828-5.303 16.402-12.888 19.762a6.816 6.816 0 0 1-.856 1.026l.685 1.48c8.954-3.416 15.34-12.13 15.34-22.268 0-13.212-10.72-23.92-23.952-23.92-13.231 0-23.953 10.708-23.953 23.92 0 .855.057 1.766.17 2.62l1.484.456Z" fill="#fff"/></g><path d="m49.124 79.754 1.71-6.264 1.769.455c.627.17 1.254-.228 1.368-.797.171-.627-.17-1.254-.798-1.367l-1.769-.456 1.94-6.948c.513-1.823-.514-3.702-2.282-4.214l-9.58-2.848c-1.768-.512-3.65.626-4.164 2.335l-4.277 15.434c-.513 1.822.513 3.702 2.28 4.214l9.583 2.849c1.197.284 3.478.113 4.22-2.393ZM35.322 75.71s4.22-15.377 4.277-15.435c.172-.57.742-.91 1.312-.796l9.581 2.847c.57.17.912.798.742 1.424 0 0-4.22 15.377-4.277 15.433-.172.57-.742.969-1.313.798l-9.58-2.847c-.57-.172-.913-.798-.742-1.424ZM81.404 63.349c.456.398 1.197.398 1.597-.057a1.1 1.1 0 0 0-.057-1.595l-5.818-5.354c.172-.398.285-.854.285-1.366 0-.57-.17-1.139-.398-1.651l4.619-5.184c.399-.456.399-1.195-.114-1.594-.456-.399-1.198-.399-1.597.114l-4.62 5.182c-.341-.227-.798-.34-1.254-.34a3.429 3.429 0 0 0-3.421 3.416c0 1.88 1.539 3.416 3.421 3.416.57 0 1.083-.17 1.597-.398 0 0 5.76 5.354 5.76 5.41Zm-7.357-7.29c-.628 0-1.14-.513-1.14-1.14 0-.625.512-1.138 1.14-1.138.627 0 1.141.513 1.141 1.139s-.514 1.138-1.14 1.138Z" fill="#fff"/><mask id="e" style="mask-type:luminance" maskUnits="userSpaceOnUse" x="38" y="94" width="15" height="8"><path d="M38.646 94.8h14.018v6.82H38.646V94.8Z" fill="#fff"/></mask><g mask="url(#e)"><path d="M50.264 94.902c-.057 2.449-2.11 4.443-4.561 4.443-2.453 0-4.506-1.994-4.563-4.443H38.86a6.835 6.835 0 0 0 6.844 6.72c3.592 0 6.5-2.733 6.786-6.264l-.456-.456h-1.769Z" fill="#fff"/></g><path d="M47.414 94.898h-3.422a1.692 1.692 0 0 0 1.71 1.595c.913 0 1.654-.683 1.712-1.595ZM61.271 74.286l-1.027-.798-.969 4.101c-.114.512.114 1.025.57 1.252l3.821 2.051c.115.114 2.51 8.315 2.51 8.315h2.395s-2.395-8.088-2.452-8.201c-.172-.74-.514-1.651-1.255-2.05l-3.194-1.709.57-2.449a3.201 3.201 0 0 1-.969-.512ZM86.137 44.44l1.596-1.594a1.099 1.099 0 0 0 0-1.594 1.103 1.103 0 0 0-1.596 0l-1.597 1.594a1.1 1.1 0 0 0 0 1.594c.456.456 1.14.456 1.597 0ZM84.311 94.898H82.03c.058.57.513 1.025 1.14 1.025.629 0 1.084-.455 1.141-1.025Z" fill="#fff"/><defs><filter id="a" x=".6" y=".6" width="140.8" height="140.8" filterUnits="userSpaceOnUse" color-interpolation-filters="sRGB"><feFlood flood-opacity="0" result="BackgroundImageFix"/><feColorMatrix in="SourceAlpha" values="0 0 0 0 0 0 0 0 0 0 0 0 0 0 0 0 0 0 127 0" result="hardAlpha"/><feOffset dx="4" dy="3"/><feGaussianBlur stdDeviation="5.7"/><feComposite in2="hardAlpha" operator="out"/><feColorMatrix values="0 0 0 0 0.128333 0 0 0 0 0.119778 0 0 0 0 0.119778 0 0 0 0.25 0"/><feBlend in2="BackgroundImageFix" result="effect1_dropShadow_5335_2939"/><feBlend in="SourceGraphic" in2="effect1_dropShadow_5335_2939" result="shape"/></filter></defs></svg>