<svg width="947" height="191" fill="none" xmlns="http://www.w3.org/2000/svg"><g filter="url(#a)"><rect x="11" y="9" width="927" height="171.118" rx="6.737" fill="#FCFCFC"/></g><path d="M230.782 85.577c-3.147 0-6.273-.41-9.377-1.229-3.062-.862-5.692-2.07-7.891-3.622l4.14-8.02c1.724 1.251 3.708 2.243 5.95 2.976 2.285.733 4.591 1.1 6.92 1.1 2.63 0 4.699-.518 6.209-1.553 1.509-1.035 2.263-2.48 2.263-4.333 0-1.164-.302-2.2-.905-3.105-.604-.905-1.682-1.595-3.234-2.07-1.509-.474-3.643-.71-6.403-.71h-11.577l2.329-25.482h27.616v8.407h-23.865l5.433-4.786-1.617 18.174-5.433-4.786h9.572c4.484 0 8.084.625 10.8 1.876 2.76 1.207 4.765 2.867 6.015 4.98 1.251 2.112 1.876 4.505 1.876 7.178 0 2.674-.669 5.153-2.005 7.438-1.337 2.242-3.406 4.075-6.209 5.497-2.759 1.38-6.295 2.07-10.607 2.07Zm42.474 0c-3.708 0-7.028-.906-9.96-2.716-2.932-1.855-5.239-4.528-6.92-8.02-1.682-3.492-2.522-7.718-2.522-12.676 0-4.959.84-9.184 2.522-12.676 1.681-3.493 3.988-6.145 6.92-7.955 2.932-1.854 6.252-2.781 9.96-2.781 3.751 0 7.071.927 9.96 2.78 2.932 1.811 5.238 4.463 6.92 7.956 1.681 3.492 2.522 7.717 2.522 12.676 0 4.958-.841 9.184-2.522 12.676-1.682 3.492-3.988 6.166-6.92 8.02-2.889 1.81-6.209 2.716-9.96 2.716Zm0-8.86c1.768 0 3.298-.496 4.592-1.488 1.336-.992 2.371-2.566 3.104-4.721.776-2.156 1.164-4.937 1.164-8.343 0-3.407-.388-6.188-1.164-8.343-.733-2.156-1.768-3.73-3.104-4.722-1.294-.991-2.824-1.487-4.592-1.487-1.725 0-3.255.496-4.592 1.487-1.293.992-2.328 2.566-3.104 4.722-.733 2.155-1.1 4.936-1.1 8.343 0 3.406.367 6.187 1.1 8.343.776 2.156 1.811 3.73 3.104 4.721 1.337.992 2.867 1.487 4.592 1.487Zm43.895 8.86c-3.708 0-7.028-.906-9.96-2.716-2.932-1.855-5.238-4.528-6.92-8.02-1.681-3.492-2.522-7.718-2.522-12.676 0-4.959.841-9.184 2.522-12.676 1.682-3.493 3.988-6.145 6.92-7.955 2.932-1.854 6.252-2.781 9.96-2.781 3.751 0 7.071.927 9.96 2.78 2.932 1.811 5.239 4.463 6.92 7.956 1.682 3.492 2.522 7.717 2.522 12.676 0 4.958-.84 9.184-2.522 12.676-1.681 3.492-3.988 6.166-6.92 8.02-2.889 1.81-6.209 2.716-9.96 2.716Zm0-8.86c1.768 0 3.299-.496 4.592-1.488 1.337-.992 2.371-2.566 3.104-4.721.776-2.156 1.165-4.937 1.165-8.343 0-3.407-.389-6.188-1.165-8.343-.733-2.156-1.767-3.73-3.104-4.722-1.293-.991-2.824-1.487-4.592-1.487-1.725 0-3.255.496-4.592 1.487-1.293.992-2.328 2.566-3.104 4.722-.733 2.155-1.1 4.936-1.1 8.343 0 3.406.367 6.187 1.1 8.343.776 2.156 1.811 3.73 3.104 4.721 1.337.992 2.867 1.487 4.592 1.487Zm37.422.388v-29.88h8.343v29.88h-8.343ZM343.384 66.11v-7.89h30.785v7.89h-30.785Z" fill="#006"/><path d="M211.734 118.949v-15.09h1.768l9.981 12.395h-.927v-12.395h2.156v15.09h-1.767l-9.982-12.396h.927v12.396h-2.156Zm22.001.13c-.977 0-1.84-.18-2.587-.539a3.958 3.958 0 0 1-1.725-1.639c-.402-.747-.603-1.681-.603-2.802v-6.576h2.069v6.338c0 1.122.266 1.962.798 2.523.546.56 1.308.841 2.285.841.719 0 1.344-.144 1.876-.432a3.05 3.05 0 0 0 1.228-1.293c.288-.575.432-1.265.432-2.07v-5.907h2.069v11.426h-1.962v-3.083l.324.82a3.995 3.995 0 0 1-1.682 1.767c-.747.417-1.588.626-2.522.626Zm24.075-11.663c.92 0 1.732.179 2.436.539.704.359 1.251.905 1.639 1.638.402.733.603 1.66.603 2.781v6.575h-2.069v-6.338c0-1.107-.259-1.94-.776-2.501-.518-.56-1.244-.84-2.178-.84-.69 0-1.293.143-1.811.431a2.95 2.95 0 0 0-1.207 1.272c-.273.56-.41 1.257-.41 2.091v5.885h-2.069v-6.338c0-1.107-.259-1.94-.776-2.501-.503-.56-1.229-.84-2.178-.84-.675 0-1.272.143-1.789.431a2.95 2.95 0 0 0-1.207 1.272c-.288.56-.431 1.257-.431 2.091v5.885h-2.07v-11.426h1.983v3.04l-.323-.776a3.9 3.9 0 0 1 1.66-1.746c.747-.417 1.617-.625 2.609-.625 1.092 0 2.033.273 2.824.819.79.532 1.308 1.344 1.552 2.436l-.841-.345c.345-.877.949-1.581 1.811-2.113s1.868-.797 3.018-.797Zm14.544 11.663c-.977 0-1.861-.216-2.652-.647-.776-.446-1.394-1.1-1.854-1.962-.445-.862-.668-1.94-.668-3.234 0-1.293.23-2.371.69-3.233.474-.863 1.099-1.509 1.876-1.941a5.358 5.358 0 0 1 2.608-.646c1.121 0 2.113.244 2.975.733a5.386 5.386 0 0 1 2.048 2.048c.503.862.755 1.875.755 3.039 0 1.164-.252 2.185-.755 3.062a5.4 5.4 0 0 1-2.048 2.048c-.862.488-1.854.733-2.975.733Zm-6.058-.13v-15.996h2.07v7.61l-.216 2.652.13 2.651v3.083h-1.984Zm5.886-1.681c.733 0 1.387-.166 1.961-.496a3.498 3.498 0 0 0 1.38-1.401c.345-.618.518-1.33.518-2.135 0-.819-.173-1.523-.518-2.112a3.494 3.494 0 0 0-1.38-1.402c-.574-.33-1.228-.496-1.961-.496-.719 0-1.373.166-1.962.496a3.696 3.696 0 0 0-1.38 1.402c-.33.589-.496 1.293-.496 2.112 0 .805.166 1.517.496 2.135a3.7 3.7 0 0 0 1.38 1.401c.589.33 1.243.496 1.962.496Zm13.897 1.811c-1.222 0-2.3-.252-3.234-.755a5.534 5.534 0 0 1-2.156-2.07c-.503-.876-.754-1.882-.754-3.018 0-1.135.244-2.141.733-3.018a5.393 5.393 0 0 1 2.048-2.048c.877-.503 1.861-.754 2.953-.754 1.107 0 2.084.244 2.932.733a5.1 5.1 0 0 1 1.984 2.069c.488.877.733 1.904.733 3.083 0 .086-.008.187-.022.302 0 .115-.007.223-.022.323h-9.722v-1.487h8.645l-.841.517c.014-.733-.137-1.387-.453-1.962a3.36 3.36 0 0 0-1.315-1.336c-.546-.331-1.186-.496-1.919-.496-.718 0-1.358.165-1.918.496a3.323 3.323 0 0 0-1.315 1.358c-.317.575-.475 1.236-.475 1.983v.345c0 .762.173 1.444.518 2.048a3.73 3.73 0 0 0 1.487 1.38c.633.33 1.358.496 2.178.496.675 0 1.286-.115 1.832-.345a4.013 4.013 0 0 0 1.466-1.035l1.143 1.337a5 5 0 0 1-1.941 1.379c-.761.316-1.617.475-2.565.475Zm8.112-.13v-11.426h1.984v3.105l-.194-.776a3.509 3.509 0 0 1 1.595-1.811c.747-.417 1.667-.625 2.759-.625v2.005a1.498 1.498 0 0 0-.258-.022h-.216c-1.107 0-1.983.331-2.63.992-.647.661-.97 1.616-.97 2.867v5.691h-2.07Zm19.526.13c-1.15 0-2.17-.252-3.061-.755a5.607 5.607 0 0 1-2.113-2.07c-.518-.891-.776-1.897-.776-3.018 0-1.135.258-2.141.776-3.018a5.45 5.45 0 0 1 2.113-2.048c.891-.503 1.911-.754 3.061-.754 1.135 0 2.148.251 3.039.754a5.267 5.267 0 0 1 2.113 2.048c.518.862.776 1.869.776 3.018 0 1.136-.258 2.142-.776 3.018a5.413 5.413 0 0 1-2.113 2.07c-.891.503-1.904.755-3.039.755Zm0-1.811c.733 0 1.387-.166 1.962-.496a3.502 3.502 0 0 0 1.379-1.401c.331-.618.496-1.33.496-2.135 0-.819-.165-1.523-.496-2.112a3.498 3.498 0 0 0-1.379-1.402c-.575-.33-1.229-.496-1.962-.496-.733 0-1.387.166-1.962.496a3.696 3.696 0 0 0-1.38 1.402c-.345.589-.517 1.293-.517 2.112 0 .805.172 1.517.517 2.135a3.7 3.7 0 0 0 1.38 1.401c.575.33 1.229.496 1.962.496Zm9.092 1.681V106.51c0-1.121.324-2.012.97-2.673.661-.676 1.596-1.013 2.803-1.013.445 0 .869.057 1.272.172.417.101.769.266 1.056.496l-.625 1.574a2.233 2.233 0 0 0-.733-.388 2.463 2.463 0 0 0-.862-.151c-.604 0-1.064.172-1.38.517-.316.331-.474.827-.474 1.488v1.53l.043.949v9.938h-2.07Zm-1.94-9.723v-1.703h7.287v1.703h-7.287Zm-102.387 35.896c-1.15 0-2.213-.187-3.191-.561a7.823 7.823 0 0 1-2.522-1.617 7.82 7.82 0 0 1-1.66-2.457c-.402-.935-.604-1.962-.604-3.083 0-1.121.202-2.149.604-3.083a7.402 7.402 0 0 1 1.682-2.436 7.373 7.373 0 0 1 2.522-1.617c.977-.388 2.041-.582 3.191-.582 1.164 0 2.234.201 3.212.604.991.388 1.832.97 2.522 1.746l-1.401 1.358a5.483 5.483 0 0 0-1.94-1.337 5.913 5.913 0 0 0-2.307-.452 6.43 6.43 0 0 0-2.372.431 5.69 5.69 0 0 0-1.875 1.207 5.568 5.568 0 0 0-1.251 1.854 6.054 6.054 0 0 0-.431 2.307c0 .833.144 1.61.431 2.328a5.623 5.623 0 0 0 1.251 1.833 5.707 5.707 0 0 0 1.875 1.207 6.45 6.45 0 0 0 2.372.431c.819 0 1.588-.144 2.307-.431a5.612 5.612 0 0 0 1.94-1.38l1.401 1.358a6.69 6.69 0 0 1-2.522 1.768c-.978.402-2.055.604-3.234.604Zm12.979-.043c-.977 0-1.839-.18-2.587-.539a3.95 3.95 0 0 1-1.724-1.639c-.403-.747-.604-1.681-.604-2.802v-6.576h2.07v6.338c0 1.122.265 1.962.797 2.523.546.56 1.308.841 2.285.841.719 0 1.344-.144 1.876-.432a3.052 3.052 0 0 0 1.229-1.293c.287-.575.431-1.265.431-2.07v-5.907h2.069v11.426h-1.961v-3.083l.323.82a3.995 3.995 0 0 1-1.682 1.767c-.747.417-1.588.626-2.522.626Zm13.059 0c-.948 0-1.854-.13-2.716-.388-.848-.259-1.516-.575-2.005-.949l.862-1.638c.489.33 1.093.61 1.811.84.719.23 1.452.345 2.199.345.963 0 1.653-.136 2.07-.409.431-.273.646-.654.646-1.143 0-.359-.129-.64-.388-.841-.258-.201-.603-.352-1.034-.452a14.431 14.431 0 0 0-1.402-.259 29.476 29.476 0 0 1-1.552-.302 6.95 6.95 0 0 1-1.423-.517 2.812 2.812 0 0 1-1.035-.927c-.258-.403-.388-.935-.388-1.596 0-.69.194-1.293.583-1.811.388-.517.934-.912 1.638-1.185.719-.288 1.566-.431 2.544-.431a9.46 9.46 0 0 1 2.263.28c.776.172 1.409.424 1.898.754l-.884 1.639a4.907 4.907 0 0 0-1.617-.712 7.48 7.48 0 0 0-1.682-.194c-.905 0-1.581.151-2.026.453-.446.288-.669.661-.669 1.121 0 .388.13.69.389.906.273.201.618.359 1.034.474.431.115.906.215 1.423.302.518.072 1.035.172 1.552.301a5.78 5.78 0 0 1 1.402.496c.431.216.776.518 1.034.906.273.388.41.905.41 1.552 0 .69-.201 1.286-.604 1.789-.402.503-.97.899-1.703 1.186-.733.273-1.609.41-2.63.41Zm11.447 0c-1.15 0-2.041-.309-2.673-.927-.633-.618-.949-1.502-.949-2.652v-10.477h2.07v10.391c0 .618.151 1.092.453 1.423.316.33.761.495 1.336.495.647 0 1.186-.179 1.617-.539l.647 1.488a3.01 3.01 0 0 1-1.143.604 4.713 4.713 0 0 1-1.358.194Zm-5.562-9.853v-1.703h7.287v1.703h-7.287Zm15.08 9.853c-1.15 0-2.171-.252-3.062-.755a5.611 5.611 0 0 1-2.112-2.07c-.518-.891-.776-1.897-.776-3.018 0-1.135.258-2.141.776-3.018a5.454 5.454 0 0 1 2.112-2.048c.891-.503 1.912-.754 3.062-.754 1.135 0 2.148.251 3.039.754a5.267 5.267 0 0 1 2.113 2.048c.517.862.776 1.869.776 3.018 0 1.136-.259 2.142-.776 3.018a5.413 5.413 0 0 1-2.113 2.07c-.891.503-1.904.755-3.039.755Zm0-1.811c.733 0 1.387-.166 1.961-.496a3.498 3.498 0 0 0 1.38-1.401c.331-.618.496-1.33.496-2.135 0-.819-.165-1.523-.496-2.112a3.494 3.494 0 0 0-1.38-1.402c-.574-.33-1.228-.496-1.961-.496-.733 0-1.387.166-1.962.496a3.696 3.696 0 0 0-1.38 1.402c-.345.589-.517 1.293-.517 2.112 0 .805.172 1.517.517 2.135a3.7 3.7 0 0 0 1.38 1.401c.575.33 1.229.496 1.962.496Zm23.083-9.852c.92 0 1.732.179 2.436.539.705.359 1.251.905 1.639 1.638.402.733.603 1.66.603 2.781v6.575h-2.069v-6.338c0-1.107-.259-1.94-.776-2.501-.518-.56-1.243-.84-2.178-.84-.689 0-1.293.143-1.81.431-.518.287-.92.711-1.208 1.272-.273.56-.409 1.257-.409 2.091v5.885h-2.07v-6.338c0-1.107-.259-1.94-.776-2.501-.503-.56-1.229-.84-2.177-.84-.676 0-1.272.143-1.79.431a2.95 2.95 0 0 0-1.207 1.272c-.287.56-.431 1.257-.431 2.091v5.885h-2.07v-11.426h1.984v3.04l-.324-.776a3.905 3.905 0 0 1 1.66-1.746c.748-.417 1.617-.625 2.609-.625 1.092 0 2.033.273 2.824.819.79.532 1.308 1.344 1.552 2.436l-.841-.345c.345-.877.949-1.581 1.811-2.113.863-.532 1.869-.797 3.018-.797Zm13.574 11.663c-1.221 0-2.299-.252-3.233-.755a5.528 5.528 0 0 1-2.156-2.07c-.503-.876-.755-1.882-.755-3.018 0-1.135.244-2.141.733-3.018a5.393 5.393 0 0 1 2.048-2.048c.877-.503 1.861-.754 2.954-.754 1.106 0 2.084.244 2.932.733a5.097 5.097 0 0 1 1.983 2.069c.489.877.733 1.904.733 3.083 0 .086-.007.187-.022.302 0 .115-.007.223-.021.323h-9.723v-1.487h8.645l-.841.517c.014-.733-.136-1.387-.453-1.962a3.354 3.354 0 0 0-1.315-1.336c-.546-.331-1.185-.496-1.918-.496-.719 0-1.359.165-1.919.496a3.323 3.323 0 0 0-1.315 1.358c-.316.575-.474 1.236-.474 1.983v.345c0 .762.172 1.444.517 2.048a3.726 3.726 0 0 0 1.488 1.38c.632.33 1.358.496 2.177.496.675 0 1.286-.115 1.832-.345a4.004 4.004 0 0 0 1.466-1.035l1.143 1.337a4.996 4.996 0 0 1-1.94 1.379c-.762.316-1.617.475-2.566.475Zm8.113-.13v-11.426h1.983v3.105l-.194-.776a3.509 3.509 0 0 1 1.595-1.811c.748-.417 1.667-.625 2.76-.625v2.005a1.51 1.51 0 0 0-.259-.022h-.216c-1.106 0-1.983.331-2.63.992-.646.661-.97 1.616-.97 2.867v5.691h-2.069Zm12.098.13c-.949 0-1.854-.13-2.717-.388-.848-.259-1.516-.575-2.005-.949l.863-1.638c.488.33 1.092.61 1.811.84.718.23 1.451.345 2.199.345.963 0 1.652-.136 2.069-.409.431-.273.647-.654.647-1.143 0-.359-.129-.64-.388-.841-.259-.201-.604-.352-1.035-.452a14.464 14.464 0 0 0-1.401-.259 29.084 29.084 0 0 1-1.552-.302 6.928 6.928 0 0 1-1.423-.517 2.812 2.812 0 0 1-1.035-.927c-.259-.403-.388-.935-.388-1.596 0-.69.194-1.293.582-1.811.388-.517.934-.912 1.638-1.185.719-.288 1.567-.431 2.544-.431.748 0 1.502.093 2.264.28.776.172 1.408.424 1.897.754l-.884 1.639a4.89 4.89 0 0 0-1.617-.712 7.472 7.472 0 0 0-1.681-.194c-.906 0-1.581.151-2.027.453-.445.288-.668.661-.668 1.121 0 .388.129.69.388.906.273.201.618.359 1.035.474.431.115.905.215 1.423.302.517.072 1.034.172 1.552.301.517.115.984.281 1.401.496.431.216.776.518 1.035.906.273.388.409.905.409 1.552 0 .69-.201 1.286-.603 1.789-.403.503-.97.899-1.703 1.186-.733.273-1.61.41-2.63.41Zm18.012.043c-1.15 0-2.249-.173-3.298-.518-1.049-.359-1.876-.819-2.479-1.379l.797-1.682c.575.503 1.308.92 2.199 1.25a7.922 7.922 0 0 0 2.781.496c.877 0 1.588-.1 2.134-.302.547-.201.949-.474 1.208-.819.258-.359.388-.762.388-1.207 0-.517-.173-.934-.518-1.25-.33-.317-.769-.568-1.315-.755a12.843 12.843 0 0 0-1.767-.517 35.688 35.688 0 0 1-1.962-.496 9.557 9.557 0 0 1-1.79-.755 3.724 3.724 0 0 1-1.293-1.207c-.331-.517-.496-1.178-.496-1.983 0-.776.201-1.488.604-2.135.416-.661 1.049-1.185 1.897-1.573.862-.403 1.954-.604 3.277-.604.876 0 1.746.115 2.608.345.863.23 1.61.56 2.242.992l-.711 1.724a6.742 6.742 0 0 0-2.048-.927 7.754 7.754 0 0 0-2.091-.302c-.848 0-1.545.108-2.091.324-.547.215-.949.503-1.208.862a2.1 2.1 0 0 0-.366 1.207c0 .532.165.956.496 1.272.345.317.783.568 1.315.755.546.187 1.142.359 1.789.517a32.09 32.09 0 0 1 1.94.496 8.052 8.052 0 0 1 1.79.733c.546.302.984.704 1.315 1.207.33.503.495 1.15.495 1.941 0 .761-.208 1.473-.625 2.134-.417.647-1.063 1.171-1.94 1.574-.862.388-1.955.582-3.277.582Zm13.778-.043c-1.222 0-2.3-.252-3.234-.755a5.534 5.534 0 0 1-2.156-2.07c-.503-.876-.754-1.882-.754-3.018 0-1.135.244-2.141.733-3.018a5.386 5.386 0 0 1 2.048-2.048c.876-.503 1.861-.754 2.953-.754 1.107 0 2.084.244 2.932.733a5.09 5.09 0 0 1 1.983 2.069c.489.877.733 1.904.733 3.083 0 .086-.007.187-.021.302 0 .115-.007.223-.022.323h-9.722v-1.487h8.644l-.84.517c.014-.733-.137-1.387-.453-1.962a3.36 3.36 0 0 0-1.315-1.336c-.546-.331-1.186-.496-1.919-.496-.718 0-1.358.165-1.918.496a3.323 3.323 0 0 0-1.315 1.358c-.317.575-.475 1.236-.475 1.983v.345c0 .762.173 1.444.518 2.048a3.73 3.73 0 0 0 1.487 1.38c.633.33 1.358.496 2.178.496.675 0 1.286-.115 1.832-.345a4.02 4.02 0 0 0 1.466-1.035l1.142 1.337a4.989 4.989 0 0 1-1.94 1.379c-.761.316-1.617.475-2.565.475Zm8.112-.13v-11.426h1.984v3.105l-.194-.776a3.509 3.509 0 0 1 1.595-1.811c.747-.417 1.667-.625 2.759-.625v2.005a1.498 1.498 0 0 0-.258-.022h-.216c-1.107 0-1.983.331-2.63.992-.647.661-.97 1.616-.97 2.867v5.691h-2.07Zm12.155 0-5.002-11.426h2.156l4.441 10.348h-1.035l4.528-10.348h2.026l-5.001 11.426h-2.113Zm13.817.13c-1.221 0-2.299-.252-3.233-.755a5.528 5.528 0 0 1-2.156-2.07c-.503-.876-.755-1.882-.755-3.018 0-1.135.245-2.141.733-3.018a5.393 5.393 0 0 1 2.048-2.048c.877-.503 1.862-.754 2.954-.754 1.106 0 2.084.244 2.932.733a5.09 5.09 0 0 1 1.983 2.069c.489.877.733 1.904.733 3.083 0 .086-.007.187-.022.302 0 .115-.007.223-.021.323H383.7v-1.487h8.645l-.841.517c.015-.733-.136-1.387-.452-1.962a3.363 3.363 0 0 0-1.316-1.336c-.546-.331-1.185-.496-1.918-.496-.719 0-1.358.165-1.919.496a3.33 3.33 0 0 0-1.315 1.358c-.316.575-.474 1.236-.474 1.983v.345c0 .762.172 1.444.517 2.048.36.589.855 1.049 1.488 1.38.632.33 1.358.496 2.177.496.676 0 1.286-.115 1.833-.345a4.009 4.009 0 0 0 1.465-1.035l1.143 1.337a4.989 4.989 0 0 1-1.94 1.379c-.762.316-1.617.475-2.566.475Zm12.834 0c-1.107 0-2.098-.245-2.975-.733a5.4 5.4 0 0 1-2.048-2.048c-.503-.877-.754-1.898-.754-3.062s.251-2.177.754-3.039a5.386 5.386 0 0 1 2.048-2.048c.877-.489 1.868-.733 2.975-.733.963 0 1.833.215 2.609.646.776.432 1.394 1.078 1.854 1.941.474.862.711 1.94.711 3.233 0 1.294-.23 2.372-.69 3.234-.445.862-1.056 1.516-1.832 1.962-.776.431-1.66.647-2.652.647Zm.173-1.811c.718 0 1.365-.166 1.94-.496a3.51 3.51 0 0 0 1.38-1.401c.344-.618.517-1.33.517-2.135 0-.819-.173-1.523-.517-2.112a3.507 3.507 0 0 0-1.38-1.402 3.828 3.828 0 0 0-1.94-.496c-.733 0-1.387.166-1.962.496a3.696 3.696 0 0 0-1.38 1.402c-.345.589-.517 1.293-.517 2.112 0 .805.172 1.517.517 2.135a3.7 3.7 0 0 0 1.38 1.401c.575.33 1.229.496 1.962.496Zm3.902 1.681v-3.083l.129-2.651-.216-2.652v-7.61h2.07v15.996h-1.983Z" fill="#252525"/><path d="M180.209 67.502a15.888 15.888 0 0 1-1.209 6.08 15.842 15.842 0 0 1-2.395 3.999c-.328.403-.679.788-1.045 1.154-.369.369-.754.717-1.154 1.047a15.89 15.89 0 0 1-8.518 3.532 15.933 15.933 0 0 1-3.111 0 16.528 16.528 0 0 1-1.543-.229 16.934 16.934 0 0 1-1.51-.379 16.085 16.085 0 0 1-2.876-1.192 16.052 16.052 0 0 1-2.588-1.732 15.998 15.998 0 0 1-2.199-2.201 15.985 15.985 0 0 1-2.396-4c-.198-.48-.375-.97-.524-1.468a16.079 16.079 0 0 1-.685-4.611 15.857 15.857 0 0 1 .685-4.613 15.7 15.7 0 0 1 1.19-2.878c.245-.457.513-.905.8-1.336a16.175 16.175 0 0 1 1.975-2.408 15.975 15.975 0 0 1 3.742-2.779c.46-.245.93-.467 1.409-.666.48-.198.968-.374 1.467-.524a15.663 15.663 0 0 1 3.053-.608 15.955 15.955 0 0 1 3.111 0 15.843 15.843 0 0 1 5.929 1.799 15.89 15.89 0 0 1 5.717 5.186A16.039 16.039 0 0 1 179 61.42a15.707 15.707 0 0 1 .904 2.98 15.857 15.857 0 0 1 .305 3.1Z" fill="#006"/><mask id="b" style="mask-type:luminance" maskUnits="userSpaceOnUse" x="166" y="80" width="26" height="40"><path d="M166.277 80.89h25.273v38.882h-25.273V80.891Z" fill="#fff"/></mask><g mask="url(#b)"><path d="M185.154 81.254a25.425 25.425 0 0 1-3.598 4.323 25.253 25.253 0 0 1-4.47 3.415 25.02 25.02 0 0 1-7.837 3.06c-.919.19-1.849.328-2.784.415a40.05 40.05 0 0 1 2.404 13.619v13.616h9.072a13.727 13.727 0 0 0 5.209-1.035 13.707 13.707 0 0 0 5.311-3.942c.282-.345.547-.703.794-1.074a13.427 13.427 0 0 0 1.709-3.613c.13-.427.237-.858.324-1.296.087-.439.152-.878.197-1.322.042-.443.065-.889.065-1.334v-9.081a22.486 22.486 0 0 0-.426-4.33 22.617 22.617 0 0 0-1.243-4.167 22.7 22.7 0 0 0-4.727-7.254Z" fill="#006"/></g><path d="M98.558 67.502a16.013 16.013 0 0 1-.306 3.099 15.642 15.642 0 0 1-1.57 4.39 15.823 15.823 0 0 1-3.928 4.791 15.995 15.995 0 0 1-3.997 2.398c-.48.198-.968.375-1.467.526-.498.15-1.002.276-1.51.38a15.937 15.937 0 0 1-4.654.229 16.476 16.476 0 0 1-1.543-.23 16.932 16.932 0 0 1-1.51-.379 16.145 16.145 0 0 1-2.876-1.192 16.01 16.01 0 0 1-2.588-1.732 16.13 16.13 0 0 1-1.155-1.047 16.067 16.067 0 0 1-1.975-2.408 15.877 15.877 0 0 1-2.368-5.727 15.891 15.891 0 0 1 9.495-17.778c.48-.198.968-.374 1.466-.524a15.661 15.661 0 0 1 3.054-.608 15.94 15.94 0 0 1 3.11 0 15.84 15.84 0 0 1 5.93 1.799 15.993 15.993 0 0 1 2.588 1.731 16.086 16.086 0 0 1 2.2 2.201 16.041 16.041 0 0 1 1.729 2.59 15.985 15.985 0 0 1 1.19 2.878 15.81 15.81 0 0 1 .684 4.613Z" fill="#006"/><mask id="c" style="mask-type:luminance" maskUnits="userSpaceOnUse" x="55" y="80" width="26" height="40"><path d="M55.464 80.89h25.273v38.882H55.464V80.891Z" fill="#fff"/></mask><g mask="url(#c)"><path d="M61.86 81.254a22.716 22.716 0 0 0-6.396 15.751v9.081c0 .445.022.891.065 1.334a13.896 13.896 0 0 0 .52 2.618 14.012 14.012 0 0 0 1.02 2.467c.211.393.44.776.69 1.146.246.371.512.729.793 1.074.284.344.583.674.897.99a13.918 13.918 0 0 0 2.064 1.693 13.82 13.82 0 0 0 2.351 1.259 13.472 13.472 0 0 0 3.874.97c.443.045.889.065 1.334.065h9.073v-13.616c.012-4.68.812-9.22 2.404-13.62a25.31 25.31 0 0 1-2.785-.414 24.733 24.733 0 0 1-2.722-.725 24.819 24.819 0 0 1-5.115-2.335 25.206 25.206 0 0 1-4.47-3.415 25.293 25.293 0 0 1-3.598-4.323Z" fill="#006"/></g><mask id="d" style="mask-type:luminance" maskUnits="userSpaceOnUse" x="86" y="80" width="75" height="58"><path d="M86.958 80.89h73.097v56.999H86.958V80.891Z" fill="#fff"/></mask><g mask="url(#d)"><path d="M147.73 81.21c-.372.44-.755.868-1.15 1.285-.393.419-.8.824-1.215 1.221a32.297 32.297 0 0 1-5.47 4.168 31.263 31.263 0 0 1-4.621 2.296 31.48 31.48 0 0 1-6.624 1.843 32.377 32.377 0 0 1-3.422.372c-.573.033-1.147.047-1.722.047a30.46 30.46 0 0 1-1.721-.046 32.377 32.377 0 0 1-3.422-.373 30.01 30.01 0 0 1-1.691-.326 31.445 31.445 0 0 1-6.515-2.2 31.263 31.263 0 0 1-3.04-1.613 33.995 33.995 0 0 1-1.45-.93 29.925 29.925 0 0 1-1.397-1.006 32.988 32.988 0 0 1-2.622-2.232 30.218 30.218 0 0 1-1.215-1.221 31.33 31.33 0 0 1-1.15-1.284 31.948 31.948 0 0 0-5.064 5.026 31.597 31.597 0 0 0-3.815 6.03 31.66 31.66 0 0 0-2.373 6.73 31.787 31.787 0 0 0-.814 7.092v18.157c0 .446.022.891.065 1.335a13.913 13.913 0 0 0 .52 2.618 13.975 13.975 0 0 0 1.02 2.467c.211.392.44.775.69 1.146a13.526 13.526 0 0 0 2.681 2.962c.344.282.702.547 1.073.796a13.533 13.533 0 0 0 3.609 1.707c.427.13.858.239 1.296.327.437.087.876.151 1.32.196.443.042.889.065 1.334.065h45.362c.446 0 .891-.023 1.335-.065a14 14 0 0 0 1.32-.196 13.725 13.725 0 0 0 2.554-.776 13.56 13.56 0 0 0 4.415-2.953c.313-.314.613-.644.897-.99a13.874 13.874 0 0 0 1.482-2.219 13.827 13.827 0 0 0 1.345-3.763 13.722 13.722 0 0 0 .261-2.657v-18.157a31.716 31.716 0 0 0-.814-7.092 31.8 31.8 0 0 0-4.111-9.852 31.658 31.658 0 0 0-4.467-5.563 31.975 31.975 0 0 0-2.674-2.371Z" fill="#006"/></g><mask id="e" style="mask-type:luminance" maskUnits="userSpaceOnUse" x="100" y="37" width="47" height="47"><path d="M100.437 37.969h46.139v45.52h-46.139v-45.52Z" fill="#fff"/></mask><g mask="url(#e)"><path d="M146.187 60.697a22.68 22.68 0 0 1-1.727 8.686 23.07 23.07 0 0 1-.95 2.015c-.35.654-.733 1.292-1.146 1.91a22.754 22.754 0 0 1-2.819 3.44 22.988 22.988 0 0 1-3.439 2.82c-.617.414-1.253.797-1.907 1.147a22.692 22.692 0 0 1-21.385 0 22.832 22.832 0 0 1-6.841-5.618 22.741 22.741 0 0 1-1.324-1.79 22.752 22.752 0 0 1-1.147-1.91 22.774 22.774 0 0 1-.949-2.014 22.607 22.607 0 0 1-1.292-4.257 22.754 22.754 0 0 1 .54-11.016 22.43 22.43 0 0 1 .752-2.098 22.452 22.452 0 0 1 2.096-3.925 22.692 22.692 0 0 1 4.469-4.935 22.832 22.832 0 0 1 3.696-2.473 22.576 22.576 0 0 1 4.109-1.701 22.502 22.502 0 0 1 6.583-.978 22.651 22.651 0 0 1 8.68 1.727c.686.286 1.356.602 2.013.952.654.35 1.29.733 1.907 1.146a22.553 22.553 0 0 1 6.258 6.262 22.442 22.442 0 0 1 2.096 3.925 22.713 22.713 0 0 1 1.618 6.462c.073.739.109 1.48.109 2.223Z" fill="#006"/></g><path d="M666.721 86.253c-3.148 0-6.274-.41-9.378-1.23-3.061-.861-5.691-2.069-7.89-3.62l4.139-8.02c1.725 1.25 3.708 2.242 5.95 2.975 2.285.732 4.592 1.099 6.92 1.099 2.63 0 4.7-.517 6.209-1.552 1.509-1.035 2.263-2.48 2.263-4.333 0-1.165-.301-2.2-.905-3.105-.604-.905-1.682-1.595-3.234-2.07-1.509-.474-3.643-.71-6.403-.71h-11.576l2.328-25.482h27.616v8.407h-23.865l5.433-4.786L662.711 62l-5.433-4.786h9.572c4.484 0 8.084.625 10.801 1.875 2.759 1.208 4.764 2.868 6.014 4.98 1.251 2.113 1.876 4.506 1.876 7.18 0 2.672-.668 5.152-2.005 7.437-1.336 2.242-3.406 4.074-6.209 5.497-2.759 1.38-6.295 2.07-10.606 2.07Zm42.473 0c-3.708 0-7.028-.906-9.96-2.717-2.932-1.854-5.238-4.527-6.92-8.02-1.681-3.492-2.522-7.717-2.522-12.676 0-4.958.841-9.183 2.522-12.676 1.682-3.492 3.988-6.144 6.92-7.955 2.932-1.854 6.252-2.78 9.96-2.78 3.751 0 7.071.926 9.96 2.78 2.932 1.811 5.239 4.463 6.92 7.955 1.682 3.493 2.523 7.718 2.523 12.676 0 4.959-.841 9.184-2.523 12.677-1.681 3.492-3.988 6.165-6.92 8.02-2.889 1.81-6.209 2.716-9.96 2.716Zm0-8.86c1.768 0 3.299-.497 4.592-1.488 1.337-.992 2.371-2.566 3.104-4.722.777-2.155 1.165-4.936 1.165-8.343 0-3.406-.388-6.187-1.165-8.343-.733-2.155-1.767-3.729-3.104-4.72-1.293-.992-2.824-1.488-4.592-1.488-1.724 0-3.255.496-4.592 1.487-1.293.992-2.328 2.566-3.104 4.721-.733 2.156-1.1 4.937-1.1 8.343 0 3.407.367 6.188 1.1 8.343.776 2.156 1.811 3.73 3.104 4.722 1.337.991 2.868 1.487 4.592 1.487Zm24.06 18.043 4.269-15.521 1.422 5.82c-1.854 0-3.384-.539-4.591-1.617-1.165-1.078-1.747-2.565-1.747-4.462 0-1.897.604-3.406 1.811-4.527 1.207-1.121 2.695-1.682 4.463-1.682 1.811 0 3.298.582 4.462 1.746 1.164 1.121 1.746 2.609 1.746 4.463 0 .56-.043 1.12-.129 1.681-.086.518-.259 1.164-.517 1.94-.216.734-.582 1.682-1.1 2.846l-3.686 9.313h-6.403Zm35.12-9.183c-3.708 0-7.028-.906-9.96-2.717-2.932-1.854-5.239-4.527-6.92-8.02-1.682-3.492-2.523-7.717-2.523-12.676 0-4.958.841-9.183 2.523-12.676 1.681-3.492 3.988-6.144 6.92-7.955 2.932-1.854 6.252-2.78 9.96-2.78 3.751 0 7.071.926 9.96 2.78 2.932 1.811 5.238 4.463 6.92 7.955 1.681 3.493 2.522 7.718 2.522 12.676 0 4.959-.841 9.184-2.522 12.677-1.682 3.492-3.988 6.165-6.92 8.02-2.889 1.81-6.209 2.716-9.96 2.716Zm0-8.86c1.768 0 3.298-.497 4.592-1.488 1.336-.992 2.371-2.566 3.104-4.722.776-2.155 1.164-4.936 1.164-8.343 0-3.406-.388-6.187-1.164-8.343-.733-2.155-1.768-3.729-3.104-4.72-1.294-.992-2.824-1.488-4.592-1.488-1.725 0-3.255.496-4.592 1.487-1.294.992-2.328 2.566-3.104 4.721-.733 2.156-1.1 4.937-1.1 8.343 0 3.407.367 6.188 1.1 8.343.776 2.156 1.81 3.73 3.104 4.722 1.337.991 2.867 1.487 4.592 1.487Zm43.895 8.86c-3.708 0-7.028-.906-9.96-2.717-2.932-1.854-5.238-4.527-6.92-8.02-1.682-3.492-2.522-7.717-2.522-12.676 0-4.958.84-9.183 2.522-12.676 1.682-3.492 3.988-6.144 6.92-7.955 2.932-1.854 6.252-2.78 9.96-2.78 3.751 0 7.071.926 9.96 2.78 2.932 1.811 5.239 4.463 6.92 7.955 1.682 3.493 2.522 7.718 2.522 12.676 0 4.959-.84 9.184-2.522 12.677-1.681 3.492-3.988 6.165-6.92 8.02-2.889 1.81-6.209 2.716-9.96 2.716Zm0-8.86c1.768 0 3.298-.497 4.592-1.488 1.337-.992 2.371-2.566 3.104-4.722.776-2.155 1.164-4.936 1.164-8.343 0-3.406-.388-6.187-1.164-8.343-.733-2.155-1.767-3.729-3.104-4.72-1.294-.992-2.824-1.488-4.592-1.488-1.725 0-3.255.496-4.592 1.487-1.293.992-2.328 2.566-3.104 4.721-.733 2.156-1.1 4.937-1.1 8.343 0 3.407.367 6.188 1.1 8.343.776 2.156 1.811 3.73 3.104 4.722 1.337.991 2.867 1.487 4.592 1.487Zm43.895 8.86c-3.708 0-7.028-.906-9.96-2.717-2.931-1.854-5.238-4.527-6.92-8.02-1.681-3.492-2.522-7.717-2.522-12.676 0-4.958.841-9.183 2.522-12.676 1.682-3.492 3.989-6.144 6.92-7.955 2.932-1.854 6.252-2.78 9.96-2.78 3.751 0 7.071.926 9.96 2.78 2.932 1.811 5.239 4.463 6.92 7.955 1.682 3.493 2.523 7.718 2.523 12.676 0 4.959-.841 9.184-2.523 12.677-1.681 3.492-3.988 6.165-6.92 8.02-2.889 1.81-6.209 2.716-9.96 2.716Zm0-8.86c1.768 0 3.299-.497 4.592-1.488 1.337-.992 2.372-2.566 3.105-4.722.776-2.155 1.164-4.936 1.164-8.343 0-3.406-.388-6.187-1.164-8.343-.733-2.155-1.768-3.729-3.105-4.72-1.293-.992-2.824-1.488-4.592-1.488-1.724 0-3.255.496-4.592 1.487-1.293.992-2.328 2.566-3.104 4.721-.733 2.156-1.099 4.937-1.099 8.343 0 3.407.366 6.188 1.099 8.343.776 2.156 1.811 3.73 3.104 4.722 1.337.991 2.868 1.487 4.592 1.487Zm37.422.387V47.9h8.343v29.88h-8.343Zm-11.189-10.994v-7.89h30.785v7.89h-30.785Z" fill="#006"/><path d="M645.186 119.625v-15.091h6.36c1.61 0 3.025.316 4.247.949 1.236.632 2.192 1.516 2.867 2.652.69 1.135 1.035 2.45 1.035 3.945 0 1.494-.345 2.809-1.035 3.945-.675 1.135-1.631 2.019-2.867 2.651-1.222.633-2.637.949-4.247.949h-6.36Zm2.156-1.876h4.075c1.25 0 2.328-.237 3.233-.711.92-.474 1.632-1.135 2.135-1.983.503-.863.754-1.854.754-2.975 0-1.136-.251-2.127-.754-2.975-.503-.848-1.215-1.509-2.135-1.984-.905-.474-1.983-.711-3.233-.711h-4.075v11.339Zm20.247 2.005c-1.15 0-2.17-.251-3.061-.754a5.62 5.62 0 0 1-2.113-2.07c-.517-.891-.776-1.897-.776-3.018 0-1.135.259-2.141.776-3.018a5.464 5.464 0 0 1 2.113-2.048c.891-.503 1.911-.755 3.061-.755 1.135 0 2.149.252 3.04.755a5.271 5.271 0 0 1 2.112 2.048c.518.862.777 1.868.777 3.018 0 1.135-.259 2.142-.777 3.018a5.418 5.418 0 0 1-2.112 2.07c-.891.503-1.905.754-3.04.754Zm0-1.811c.733 0 1.387-.165 1.962-.495a3.507 3.507 0 0 0 1.38-1.402c.33-.618.495-1.329.495-2.134 0-.819-.165-1.523-.495-2.113a3.51 3.51 0 0 0-1.38-1.401c-.575-.33-1.229-.496-1.962-.496-.733 0-1.387.166-1.962.496a3.69 3.69 0 0 0-1.379 1.401c-.345.59-.518 1.294-.518 2.113 0 .805.173 1.516.518 2.134a3.686 3.686 0 0 0 1.379 1.402c.575.33 1.229.495 1.962.495Zm10.889 1.682-4.246-11.426h1.961l3.773 10.348h-.927l3.924-10.348h1.746l3.837 10.348h-.905l3.859-10.348h1.854l-4.269 11.426h-1.983l-3.6-9.442h.603l-3.643 9.442h-1.984Zm23.077-11.534c.934 0 1.753.18 2.457.539a3.86 3.86 0 0 1 1.682 1.639c.402.733.603 1.66.603 2.781v6.575h-2.069v-6.338c0-1.107-.273-1.94-.819-2.501-.532-.56-1.287-.841-2.264-.841-.733 0-1.373.144-1.919.432-.546.287-.97.711-1.272 1.271-.287.561-.431 1.258-.431 2.092v5.885h-2.069v-11.426h1.983v3.083l-.323-.819c.373-.748.948-1.33 1.724-1.746.776-.417 1.682-.626 2.717-.626Zm8.572 11.534v-15.996h2.07v15.996h-2.07Zm10.915.129c-1.149 0-2.17-.251-3.061-.754a5.62 5.62 0 0 1-2.113-2.07c-.517-.891-.776-1.897-.776-3.018 0-1.135.259-2.141.776-3.018a5.464 5.464 0 0 1 2.113-2.048c.891-.503 1.912-.755 3.061-.755 1.136 0 2.149.252 3.04.755a5.274 5.274 0 0 1 2.113 2.048c.517.862.776 1.868.776 3.018 0 1.135-.259 2.142-.776 3.018a5.42 5.42 0 0 1-2.113 2.07c-.891.503-1.904.754-3.04.754Zm0-1.811c.733 0 1.387-.165 1.962-.495a3.507 3.507 0 0 0 1.38-1.402c.33-.618.496-1.329.496-2.134 0-.819-.166-1.523-.496-2.113a3.51 3.51 0 0 0-1.38-1.401c-.575-.33-1.229-.496-1.962-.496-.733 0-1.387.166-1.961.496a3.7 3.7 0 0 0-1.38 1.401c-.345.59-.518 1.294-.518 2.113 0 .805.173 1.516.518 2.134a3.696 3.696 0 0 0 1.38 1.402c.574.33 1.228.495 1.961.495Zm15.778 1.682v-2.415l-.107-.452v-4.118c0-.877-.259-1.552-.777-2.026-.503-.489-1.264-.733-2.285-.733a5.88 5.88 0 0 0-1.983.345c-.647.215-1.193.51-1.638.884l-.863-1.553c.589-.474 1.294-.833 2.113-1.078a8.768 8.768 0 0 1 2.608-.388c1.567 0 2.774.381 3.622 1.143.848.762 1.272 1.926 1.272 3.492v6.899h-1.962Zm-3.751.129c-.848 0-1.595-.143-2.242-.431-.632-.287-1.121-.682-1.466-1.186a3.074 3.074 0 0 1-.517-1.746c0-.618.144-1.178.431-1.681.302-.503.783-.906 1.444-1.208.676-.301 1.581-.452 2.717-.452h3.621v1.487h-3.535c-1.035 0-1.732.173-2.091.518a1.67 1.67 0 0 0-.539 1.25c0 .561.223 1.013.668 1.358.446.331 1.064.496 1.854.496.776 0 1.452-.172 2.027-.517a2.933 2.933 0 0 0 1.272-1.509l.409 1.422c-.273.676-.754 1.215-1.444 1.617-.69.388-1.56.582-2.609.582Zm14.264 0c-1.106 0-2.098-.244-2.975-.733a5.386 5.386 0 0 1-2.048-2.048c-.503-.876-.754-1.897-.754-3.061s.251-2.177.754-3.04a5.4 5.4 0 0 1 2.048-2.048c.877-.488 1.869-.733 2.975-.733.963 0 1.833.216 2.609.647.776.431 1.394 1.078 1.854 1.94.474.863.711 1.941.711 3.234 0 1.294-.23 2.371-.69 3.234-.445.862-1.056 1.516-1.832 1.962-.776.431-1.66.646-2.652.646Zm.173-1.811c.718 0 1.365-.165 1.94-.495a3.507 3.507 0 0 0 1.38-1.402c.345-.618.517-1.329.517-2.134 0-.819-.172-1.523-.517-2.113a3.51 3.51 0 0 0-1.38-1.401 3.828 3.828 0 0 0-1.94-.496c-.733 0-1.387.166-1.962.496a3.7 3.7 0 0 0-1.38 1.401c-.345.59-.517 1.294-.517 2.113 0 .805.172 1.516.517 2.134a3.696 3.696 0 0 0 1.38 1.402c.575.33 1.229.495 1.962.495Zm3.902 1.682v-3.083l.129-2.651-.215-2.652v-7.61h2.069v15.996h-1.983Zm9.176.129a9.398 9.398 0 0 1-2.717-.388c-.847-.258-1.516-.575-2.004-.948l.862-1.639c.489.331 1.092.611 1.811.841.718.23 1.451.345 2.199.345.963 0 1.653-.137 2.069-.41.431-.273.647-.654.647-1.142 0-.359-.129-.64-.388-.841-.259-.201-.604-.352-1.035-.453-.417-.1-.884-.186-1.401-.258a30.324 30.324 0 0 1-1.552-.302 6.93 6.93 0 0 1-1.423-.518 2.812 2.812 0 0 1-1.035-.927c-.259-.402-.388-.934-.388-1.595 0-.69.194-1.293.582-1.811.388-.517.934-.912 1.639-1.185.718-.288 1.566-.432 2.543-.432a9.47 9.47 0 0 1 2.264.281c.776.172 1.408.424 1.897.754l-.884 1.639a4.89 4.89 0 0 0-1.617-.712 7.472 7.472 0 0 0-1.681-.194c-.906 0-1.581.151-2.027.453-.445.287-.668.661-.668 1.121 0 .388.129.69.388.905.273.202.618.36 1.035.475.431.115.905.215 1.423.301.517.072 1.035.173 1.552.302.517.115.984.281 1.401.496.431.216.776.517 1.035.906.273.388.41.905.41 1.552 0 .69-.202 1.286-.604 1.789-.402.503-.97.898-1.703 1.186-.733.273-1.61.409-2.63.409Zm18.206 0c-1.149 0-2.17-.251-3.061-.754a5.62 5.62 0 0 1-2.113-2.07c-.517-.891-.776-1.897-.776-3.018 0-1.135.259-2.141.776-3.018a5.464 5.464 0 0 1 2.113-2.048c.891-.503 1.912-.755 3.061-.755 1.136 0 2.149.252 3.04.755a5.274 5.274 0 0 1 2.113 2.048c.517.862.776 1.868.776 3.018 0 1.135-.259 2.142-.776 3.018a5.42 5.42 0 0 1-2.113 2.07c-.891.503-1.904.754-3.04.754Zm0-1.811c.733 0 1.387-.165 1.962-.495a3.507 3.507 0 0 0 1.38-1.402c.33-.618.496-1.329.496-2.134 0-.819-.166-1.523-.496-2.113a3.51 3.51 0 0 0-1.38-1.401c-.575-.33-1.229-.496-1.962-.496-.733 0-1.387.166-1.961.496a3.7 3.7 0 0 0-1.38 1.401c-.345.59-.518 1.294-.518 2.113 0 .805.173 1.516.518 2.134a3.696 3.696 0 0 0 1.38 1.402c.574.33 1.228.495 1.961.495Zm9.093 1.682v-12.439c0-1.121.323-2.012.97-2.673.661-.676 1.595-1.013 2.802-1.013.446 0 .87.057 1.272.172.417.101.769.266 1.057.496l-.625 1.574a2.233 2.233 0 0 0-.733-.388 2.468 2.468 0 0 0-.863-.151c-.603 0-1.063.172-1.379.517-.317.331-.475.826-.475 1.488v1.53l.043.949v9.938h-2.069Zm-1.94-9.723v-1.703h7.286v1.703h-7.286Zm-133.944 35.895c-1.15 0-2.221-.194-3.212-.582a7.767 7.767 0 0 1-2.544-1.616 7.653 7.653 0 0 1-1.682-2.458c-.402-.934-.603-1.955-.603-3.061 0-1.107.201-2.127.603-3.062a7.402 7.402 0 0 1 1.682-2.436 7.583 7.583 0 0 1 2.544-1.638c.977-.388 2.048-.582 3.212-.582 1.15 0 2.206.194 3.169.582a7.343 7.343 0 0 1 2.544 1.617 6.99 6.99 0 0 1 1.681 2.436c.403.934.604 1.962.604 3.083 0 1.121-.201 2.148-.604 3.082a7.197 7.197 0 0 1-1.681 2.458 7.774 7.774 0 0 1-2.544 1.617c-.963.374-2.019.56-3.169.56Zm0-1.918c.833 0 1.602-.144 2.307-.431a5.462 5.462 0 0 0 3.082-3.062 5.789 5.789 0 0 0 .453-2.306 5.79 5.79 0 0 0-.453-2.307 5.356 5.356 0 0 0-1.228-1.833 5.31 5.31 0 0 0-1.854-1.228 6.042 6.042 0 0 0-2.307-.431c-.848 0-1.631.143-2.35.431a5.58 5.58 0 0 0-1.854 1.228 5.605 5.605 0 0 0-1.25 1.833 6.035 6.035 0 0 0-.432 2.307c0 .833.144 1.602.432 2.306a5.825 5.825 0 0 0 1.25 1.854c.532.518 1.15.92 1.854 1.208a6.28 6.28 0 0 0 2.35.431Zm15.799 1.875c-.978 0-1.84-.179-2.587-.539a3.95 3.95 0 0 1-1.725-1.638c-.402-.747-.604-1.682-.604-2.803v-6.575h2.07v6.338c0 1.121.266 1.962.798 2.523.546.56 1.307.84 2.285.84.718 0 1.344-.143 1.875-.431a3.052 3.052 0 0 0 1.229-1.293c.288-.575.431-1.265.431-2.07v-5.907h2.07v11.426h-1.962v-3.083l.323.819a3.995 3.995 0 0 1-1.681 1.768c-.747.417-1.588.625-2.522.625Zm9.782-.129v-11.426h1.983v3.105l-.194-.777a3.507 3.507 0 0 1 1.595-1.81c.748-.417 1.668-.626 2.76-.626v2.005a1.616 1.616 0 0 0-.259-.021h-.215c-1.107 0-1.984.33-2.631.991-.646.662-.97 1.617-.97 2.868v5.691h-2.069Zm12.648 0 6.834-15.091h2.134l6.856 15.091h-2.264l-6.101-13.883h.863l-6.101 13.883h-2.221Zm2.91-3.773.583-1.724h8.493l.626 1.724h-9.702Zm20.921 3.902a5.361 5.361 0 0 1-2.609-.646c-.776-.446-1.401-1.1-1.875-1.962-.46-.863-.69-1.94-.69-3.234 0-1.293.223-2.371.668-3.234.46-.862 1.078-1.509 1.854-1.94.791-.431 1.675-.647 2.652-.647 1.121 0 2.113.245 2.975.733a5.4 5.4 0 0 1 2.048 2.048c.503.863.755 1.876.755 3.04 0 1.164-.252 2.185-.755 3.061a5.386 5.386 0 0 1-2.048 2.048c-.862.489-1.854.733-2.975.733Zm-6.058 4.053v-15.608h1.983v3.083l-.129 2.652.216 2.651v7.222h-2.07Zm5.886-5.864c.733 0 1.386-.165 1.961-.495a3.5 3.5 0 0 0 1.38-1.402c.345-.618.517-1.329.517-2.134 0-.819-.172-1.523-.517-2.113a3.504 3.504 0 0 0-1.38-1.401c-.575-.33-1.228-.496-1.961-.496-.719 0-1.373.166-1.962.496a3.7 3.7 0 0 0-1.38 1.401c-.331.59-.496 1.294-.496 2.113 0 .805.165 1.516.496 2.134a3.696 3.696 0 0 0 1.38 1.402c.589.33 1.243.495 1.962.495Zm14.867 1.811a5.361 5.361 0 0 1-2.609-.646c-.776-.446-1.401-1.1-1.875-1.962-.46-.863-.69-1.94-.69-3.234 0-1.293.223-2.371.668-3.234.46-.862 1.078-1.509 1.854-1.94.791-.431 1.675-.647 2.652-.647 1.121 0 2.113.245 2.975.733a5.4 5.4 0 0 1 2.048 2.048c.503.863.754 1.876.754 3.04 0 1.164-.251 2.185-.754 3.061a5.386 5.386 0 0 1-2.048 2.048c-.862.489-1.854.733-2.975.733Zm-6.058 4.053v-15.608h1.983v3.083l-.129 2.652.216 2.651v7.222h-2.07Zm5.885-5.864c.733 0 1.387-.165 1.962-.495a3.507 3.507 0 0 0 1.38-1.402c.345-.618.517-1.329.517-2.134 0-.819-.172-1.523-.517-2.113a3.51 3.51 0 0 0-1.38-1.401c-.575-.33-1.229-.496-1.962-.496-.718 0-1.372.166-1.961.496a3.7 3.7 0 0 0-1.38 1.401c-.331.59-.496 1.294-.496 2.113 0 .805.165 1.516.496 2.134a3.696 3.696 0 0 0 1.38 1.402c.589.33 1.243.495 1.961.495Zm8.81 1.682v-15.996h2.07v15.996h-2.07Zm6.021 0v-11.426h2.07v11.426h-2.07ZM744.447 132c-.403 0-.74-.129-1.013-.388a1.288 1.288 0 0 1-.388-.948c0-.388.129-.712.388-.97.273-.259.61-.389 1.013-.389.402 0 .733.13.992.389.273.244.409.553.409.927 0 .388-.129.718-.388.991-.259.259-.596.388-1.013.388Zm9.966 13.754c-1.164 0-2.206-.251-3.126-.754a5.571 5.571 0 0 1-2.134-2.07c-.517-.876-.776-1.883-.776-3.018 0-1.135.259-2.141.776-3.018a5.418 5.418 0 0 1 2.134-2.048c.92-.503 1.962-.755 3.126-.755 1.035 0 1.955.209 2.76.626a4.282 4.282 0 0 1 1.897 1.81l-1.574 1.014c-.374-.561-.834-.97-1.38-1.229a3.72 3.72 0 0 0-1.724-.41c-.748 0-1.416.166-2.005.496a3.65 3.65 0 0 0-1.402 1.401c-.345.59-.517 1.294-.517 2.113s.172 1.531.517 2.134a3.646 3.646 0 0 0 1.402 1.402c.589.33 1.257.495 2.005.495.618 0 1.192-.129 1.724-.388.546-.273 1.006-.689 1.38-1.25l1.574.992a4.578 4.578 0 0 1-1.897 1.832c-.805.417-1.725.625-2.76.625Zm14.429-.129v-2.415l-.108-.452v-4.118c0-.877-.259-1.552-.776-2.026-.503-.489-1.265-.733-2.285-.733a5.88 5.88 0 0 0-1.984.345c-.646.215-1.193.51-1.638.884l-.862-1.553c.589-.474 1.293-.833 2.112-1.078a8.775 8.775 0 0 1 2.609-.388c1.566 0 2.774.381 3.622 1.143.848.762 1.272 1.926 1.272 3.492v6.899h-1.962Zm-3.751.129c-.848 0-1.596-.143-2.242-.431-.633-.287-1.121-.682-1.466-1.186a3.075 3.075 0 0 1-.518-1.746c0-.618.144-1.178.431-1.681.302-.503.784-.906 1.445-1.208.675-.301 1.581-.452 2.716-.452h3.622v1.487h-3.536c-1.034 0-1.731.173-2.091.518a1.67 1.67 0 0 0-.539 1.25c0 .561.223 1.013.669 1.358.445.331 1.063.496 1.854.496.776 0 1.451-.172 2.026-.517a2.933 2.933 0 0 0 1.272-1.509l.41 1.422c-.273.676-.755 1.215-1.445 1.617-.69.388-1.559.582-2.608.582Zm13.466 0c-1.15 0-2.041-.309-2.673-.927-.633-.618-.949-1.502-.949-2.651v-10.478h2.07v10.391c0 .618.151 1.093.453 1.423.316.331.761.496 1.336.496.647 0 1.186-.18 1.617-.539l.647 1.488a2.994 2.994 0 0 1-1.143.603c-.431.13-.884.194-1.358.194Zm-5.562-9.852v-1.703h7.287v1.703h-7.287Zm10.565 9.723v-11.426h2.069v11.426h-2.069ZM784.595 132c-.403 0-.74-.129-1.014-.388a1.292 1.292 0 0 1-.388-.948c0-.388.13-.712.388-.97a1.419 1.419 0 0 1 1.014-.389c.402 0 .733.13.991.389.273.244.41.553.41.927 0 .388-.129.718-.388.991-.259.259-.597.388-1.013.388Zm9.88 13.754c-1.15 0-2.17-.251-3.062-.754a5.611 5.611 0 0 1-2.112-2.07c-.518-.891-.776-1.897-.776-3.018 0-1.135.258-2.141.776-3.018a5.454 5.454 0 0 1 2.112-2.048c.892-.503 1.912-.755 3.062-.755 1.135 0 2.148.252 3.039.755a5.267 5.267 0 0 1 2.113 2.048c.518.862.776 1.868.776 3.018 0 1.135-.258 2.142-.776 3.018a5.413 5.413 0 0 1-2.113 2.07c-.891.503-1.904.754-3.039.754Zm0-1.811c.733 0 1.387-.165 1.962-.495a3.498 3.498 0 0 0 1.379-1.402c.331-.618.496-1.329.496-2.134 0-.819-.165-1.523-.496-2.113a3.502 3.502 0 0 0-1.379-1.401c-.575-.33-1.229-.496-1.962-.496-.733 0-1.387.166-1.962.496a3.7 3.7 0 0 0-1.38 1.401c-.345.59-.517 1.294-.517 2.113 0 .805.172 1.516.517 2.134a3.696 3.696 0 0 0 1.38 1.402c.575.33 1.229.495 1.962.495Zm14.891-9.852c.935 0 1.754.18 2.458.539a3.86 3.86 0 0 1 1.682 1.639c.402.733.603 1.66.603 2.781v6.575h-2.069v-6.338c0-1.107-.274-1.94-.82-2.501-.531-.56-1.286-.841-2.263-.841-.733 0-1.373.144-1.919.432-.546.287-.97.711-1.272 1.271-.287.561-.431 1.258-.431 2.092v5.885h-2.07v-11.426h1.984v3.083l-.324-.819c.374-.748.949-1.33 1.725-1.746.776-.417 1.682-.626 2.716-.626Z" fill="#252525"/><mask id="f" style="mask-type:luminance" maskUnits="userSpaceOnUse" x="523" y="37" width="106" height="106"><path d="M523.68 37.969h104.422V142.39H523.68V37.969Z" fill="#fff"/></mask><g mask="url(#f)"><path d="M575.891 37.969c-28.821 0-52.211 23.39-52.211 52.21 0 28.824 23.39 52.214 52.211 52.214 28.823 0 52.213-23.39 52.213-52.213 0-28.82-23.39-52.211-52.213-52.211Zm14.723 86.136h-29.485a5.187 5.187 0 0 1-5.184-5.184 5.185 5.185 0 0 1 5.184-5.184h29.485a5.16 5.16 0 0 1 5.184 5.184 5.187 5.187 0 0 1-5.184 5.184Zm5.557-36.744-15.51 16.173c-1.285 1.285-2.945 1.99-4.77 1.99-1.823 0-3.483-.705-4.769-1.99l-.04-.041-15.469-16.091c-1.992-2.074-1.909-5.35.124-7.34 2.074-1.992 5.349-1.908 7.339.125l7.633 7.962V61.316a5.185 5.185 0 0 1 5.182-5.184 5.185 5.185 0 0 1 5.184 5.184V88.15l7.63-7.962c1.992-2.074 5.268-2.117 7.341-.125 2.033 1.95 2.115 5.225.125 7.299Z" fill="#006"/></g><defs><filter id="a" x=".827" y=".848" width="945.998" height="190.115" filterUnits="userSpaceOnUse" color-interpolation-filters="sRGB"><feFlood flood-opacity="0" result="BackgroundImageFix"/><feColorMatrix in="SourceAlpha" values="0 0 0 0 0 0 0 0 0 0 0 0 0 0 0 0 0 0 127 0" result="hardAlpha"/><feMorphology radius=".674" operator="dilate" in="SourceAlpha" result="effect1_dropShadow_5176_2045"/><feOffset dx="-.674" dy="1.347"/><feGaussianBlur stdDeviation="4.413"/><feComposite in2="hardAlpha" operator="out"/><feColorMatrix values="0 0 0 0 0 0 0 0 0 0 0 0 0 0 0 0 0 0 0.25 0"/><feBlend in2="BackgroundImageFix" result="effect1_dropShadow_5176_2045"/><feBlend in="SourceGraphic" in2="effect1_dropShadow_5176_2045" result="shape"/></filter></defs></svg>