<svg xmlns="http://www.w3.org/2000/svg" width="46" height="46" fill="none"><mask id="a" width="46" height="46" x="0" y="0" maskUnits="userSpaceOnUse" style="mask-type:luminance"><path fill="#fff" d="M0 0h46v46H0V0Z"/></mask><g mask="url(#a)"><path fill="#006" d="M23 46C10.318 46 0 35.682 0 23S10.318 0 23 0s23 10.318 23 23-10.318 23-23 23Zm0-42.665C12.154 3.335 3.332 12.155 3.332 23c0 10.843 8.822 19.665 19.668 19.665 10.843 0 19.668-8.822 19.668-19.665 0-10.846-8.825-19.665-19.668-19.665Z"/></g><path fill="#006" d="M23.474 34.936c-.176-.067-.367-.176-.367-.64 0-.19.03-.412.097-.682L26.11 19.53c.065-.331.098-.677.098-1.022 0-.91-.28-1.603-.834-2.062-1.24-1.019-3.411-.82-7.022.402l-.35.117-.144 1.817h.606c1.839 0 2.283.144 2.375.189.124.058.191.13.191.336 0 .115-.014.244-.044.388-.037.192-.08.413-.12.652l-2.663 12.934c-.124.651-.189 1.21-.189 1.656 0 1.03.298 1.827.879 2.365.569.525 1.35.792 2.318.792 1.135 0 2.657-.315 4.652-.96l.357-.115.143-1.842h-.602c-1.365 0-1.994-.132-2.286-.242ZM25.513 8.696c-.548-.523-1.252-.79-2.092-.79-.87 0-1.606.287-2.185.848-.583.565-.881 1.326-.881 2.263 0 .863.283 1.579.84 2.133.556.56 1.269.843 2.114.843.863 0 1.591-.3 2.174-.887.577-.587.87-1.348.87-2.266 0-.895-.281-1.617-.84-2.144Z"/></svg>