<svg width="48" height="48" fill="none" xmlns="http://www.w3.org/2000/svg"><mask id="a" style="mask-type:luminance" maskUnits="userSpaceOnUse" x="0" y="0" width="48" height="48"><path d="M0 0h48v47.864H0V0Z" fill="#fff"/><path d="M0 0h48v47.864H0V0Z" stroke="#fff"/></mask><g mask="url(#a)"><path fill-rule="evenodd" clip-rule="evenodd" d="M2.333 6.961.438 4.616a.812.812 0 0 1 .124-1.141L4.368.41A.814.814 0 0 1 5.51.534l3.414 4.23a.81.81 0 0 1 .164.667L8.54 8.176l.358.444a21.781 21.781 0 0 1 7.383-3.578 21.929 21.929 0 0 1 9.922-.315V.813c0-.448.363-.813.811-.813h20.162c.447 0 .81.365.81.813v20.133c0 .45-.363.813-.81.813h-3.909c.657 3.276.55 6.683-.313 9.915a21.73 21.73 0 0 1-5.64 9.753c-8.506 8.496-22.284 8.496-30.79 0-8.934-8.922-8.414-23.514 1.11-31.787l-.36-.448-2.802-.045a.813.813 0 0 1-.62-.301L2.333 6.96Zm7.582 2.922 2.194 2.715a16.698 16.698 0 0 1 14.093-2.63V6.387c-5.77-1.255-11.642.031-16.287 3.496Zm31.69 11.876h-3.586a16.635 16.635 0 0 1-4.32 16.058c-6.495 6.487-17.066 6.487-23.562 0-6.784-6.776-6.452-17.828.705-24.197l-2.189-2.716c-8.788 7.708-9.22 21.145-.98 29.374 7.852 7.843 20.633 7.848 28.49 0 4.832-4.822 6.886-11.867 5.441-18.519ZM27.825 5.73v.027c-.015 1.757.014 3.555 0 5.315-.015 2.13.02 4.303 0 6.433v2.629h2.664c2.136.016 4.317-.019 6.448 0h9.423V1.625H27.826V5.73ZM13.13 13.864l2.677 3.316a10.786 10.786 0 0 1 10.396-1.017v-4.51c-4.53-1.346-9.318-.508-13.073 2.21Zm23.201 7.895h-4.52c1.751 4.01.9 8.74-2.269 11.905-4.203 4.198-11.043 4.198-15.246 0-4.306-4.304-4.195-11.299.247-15.462l-2.677-3.316c-6.416 5.777-6.67 15.697-.578 21.782 5.862 5.852 15.4 5.858 21.262 0 3.946-3.938 5.367-9.605 3.782-14.909ZM16.83 18.45l2.46 3.046a5.272 5.272 0 0 1 6.351.838 5.249 5.249 0 0 1 0 7.433 5.267 5.267 0 0 1-7.444 0 5.246 5.246 0 0 1-.172-7.25l-2.46-3.046c-3.688 3.549-3.741 9.427-.119 13.045 3.57 3.563 9.376 3.566 12.946 0a9.117 9.117 0 0 0 1.614-10.756h-2.992a.81.81 0 0 1-.81-.813v-2.98a9.158 9.158 0 0 0-9.374.482Zm3.498 4.334 2.226 2.758c.432.538.03 1.321-.633 1.321a.812.812 0 0 1-.634-.302l-2.226-2.757a3.628 3.628 0 0 0 .286 4.817 3.64 3.64 0 0 0 5.144 0 3.627 3.627 0 0 0 0-5.138 3.638 3.638 0 0 0-4.163-.698Zm23.675-5.005H30.185a.812.812 0 0 1-.813-.812V9.449c0-.45.363-.813.813-.813h3.23V5.41c0-.45.364-.813.814-.813h5.73c.45 0 .813.363.813.813v3.226h3.23c.451 0 .814.363.814.813v7.517c0 .45-.363.813-.814.813ZM35.04 8.637h4.108V6.22H35.04v2.416Zm-4.044 7.52h12.196V13.54h-5.284v.198a.815.815 0 0 1-.814.813.815.815 0 0 1-.814-.813v-.198h-5.284v2.615Zm12.196-4.238v-1.66H30.996v1.66h12.196ZM5.187 5.704l-1.078.87.77.956 2.123.035.416-2.079-.77-.955-1.46 1.173ZM2.213 4.23l.875 1.08 2.539-2.044-.872-1.083L2.213 4.23Z" fill="#006"/></g></svg>