<svg width="142" height="142" fill="none" xmlns="http://www.w3.org/2000/svg"><g filter="url(#a)"><circle cx="67" cy="68" r="59" fill="#152968"/></g><mask id="b" style="mask-type:luminance" maskUnits="userSpaceOnUse" x="81" y="47" width="16" height="61"><path d="M81.407 47.809H96.63v60.187H81.407V47.809Z" fill="#fff"/></mask><g mask="url(#b)"><path d="M93.938 48.583a1.235 1.235 0 0 0-.467-.51 1.243 1.243 0 0 0-.666-.19c-.239 0-.46.064-.665.19a1.25 1.25 0 0 0-.466.51l-2.532 5.062a1.306 1.306 0 0 0-.13.476 1.32 1.32 0 0 0 .062.49 1.23 1.23 0 0 0 .424.6 1.273 1.273 0 0 0 1.177.2 1.277 1.277 0 0 0 .6-.424c.05-.065.094-.136.131-.21l.134-.267v50.953h-8.859a1.283 1.283 0 0 0-.894.371 1.298 1.298 0 0 0-.275.411 1.244 1.244 0 0 0-.071.73 1.232 1.232 0 0 0 .188.457 1.298 1.298 0 0 0 .569.467 1.303 1.303 0 0 0 .484.095h9.49a1.918 1.918 0 0 0 .728-.145 1.864 1.864 0 0 0 .614-.411 1.865 1.865 0 0 0 .412-.615 1.92 1.92 0 0 0 .145-.727V54.51l.133.267a1.272 1.272 0 0 0 1.468.655 1.318 1.318 0 0 0 .44-.221 1.24 1.24 0 0 0 .426-.6 1.265 1.265 0 0 0-.07-.966l-2.53-5.062Z" fill="#fff"/></g><mask id="c" style="mask-type:luminance" maskUnits="userSpaceOnUse" x="38" y="47" width="16" height="61"><path d="M38.326 47.809h15.51v60.187h-15.51V47.809Z" fill="#fff"/></mask><g mask="url(#c)"><path d="M52.31 105.463H43.45V54.51l.134.267a1.272 1.272 0 0 0 1.467.655 1.314 1.314 0 0 0 .441-.221 1.235 1.235 0 0 0 .324-.374 1.25 1.25 0 0 0 .163-.716 1.23 1.23 0 0 0-.131-.476l-2.531-5.062a1.235 1.235 0 0 0-.467-.51 1.243 1.243 0 0 0-.665-.19c-.24 0-.461.064-.666.19a1.25 1.25 0 0 0-.466.51l-2.531 5.062a1.306 1.306 0 0 0-.13.476 1.298 1.298 0 0 0 .061.49 1.31 1.31 0 0 0 .245.428 1.299 1.299 0 0 0 .39.303 1.285 1.285 0 0 0 .725.124c.082-.01.163-.028.241-.055a1.205 1.205 0 0 0 .429-.245c.063-.054.12-.114.172-.18.05-.066.094-.135.13-.21l.134-.266v51.586a1.95 1.95 0 0 0 .146.727 1.929 1.929 0 0 0 .699.851 1.864 1.864 0 0 0 .683.284c.123.024.246.036.37.036h9.492a1.273 1.273 0 0 0 .895-.37 1.29 1.29 0 0 0 .347-.649 1.282 1.282 0 0 0-.19-.949 1.29 1.29 0 0 0-.349-.35 1.216 1.216 0 0 0-.457-.188 1.274 1.274 0 0 0-.246-.025Z" fill="#fff"/></g><mask id="d" style="mask-type:luminance" maskUnits="userSpaceOnUse" x="49" y="45" width="14" height="63"><path d="M49.528 45.8h12.637V108H49.528V45.801Z" fill="#fff"/></mask><g mask="url(#d)"><path d="M56.415 48.52h5.599a12.603 12.603 0 0 1-3.542-2.532h-2.057a6.59 6.59 0 0 0-1.292.126 6.397 6.397 0 0 0-1.242.373 6.683 6.683 0 0 0-2.976 2.429 6.544 6.544 0 0 0-.615 1.143c-.084.2-.158.403-.22.611a6.282 6.282 0 0 0-.161.63 6.868 6.868 0 0 0-.133 1.29v28.695a3.925 3.925 0 0 0 .305 1.508 3.968 3.968 0 0 0 .859 1.277 3.964 3.964 0 0 0 2.02 1.075c.253.05.51.075.769.074h3.64v21.513a1.301 1.301 0 0 0 .097.485 1.24 1.24 0 0 0 .275.41 1.2 1.2 0 0 0 .41.275 1.308 1.308 0 0 0 .484.096 1.273 1.273 0 0 0 .703-.213 1.234 1.234 0 0 0 .467-.568 1.314 1.314 0 0 0 .095-.485V71.298a1.305 1.305 0 0 0-.095-.483 1.281 1.281 0 0 0-.923-.758 1.297 1.297 0 0 0-.494 0 1.278 1.278 0 0 0-.805.538 1.283 1.283 0 0 0-.214.703v11.39h-3.64a1.416 1.416 0 0 1-.54-.105 1.392 1.392 0 0 1-.768-.758 1.366 1.366 0 0 1-.114-.54V52.59a4.12 4.12 0 0 1 .32-1.563 4.107 4.107 0 0 1 1.515-1.827 4.053 4.053 0 0 1 2.273-.681Z" fill="#fff"/></g><mask id="e" style="mask-type:luminance" maskUnits="userSpaceOnUse" x="72" y="45" width="14" height="63"><path d="M72.793 45.8H85.43V108H72.793V45.801Z" fill="#fff"/></mask><g mask="url(#e)"><path d="M85.215 81.285V52.59a6.592 6.592 0 0 0-1.516-4.193 6.567 6.567 0 0 0-1.442-1.3 6.85 6.85 0 0 0-.558-.334 6.718 6.718 0 0 0-1.83-.65 6.594 6.594 0 0 0-1.291-.126H76.52a12.619 12.619 0 0 1-3.541 2.532h5.599a4.143 4.143 0 0 1 1.565.307 4.077 4.077 0 0 1 2.458 2.967c.054.262.082.528.083.796v28.696c0 .094-.01.184-.03.275a1.369 1.369 0 0 1-.213.507 1.34 1.34 0 0 1-.392.387 1.443 1.443 0 0 1-.51.209c-.09.017-.182.026-.275.025h-3.642v-11.39a1.305 1.305 0 0 0-.095-.483 1.288 1.288 0 0 0-.686-.686 1.33 1.33 0 0 0-.484-.096 1.306 1.306 0 0 0-.484.096 1.283 1.283 0 0 0-.569.467 1.283 1.283 0 0 0-.213.702v35.434a1.301 1.301 0 0 0 .213.704c.047.069.099.133.158.191a1.203 1.203 0 0 0 .411.275 1.308 1.308 0 0 0 .483.096 1.273 1.273 0 0 0 .704-.213 1.234 1.234 0 0 0 .467-.568 1.314 1.314 0 0 0 .095-.485V85.219h3.642a3.931 3.931 0 0 0 3.28-1.746 3.886 3.886 0 0 0 .594-1.42c.05-.253.077-.508.077-.768Z" fill="#fff"/></g><mask id="f" style="mask-type:luminance" maskUnits="userSpaceOnUse" x="57" y="27" width="21" height="21"><path d="M57.277 27H77.67v20.517H57.277V27Z" fill="#fff"/></mask><g mask="url(#f)"><path d="M67.493 47.248a10.088 10.088 0 0 0 4.773-1.195 10.087 10.087 0 0 0 3.646-3.304 10.062 10.062 0 0 0 .934-1.75 9.883 9.883 0 0 0 .577-1.9 10.034 10.034 0 0 0 .146-2.967 10.034 10.034 0 0 0-.723-2.882 10.281 10.281 0 0 0-.934-1.75 10.032 10.032 0 0 0-1.26-1.535 9.84 9.84 0 0 0-.736-.666 10.087 10.087 0 0 0-3.483-1.862 10.01 10.01 0 0 0-2.94-.436 10.083 10.083 0 0 0-1.974.194 10.224 10.224 0 0 0-2.798 1 10.245 10.245 0 0 0-1.65 1.104 9.877 9.877 0 0 0-1.403 1.403 10.26 10.26 0 0 0-1.528 2.548 10.163 10.163 0 0 0-.77 3.874 10.508 10.508 0 0 0 .196 1.974 10.141 10.141 0 0 0 6.055 7.377 10.149 10.149 0 0 0 3.872.773Zm0-17.717a7.506 7.506 0 0 1 1.482.146 7.672 7.672 0 0 1 2.737 1.134 7.476 7.476 0 0 1 1.651 1.497 7.41 7.41 0 0 1 .827 1.237 7.503 7.503 0 0 1 .75 2.098 7.407 7.407 0 0 1 .146 1.481 7.503 7.503 0 0 1-.326 2.204 7.523 7.523 0 0 1-1.397 2.613 7.753 7.753 0 0 1-1.052 1.053 7.513 7.513 0 0 1-1.912 1.146 7.327 7.327 0 0 1-1.424.431 7.484 7.484 0 0 1-2.226.11 7.635 7.635 0 0 1-2.835-.86 7.532 7.532 0 0 1-2.29-1.88 7.484 7.484 0 0 1-1.145-1.912 7.625 7.625 0 0 1-.579-2.906 7.881 7.881 0 0 1 .148-1.479c.048-.244.11-.484.182-.722s.156-.473.251-.701a7.497 7.497 0 0 1 1.646-2.463 7.731 7.731 0 0 1 1.15-.945 7.486 7.486 0 0 1 1.313-.7c.228-.096.463-.18.7-.252a7.413 7.413 0 0 1 2.202-.33Z" fill="#fff"/></g><mask id="g" style="mask-type:luminance" maskUnits="userSpaceOnUse" x="66" y="82" width="3" height="26"><path d="M66.186 82.563h2.584v25.435h-2.584V82.562Z" fill="#fff"/></mask><g mask="url(#g)"><path d="M67.493 82.688a1.306 1.306 0 0 0-.483.096 1.276 1.276 0 0 0-.57.467 1.28 1.28 0 0 0-.212.702v22.779a1.301 1.301 0 0 0 .096.485 1.203 1.203 0 0 0 .275.41 1.248 1.248 0 0 0 1.141.347 1.29 1.29 0 0 0 .457-.19 1.197 1.197 0 0 0 .348-.349c.046-.069.086-.142.118-.218a1.3 1.3 0 0 0 .095-.485V83.953a1.263 1.263 0 0 0-.213-.702 1.237 1.237 0 0 0-.349-.35 1.322 1.322 0 0 0-.704-.213Z" fill="#fff"/></g><mask id="h" style="mask-type:luminance" maskUnits="userSpaceOnUse" x="97" y="78" width="11" height="30"><path d="M97.778 78.832h10.214v29.169H97.778V78.832Z" fill="#fff"/></mask><g mask="url(#h)"><path d="M106.726 105.47h-3.796V85.522l.133.267a1.243 1.243 0 0 0 .303.39c.063.054.13.102.203.142a1.254 1.254 0 0 0 1.193.033 1.27 1.27 0 0 0 .39-.302 1.303 1.303 0 0 0 .3-.672c.01-.082.012-.165.007-.248a1.377 1.377 0 0 0-.043-.244 1.145 1.145 0 0 0-.089-.231l-2.531-5.062a1.23 1.23 0 0 0-.466-.51 1.245 1.245 0 0 0-.666-.19c-.239 0-.461.064-.665.19a1.253 1.253 0 0 0-.467.51l-2.53 5.062a1.306 1.306 0 0 0-.13.475 1.307 1.307 0 0 0 .06.49c.028.08.061.155.102.227.041.072.09.14.143.203a1.264 1.264 0 0 0 .866.433 1.307 1.307 0 0 0 .49-.061 1.289 1.289 0 0 0 .601-.426c.051-.065.094-.135.131-.21l.134-.266v21.213c0 .084.009.167.024.247.017.082.041.162.072.238a1.322 1.322 0 0 0 .467.568 1.235 1.235 0 0 0 .702.213h5.062a1.277 1.277 0 0 0 .896-.37 1.316 1.316 0 0 0 .274-.411 1.283 1.283 0 0 0 .072-.731 1.297 1.297 0 0 0-.189-.456 1.316 1.316 0 0 0-.349-.35 1.21 1.21 0 0 0-.457-.188 1.277 1.277 0 0 0-.247-.025Z" fill="#fff"/></g><mask id="i" style="mask-type:luminance" maskUnits="userSpaceOnUse" x="27" y="78" width="11" height="30"><path d="M27 78.832h10.178v29.169H27V78.832Z" fill="#fff"/></mask><g mask="url(#i)"><path d="M34.46 79.595a1.235 1.235 0 0 0-.467-.51 1.243 1.243 0 0 0-.666-.19c-.238 0-.46.064-.665.19a1.25 1.25 0 0 0-.466.51l-2.531 5.062a1.306 1.306 0 0 0-.13.476 1.217 1.217 0 0 0 .163.717 1.232 1.232 0 0 0 .533.505 1.262 1.262 0 0 0 1.193-.032 1.223 1.223 0 0 0 .373-.325c.05-.065.095-.135.131-.21l.134-.266v19.948h-3.796a1.283 1.283 0 0 0-.895.371 1.304 1.304 0 0 0-.274.411 1.328 1.328 0 0 0-.097.483 1.285 1.285 0 0 0 .213.704 1.304 1.304 0 0 0 .35.349c.069.046.142.085.219.118a1.303 1.303 0 0 0 .483.095h5.063a1.273 1.273 0 0 0 .895-.37 1.296 1.296 0 0 0 .346-.649c.016-.08.024-.163.024-.247V85.522l.133.267a1.299 1.299 0 0 0 .506.533 1.33 1.33 0 0 0 .468.155 1.282 1.282 0 0 0 1.258-.63 1.284 1.284 0 0 0 .121-.96 1.226 1.226 0 0 0-.089-.23l-2.53-5.062Z" fill="#fff"/></g><defs><filter id="a" x=".6" y=".6" width="140.8" height="140.8" filterUnits="userSpaceOnUse" color-interpolation-filters="sRGB"><feFlood flood-opacity="0" result="BackgroundImageFix"/><feColorMatrix in="SourceAlpha" values="0 0 0 0 0 0 0 0 0 0 0 0 0 0 0 0 0 0 127 0" result="hardAlpha"/><feOffset dx="4" dy="3"/><feGaussianBlur stdDeviation="5.7"/><feComposite in2="hardAlpha" operator="out"/><feColorMatrix values="0 0 0 0 0.128333 0 0 0 0 0.119778 0 0 0 0 0.119778 0 0 0 0.25 0"/><feBlend in2="BackgroundImageFix" result="effect1_dropShadow_6248_2837"/><feBlend in="SourceGraphic" in2="effect1_dropShadow_6248_2837" result="shape"/></filter></defs></svg>