<svg width="683" height="684" viewBox="0 0 683 684" fill="none" xmlns="http://www.w3.org/2000/svg">
<path d="M177.359 37.8494C345.204 -52.66 541.817 55.9861 598.552 120.697C614.738 139.147 670.968 205.137 679.701 306.043C688.312 405.425 645.979 543.37 533.397 621.768C395.156 718.032 185.325 703.109 74.4678 573.601C-43.4687 435.838 18.1334 247.288 24.0977 229.961C33.5361 202.586 70.4364 95.5072 177.359 37.8494Z" fill="#CADDFF"/>
<path d="M115.312 145.587C116.862 145.073 259.474 1.24219 259.474 1.24219L314.729 26.6754H269.252L167.31 128.478L115.312 155.052V145.587Z" fill="white"/>
<path d="M116.548 146.105V153.027L166.578 127.455L268.39 25.7919C268.616 25.5655 268.929 25.4349 269.26 25.4349H309.104L259.743 2.71827C254.876 7.62032 221.746 41.0204 188.851 74.0809C130.888 132.322 119.186 143.772 116.548 146.105ZM115.312 156.275C115.085 156.275 114.868 156.223 114.667 156.092C114.302 155.875 114.075 155.474 114.075 155.047V145.574C114.075 145.139 114.31 144.738 114.676 144.521C118.263 141.691 210.288 49.0831 258.603 0.367379C258.969 -0.00702343 259.526 -0.102802 259.996 0.114875L315.251 25.5481C315.782 25.7919 316.069 26.3665 315.939 26.9325C315.817 27.4984 315.312 27.899 314.737 27.899H269.765L168.189 129.344C168.093 129.431 167.989 129.51 167.876 129.562L115.878 156.145C115.703 156.232 115.503 156.275 115.312 156.275Z" fill="#5479F7"/>
<path d="M86.7095 114.237V101.925L120.458 40.4883V114.237H86.7095Z" fill="white"/>
<path d="M87.9372 113.001H119.222V45.3037L87.9372 102.239V113.001ZM120.458 115.474H86.7095C86.0217 115.474 85.4731 114.916 85.4731 114.237V101.925C85.4731 101.716 85.5254 101.516 85.6212 101.333L119.378 39.8967C119.648 39.4091 120.223 39.1566 120.763 39.2959C121.311 39.4352 121.694 39.9315 121.694 40.4888V114.237C121.694 114.916 121.137 115.474 120.458 115.474Z" fill="#5479F7"/>
<path d="M86.7007 225.745V166.59H120.458V225.745H86.7007Z" fill="#99B9FF"/>
<path d="M87.9372 224.51H119.222V167.827H87.9372V224.51ZM120.458 226.974H86.7008C86.0217 226.974 85.4731 226.426 85.4731 225.746V166.6C85.4731 165.912 86.0217 165.363 86.7008 165.363H120.458C121.137 165.363 121.694 165.912 121.694 166.6V225.746C121.694 226.426 121.137 226.974 120.458 226.974Z" fill="#5479F7"/>
<path d="M144.872 303.351V209.516H170.027V303.351H144.872Z" fill="white"/>
<path d="M146.109 302.129H168.791V210.758H146.109V302.129ZM170.027 304.593H144.873C144.185 304.593 143.636 304.036 143.636 303.357V209.522C143.636 208.842 144.185 208.285 144.873 208.285H170.027C170.706 208.285 171.255 208.842 171.255 209.522V303.357C171.255 304.036 170.706 304.593 170.027 304.593Z" fill="#5479F7"/>
<path d="M37.1411 303.637V209.793H62.2957V303.637H37.1411Z" fill="white"/>
<path d="M38.3771 302.394H61.0589V211.023H38.3771V302.394ZM62.2952 304.858H37.1407C36.4528 304.858 35.9043 304.31 35.9043 303.63V209.786C35.9043 209.107 36.4528 208.559 37.1407 208.559H62.2952C62.9744 208.559 63.5316 209.107 63.5316 209.786V303.63C63.5316 304.31 62.9744 304.858 62.2952 304.858Z" fill="#5479F7"/>
<path d="M120.458 155.047H21.416V101.926H120.458V155.047Z" fill="white"/>
<path d="M22.6521 153.808H119.222V103.159H22.6521V153.808ZM120.458 156.281H21.4157C20.7365 156.281 20.188 155.724 20.188 155.044V101.923C20.188 101.244 20.7365 100.695 21.4157 100.695H120.458C121.137 100.695 121.694 101.244 121.694 101.923V155.044C121.694 155.724 121.137 156.281 120.458 156.281Z" fill="#5479F7"/>
<path d="M64.3236 140.194H40.8843V116.781H64.3236V140.194Z" fill="#99B9FF"/>
<path d="M104.385 140.194H80.9458V116.781H104.385V140.194Z" fill="#99B9FF"/>
<path d="M140.467 178.012H21.416V155.043H140.467V178.012Z" fill="#99B9FF"/>
<path d="M22.6521 176.782H139.23V156.285H22.6521V176.782ZM140.467 179.254H21.4157C20.7365 179.254 20.188 178.697 20.188 178.018V155.049C20.188 154.37 20.7365 153.812 21.4157 153.812H140.467C141.154 153.812 141.703 154.37 141.703 155.049V178.018C141.703 178.697 141.154 179.254 140.467 179.254Z" fill="#5479F7"/>
<path d="M170.028 226.373H37.1411V192.668H170.028V226.373Z" fill="#99B9FF"/>
<path d="M38.3771 225.138H168.791V193.898H38.3771V225.138ZM170.027 227.611H37.1407C36.4528 227.611 35.9043 227.054 35.9043 226.375V192.67C35.9043 191.991 36.4528 191.434 37.1407 191.434H170.027C170.706 191.434 171.255 191.991 171.255 192.67V226.375C171.255 227.054 170.706 227.611 170.027 227.611Z" fill="#5479F7"/>
<path d="M120.458 41.7267C119.918 41.7267 119.422 41.3785 119.274 40.8299C119.082 40.1769 119.466 39.489 120.119 39.3062L259.143 0.0462674C259.796 -0.136582 260.484 0.237822 260.667 0.899554C260.85 1.55258 260.467 2.23173 259.814 2.41457L120.798 41.6832C120.685 41.7093 120.571 41.7267 120.458 41.7267Z" fill="#5479F7"/>
<path d="M321.511 54.764H307.955V33.8672H321.511V54.764Z" fill="#5479F7"/>
<path d="M315.094 73.9055C310.697 73.9055 307.119 70.3269 307.119 65.9299C307.119 65.2595 307.667 64.7022 308.355 64.7022C309.034 64.7022 309.591 65.2595 309.591 65.9299C309.591 68.9686 312.056 71.4327 315.094 71.4327C318.133 71.4327 320.606 68.9686 320.606 65.9299C320.606 62.9086 318.133 60.4358 315.094 60.4358C314.415 60.4358 313.858 59.8872 313.858 59.1994V26.67C313.858 25.9908 314.415 25.4336 315.094 25.4336C315.782 25.4336 316.331 25.9908 316.331 26.67V58.0675C320.144 58.6595 323.079 61.9682 323.079 65.9299C323.079 70.3269 319.5 73.9055 315.094 73.9055Z" fill="#5479F7"/>
<path d="M443.941 237.533H348.721V114.242L443.941 116.654V237.533Z" fill="#99B9FF"/>
<path d="M349.958 236.3H442.705V117.85L349.958 115.499V236.3ZM443.941 238.765H348.721C348.042 238.765 347.485 238.216 347.485 237.528V114.237C347.485 113.897 347.624 113.584 347.859 113.349C348.103 113.114 348.417 112.992 348.756 113L443.967 115.412C444.638 115.43 445.169 115.978 445.169 116.649V237.528C445.169 238.216 444.62 238.765 443.941 238.765Z" fill="#5479F7"/>
<path d="M363.105 224.087C362.417 224.087 361.868 223.538 361.868 222.85V126.873C361.868 126.194 362.417 125.637 363.105 125.637C363.784 125.637 364.332 126.194 364.332 126.873V222.85C364.332 223.538 363.784 224.087 363.105 224.087Z" fill="#5479F7"/>
<path d="M379.875 224.086C379.187 224.086 378.638 223.537 378.638 222.858V174.865C378.638 174.186 379.187 173.629 379.875 173.629C380.554 173.629 381.111 174.186 381.111 174.865V222.858C381.111 223.537 380.554 224.086 379.875 224.086Z" fill="#5479F7"/>
<path d="M396.749 224.093C396.069 224.093 395.512 223.536 395.512 222.856V193.514C395.512 192.826 396.069 192.277 396.749 192.277C397.436 192.277 397.985 192.826 397.985 193.514V222.856C397.985 223.536 397.436 224.093 396.749 224.093Z" fill="#5479F7"/>
<path d="M379.875 153.637C379.187 153.637 378.638 153.088 378.638 152.409V138.217C378.638 137.538 379.187 136.98 379.875 136.98C380.554 136.98 381.102 137.538 381.102 138.217V152.409C381.102 153.088 380.554 153.637 379.875 153.637Z" fill="#5479F7"/>
<path d="M348.721 237.533V114.242L213.875 132.501V241.765L348.721 237.533Z" fill="white"/>
<path d="M215.112 133.567V240.489L347.485 236.336V115.648L215.112 133.567ZM213.876 242.997C213.553 242.997 213.249 242.875 213.014 242.648C212.778 242.413 212.639 242.1 212.639 241.76V132.496C212.639 131.878 213.101 131.355 213.71 131.268L348.556 113.01C348.904 112.966 349.261 113.071 349.531 113.306C349.801 113.541 349.957 113.88 349.957 114.237V237.537C349.957 238.199 349.426 238.748 348.765 238.765L213.919 242.997C213.902 242.997 213.893 242.997 213.876 242.997Z" fill="#5479F7"/>
<path d="M334.754 224.096C334.067 224.096 333.518 223.539 333.518 222.86V127.971C333.518 127.292 334.067 126.734 334.754 126.734C335.434 126.734 335.991 127.292 335.991 127.971V222.86C335.991 223.539 335.434 224.096 334.754 224.096Z" fill="#99B9FF"/>
<path d="M319.343 224.091C318.664 224.091 318.107 223.543 318.107 222.864V130.029C318.107 129.35 318.664 128.793 319.343 128.793C320.022 128.793 320.58 129.35 320.58 130.029V222.864C320.58 223.543 320.022 224.091 319.343 224.091Z" fill="#99B9FF"/>
<path d="M303.932 225.268C303.253 225.268 302.695 224.72 302.695 224.032V132.068C302.695 131.389 303.253 130.832 303.932 130.832C304.62 130.832 305.168 131.389 305.168 132.068V224.032C305.168 224.72 304.62 225.268 303.932 225.268Z" fill="#99B9FF"/>
<path d="M288.529 225.269C287.85 225.269 287.293 224.712 287.293 224.033V134.115C287.293 133.436 287.85 132.879 288.529 132.879C289.209 132.879 289.766 133.436 289.766 134.115V224.033C289.766 224.712 289.209 225.269 288.529 225.269Z" fill="#99B9FF"/>
<path d="M273.118 184.602C272.439 184.602 271.882 184.045 271.882 183.366V136.174C271.882 135.486 272.439 134.938 273.118 134.938C273.806 134.938 274.355 135.486 274.355 136.174V183.366C274.355 184.045 273.806 184.602 273.118 184.602Z" fill="#99B9FF"/>
<path d="M273.118 225.269C272.439 225.269 271.882 224.721 271.882 224.033V206.357C271.882 205.678 272.439 205.121 273.118 205.121C273.806 205.121 274.355 205.678 274.355 206.357V224.033C274.355 224.721 273.806 225.269 273.118 225.269Z" fill="#99B9FF"/>
<path d="M257.715 167.829C257.027 167.829 256.47 167.281 256.47 166.593V138.217C256.47 137.538 257.027 136.98 257.715 136.98C258.394 136.98 258.943 137.538 258.943 138.217V166.593C258.943 167.281 258.394 167.829 257.715 167.829Z" fill="#99B9FF"/>
<path d="M242.304 167.521C241.625 167.521 241.068 166.972 241.068 166.284V140.268C241.068 139.588 241.625 139.031 242.304 139.031C242.983 139.031 243.541 139.588 243.541 140.268V166.284C243.541 166.972 242.983 167.521 242.304 167.521Z" fill="#99B9FF"/>
<path d="M242.304 227.613C241.616 227.613 241.068 227.065 241.068 226.386V200.361C241.068 199.681 241.616 199.133 242.304 199.133C242.983 199.133 243.532 199.681 243.532 200.361V226.386C243.532 227.065 242.983 227.613 242.304 227.613Z" fill="#99B9FF"/>
<path d="M226.893 227.604C226.213 227.604 225.656 227.056 225.656 226.377V142.302C225.656 141.623 226.213 141.074 226.893 141.074C227.572 141.074 228.129 141.623 228.129 142.302V226.377C228.129 227.056 227.572 227.604 226.893 227.604Z" fill="#99B9FF"/>
<path d="M348.721 115.473C348.321 115.473 347.938 115.282 347.703 114.933L320.824 75.6908C320.432 75.1248 320.58 74.3586 321.137 73.9668C321.703 73.5837 322.478 73.7317 322.861 74.2977L349.74 113.54C350.123 114.106 349.975 114.872 349.418 115.255C349.2 115.403 348.965 115.473 348.721 115.473Z" fill="#5479F7"/>
<path d="M276.27 118.017C275.974 118.017 275.687 117.922 275.451 117.713C274.938 117.26 274.894 116.476 275.347 115.963L307.032 80.3074C307.485 79.7937 308.268 79.7502 308.773 80.2029C309.278 80.6557 309.33 81.4306 308.878 81.9443L277.193 117.608C276.949 117.878 276.609 118.017 276.27 118.017Z" fill="#5479F7"/>
<path d="M213.875 133.727C213.484 133.727 213.092 133.535 212.848 133.178C212.474 132.612 212.622 131.855 213.188 131.472L314.05 64.1144C314.389 63.8881 314.807 63.8445 315.19 63.9925L444.393 115.268C445.029 115.521 445.334 116.235 445.09 116.87C444.829 117.506 444.115 117.811 443.479 117.558L314.877 66.5263L214.563 133.518C214.354 133.666 214.11 133.727 213.875 133.727Z" fill="#5479F7"/>
<path d="M494.555 383.609H398.813V260.309L494.555 262.72V383.609Z" fill="#99B9FF"/>
<path d="M400.04 382.37H493.318V263.92L400.04 261.569V382.37ZM494.554 384.834H398.812C398.124 384.834 397.567 384.285 397.567 383.606V260.306C397.567 259.975 397.706 259.653 397.95 259.427C398.185 259.192 398.499 259.07 398.838 259.079L494.589 261.482C495.26 261.499 495.791 262.048 495.791 262.718V383.606C495.791 384.285 495.242 384.834 494.554 384.834Z" fill="#5479F7"/>
<path d="M398.812 383.609V260.309L264.498 270.774V376.852L398.812 383.609Z" fill="white"/>
<path d="M265.735 375.672L397.576 382.298V261.636L265.735 271.91V375.672ZM398.813 384.832C398.786 384.832 398.769 384.832 398.752 384.832L264.437 378.075C263.784 378.049 263.271 377.5 263.271 376.847V270.77C263.271 270.125 263.767 269.594 264.402 269.542L398.717 259.076C399.056 259.041 399.396 259.163 399.648 259.398C399.901 259.633 400.049 259.956 400.049 260.304V383.604C400.049 383.935 399.91 384.257 399.657 384.492C399.431 384.71 399.126 384.832 398.813 384.832Z" fill="#5479F7"/>
<path d="M386.004 298.962C385.316 298.962 384.768 298.404 384.768 297.725V273.119C384.768 272.44 385.316 271.883 386.004 271.883C386.683 271.883 387.232 272.44 387.232 273.119V297.725C387.232 298.404 386.683 298.962 386.004 298.962Z" fill="#99B9FF"/>
<path d="M370.315 298.968C369.635 298.968 369.078 298.411 369.078 297.732V275.076C369.078 274.397 369.635 273.84 370.315 273.84C371.002 273.84 371.551 274.397 371.551 275.076V297.732C371.551 298.411 371.002 298.968 370.315 298.968Z" fill="#99B9FF"/>
<path d="M355.277 295.451C354.598 295.451 354.041 294.893 354.041 294.214V275.076C354.041 274.397 354.598 273.84 355.277 273.84C355.957 273.84 356.514 274.397 356.514 275.076V294.214C356.514 294.893 355.957 295.451 355.277 295.451Z" fill="#99B9FF"/>
<path d="M339.588 292.272C338.908 292.272 338.36 291.723 338.36 291.036V275.72C338.36 275.041 338.908 274.492 339.588 274.492C340.267 274.492 340.824 275.041 340.824 275.72V291.036C340.824 291.723 340.267 292.272 339.588 292.272Z" fill="#99B9FF"/>
<path d="M309.835 292.272C309.156 292.272 308.599 291.723 308.599 291.035V277.67C308.599 276.991 309.156 276.434 309.835 276.434C310.514 276.434 311.071 276.991 311.071 277.67V291.035C311.071 291.723 310.514 292.272 309.835 292.272Z" fill="#99B9FF"/>
<path d="M294.207 287.64C293.519 287.64 292.97 287.082 292.97 286.403V277.67C292.97 276.991 293.519 276.434 294.207 276.434C294.886 276.434 295.434 276.991 295.434 277.67V286.403C295.434 287.082 294.886 287.64 294.207 287.64Z" fill="#99B9FF"/>
<path d="M680.179 257.931H570.323V115.676L680.179 118.462V257.931Z" fill="#99B9FF"/>
<path d="M571.56 256.701H678.952V119.661L571.56 116.945V256.701ZM680.18 259.174H570.323C569.644 259.174 569.087 258.608 569.087 257.929V115.673C569.087 115.351 569.226 115.029 569.461 114.794C569.705 114.559 570.019 114.437 570.358 114.446L680.206 117.223C680.885 117.249 681.416 117.789 681.416 118.46V257.929C681.416 258.608 680.859 259.174 680.18 259.174Z" fill="#5479F7"/>
<path d="M570.323 257.93V115.684L414.747 136.746V260.629L570.323 257.93Z" fill="white"/>
<path d="M415.983 137.815V261.481L569.095 249.595V117.083L415.983 137.815ZM414.746 264.049C414.441 264.049 414.137 263.936 413.91 263.718C413.658 263.483 413.51 263.161 413.51 262.813V136.744C413.51 136.126 413.971 135.603 414.581 135.516L570.166 114.454C570.506 114.402 570.872 114.515 571.133 114.75C571.403 114.976 571.559 115.316 571.559 115.673V250.727C571.559 251.372 571.072 251.912 570.428 251.964L414.842 264.04C414.807 264.049 414.781 264.049 414.746 264.049Z" fill="#5479F7"/>
<path d="M587.711 236.897C587.031 236.897 586.474 236.348 586.474 235.669V131.525C586.474 130.845 587.031 130.297 587.711 130.297C588.39 130.297 588.947 130.845 588.947 131.525V235.669C588.947 236.348 588.39 236.897 587.711 236.897Z" fill="#5479F7"/>
<path d="M606.144 236.898C605.464 236.898 604.907 236.349 604.907 235.661V131.525C604.907 130.846 605.464 130.289 606.144 130.289C606.831 130.289 607.38 130.846 607.38 131.525V235.661C607.38 236.349 606.831 236.898 606.144 236.898Z" fill="#5479F7"/>
<path d="M624.577 203.213C623.898 203.213 623.349 202.656 623.349 201.977V132.904C623.349 132.217 623.898 131.668 624.577 131.668C625.265 131.668 625.813 132.217 625.813 132.904V201.977C625.813 202.656 625.265 203.213 624.577 203.213Z" fill="#5479F7"/>
<path d="M643.009 238.268C642.33 238.268 641.772 237.719 641.772 237.04V132.904C641.772 132.217 642.33 131.668 643.009 131.668C643.688 131.668 644.245 132.217 644.245 132.904V237.04C644.245 237.719 643.688 238.268 643.009 238.268Z" fill="#5479F7"/>
<path d="M661.442 238.268C660.754 238.268 660.206 237.719 660.206 237.04V132.904C660.206 132.225 660.754 131.668 661.442 131.668C662.121 131.668 662.679 132.225 662.679 132.904V237.04C662.679 237.719 662.121 238.268 661.442 238.268Z" fill="#5479F7"/>
<path d="M554.207 239.658C553.536 239.658 552.979 239.101 552.979 238.421V131.525C552.979 130.846 553.536 130.289 554.207 130.289C554.895 130.289 555.452 130.846 555.452 131.525V238.421C555.452 239.101 554.895 239.658 554.207 239.658Z" fill="#99B9FF"/>
<path d="M536.436 241.973C535.757 241.973 535.208 241.416 535.208 240.736V133.893C535.208 133.205 535.757 132.656 536.436 132.656C537.115 132.656 537.672 133.205 537.672 133.893V240.736C537.672 241.416 537.115 241.973 536.436 241.973Z" fill="#99B9FF"/>
<path d="M518.655 243.422C517.976 243.422 517.419 242.873 517.419 242.185V136.247C517.419 135.568 517.976 135.02 518.655 135.02C519.343 135.02 519.892 135.568 519.892 136.247V242.185C519.892 242.873 519.343 243.422 518.655 243.422Z" fill="#99B9FF"/>
<path d="M500.877 218.702C500.189 218.702 499.641 218.153 499.641 217.465V138.623C499.641 137.944 500.189 137.387 500.877 137.387C501.556 137.387 502.113 137.944 502.113 138.623V217.465C502.113 218.153 501.556 218.702 500.877 218.702Z" fill="#99B9FF"/>
<path d="M483.096 246.35C482.417 246.35 481.868 245.793 481.868 245.114V140.978C481.868 140.299 482.417 139.75 483.096 139.75C483.784 139.75 484.332 140.299 484.332 140.978V245.114C484.332 245.793 483.784 246.35 483.096 246.35Z" fill="#99B9FF"/>
<path d="M465.317 246.353C464.638 246.353 464.089 245.804 464.089 245.116V217.463C464.089 216.784 464.638 216.227 465.317 216.227C466.005 216.227 466.553 216.784 466.553 217.463V245.116C466.553 245.804 466.005 246.353 465.317 246.353Z" fill="#99B9FF"/>
<path d="M465.316 190.477C464.637 190.477 464.08 189.928 464.08 189.249V143.346C464.08 142.667 464.637 142.109 465.316 142.109C466.004 142.109 466.553 142.667 466.553 143.346V189.249C466.553 189.928 466.004 190.477 465.316 190.477Z" fill="#99B9FF"/>
<path d="M447.536 247.638C446.857 247.638 446.309 247.08 446.309 246.401V229.475C446.309 228.787 446.857 228.238 447.536 228.238C448.224 228.238 448.781 228.787 448.781 229.475V246.401C448.781 247.08 448.224 247.638 447.536 247.638Z" fill="#99B9FF"/>
<path d="M447.536 213.702C446.857 213.702 446.309 213.154 446.309 212.474V145.709C446.309 145.03 446.857 144.473 447.536 144.473C448.224 144.473 448.773 145.03 448.773 145.709V212.474C448.773 213.154 448.224 213.702 447.536 213.702Z" fill="#99B9FF"/>
<path d="M429.766 249.94C429.087 249.94 428.529 249.391 428.529 248.712V148.076C428.529 147.397 429.087 146.84 429.766 146.84C430.445 146.84 431.002 147.397 431.002 148.076V248.712C431.002 249.391 430.445 249.94 429.766 249.94Z" fill="#99B9FF"/>
<path d="M680.179 392.876H569.704V250.621L680.179 253.399V392.876Z" fill="#99B9FF"/>
<path d="M570.941 391.65H678.952V254.619L570.941 251.893V391.65ZM680.18 394.122H569.705C569.026 394.122 568.477 393.565 568.477 392.886V250.631C568.477 250.291 568.608 249.978 568.852 249.743C569.087 249.516 569.409 249.395 569.74 249.395L680.206 252.181C680.885 252.198 681.416 252.747 681.416 253.408V392.886C681.416 393.565 680.859 394.122 680.18 394.122Z" fill="#5479F7"/>
<path d="M587.711 327.892C587.031 327.892 586.474 327.334 586.474 326.655V268.815C586.474 268.135 587.031 267.578 587.711 267.578C588.39 267.578 588.947 268.135 588.947 268.815V326.655C588.947 327.334 588.39 327.892 587.711 327.892Z" fill="#5479F7"/>
<path d="M606.144 330.321C605.464 330.321 604.907 329.772 604.907 329.093V268.806C604.907 268.127 605.464 267.578 606.144 267.578C606.831 267.578 607.38 268.127 607.38 268.806V329.093C607.38 329.772 606.831 330.321 606.144 330.321Z" fill="#5479F7"/>
<path d="M624.577 374.185C623.898 374.185 623.349 373.637 623.349 372.949V270.197C623.349 269.518 623.898 268.961 624.577 268.961C625.265 268.961 625.813 269.518 625.813 270.197V372.949C625.813 373.637 625.265 374.185 624.577 374.185Z" fill="#5479F7"/>
<path d="M643.009 375.57C642.33 375.57 641.772 375.012 641.772 374.333V270.197C641.772 269.518 642.33 268.961 643.009 268.961C643.688 268.961 644.245 269.518 644.245 270.197V374.333C644.245 375.012 643.688 375.57 643.009 375.57Z" fill="#5479F7"/>
<path d="M661.442 375.567C660.754 375.567 660.206 375.01 660.206 374.33V301.514C660.206 300.826 660.754 300.277 661.442 300.277C662.121 300.277 662.679 300.826 662.679 301.514V374.33C662.679 375.01 662.121 375.567 661.442 375.567Z" fill="#5479F7"/>
<path d="M569.714 392.876V250.621L414.747 262.698V385.083L569.714 392.876Z" fill="white"/>
<path d="M554.207 326.679C553.536 326.679 552.979 326.131 552.979 325.451V262.97C552.979 262.291 553.536 261.742 554.207 261.742C554.895 261.742 555.452 262.291 555.452 262.97V325.451C555.452 326.131 554.895 326.679 554.207 326.679Z" fill="#99B9FF"/>
<path d="M536.435 295.446C535.747 295.446 535.199 294.897 535.199 294.21V265.337C535.199 264.658 535.747 264.109 536.435 264.109C537.114 264.109 537.663 264.658 537.663 265.337V294.21C537.663 294.897 537.114 295.446 536.435 295.446Z" fill="#99B9FF"/>
<path d="M518.655 321.91C517.967 321.91 517.419 321.353 517.419 320.674V267.709C517.419 267.021 517.967 266.473 518.655 266.473C519.334 266.473 519.883 267.021 519.883 267.709V320.674C519.883 321.353 519.334 321.91 518.655 321.91Z" fill="#99B9FF"/>
<path d="M500.877 320.005C500.198 320.005 499.641 319.448 499.641 318.769V269.243C499.641 268.564 500.198 268.016 500.877 268.016C501.556 268.016 502.113 268.564 502.113 269.243V318.769C502.113 319.448 501.556 320.005 500.877 320.005Z" fill="#99B9FF"/>
<path d="M483.105 317.656C482.417 317.656 481.868 317.108 481.868 316.42V270.795C481.868 270.116 482.417 269.559 483.105 269.559C483.784 269.559 484.332 270.116 484.332 270.795V316.42C484.332 317.108 483.784 317.656 483.105 317.656Z" fill="#99B9FF"/>
<path d="M465.317 313.209C464.638 313.209 464.089 312.652 464.089 311.973V291.032C464.089 290.353 464.638 289.805 465.317 289.805C466.005 289.805 466.553 290.353 466.553 291.032V311.973C466.553 312.652 466.005 313.209 465.317 313.209Z" fill="#99B9FF"/>
<path d="M447.536 311.085C446.857 311.085 446.309 310.528 446.309 309.849V273.044C446.309 272.365 446.857 271.816 447.536 271.816C448.224 271.816 448.781 272.365 448.781 273.044V309.849C448.781 310.528 448.224 311.085 447.536 311.085Z" fill="#99B9FF"/>
<path d="M429.766 307.894C429.087 307.894 428.529 307.346 428.529 306.658V273.772C428.529 273.092 429.087 272.535 429.766 272.535C430.445 272.535 431.002 273.092 431.002 273.772V306.658C431.002 307.346 430.445 307.894 429.766 307.894Z" fill="#99B9FF"/>
<path d="M415.983 383.915L568.477 391.586V251.96L415.983 263.845V383.915ZM569.714 394.12C569.687 394.12 569.67 394.12 569.644 394.111L414.685 386.318C414.032 386.292 413.51 385.743 413.51 385.09V262.705C413.51 262.06 414.015 261.529 414.65 261.477L569.618 249.4C569.957 249.366 570.297 249.487 570.549 249.723C570.802 249.958 570.941 250.28 570.941 250.628V392.883C570.941 393.214 570.811 393.545 570.558 393.78C570.332 393.989 570.027 394.12 569.714 394.12Z" fill="#5479F7"/>
<path d="M48.9039 613.368H69.3044V259.219L7.53688 275.37C0.484205 320.333 -4.47008 383.929 6.09152 458.696C15.1294 522.641 32.7176 575.031 48.9039 613.368Z" fill="white"/>
<path d="M69.3044 614.598H48.9039C48.216 614.598 47.6675 614.05 47.6675 613.371C47.6675 612.683 48.216 612.134 48.9039 612.134H68.068V260.824L7.85031 276.566C7.19729 276.74 6.51814 276.34 6.344 275.687C6.16986 275.025 6.57038 274.355 7.22341 274.18L68.9909 258.038C69.3653 257.933 69.7572 258.011 70.0619 258.247C70.3666 258.482 70.5408 258.847 70.5408 259.222V613.371C70.5408 614.05 69.9922 614.598 69.3044 614.598Z" fill="#252525"/>
<path d="M598.943 613.368H69.3037V259.219L598.943 341.282V613.368Z" fill="#99B9FF"/>
<path d="M97.8281 339.781V613.364H247.467V359.328L97.8281 339.781Z" fill="#5479F7"/>
<path d="M247.467 338.501V310.804L97.8281 286.703V316.742L247.467 338.501Z" fill="#5479F7"/>
<path d="M455.992 386.562V613.363H570.236V401.486L455.992 386.562Z" fill="#5479F7"/>
<path d="M570.236 385.423V363.02L455.992 344.535V368.81L570.236 385.423Z" fill="#5479F7"/>
<path d="M286.17 364.383V613.368H419.64V381.823L286.17 364.383Z" fill="#5479F7"/>
<path d="M419.64 363.527V338.66L286.17 317.066V344.128L419.64 363.527Z" fill="#5479F7"/>
<path d="M126.692 614.596H69.3043C68.6251 614.596 68.0679 614.048 68.0679 613.368V259.228C68.0679 258.871 68.2333 258.523 68.5032 258.288C68.7818 258.053 69.1388 257.948 69.4958 258.009L599.135 340.055C599.735 340.151 600.179 340.674 600.179 341.283V414.466C600.179 415.153 599.631 415.702 598.943 415.702C598.264 415.702 597.715 415.153 597.715 414.466V342.337L70.5407 260.665V612.132H126.692C127.38 612.132 127.929 612.681 127.929 613.368C127.929 614.048 127.38 614.596 126.692 614.596Z" fill="#252525"/>
<path d="M465.098 579.297H465.09H455.059H455.051C450.941 579.297 447.615 589.075 447.615 601.099C447.615 613.115 450.941 622.902 455.051 622.902H455.059H465.09H465.098C469.208 622.902 472.534 613.124 472.534 601.099C472.534 589.075 469.208 579.297 465.098 579.297Z" fill="#5479F7"/>
<path d="M543.2 611.782V465.652L342.034 491.512V602.857L543.2 611.782Z" fill="#5479F7"/>
<path d="M517.253 574.191L523.531 580.06L521.816 619.651C521.72 621.923 523.531 623.821 525.795 623.821H561.259V574.313L517.253 574.191Z" fill="#5479F7"/>
<path d="M627.502 575.494H510.201V424.453H627.502V575.494Z" fill="#99B9FF"/>
<path d="M627.502 576.724H608.747C608.068 576.724 607.511 576.176 607.511 575.488C607.511 574.809 608.068 574.251 608.747 574.251H626.266V425.675H511.438V575.488C511.438 576.176 510.881 576.724 510.201 576.724C509.522 576.724 508.965 576.176 508.965 575.488V424.447C508.965 423.768 509.522 423.211 510.201 423.211H627.502C628.181 423.211 628.739 423.768 628.739 424.447V575.488C628.739 576.176 628.181 576.724 627.502 576.724Z" fill="#5479F7"/>
<path d="M553.353 588.5H553.344H541.755H541.747C537.001 588.5 533.153 599.793 533.153 613.681C533.153 627.568 537.001 638.861 541.747 638.861H541.755H553.344H553.353C558.098 638.861 561.947 627.568 561.947 613.681C561.947 599.793 558.098 588.5 553.353 588.5Z" fill="#5479F7"/>
<path d="M550.34 613.838C550.34 627.717 546.492 638.975 541.746 638.975C537.01 638.975 533.161 627.717 533.161 613.838C533.161 599.942 537.01 588.684 541.746 588.684C546.492 588.684 550.34 599.942 550.34 613.838Z" fill="#99B9FF"/>
<path d="M648.059 587.277H648.042H636.462C636.462 587.277 636.462 587.277 636.453 587.277C631.708 587.277 627.859 598.57 627.859 612.449C627.859 626.346 631.708 637.639 636.453 637.639H648.042H648.059C652.805 637.639 656.653 626.346 656.653 612.458C656.653 598.57 652.805 587.277 648.059 587.277Z" fill="#5479F7"/>
<path d="M644.82 612.497C644.82 626.385 640.972 637.643 636.235 637.643C631.49 637.643 627.641 626.385 627.641 612.497C627.641 598.61 631.49 587.352 636.235 587.352C640.972 587.352 644.82 598.61 644.82 612.497Z" fill="#99B9FF"/>
<path d="M517.001 469.84L516.653 574.785L520.615 578.12C522.069 579.348 522.87 581.176 522.791 583.075L521.154 620.88C521.093 622.491 522.365 623.841 523.967 623.841C525.177 623.841 526.309 623.832 526.309 623.797C526.309 600.184 530.749 580.828 536.496 580.828C542.243 580.828 546.901 599.966 546.901 623.58C546.901 623.658 560.649 623.823 560.649 623.823V470.275L517.001 469.84Z" fill="white"/>
<path d="M658.412 469.996H561.407V623.823H666.631C669.774 623.823 672.308 621.272 672.308 618.111V568.786C672.308 555.081 671.106 541.411 668.712 527.924L658.412 469.996Z" fill="#99B9FF"/>
<path d="M562.643 622.597H666.631C669.087 622.597 671.081 620.586 671.081 618.113V568.788C671.081 555.196 669.879 541.526 667.493 528.144L657.384 471.226H562.643V622.597ZM666.631 625.061H561.407C560.728 625.061 560.171 624.504 560.171 623.825V469.989C560.171 469.31 560.728 468.762 561.407 468.762H658.412C659.013 468.762 659.518 469.188 659.631 469.78L669.931 527.708C672.334 541.239 673.553 555.057 673.553 568.788V618.113C673.553 621.944 670.445 625.061 666.631 625.061Z" fill="#5479F7"/>
<path d="M545.116 538.995L550.227 539.874C551.908 540.161 553.449 538.855 553.449 537.14V505.272C553.449 503.096 551.699 501.328 549.54 501.328H542.443C540.632 501.328 539.178 502.808 539.178 504.619V531.907C539.178 535.407 541.686 538.403 545.116 538.995Z" fill="#CADDFF"/>
<path d="M542.443 502.562C541.32 502.562 540.414 503.485 540.414 504.617V531.904C540.414 534.813 542.478 537.285 545.334 537.782L550.436 538.652C550.88 538.731 551.324 538.609 551.664 538.321C552.012 538.025 552.221 537.599 552.221 537.137V505.27C552.221 503.772 551.02 502.562 549.531 502.562H542.443ZM550.697 541.143C550.471 541.143 550.236 541.125 550.018 541.082L544.916 540.211C540.876 539.514 537.942 536.023 537.942 531.904V504.617C537.942 502.126 539.962 500.098 542.443 500.098H549.531C552.378 500.098 554.685 502.414 554.685 505.27V537.137C554.685 538.321 554.172 539.445 553.257 540.202C552.535 540.82 551.629 541.143 550.697 541.143Z" fill="#5479F7"/>
<path d="M510.21 575.494V424.453L332.299 445.89V575.659L510.21 575.494Z" fill="white"/>
<path d="M645.247 469.696H517.341L523.087 442.791C524.167 437.671 528.964 433.988 534.537 433.988H630.932C635.286 433.988 639.012 436.914 639.779 440.928L645.247 469.696Z" fill="white"/>
<path d="M518.873 468.469H643.758L638.56 441.164C637.907 437.725 634.703 435.226 630.933 435.226H534.537C529.566 435.226 525.256 438.517 524.289 443.045L518.873 468.469ZM645.247 470.933H517.341C516.967 470.933 516.618 470.768 516.383 470.48C516.148 470.184 516.061 469.81 516.131 469.444L521.877 442.531C523.088 436.871 528.408 432.762 534.537 432.762H630.933C635.887 432.762 640.119 436.097 640.989 440.703L646.457 469.47C646.527 469.827 646.431 470.202 646.196 470.489C645.961 470.768 645.613 470.933 645.247 470.933Z" fill="#5479F7"/>
<path d="M639.779 440.928C639.013 436.914 635.286 433.988 630.933 433.988H534.537C531.916 433.988 529.47 434.815 527.502 436.217L569.304 469.696H645.247L639.779 440.928Z" fill="#99B9FF"/>
<path d="M569.739 468.469H643.758L638.559 441.164C637.906 437.725 634.702 435.226 630.932 435.226H534.537C532.813 435.226 531.15 435.618 529.652 436.358L569.739 468.469ZM645.246 470.933H569.313C569.025 470.933 568.755 470.837 568.538 470.663L526.718 437.176C526.422 436.941 526.248 436.567 526.256 436.184C526.274 435.792 526.465 435.435 526.779 435.208C529.043 433.606 531.724 432.762 534.537 432.762H630.932C635.886 432.762 640.118 436.097 640.989 440.703L646.457 469.47C646.526 469.827 646.431 470.202 646.195 470.489C645.96 470.768 645.612 470.933 645.246 470.933Z" fill="#5479F7"/>
<path d="M575.103 498.363H650.654C654.232 498.363 657.271 500.941 657.898 504.476L664.315 541.263C664.942 544.815 662.225 548.072 658.638 548.072H573.527C570.34 548.072 567.754 545.468 567.754 542.273V505.756C567.754 501.672 571.046 498.363 575.103 498.363Z" fill="#99B9FF"/>
<path d="M624.942 533.539C620.519 529.037 614.494 526.469 608.207 526.469H567.676V542.272C567.676 545.467 570.34 547.966 573.527 547.966H658.638C662.225 547.966 664.942 544.771 664.315 541.218L664.202 540.6H641.668C635.382 540.6 629.356 538.04 624.942 533.539Z" fill="#CADDFF"/>
<path d="M575.103 499.597C571.734 499.597 568.991 502.357 568.991 505.753V542.27C568.991 544.786 571.028 546.832 573.527 546.832H658.638C659.97 546.832 661.233 546.249 662.095 545.222C662.966 544.177 663.34 542.819 663.105 541.478L656.679 504.682C656.165 501.739 653.632 499.597 650.654 499.597H575.103ZM658.638 549.297H573.527C569.661 549.297 566.518 546.145 566.518 542.27V505.753C566.518 500.999 570.367 497.133 575.103 497.133H650.654C654.833 497.133 658.386 500.128 659.108 504.264L665.534 541.051C665.9 543.115 665.334 545.213 663.984 546.806C662.652 548.391 660.702 549.297 658.638 549.297Z" fill="#5479F7"/>
<path d="M490.479 582.984C490.471 582.984 490.462 582.984 490.462 582.984H479.186C474.58 582.984 470.836 594.042 470.836 607.547C470.836 621.051 474.58 632.118 479.186 632.118H490.462C490.462 632.118 490.471 632.118 490.479 632.118C495.094 632.118 498.829 621.06 498.829 607.547C498.829 594.051 495.094 582.984 490.479 582.984Z" fill="#5479F7"/>
<path d="M487.536 607.27C487.536 620.775 483.801 631.72 479.186 631.72C474.572 631.72 470.836 620.775 470.836 607.27C470.836 593.766 474.572 582.812 479.186 582.812C483.801 582.812 487.536 593.766 487.536 607.27Z" fill="#99B9FF"/>
<path d="M367.153 579.906C367.145 579.906 367.136 579.906 367.136 579.906H357.48C357.48 579.906 357.48 579.906 357.471 579.906C353.518 579.906 350.314 589.057 350.314 600.481C350.314 611.913 353.518 621.064 357.471 621.064C357.48 621.064 357.48 621.064 357.48 621.064H367.136C367.136 621.064 367.145 621.064 367.153 621.064C371.106 621.064 374.31 611.913 374.31 600.481C374.31 589.057 371.106 579.906 367.153 579.906Z" fill="#5479F7"/>
<path d="M364.637 600.129C364.637 611.553 361.424 620.817 357.471 620.817C353.518 620.817 350.314 611.553 350.314 600.129C350.314 588.706 353.518 579.441 357.471 579.441C361.424 579.441 364.637 588.706 364.637 600.129Z" fill="#99B9FF"/>
<path d="M385.482 581.137H385.474H375.809C371.856 581.137 368.643 590.279 368.643 601.703C368.643 613.126 371.856 622.286 375.809 622.286H385.474H385.482C389.435 622.286 392.64 613.135 392.64 601.703C392.64 590.279 389.435 581.137 385.482 581.137Z" fill="#5479F7"/>
<path d="M382.966 601.36C382.966 612.792 379.762 622.048 375.809 622.048C371.856 622.048 368.643 612.792 368.643 601.36C368.643 589.936 371.856 580.672 375.809 580.672C379.762 580.672 382.966 589.936 382.966 601.36Z" fill="#99B9FF"/>
<path d="M404.611 581.137C404.602 581.137 404.594 581.137 404.594 581.137H394.572H394.563C390.454 581.137 387.127 590.915 387.127 602.93C387.127 614.955 390.454 624.741 394.563 624.741H404.594C404.594 624.741 404.602 624.741 404.611 624.741C408.712 624.741 412.047 614.955 412.047 602.93C412.047 590.915 408.712 581.137 404.611 581.137Z" fill="#5479F7"/>
<path d="M401.99 602.588C401.99 614.612 398.664 624.355 394.563 624.355C390.454 624.355 387.127 614.612 387.127 602.588C387.127 590.572 390.454 580.82 394.563 580.82C398.664 580.82 401.99 590.572 401.99 602.588Z" fill="#99B9FF"/>
<path d="M589.426 607.009H575.782C573.431 607.009 571.533 605.093 571.533 602.733V595.062H582.321C585.978 595.062 589.243 597.387 590.462 600.853L591.55 603.987C592.064 605.459 590.984 607.009 589.426 607.009Z" fill="#CADDFF"/>
<path d="M572.761 596.297V602.731C572.761 604.403 574.111 605.77 575.774 605.77H589.418C589.757 605.77 590.053 605.614 590.254 605.344C590.445 605.065 590.498 604.717 590.384 604.395L589.287 601.26C588.242 598.291 585.447 596.297 582.313 596.297H572.761ZM589.418 608.234H575.774C572.753 608.234 570.289 605.77 570.289 602.731V595.061C570.289 594.381 570.846 593.824 571.525 593.824H582.313C586.492 593.824 590.236 596.489 591.612 600.442L592.718 603.585C593.092 604.656 592.918 605.84 592.265 606.772C591.612 607.686 590.55 608.234 589.418 608.234Z" fill="#5479F7"/>
<path d="M646.231 606.188H659.875C662.226 606.188 664.124 604.273 664.124 601.913V594.242H653.336C649.679 594.242 646.414 596.567 645.203 600.041L644.106 603.176C643.593 604.647 644.672 606.188 646.231 606.188Z" fill="#CADDFF"/>
<path d="M653.337 595.473C650.202 595.473 647.407 597.467 646.371 600.436L645.274 603.57C645.152 603.901 645.204 604.241 645.404 604.519C645.596 604.789 645.901 604.946 646.223 604.946H659.875C661.539 604.946 662.897 603.588 662.897 601.907V595.473H653.337ZM659.875 607.419H646.223C645.1 607.419 644.046 606.87 643.384 605.947C642.731 605.024 642.557 603.832 642.94 602.761L644.029 599.626C645.422 595.664 649.157 593 653.337 593H664.125C664.812 593 665.361 593.557 665.361 594.236V601.907C665.361 604.946 662.897 607.419 659.875 607.419Z" fill="#5479F7"/>
<path d="M636.488 615.088H600.58C598.734 615.088 597.028 614.096 596.113 612.485L594.529 609.699C593.989 608.75 594.668 607.574 595.748 607.574H641.32C642.409 607.574 643.079 608.75 642.539 609.699L640.963 612.485C640.04 614.096 638.334 615.088 636.488 615.088Z" fill="#5479F7"/>
<path d="M543.097 535.371H534.929C533.414 535.371 532.178 534.143 532.178 532.628V508.876C532.178 507.718 533.127 506.777 534.294 506.777H543.088C543.619 506.777 544.046 507.204 544.046 507.744V534.422C544.046 534.945 543.619 535.371 543.097 535.371Z" fill="#5479F7"/>
<path d="M680.406 536.577H673.989C673.658 536.577 673.388 536.307 673.388 535.967V506.215C673.388 505.963 673.589 505.754 673.85 505.754H681.19C682.026 505.754 682.696 506.424 682.696 507.26V534.287C682.696 535.549 681.669 536.577 680.406 536.577Z" fill="#5479F7"/>
<path d="M664.751 564.863H569.592C569.043 564.863 568.59 565.316 568.59 565.865V572.099C568.59 574.215 570.297 575.921 572.395 575.921H575.269C576.74 575.921 578.09 576.783 578.717 578.133L581.686 584.55C584.28 590.148 589.87 593.736 596.017 593.736H641.198C647.337 593.736 652.926 590.148 655.512 584.55L658.49 578.133C659.117 576.783 660.458 575.921 661.947 575.921C664.045 575.921 665.743 574.215 665.743 572.099V565.865C665.743 565.316 665.299 564.863 664.751 564.863Z" fill="#5479F7"/>
<path d="M333.527 446.973V574.417L508.965 573.947V425.841L333.527 446.973ZM332.291 576.881C331.969 576.881 331.655 576.751 331.42 576.524C331.185 576.289 331.055 575.976 331.055 575.654V445.884C331.055 445.258 331.525 444.735 332.143 444.665L510.053 423.22C510.41 423.177 510.759 423.29 511.02 423.525C511.29 423.76 511.438 424.091 511.438 424.448V575.184C511.438 575.854 510.889 576.411 510.21 576.411L332.3 576.881C332.291 576.881 332.291 576.881 332.291 576.881Z" fill="#5479F7"/>
<path d="M274.233 584.117C274.224 584.117 274.215 584.117 274.215 584.117H262.513C262.513 584.117 262.505 584.117 262.496 584.117C257.707 584.117 253.815 595.532 253.815 609.568C253.815 623.603 257.707 635.027 262.496 635.027H274.215C274.215 635.027 274.224 635.027 274.233 635.027C279.022 635.027 282.914 623.603 282.914 609.568C282.914 595.532 279.022 584.117 274.233 584.117Z" fill="#5479F7"/>
<path d="M365.421 622.036V451.422L130.532 481.618V611.613L365.421 622.036Z" fill="#5479F7"/>
<path d="M335.121 578.164L342.452 585.008L340.458 631.233C340.345 633.889 342.461 636.109 345.099 636.109H386.501V578.303L335.121 578.164Z" fill="#5479F7"/>
<path d="M463.845 579.68H326.884V403.328H463.845V579.68Z" fill="#99B9FF"/>
<path d="M463.845 580.918H441.947C441.267 580.918 440.71 580.361 440.71 579.682C440.71 579.003 441.267 578.446 441.947 578.446H462.608V404.567H328.129V579.682C328.129 580.361 327.571 580.918 326.883 580.918C326.204 580.918 325.656 580.361 325.656 579.682V403.33C325.656 402.651 326.204 402.094 326.883 402.094H463.845C464.524 402.094 465.072 402.651 465.072 403.33V579.682C465.072 580.361 464.524 580.918 463.845 580.918Z" fill="#252525"/>
<path d="M377.271 594.875H377.254H363.732C363.732 594.875 363.723 594.875 363.715 594.875C358.186 594.875 353.693 608.057 353.693 624.27C353.693 640.491 358.186 653.673 363.715 653.673C363.723 653.673 363.732 653.673 363.732 653.673H377.254H377.271C382.818 653.673 387.302 640.491 387.302 624.27C387.302 608.057 382.818 594.875 377.271 594.875Z" fill="#5479F7"/>
<path d="M373.745 623.836C373.745 640.057 369.261 653.196 363.715 653.196C358.186 653.196 353.693 640.057 353.693 623.836C353.693 607.623 358.186 594.484 363.715 594.484C369.261 594.484 373.745 607.623 373.745 623.836Z" fill="#99B9FF"/>
<path d="M363.714 595.727C359.561 595.727 354.929 607.272 354.929 623.842C354.929 640.42 359.561 651.974 363.714 651.974C367.876 651.974 372.508 640.42 372.508 623.842C372.508 607.272 367.876 595.727 363.714 595.727ZM363.714 654.438C356.4 654.438 352.456 638.678 352.456 623.842C352.456 609.014 356.4 593.254 363.714 593.254C371.037 593.254 374.981 609.014 374.981 623.842C374.981 638.678 371.037 654.438 363.714 654.438Z" fill="#252525"/>
<path d="M487.85 593.438C487.841 593.438 487.824 593.438 487.824 593.438H474.311H474.293C468.756 593.438 464.263 606.629 464.263 622.841C464.263 639.054 468.756 652.236 474.293 652.236H487.824C487.824 652.236 487.841 652.236 487.85 652.236C493.379 652.236 497.872 639.054 497.872 622.841C497.872 606.629 493.379 593.438 487.85 593.438Z" fill="#5479F7"/>
<path d="M484.324 622.646C484.324 638.989 479.796 652.232 474.215 652.232C468.634 652.232 464.106 638.989 464.106 622.646C464.106 606.303 468.634 593.051 474.215 593.051C479.796 593.051 484.324 606.303 484.324 622.646Z" fill="#99B9FF"/>
<path d="M334.825 456.32L334.424 578.863L339.048 582.746C340.746 584.174 341.686 586.316 341.59 588.536L339.683 632.681C339.605 634.553 341.094 636.129 342.966 636.129C344.376 636.129 345.7 636.12 345.7 636.077C345.7 608.51 350.881 585.907 357.594 585.907C364.298 585.907 369.731 608.258 369.731 635.824C369.731 635.92 385.796 636.111 385.796 636.111V456.834L334.825 456.32Z" fill="white"/>
<path d="M499.936 456.504H386.675V636.112H509.531C513.196 636.112 516.165 633.126 516.165 629.443V571.854C516.165 555.851 514.764 539.891 511.96 524.149L499.936 456.504Z" fill="#99B9FF"/>
<path d="M387.911 634.87H509.522C512.509 634.87 514.929 632.432 514.929 629.437V571.849C514.929 555.967 513.519 539.99 510.741 524.361L498.891 457.735H387.911V634.87ZM509.522 637.343H386.675C385.996 637.343 385.438 636.794 385.438 636.106V456.498C385.438 455.819 385.996 455.262 386.675 455.262H499.927C500.536 455.262 501.041 455.697 501.146 456.28L513.17 523.925C515.974 539.702 517.402 555.828 517.402 571.849V629.437C517.402 633.79 513.867 637.343 509.522 637.343Z" fill="#252525"/>
<path d="M367.659 537.065L373.623 538.084C375.591 538.423 377.384 536.9 377.384 534.888V497.683C377.384 495.149 375.338 493.086 372.813 493.086H364.533C362.426 493.086 360.719 494.801 360.719 496.917V528.785C360.719 532.877 363.645 536.368 367.659 537.065Z" fill="#99B9FF"/>
<path d="M326.883 579.68V403.328L119.169 428.361V579.863L326.883 579.68Z" fill="white"/>
<path d="M484.559 456.15H335.225L341.929 424.735C343.201 418.762 348.799 414.461 355.303 414.461H467.85C472.935 414.461 477.28 417.874 478.177 422.567L484.559 456.15Z" fill="white"/>
<path d="M336.757 454.92H483.07L476.966 422.791C476.183 418.681 472.343 415.695 467.841 415.695H355.303C349.4 415.695 344.28 419.604 343.14 424.985L336.757 454.92ZM484.559 457.384H335.225C334.851 457.384 334.502 457.21 334.267 456.922C334.032 456.635 333.936 456.261 334.015 455.895L340.719 424.471C342.112 417.95 348.242 413.23 355.303 413.23H467.841C473.536 413.23 478.386 417.053 479.387 422.329L485.769 455.921C485.848 456.278 485.743 456.652 485.508 456.931C485.282 457.218 484.933 457.384 484.559 457.384Z" fill="#252525"/>
<path d="M478.177 422.567C477.28 417.874 472.935 414.461 467.85 414.461H355.303C352.239 414.461 349.383 415.427 347.084 417.056L395.904 456.15H484.559L478.177 422.567Z" fill="#99B9FF"/>
<path d="M396.331 454.92H483.07L476.958 422.791C476.183 418.681 472.343 415.695 467.841 415.695H355.303C353.144 415.695 351.072 416.208 349.217 417.192L396.331 454.92ZM484.559 457.384H395.895C395.617 457.384 395.347 457.288 395.12 457.114L346.309 418.019C346.004 417.776 345.83 417.401 345.847 417.018C345.856 416.635 346.048 416.278 346.361 416.052C348.973 414.206 352.064 413.23 355.303 413.23H467.841C473.527 413.23 478.386 417.053 479.387 422.329L485.769 455.921C485.839 456.278 485.743 456.652 485.508 456.94C485.273 457.218 484.924 457.384 484.559 457.384Z" fill="#252525"/>
<path d="M402.661 489.633H490.872C495.043 489.633 498.604 492.645 499.327 496.764L506.823 539.724C507.555 543.869 504.377 547.665 500.189 547.665H400.815C397.098 547.665 394.076 544.635 394.076 540.891V498.261C394.076 493.49 397.925 489.633 402.661 489.633Z" fill="#5479F7"/>
<path d="M460.849 530.691C455.695 525.432 448.66 522.445 441.311 522.445H393.988V540.887C393.988 544.631 397.097 547.548 400.815 547.548H500.188C504.376 547.548 507.554 543.804 506.822 539.659L506.692 538.936H480.379C473.039 538.936 466.004 535.95 460.849 530.691Z" fill="#CADDFF"/>
<path d="M402.66 490.871C398.612 490.871 395.32 494.18 395.32 498.263V540.893C395.32 543.949 397.785 546.431 400.823 546.431H500.188C501.816 546.431 503.348 545.717 504.393 544.472C505.447 543.218 505.891 541.563 505.612 539.935L498.115 496.975C497.489 493.44 494.45 490.871 490.88 490.871H402.66ZM500.188 548.903H400.823C396.426 548.903 392.848 545.307 392.848 540.893V498.263C392.848 492.822 397.253 488.398 402.66 488.398H490.88C495.651 488.398 499.718 491.829 500.545 496.557L508.041 539.509C508.459 541.851 507.815 544.245 506.283 546.065C504.759 547.867 502.539 548.903 500.188 548.903Z" fill="#252525"/>
<path d="M303.862 588.418C303.854 588.418 303.836 588.418 303.836 588.418H290.68C285.29 588.418 280.928 601.33 280.928 617.099C280.928 632.867 285.29 645.788 290.68 645.788H303.836C303.836 645.788 303.854 645.788 303.862 645.788C309.243 645.788 313.614 632.867 313.614 617.099C313.614 601.33 309.243 588.418 303.862 588.418Z" fill="#5479F7"/>
<path d="M300.432 616.773C300.432 632.541 296.061 645.323 290.68 645.323C285.29 645.323 280.928 632.541 280.928 616.773C280.928 601.005 285.29 588.223 290.68 588.223C296.061 588.223 300.432 601.005 300.432 616.773Z" fill="#99B9FF"/>
<path d="M159.875 584.836C159.866 584.836 159.857 584.836 159.857 584.836H148.582H148.573C143.958 584.836 140.214 595.511 140.214 608.859C140.214 622.198 143.958 632.881 148.573 632.881H148.582H159.857C159.857 632.881 159.866 632.881 159.875 632.881C164.49 632.881 168.234 622.198 168.234 608.859C168.234 595.519 164.49 584.836 159.875 584.836Z" fill="#5479F7"/>
<path d="M156.932 608.454C156.932 621.793 153.188 632.607 148.573 632.607C143.958 632.607 140.214 621.793 140.214 608.454C140.214 595.115 143.958 584.301 148.573 584.301C153.188 584.301 156.932 595.115 156.932 608.454Z" fill="#99B9FF"/>
<path d="M181.276 586.273C181.267 586.273 181.258 586.273 181.258 586.273H169.974C165.359 586.273 161.615 596.948 161.615 610.296C161.615 623.627 165.359 634.319 169.974 634.319H181.258C181.258 634.319 181.267 634.319 181.276 634.319C185.89 634.319 189.634 623.635 189.634 610.296C189.634 596.948 185.89 586.273 181.276 586.273Z" fill="#5479F7"/>
<path d="M178.333 609.884C178.333 623.223 174.589 634.037 169.974 634.037C165.359 634.037 161.615 623.223 161.615 609.884C161.615 596.545 165.359 585.73 169.974 585.73C174.589 585.73 178.333 596.545 178.333 609.884Z" fill="#99B9FF"/>
<path d="M203.601 586.273H203.592H191.881H191.873C187.075 586.273 183.192 597.688 183.192 611.724C183.192 625.76 187.075 637.183 191.873 637.183H191.881H203.592H203.601C208.399 637.183 212.282 625.76 212.282 611.733C212.282 597.697 208.399 586.273 203.601 586.273Z" fill="#5479F7"/>
<path d="M200.554 611.31C200.554 625.346 196.67 636.726 191.873 636.726C187.075 636.726 183.192 625.346 183.192 611.31C183.192 597.275 187.075 585.895 191.873 585.895C196.67 585.895 200.554 597.275 200.554 611.31Z" fill="#99B9FF"/>
<path d="M419.387 616.471H403.453C400.711 616.471 398.49 614.233 398.49 611.482V602.531H411.089C415.364 602.531 419.169 605.239 420.589 609.288L421.869 612.954C422.469 614.669 421.198 616.471 419.387 616.471Z" fill="#CADDFF"/>
<path d="M399.726 603.765V611.488C399.726 613.56 401.398 615.241 403.453 615.241H419.387C419.848 615.241 420.257 615.023 420.519 614.657C420.788 614.274 420.858 613.804 420.701 613.36L419.421 609.703C418.176 606.151 414.833 603.765 411.089 603.765H399.726ZM419.387 617.705H403.453C400.031 617.705 397.253 614.919 397.253 611.488V602.537C397.253 601.849 397.811 601.301 398.49 601.301H411.089C415.878 601.301 420.162 604.348 421.755 608.885L423.035 612.55C423.453 613.734 423.261 615.058 422.539 616.085C421.816 617.104 420.632 617.705 419.387 617.705Z" fill="#252525"/>
<path d="M485.708 615.51H501.642C504.384 615.51 506.605 613.273 506.605 610.521V601.57H494.006C489.739 601.57 485.926 604.278 484.506 608.327L483.226 611.993C482.626 613.708 483.897 615.51 485.708 615.51Z" fill="#CADDFF"/>
<path d="M494.006 602.796C490.27 602.796 486.918 605.182 485.673 608.734L484.393 612.391C484.236 612.835 484.306 613.305 484.576 613.689C484.837 614.063 485.255 614.272 485.708 614.272H501.642C503.696 614.272 505.368 612.592 505.368 610.519V602.796H494.006ZM501.642 616.736H485.708C484.463 616.736 483.287 616.135 482.565 615.117C481.824 614.089 481.642 612.774 482.06 611.581L483.339 607.916C484.924 603.379 489.217 600.332 494.006 600.332H506.605C507.292 600.332 507.841 600.881 507.841 601.568V610.519C507.841 613.95 505.063 616.736 501.642 616.736Z" fill="#252525"/>
<path d="M474.346 625.893H432.413C430.254 625.893 428.269 624.735 427.198 622.854L425.343 619.606C424.716 618.501 425.509 617.125 426.78 617.125H479.98C481.242 617.125 482.034 618.501 481.408 619.606L479.553 622.854C478.482 624.735 476.497 625.893 474.346 625.893Z" fill="#5479F7"/>
<path d="M365.299 532.832H355.756C353.989 532.832 352.552 531.404 352.552 529.636V501.905C352.552 500.546 353.658 499.449 355.016 499.449H365.282C365.9 499.449 366.405 499.954 366.405 500.581V531.726C366.405 532.336 365.909 532.832 365.299 532.832Z" fill="#5479F7"/>
<path d="M359.823 500.684C356.497 500.684 353.789 503.383 353.789 506.709V523.383C353.789 527.911 357.48 531.602 362.017 531.602H363.131C364.255 531.602 365.169 530.679 365.169 529.556V502.773C365.169 501.624 364.237 500.684 363.079 500.684H359.823ZM363.131 534.066H362.017C356.113 534.066 351.316 529.269 351.316 523.383V506.709C351.316 502.025 355.13 498.211 359.823 498.211H363.079C365.595 498.211 367.642 500.257 367.642 502.773V529.556C367.642 532.038 365.622 534.066 363.131 534.066Z" fill="#252525"/>
<path d="M524.785 534.244H517.306C516.914 534.244 516.601 533.922 516.601 533.53V498.798C516.601 498.493 516.836 498.258 517.14 498.258H525.708C526.675 498.258 527.467 499.041 527.467 500.008V531.571C527.467 533.042 526.265 534.244 524.785 534.244Z" fill="#5479F7"/>
<path d="M507.327 567.273H396.226C395.59 567.273 395.059 567.787 395.059 568.44V575.711C395.059 578.175 397.053 580.177 399.5 580.177H402.852C404.585 580.177 406.152 581.179 406.874 582.755L410.357 590.251C413.379 596.79 419.909 600.97 427.083 600.97H479.831C487.005 600.97 493.527 596.79 496.557 590.251L500.031 582.755C500.753 581.179 502.329 580.177 504.053 580.177C506.5 580.177 508.494 578.175 508.494 575.711V568.44C508.494 567.787 507.972 567.273 507.327 567.273Z" fill="#5479F7"/>
<path d="M498.935 575.945H409.688C409.009 575.945 408.452 575.396 408.452 574.717C408.452 574.029 409.009 573.48 409.688 573.48H498.935C499.614 573.48 500.171 574.029 500.171 574.717C500.171 575.396 499.614 575.945 498.935 575.945Z" fill="#252525"/>
<path d="M490.645 583.425H417.759C417.08 583.425 416.522 582.876 416.522 582.189C416.522 581.509 417.08 580.961 417.759 580.961H490.645C491.324 580.961 491.882 581.509 491.882 582.189C491.882 582.876 491.324 583.425 490.645 583.425Z" fill="#252525"/>
<path d="M481.085 590.895H425.195C424.516 590.895 423.967 590.346 423.967 589.658C423.967 588.979 424.516 588.422 425.195 588.422H481.085C481.764 588.422 482.322 588.979 482.322 589.658C482.322 590.346 481.764 590.895 481.085 590.895Z" fill="#252525"/>
<path d="M120.406 429.458V578.635L325.656 578.086V404.721L120.406 429.458ZM119.17 581.099C118.847 581.099 118.525 580.968 118.299 580.742C118.064 580.507 117.933 580.194 117.933 579.863V428.361C117.933 427.734 118.403 427.211 119.021 427.133L326.745 402.1C327.093 402.065 327.441 402.17 327.711 402.405C327.972 402.64 328.129 402.98 328.129 403.328V579.314C328.129 579.993 327.572 580.551 326.893 580.551L119.17 581.099Z" fill="#252525"/>
<path d="M497.881 83.8857C497.881 90.8774 492.204 96.5457 485.203 96.5457C478.212 96.5457 472.535 90.8774 472.535 83.8857C472.535 76.9026 478.212 71.2344 485.203 71.2344C492.204 71.2344 497.881 76.9026 497.881 83.8857Z" fill="white"/>
</svg>
