<svg width="142" height="142" fill="none" xmlns="http://www.w3.org/2000/svg"><g filter="url(#a)"><circle cx="67" cy="68" r="59" fill="#152968"/></g><mask id="b" style="mask-type:luminance" maskUnits="userSpaceOnUse" x="38" y="41" width="59" height="55"><path d="M38.413 41.844h58.183V95.37H38.413V41.843Z" fill="#fff"/></mask><g mask="url(#b)"><path d="M41.166 44.15h52.667c.258 0 .464.2.464.458v35.425a.456.456 0 0 1-.464.452H41.166c-.253 0-.46-.2-.46-.452V44.608c0-.257.207-.458.46-.458Zm-1.601-2.279c-.635 0-1.152.508-1.152 1.14v38.623c0 .632.517 1.14 1.147 1.14H61.683a1.15 1.15 0 0 1 1.152 1.145v2.074c0 3.783-3.089 6.853-6.896 6.853h-.542v2.341h24.215v-2.341h-.543c-3.806 0-6.895-3.07-6.895-6.853V83.92a1.15 1.15 0 0 1 1.152-1.144H95.45c.63 0 1.146-.51 1.146-1.14V43.01c0-.632-.517-1.14-1.147-1.14H39.566Z" fill="#fff"/></g><path d="M48.31 72.164a.657.657 0 0 0 0 1.314h12.066a.656.656 0 0 0 .651-.662.66.66 0 0 0-.65-.652H48.31ZM48.31 69.383a.657.657 0 0 0 0 1.314h12.066a.656.656 0 0 0 .651-.663.66.66 0 0 0-.65-.651H48.31ZM55.004 49.328v7.946l6.922 3.969c1.993-4.164.221-9.143-3.968-11.125a8.466 8.466 0 0 0-2.954-.79Z" fill="#fff"/><path d="M53.682 49.328v8.701l7.583 4.353c-2.63 3.799-7.857 4.759-11.679 2.146-3.823-2.613-4.794-7.808-2.164-11.607a8.417 8.417 0 0 1 6.26-3.593ZM79.472 59.695l-2.882-4.538a1.327 1.327 0 0 0-2.133-.139l-3.72 4.452-1.022-.843 3.724-4.45a2.657 2.657 0 0 1 4.273.277l2.882 4.538a1.321 1.321 0 0 0 2.174.087l4.277-5.677-.635-.473 2.417-.8-.093 2.536-.63-.473-4.277 5.672a2.652 2.652 0 0 1-3.699.534 2.65 2.65 0 0 1-.65-.703h-.006ZM85.795 59.336h2.52v11.92h-2.52v-11.92ZM79.953 71.25V64.47h2.526v6.781h-2.526Z" fill="#fff"/><path d="M74.11 71.249V57.824h2.526V71.25H74.11ZM70.795 71.246h-2.521v-9.64h2.52v9.64Z" fill="#fff"/><defs><filter id="a" x=".6" y=".6" width="140.8" height="140.8" filterUnits="userSpaceOnUse" color-interpolation-filters="sRGB"><feFlood flood-opacity="0" result="BackgroundImageFix"/><feColorMatrix in="SourceAlpha" values="0 0 0 0 0 0 0 0 0 0 0 0 0 0 0 0 0 0 127 0" result="hardAlpha"/><feOffset dx="4" dy="3"/><feGaussianBlur stdDeviation="5.7"/><feComposite in2="hardAlpha" operator="out"/><feColorMatrix values="0 0 0 0 0.128333 0 0 0 0 0.119778 0 0 0 0 0.119778 0 0 0 0.25 0"/><feBlend in2="BackgroundImageFix" result="effect1_dropShadow_5180_11537"/><feBlend in="SourceGraphic" in2="effect1_dropShadow_5180_11537" result="shape"/></filter></defs></svg>