<svg width="142" height="142" viewBox="0 0 142 142" fill="none" xmlns="http://www.w3.org/2000/svg">
<g filter="url(#filter0_d_6017_3379)">
<circle cx="67" cy="68" r="59" fill="#152968"/>
</g>
<mask id="mask0_6017_3379" style="mask-type:luminance" maskUnits="userSpaceOnUse" x="81" y="47" width="16" height="61">
<path d="M81.4062 47.8086H96.6281V107.996H81.4062V47.8086Z" fill="white"/>
</mask>
<g mask="url(#mask0_6017_3379)">
<path d="M93.9355 48.5829C93.829 48.3686 93.673 48.1981 93.4688 48.0724C93.2658 47.9468 93.0436 47.8828 92.8035 47.8828C92.5646 47.8828 92.3425 47.9468 92.1383 48.0724C91.9352 48.1981 91.7793 48.3686 91.6716 48.5829L89.1406 53.6449C89.1035 53.7189 89.0744 53.7963 89.0519 53.876C89.0306 53.9568 89.016 54.0387 89.0104 54.1206C89.0048 54.2036 89.0071 54.2866 89.0172 54.3696C89.0272 54.4515 89.0452 54.5323 89.0721 54.6108C89.0979 54.6905 89.1316 54.7656 89.1731 54.8374C89.2146 54.9104 89.2617 54.9777 89.3167 55.0405C89.3705 55.1033 89.4311 55.1606 89.4962 55.211C89.5624 55.2615 89.6319 55.3064 89.7071 55.3434C89.7812 55.3804 89.8586 55.4096 89.9382 55.4321C90.019 55.4545 90.0998 55.468 90.1828 55.4736C90.2658 55.4792 90.3488 55.4769 90.4307 55.4668C90.5138 55.4567 90.5945 55.4377 90.6731 55.4119C90.7516 55.3861 90.8279 55.3513 90.8997 55.3109C90.9715 55.2694 91.0399 55.2211 91.1028 55.1673C91.1656 55.1123 91.2217 55.0528 91.2733 54.9867C91.3238 54.9216 91.3675 54.8509 91.4045 54.7769L91.5381 54.5099V105.463H82.6796C82.5965 105.463 82.5146 105.472 82.4327 105.488C82.352 105.503 82.2723 105.528 82.196 105.559C82.1186 105.592 82.0457 105.63 81.9773 105.676C81.9077 105.723 81.8437 105.775 81.7854 105.834C81.7259 105.893 81.6743 105.957 81.6272 106.026C81.5812 106.095 81.5431 106.168 81.5105 106.245C81.4791 106.321 81.4545 106.401 81.4387 106.482C81.423 106.564 81.4141 106.645 81.4141 106.729C81.4141 106.812 81.423 106.895 81.4387 106.975C81.4545 107.057 81.4791 107.137 81.5105 107.213C81.5431 107.289 81.5812 107.362 81.6272 107.432C81.6743 107.501 81.7259 107.565 81.7854 107.624C81.8437 107.682 81.9077 107.735 81.9773 107.781C82.0457 107.827 82.1186 107.866 82.196 107.899C82.2723 107.93 82.352 107.954 82.4327 107.97C82.5146 107.986 82.5965 107.994 82.6796 107.994H92.1708C92.2953 107.994 92.4187 107.982 92.541 107.958C92.6633 107.933 92.7822 107.898 92.8978 107.849C93.0122 107.802 93.1222 107.743 93.2254 107.674C93.3286 107.605 93.4251 107.526 93.5126 107.438C93.6012 107.35 93.6797 107.254 93.7493 107.15C93.8177 107.047 93.8772 106.937 93.9243 106.823C93.9726 106.707 94.0085 106.588 94.0331 106.466C94.0567 106.344 94.069 106.22 94.069 106.096V54.5099L94.2026 54.7769C94.2396 54.8509 94.2845 54.9216 94.3349 54.9867C94.3865 55.0528 94.4426 55.1123 94.5055 55.1673C94.5683 55.2211 94.6356 55.2694 94.7085 55.3109C94.7803 55.3524 94.8555 55.3861 94.9352 55.4119C95.0137 55.4377 95.0945 55.4567 95.1764 55.4668C95.2594 55.4769 95.3424 55.4792 95.4243 55.4736C95.5073 55.468 95.5892 55.4545 95.67 55.4321C95.7496 55.4096 95.8271 55.3804 95.9011 55.3434C95.9751 55.3064 96.0458 55.2615 96.1109 55.211C96.1771 55.1606 96.2366 55.1033 96.2915 55.0405C96.3465 54.9777 96.3936 54.9104 96.4351 54.8374C96.4755 54.7656 96.5103 54.6905 96.5361 54.6108C96.5619 54.5323 96.581 54.4515 96.5911 54.3696C96.6012 54.2866 96.6034 54.2036 96.5978 54.1206C96.5922 54.0387 96.5776 53.9568 96.5563 53.876C96.5339 53.7963 96.5047 53.7189 96.4665 53.6449L93.9355 48.5829Z" fill="white"/>
</g>
<mask id="mask1_6017_3379" style="mask-type:luminance" maskUnits="userSpaceOnUse" x="38" y="47" width="16" height="61">
<path d="M38.3262 47.8086H53.8353V107.996H38.3262V47.8086Z" fill="white"/>
</mask>
<g mask="url(#mask1_6017_3379)">
<path d="M52.3088 105.463H43.4503V54.5099L43.5838 54.7769C43.6208 54.8509 43.6657 54.9216 43.7162 54.9867C43.7678 55.0528 43.8239 55.1123 43.8867 55.1673C43.9495 55.2211 44.0169 55.2694 44.0898 55.3109C44.1616 55.3513 44.2368 55.3861 44.3164 55.4119C44.3949 55.4377 44.4757 55.4567 44.5576 55.4668C44.6406 55.4769 44.7237 55.4792 44.8056 55.4736C44.8886 55.468 44.9705 55.4545 45.0513 55.4321C45.1309 55.4096 45.2083 55.3804 45.2824 55.3434C45.3564 55.3064 45.4271 55.2615 45.4922 55.211C45.5583 55.1606 45.6178 55.1033 45.6728 55.0405C45.7278 54.9777 45.7749 54.9104 45.8164 54.8374C45.8568 54.7656 45.8916 54.6905 45.9174 54.6108C45.9432 54.5323 45.9622 54.4515 45.9723 54.3696C45.9824 54.2866 45.9847 54.2036 45.9791 54.1206C45.9734 54.0387 45.9589 53.9568 45.9375 53.876C45.9151 53.7963 45.8859 53.7189 45.8478 53.6449L43.3168 48.5829C43.2102 48.3686 43.0543 48.1981 42.8501 48.0724C42.647 47.9468 42.4249 47.8828 42.1848 47.8828C41.9458 47.8828 41.7237 47.9468 41.5195 48.0724C41.3165 48.1981 41.1605 48.3686 41.0528 48.5829L38.5218 53.6449C38.4848 53.7189 38.4556 53.7963 38.4332 53.876C38.4119 53.9568 38.3984 54.0375 38.3917 54.1206C38.3861 54.2036 38.3883 54.2866 38.3984 54.3685C38.4096 54.4515 38.4276 54.5323 38.4534 54.6108C38.4803 54.6894 38.514 54.7645 38.5555 54.8374C38.5959 54.9092 38.6441 54.9766 38.698 55.0394C38.7529 55.1022 38.8135 55.1594 38.8786 55.2099C38.9448 55.2615 39.0143 55.3053 39.0884 55.3423C39.1624 55.3793 39.2398 55.4085 39.3206 55.4309C39.4003 55.4534 39.4822 55.4668 39.5652 55.4724C39.6471 55.478 39.7301 55.4758 39.8131 55.4657C39.895 55.4556 39.9758 55.4377 40.0543 55.4107C40.1329 55.3849 40.2091 55.3513 40.2809 55.3098C40.3528 55.2683 40.4212 55.2211 40.4829 55.1662C40.5457 55.1123 40.6029 55.0517 40.6545 54.9867C40.705 54.9205 40.7488 54.8509 40.7858 54.7769L40.9193 54.5099V106.096C40.9204 106.22 40.9316 106.344 40.9563 106.466C40.981 106.588 41.0169 106.707 41.0652 106.823C41.1123 106.937 41.1706 107.047 41.2402 107.15C41.3097 107.254 41.3883 107.35 41.4758 107.438C41.5644 107.526 41.6598 107.605 41.7641 107.674C41.8673 107.743 41.9773 107.802 42.0917 107.849C42.2072 107.898 42.3262 107.933 42.4473 107.958C42.5696 107.982 42.693 107.994 42.8176 107.994H52.3088C52.3918 107.994 52.4748 107.986 52.5556 107.97C52.6375 107.954 52.7172 107.93 52.7935 107.899C52.8697 107.866 52.9427 107.827 53.0122 107.781C53.0818 107.735 53.1457 107.682 53.2041 107.624C53.2624 107.565 53.3151 107.501 53.3611 107.432C53.4071 107.362 53.4464 107.289 53.4789 107.213C53.5103 107.137 53.5339 107.057 53.5507 106.975C53.5664 106.895 53.5743 106.812 53.5743 106.729C53.5743 106.645 53.5664 106.564 53.5507 106.482C53.5339 106.401 53.5103 106.321 53.4789 106.245C53.4464 106.168 53.4071 106.095 53.3611 106.026C53.3151 105.957 53.2624 105.893 53.2041 105.834C53.1457 105.775 53.0818 105.723 53.0122 105.676C52.9427 105.63 52.8697 105.592 52.7935 105.559C52.7172 105.528 52.6375 105.503 52.5556 105.488C52.4748 105.472 52.3918 105.463 52.3088 105.463Z" fill="white"/>
</g>
<mask id="mask2_6017_3379" style="mask-type:luminance" maskUnits="userSpaceOnUse" x="49" y="45" width="14" height="63">
<path d="M49.5293 45.8008H62.1663V107.999H49.5293V45.8008Z" fill="white"/>
</mask>
<g mask="url(#mask2_6017_3379)">
<path d="M56.4156 48.5193H62.015C60.6878 47.8809 59.5064 47.0373 58.4732 45.9883H56.4156C56.1991 45.9883 55.9825 45.9984 55.7671 46.0197C55.5506 46.0399 55.3375 46.0713 55.1243 46.1139C54.9111 46.1554 54.7013 46.2071 54.4938 46.2699C54.2862 46.3327 54.0821 46.4045 53.8824 46.4875C53.6815 46.5705 53.4863 46.6625 53.2945 46.7635C53.1026 46.8656 52.9175 46.9767 52.7369 47.0967C52.5563 47.2168 52.3824 47.3447 52.2141 47.4815C52.0458 47.6184 51.8854 47.7642 51.7317 47.9168C51.578 48.0694 51.4321 48.2298 51.2941 48.397C51.1562 48.563 51.0271 48.7369 50.906 48.9164C50.7848 49.0971 50.6726 49.2822 50.5705 49.4729C50.4673 49.6636 50.3742 49.8588 50.2912 50.0585C50.207 50.2593 50.133 50.4624 50.0702 50.67C50.0062 50.8764 49.9524 51.0862 49.9097 51.2993C49.8671 51.5114 49.8346 51.7257 49.8121 51.9411C49.7897 52.1565 49.7785 52.373 49.7773 52.5895V81.2854C49.7785 81.5445 49.8043 81.8003 49.8559 82.0539C49.9075 82.3074 49.9827 82.5542 50.0825 82.7932C50.1823 83.0322 50.3046 83.2588 50.4482 83.4731C50.593 83.6885 50.7568 83.887 50.9407 84.0699C51.1236 84.2517 51.3233 84.4143 51.5387 84.5579C51.7541 84.7015 51.9819 84.8227 52.2208 84.9214C52.4598 85.0202 52.7066 85.0942 52.9602 85.1447C53.2137 85.1941 53.4706 85.2199 53.7298 85.2187H57.3703V106.732C57.3703 106.815 57.3793 106.898 57.395 106.979C57.4107 107.061 57.4354 107.141 57.4668 107.217C57.4994 107.293 57.5375 107.366 57.5835 107.436C57.6306 107.505 57.6822 107.569 57.7417 107.627C57.8 107.686 57.864 107.739 57.9335 107.785C58.002 107.831 58.0749 107.87 58.1523 107.902C58.2286 107.934 58.3082 107.957 58.389 107.974C58.4709 107.99 58.5528 107.998 58.6358 107.998C58.7189 107.998 58.8019 107.99 58.8827 107.974C58.9645 107.957 59.0442 107.934 59.1205 107.902C59.1968 107.87 59.2697 107.831 59.3393 107.785C59.4088 107.739 59.4728 107.686 59.5311 107.627C59.5894 107.569 59.6422 107.505 59.6882 107.436C59.7342 107.366 59.7734 107.293 59.806 107.217C59.8374 107.141 59.8609 107.061 59.8778 106.979C59.8935 106.898 59.9013 106.815 59.9013 106.732V71.2983C59.9013 71.2152 59.8935 71.1333 59.8778 71.0514C59.8609 70.9707 59.8374 70.891 59.806 70.8147C59.7734 70.7373 59.7342 70.6644 59.6882 70.5959C59.6422 70.5264 59.5894 70.4624 59.5311 70.4041C59.4728 70.3446 59.4088 70.293 59.3393 70.2459C59.2697 70.1999 59.1968 70.1618 59.1205 70.1292C59.0442 70.0978 58.9645 70.0743 58.8827 70.0574C58.8019 70.0417 58.7189 70.0328 58.6358 70.0328C58.5528 70.0328 58.4709 70.0417 58.389 70.0574C58.3082 70.0743 58.2286 70.0978 58.1523 70.1292C58.0749 70.1618 58.002 70.1999 57.9335 70.2459C57.864 70.293 57.8 70.3446 57.7417 70.4041C57.6822 70.4624 57.6306 70.5264 57.5835 70.5959C57.5375 70.6644 57.4994 70.7373 57.4668 70.8147C57.4354 70.891 57.4107 70.9707 57.395 71.0514C57.3793 71.1333 57.3703 71.2152 57.3703 71.2983V82.6877H53.7298C53.6367 82.6889 53.5447 82.6799 53.4538 82.6631C53.3629 82.6451 53.2743 82.6182 53.189 82.5834C53.1026 82.5486 53.0219 82.506 52.9445 82.4544C52.867 82.4039 52.7952 82.3456 52.7291 82.2805C52.6629 82.2154 52.6045 82.1447 52.5518 82.0673C52.5002 81.991 52.4564 81.9103 52.4205 81.825C52.3835 81.7397 52.3566 81.6511 52.3375 81.5602C52.3196 81.4694 52.3095 81.3785 52.3083 81.2854V52.5895C52.3106 52.3214 52.3375 52.0555 52.3914 51.793C52.4452 51.5293 52.5249 51.2747 52.6281 51.0267C52.7324 50.7799 52.8592 50.5443 53.0095 50.3222C53.1599 50.1 53.3304 49.8947 53.5211 49.7051C53.7107 49.5166 53.9183 49.3484 54.1426 49.2003C54.3659 49.0522 54.6015 48.9265 54.8506 48.8256C55.0985 48.7235 55.3543 48.6472 55.6179 48.5956C55.8816 48.544 56.1475 48.5193 56.4156 48.5193Z" fill="white"/>
</g>
<mask id="mask3_6017_3379" style="mask-type:luminance" maskUnits="userSpaceOnUse" x="72" y="45" width="14" height="63">
<path d="M72.793 45.8008H85.43V107.999H72.793V45.8008Z" fill="white"/>
</mask>
<g mask="url(#mask3_6017_3379)">
<path d="M85.215 81.2854V52.5895C85.215 52.373 85.2027 52.1565 85.1814 51.9411C85.1589 51.7257 85.1264 51.5114 85.0838 51.2993C85.04 51.0862 84.9873 50.8764 84.9233 50.67C84.8594 50.4624 84.7865 50.2593 84.7023 50.0585C84.6193 49.8588 84.5262 49.6636 84.423 49.4729C84.3198 49.2822 84.2087 49.0971 84.0875 48.9164C83.9664 48.7369 83.8373 48.563 83.6994 48.397C83.5614 48.2298 83.4155 48.0694 83.2618 47.9168C83.1081 47.7642 82.9466 47.6184 82.7794 47.4815C82.6111 47.3447 82.4372 47.2168 82.2566 47.0967C82.076 46.9767 81.8897 46.8656 81.699 46.7635C81.5072 46.6625 81.312 46.5705 81.1111 46.4875C80.9103 46.4045 80.7061 46.3327 80.4997 46.2699C80.2922 46.2071 80.0812 46.1554 79.8692 46.1139C79.656 46.0713 79.4418 46.0399 79.2264 46.0197C79.0109 45.9984 78.7944 45.9883 78.5779 45.9883H76.5203C75.486 47.0373 74.3057 47.8809 72.9785 48.5193H78.5779C78.846 48.5193 79.1119 48.544 79.3756 48.5956C79.6392 48.6472 79.895 48.7235 80.1429 48.8256C80.3909 48.9265 80.6276 49.0522 80.8509 49.2003C81.0752 49.3484 81.2817 49.5166 81.4724 49.7051C81.6631 49.8947 81.8336 50.1 81.984 50.3222C82.1343 50.5443 82.2611 50.7799 82.3654 51.0267C82.4686 51.2747 82.5483 51.5293 82.601 51.793C82.6549 52.0555 82.6829 52.3214 82.684 52.5895V81.2854C82.684 81.3785 82.6739 81.4694 82.6549 81.5602C82.6369 81.6511 82.6089 81.7397 82.573 81.825C82.5371 81.9103 82.4933 81.991 82.4406 82.0673C82.389 82.1447 82.3306 82.2154 82.2644 82.2805C82.1983 82.3456 82.1265 82.4039 82.049 82.4544C81.9716 82.506 81.8909 82.5486 81.8045 82.5834C81.7192 82.6182 81.6306 82.6451 81.5397 82.6631C81.4488 82.6799 81.3568 82.6889 81.2637 82.6877H77.622V71.2983C77.622 71.2152 77.6142 71.1333 77.5985 71.0514C77.5817 70.9707 77.5581 70.891 77.5267 70.8147C77.4941 70.7373 77.4549 70.6644 77.4089 70.5959C77.3629 70.5264 77.3102 70.4624 77.2518 70.4041C77.1935 70.3446 77.1295 70.293 77.06 70.2459C76.9904 70.1999 76.9175 70.1618 76.8412 70.1292C76.7649 70.0978 76.6853 70.0743 76.6034 70.0574C76.5226 70.0417 76.4396 70.0328 76.3565 70.0328C76.2735 70.0328 76.1916 70.0417 76.1097 70.0574C76.029 70.0743 75.9493 70.0978 75.873 70.1292C75.7956 70.1618 75.7227 70.1999 75.6542 70.2459C75.5847 70.293 75.5207 70.3446 75.4624 70.4041C75.4029 70.4624 75.3513 70.5264 75.3042 70.5959C75.2582 70.6644 75.2201 70.7373 75.1875 70.8147C75.1561 70.891 75.1314 70.9707 75.1157 71.0514C75.1 71.1333 75.091 71.2152 75.091 71.2983V106.732C75.091 106.815 75.1 106.898 75.1157 106.979C75.1314 107.061 75.1561 107.141 75.1875 107.217C75.2201 107.293 75.2582 107.366 75.3042 107.436C75.3513 107.505 75.4029 107.569 75.4624 107.627C75.5207 107.686 75.5847 107.739 75.6542 107.785C75.7227 107.831 75.7956 107.87 75.873 107.902C75.9493 107.934 76.029 107.957 76.1097 107.974C76.1916 107.99 76.2735 107.998 76.3565 107.998C76.4396 107.998 76.5226 107.99 76.6034 107.974C76.6853 107.957 76.7649 107.934 76.8412 107.902C76.9175 107.87 76.9904 107.831 77.06 107.785C77.1295 107.739 77.1935 107.686 77.2518 107.627C77.3102 107.569 77.3629 107.505 77.4089 107.436C77.4549 107.366 77.4941 107.293 77.5267 107.217C77.5581 107.141 77.5817 107.061 77.5985 106.979C77.6142 106.898 77.622 106.815 77.622 106.732V85.2187H81.2637C81.5229 85.2199 81.7787 85.1941 82.0333 85.1447C82.2869 85.0942 82.5337 85.0202 82.7727 84.9214C83.0116 84.8227 83.2394 84.7015 83.4548 84.5579C83.6702 84.4143 83.8699 84.2517 84.0527 84.0699C84.2367 83.887 84.4005 83.6885 84.5441 83.4731C84.6889 83.2588 84.8112 83.0322 84.911 82.7932C85.0108 82.5542 85.086 82.3074 85.1376 82.0539C85.1881 81.8003 85.215 81.5445 85.215 81.2854Z" fill="white"/>
</g>
<mask id="mask4_6017_3379" style="mask-type:luminance" maskUnits="userSpaceOnUse" x="57" y="27" width="21" height="21">
<path d="M57.2773 27H77.6689V47.5172H57.2773V27Z" fill="white"/>
</mask>
<g mask="url(#mask4_6017_3379)">
<path d="M67.4931 47.248C67.8252 47.248 68.1562 47.2323 68.486 47.1997C68.8158 47.1672 69.1434 47.119 69.4688 47.0539C69.7941 46.9888 70.115 46.9092 70.4325 46.8127C70.75 46.7162 71.0619 46.6051 71.3682 46.4772C71.6744 46.3505 71.974 46.2091 72.2657 46.0532C72.5585 45.8972 72.8423 45.7267 73.1183 45.5427C73.3943 45.3576 73.6602 45.1612 73.916 44.9503C74.1729 44.7405 74.4175 44.5173 74.6519 44.2828C74.8864 44.0483 75.1097 43.8038 75.3195 43.5468C75.5304 43.291 75.7267 43.0252 75.9118 42.7492C76.0958 42.4732 76.2664 42.1893 76.4223 41.8965C76.5782 41.6048 76.7196 41.3053 76.8464 40.999C76.9743 40.6927 77.0853 40.3809 77.1818 40.0634C77.2783 39.7459 77.358 39.425 77.423 39.0996C77.4881 38.7743 77.5363 38.4467 77.5689 38.1169C77.6014 37.787 77.6171 37.4561 77.6171 37.124C77.6171 36.793 77.6014 36.4621 77.5689 36.1322C77.5363 35.8024 77.4881 35.4748 77.423 35.1495C77.358 34.8241 77.2783 34.5032 77.1818 34.1857C77.0853 33.8682 76.9743 33.5564 76.8464 33.2501C76.7196 32.9438 76.5782 32.6443 76.4223 32.3514C76.2664 32.0598 76.0958 31.7759 75.9118 31.4999C75.7267 31.2239 75.5304 30.958 75.3195 30.7023C75.1097 30.4453 74.8864 30.1996 74.6519 29.9652C74.4175 29.7307 74.1729 29.5086 73.916 29.2988C73.6602 29.0878 73.3943 28.8904 73.1183 28.7064C72.8423 28.5224 72.5585 28.3519 72.2657 28.1959C71.974 28.04 71.6744 27.8975 71.3682 27.7707C71.0619 27.644 70.75 27.5329 70.4325 27.4364C70.115 27.3399 69.7941 27.2592 69.4688 27.1952C69.1434 27.1301 68.8158 27.0819 68.486 27.0494C68.1562 27.0168 67.8252 27 67.4931 27C67.1622 27 66.8312 27.0168 66.5014 27.0494C66.1715 27.0819 65.8439 27.1301 65.5186 27.1952C65.1932 27.2592 64.8724 27.3399 64.5549 27.4364C64.2374 27.5329 63.9255 27.644 63.6192 27.7707C63.3129 27.8975 63.0134 28.04 62.7206 28.1959C62.4289 28.3519 62.1451 28.5224 61.8691 28.7064C61.5931 28.8904 61.3272 29.0878 61.0714 29.2988C60.8145 29.5086 60.5688 29.7307 60.3343 29.9652C60.0998 30.1996 59.8777 30.4453 59.6679 30.7023C59.457 30.958 59.2595 31.2239 59.0755 31.4999C58.8916 31.7759 58.721 32.0598 58.5651 32.3514C58.4091 32.6443 58.2667 32.9438 58.1399 33.2501C58.0131 33.5564 57.902 33.8682 57.8056 34.1857C57.7091 34.5032 57.6283 34.8241 57.5644 35.1495C57.4993 35.4748 57.451 35.8024 57.4185 36.1322C57.386 36.4621 57.3691 36.793 57.3691 37.124C57.3703 37.4561 57.3871 37.787 57.4196 38.1169C57.4522 38.4467 57.5015 38.7732 57.5655 39.0985C57.6305 39.4239 57.7113 39.7447 57.8078 40.0622C57.9043 40.3786 58.0165 40.6905 58.1432 40.9968C58.27 41.3031 58.4125 41.6026 58.5684 41.8943C58.7244 42.1871 58.8949 42.4709 59.0789 42.7458C59.264 43.0218 59.4604 43.2877 59.6713 43.5435C59.8811 43.8004 60.1043 44.045 60.3377 44.2794C60.5722 44.5139 60.8178 44.7361 61.0736 44.947C61.3306 45.1568 61.5964 45.3542 61.8713 45.5382C62.1473 45.7233 62.4311 45.8927 62.7239 46.0498C63.0156 46.2057 63.3152 46.3471 63.6215 46.475C63.9277 46.6018 64.2385 46.714 64.556 46.8093C64.8735 46.9058 65.1944 46.9866 65.5197 47.0516C65.8439 47.1167 66.1715 47.1661 66.5014 47.1986C66.8312 47.2311 67.1622 47.248 67.4931 47.248ZM67.4931 29.531C67.7422 29.531 67.9901 29.5433 68.2381 29.568C68.4849 29.5927 68.7306 29.6286 68.9752 29.6768C69.2186 29.7262 69.4598 29.7857 69.6977 29.8586C69.9355 29.9304 70.17 30.0145 70.3988 30.1099C70.6288 30.2041 70.8532 30.3107 71.0731 30.4285C71.2919 30.5452 71.505 30.6731 71.7115 30.8111C71.919 30.9491 72.1187 31.0972 72.3105 31.2554C72.5024 31.4124 72.6864 31.5796 72.8625 31.7557C73.0387 31.9307 73.2047 32.1147 73.3629 32.3077C73.5211 32.4995 73.6692 32.6992 73.8072 32.9057C73.9452 33.1132 74.073 33.3252 74.1897 33.5451C74.3075 33.7639 74.413 33.9894 74.5083 34.2183C74.6037 34.4483 74.6878 34.6827 74.7596 34.9206C74.8314 35.1584 74.892 35.3996 74.9403 35.6431C74.9896 35.8865 75.0255 36.1322 75.0502 36.3802C75.0749 36.6281 75.0861 36.876 75.0861 37.124C75.0861 37.373 75.0749 37.621 75.0502 37.8689C75.0255 38.1157 74.9896 38.3614 74.9403 38.606C74.892 38.8495 74.8314 39.0907 74.7596 39.3285C74.6878 39.5664 74.6037 39.8008 74.5083 40.0297C74.413 40.2597 74.3075 40.4841 74.1897 40.704C74.073 40.9227 73.9452 41.1359 73.8072 41.3423C73.6692 41.5499 73.5211 41.7496 73.3629 41.9414C73.2047 42.1333 73.0387 42.3172 72.8625 42.4934C72.6864 42.6695 72.5024 42.8356 72.3105 42.9937C72.1187 43.1519 71.919 43.3 71.7115 43.438C71.505 43.576 71.2919 43.7039 71.0731 43.8206C70.8532 43.9384 70.6288 44.0438 70.3988 44.1392C70.17 44.2346 69.9355 44.3187 69.6977 44.3905C69.4598 44.4623 69.2186 44.5229 68.9752 44.5711C68.7306 44.6205 68.4849 44.6564 68.2381 44.6811C67.9901 44.7058 67.7422 44.717 67.4931 44.717C67.2452 44.717 66.9973 44.7058 66.7493 44.6811C66.5014 44.6564 66.2557 44.6205 66.0122 44.5711C65.7688 44.5229 65.5276 44.4623 65.2897 44.3905C65.0519 44.3187 64.8174 44.2346 64.5874 44.1392C64.3586 44.0438 64.1331 43.9384 63.9143 43.8206C63.6944 43.7039 63.4824 43.576 63.2748 43.438C63.0684 43.3 62.8687 43.1519 62.6768 42.9937C62.4839 42.8356 62.2999 42.6695 62.1249 42.4934C61.9487 42.3172 61.7816 42.1333 61.6245 41.9414C61.4663 41.7496 61.3182 41.5499 61.1802 41.3423C61.0422 41.1359 60.9143 40.9227 60.7977 40.704C60.6799 40.4841 60.5733 40.2597 60.479 40.0297C60.3837 39.8008 60.2995 39.5664 60.2277 39.3285C60.1548 39.0907 60.0953 38.8495 60.046 38.606C59.9977 38.3614 59.9618 38.1157 59.9372 37.8689C59.9125 37.621 59.9001 37.373 59.9001 37.124C59.9013 36.876 59.9136 36.6281 59.9383 36.3802C59.963 36.1334 59.9989 35.8877 60.0482 35.6442C60.0965 35.3996 60.1571 35.1595 60.23 34.9217C60.3018 34.6839 60.3859 34.4494 60.4813 34.2205C60.5755 33.9905 60.6821 33.7662 60.7999 33.5463C60.9166 33.3275 61.0445 33.1143 61.1825 32.9079C61.3205 32.7015 61.4685 32.5018 61.6267 32.3099C61.7849 32.1181 61.951 31.9341 62.1271 31.758C62.3032 31.5818 62.4872 31.4158 62.6791 31.2576C62.8709 31.0994 63.0706 30.9513 63.277 30.8133C63.4835 30.6753 63.6966 30.5474 63.9154 30.4308C64.1353 30.313 64.3597 30.2064 64.5897 30.1121C64.8185 30.0168 65.053 29.9326 65.2908 29.8608C65.5287 29.7879 65.7688 29.7273 66.0133 29.6791C66.2568 29.6297 66.5025 29.5938 66.7493 29.5691C66.9973 29.5445 67.2452 29.5321 67.4931 29.531Z" fill="white"/>
</g>
<mask id="mask5_6017_3379" style="mask-type:luminance" maskUnits="userSpaceOnUse" x="66" y="82" width="3" height="26">
<path d="M66.1855 82.5625H68.7704V107.998H66.1855V82.5625Z" fill="white"/>
</mask>
<g mask="url(#mask5_6017_3379)">
<path d="M67.494 82.6875C67.411 82.6875 67.3291 82.6965 67.2472 82.7122C67.1664 82.729 67.0868 82.7526 67.0105 82.784C66.9331 82.8165 66.8601 82.8547 66.7917 82.9007C66.7221 82.9478 66.6582 82.9994 66.5999 83.0588C66.5404 83.1172 66.4888 83.1811 66.4417 83.2507C66.3957 83.3191 66.3575 83.3921 66.325 83.4695C66.2936 83.5458 66.27 83.6254 66.2532 83.7062C66.2375 83.7881 66.2285 83.87 66.2285 83.953V106.732C66.2285 106.815 66.2375 106.898 66.2532 106.979C66.2689 107.061 66.2936 107.14 66.325 107.217C66.3575 107.293 66.3957 107.366 66.4417 107.435C66.4888 107.505 66.5404 107.569 66.5999 107.627C66.6582 107.686 66.7221 107.738 66.7917 107.784C66.8601 107.83 66.9331 107.87 67.0105 107.902C67.0868 107.934 67.1664 107.957 67.2472 107.974C67.3291 107.99 67.411 107.997 67.494 107.997C67.577 107.997 67.6601 107.99 67.7408 107.974C67.8227 107.957 67.9024 107.934 67.9787 107.902C68.055 107.87 68.1279 107.83 68.1974 107.784C68.267 107.738 68.3309 107.686 68.3893 107.627C68.4476 107.569 68.5004 107.505 68.5464 107.435C68.5924 107.366 68.6316 107.293 68.6642 107.217C68.6956 107.14 68.7191 107.061 68.736 106.979C68.7517 106.898 68.7595 106.815 68.7595 106.732V83.953C68.7595 83.87 68.7517 83.7881 68.736 83.7062C68.7191 83.6254 68.6956 83.5458 68.663 83.4695C68.6316 83.3921 68.5924 83.3191 68.5464 83.2507C68.5004 83.1811 68.4476 83.1172 68.3893 83.0588C68.3309 82.9994 68.267 82.9478 68.1974 82.9007C68.1279 82.8547 68.055 82.8165 67.9787 82.784C67.9024 82.7526 67.8227 82.729 67.7408 82.7122C67.6601 82.6965 67.577 82.6875 67.494 82.6875Z" fill="white"/>
</g>
<mask id="mask6_6017_3379" style="mask-type:luminance" maskUnits="userSpaceOnUse" x="97" y="78" width="11" height="30">
<path d="M97.7773 78.832H107.991V108.001H97.7773V78.832Z" fill="white"/>
</mask>
<g mask="url(#mask6_6017_3379)">
<path d="M106.725 105.47H102.929V85.5216L103.062 85.7886C103.099 85.8626 103.144 85.9333 103.195 85.9984C103.246 86.0646 103.302 86.124 103.365 86.179C103.428 86.2329 103.495 86.2811 103.568 86.3215C103.64 86.363 103.715 86.3966 103.795 86.4236C103.873 86.4494 103.954 86.4673 104.036 86.4785C104.119 86.4886 104.201 86.4909 104.284 86.4853C104.367 86.4785 104.449 86.4651 104.529 86.4426C104.609 86.4213 104.687 86.3922 104.761 86.354C104.835 86.317 104.906 86.2732 104.971 86.2228C105.037 86.1711 105.096 86.1139 105.151 86.0522C105.205 85.9894 105.253 85.921 105.294 85.8492C105.335 85.7774 105.369 85.7011 105.396 85.6225C105.422 85.544 105.44 85.4632 105.451 85.3802C105.461 85.2983 105.463 85.2153 105.458 85.1323C105.451 85.0504 105.437 84.9685 105.415 84.8877C105.394 84.808 105.364 84.7306 105.326 84.6566L102.795 79.5946C102.689 79.3803 102.533 79.2098 102.329 79.0841C102.126 78.9585 101.903 78.8945 101.663 78.8945C101.424 78.8945 101.202 78.9585 100.998 79.0841C100.795 79.2098 100.639 79.3803 100.531 79.5946L98.0003 84.6566C97.9633 84.7306 97.9341 84.808 97.9117 84.8877C97.8904 84.9685 97.8758 85.0504 97.8702 85.1323C97.8646 85.2153 97.8668 85.2983 97.8769 85.3802C97.887 85.4632 97.9061 85.544 97.9319 85.6225C97.9588 85.7011 97.9925 85.7774 98.0329 85.8492C98.0744 85.921 98.1226 85.9894 98.1765 86.0522C98.2314 86.1139 98.2909 86.1711 98.3571 86.2228C98.4222 86.2732 98.4928 86.317 98.5669 86.354C98.6409 86.3922 98.7183 86.4213 98.798 86.4426C98.8788 86.4651 98.9607 86.4785 99.0426 86.4853C99.1256 86.4909 99.2086 86.4886 99.2905 86.4785C99.3735 86.4673 99.4543 86.4494 99.5328 86.4236C99.6114 86.3966 99.6877 86.363 99.7595 86.3215C99.8313 86.2811 99.8997 86.2329 99.9625 86.179C100.024 86.124 100.081 86.0646 100.133 85.9984C100.184 85.9333 100.227 85.8626 100.264 85.7886L100.398 85.5216V106.735C100.398 106.819 100.407 106.902 100.423 106.982C100.439 107.064 100.463 107.144 100.494 107.22C100.527 107.296 100.565 107.369 100.611 107.439C100.658 107.508 100.71 107.572 100.769 107.631C100.828 107.689 100.891 107.742 100.961 107.788C101.029 107.834 101.102 107.873 101.18 107.905C101.256 107.937 101.336 107.961 101.417 107.977C101.498 107.993 101.58 108.001 101.663 108.001H106.725C106.808 108.001 106.891 107.993 106.972 107.977C107.054 107.961 107.134 107.937 107.21 107.906C107.286 107.873 107.359 107.834 107.429 107.788C107.498 107.742 107.562 107.689 107.621 107.631C107.679 107.572 107.732 107.508 107.778 107.439C107.824 107.369 107.863 107.296 107.895 107.22C107.927 107.144 107.95 107.064 107.967 106.982C107.983 106.902 107.991 106.819 107.991 106.735C107.991 106.652 107.983 106.571 107.967 106.489C107.95 106.408 107.927 106.328 107.895 106.252C107.863 106.175 107.824 106.102 107.778 106.033C107.732 105.964 107.679 105.9 107.621 105.841C107.562 105.782 107.498 105.73 107.429 105.683C107.359 105.637 107.286 105.599 107.21 105.566C107.134 105.535 107.054 105.51 106.972 105.495C106.891 105.479 106.808 105.47 106.725 105.47Z" fill="white"/>
</g>
<mask id="mask7_6017_3379" style="mask-type:luminance" maskUnits="userSpaceOnUse" x="27" y="78" width="11" height="30">
<path d="M27 78.832H37.1778V108.001H27V78.832Z" fill="white"/>
</mask>
<g mask="url(#mask7_6017_3379)">
<path d="M34.4595 79.5946C34.3529 79.3803 34.197 79.2098 33.9928 79.0841C33.7897 78.9585 33.5676 78.8945 33.3275 78.8945C33.0885 78.8945 32.8664 78.9585 32.6622 79.0841C32.4591 79.2098 32.3032 79.3803 32.1955 79.5946L29.6645 84.6566C29.6275 84.7306 29.5983 84.808 29.5759 84.8877C29.5534 84.9685 29.54 85.0504 29.5344 85.1334C29.5276 85.2153 29.5299 85.2983 29.5411 85.3813C29.5512 85.4632 29.5691 85.544 29.5961 85.6237C29.6219 85.7022 29.6555 85.7774 29.697 85.8503C29.7374 85.9221 29.7857 85.9894 29.8406 86.0522C29.8945 86.1151 29.9551 86.1723 30.0201 86.2228C30.0863 86.2744 30.1559 86.3181 30.2299 86.3551C30.3051 86.3922 30.3825 86.4225 30.4622 86.4438C30.5429 86.4662 30.6237 86.4797 30.7067 86.4864C30.7898 86.492 30.8728 86.4898 30.9547 86.4797C31.0377 86.4684 31.1185 86.4505 31.197 86.4236C31.2755 86.3978 31.3518 86.3641 31.4236 86.3226C31.4966 86.2811 31.5639 86.234 31.6267 86.179C31.6895 86.124 31.7456 86.0646 31.7972 85.9984C31.8477 85.9333 31.8915 85.8626 31.9285 85.7886L32.062 85.5216V105.47H28.2655C28.1825 105.47 28.1006 105.479 28.0187 105.495C27.9379 105.51 27.8583 105.535 27.782 105.566C27.7046 105.599 27.6316 105.637 27.5632 105.683C27.4936 105.73 27.4297 105.782 27.3713 105.841C27.3119 105.9 27.2603 105.964 27.2132 106.033C27.1672 106.102 27.129 106.175 27.0965 106.252C27.0651 106.328 27.0415 106.408 27.0247 106.489C27.009 106.571 27 106.652 27 106.735C27 106.819 27.009 106.902 27.0247 106.982C27.0415 107.064 27.0651 107.144 27.0965 107.22C27.129 107.296 27.1672 107.369 27.2132 107.439C27.2603 107.508 27.3119 107.572 27.3713 107.631C27.4297 107.689 27.4936 107.742 27.5632 107.788C27.6316 107.834 27.7046 107.873 27.782 107.906C27.8583 107.937 27.9379 107.961 28.0187 107.977C28.1006 107.993 28.1825 108.001 28.2655 108.001H33.3275C33.4105 108.001 33.4935 107.993 33.5743 107.977C33.6562 107.961 33.7359 107.937 33.8122 107.905C33.8884 107.873 33.9614 107.834 34.0309 107.788C34.1005 107.742 34.1644 107.689 34.2228 107.631C34.2811 107.572 34.3338 107.508 34.3798 107.439C34.4258 107.369 34.4651 107.296 34.4976 107.22C34.529 107.144 34.5526 107.064 34.5694 106.982C34.5851 106.902 34.593 106.819 34.593 106.735V85.5216L34.7265 85.7886C34.7646 85.8626 34.8084 85.9322 34.8589 85.9984C34.9105 86.0634 34.9666 86.124 35.0294 86.1779C35.0922 86.2329 35.1595 86.28 35.2325 86.3215C35.3043 86.3619 35.3794 86.3955 35.4591 86.4225C35.5376 86.4483 35.6184 86.4662 35.7003 86.4774C35.7833 86.4875 35.8652 86.4898 35.9482 86.4842C36.0313 86.4774 36.1132 86.464 36.1928 86.4415C36.2725 86.4202 36.3499 86.3899 36.4239 86.3529C36.4991 86.3159 36.5686 86.2721 36.6337 86.2216C36.6999 86.17 36.7594 86.1139 36.8143 86.0511C36.8682 85.9883 36.9164 85.921 36.9579 85.848C36.9983 85.7762 37.032 85.7011 37.0589 85.6225C37.0847 85.5429 37.1038 85.4632 37.1139 85.3802C37.124 85.2983 37.1262 85.2153 37.1206 85.1323C37.115 85.0493 37.1016 84.9685 37.0791 84.8877C37.0578 84.808 37.0275 84.7306 36.9905 84.6566L34.4595 79.5946Z" fill="white"/>
</g>
<defs>
<filter id="filter0_d_6017_3379" x="0.6" y="0.6" width="140.8" height="140.8" filterUnits="userSpaceOnUse" color-interpolation-filters="sRGB">
<feFlood flood-opacity="0" result="BackgroundImageFix"/>
<feColorMatrix in="SourceAlpha" type="matrix" values="0 0 0 0 0 0 0 0 0 0 0 0 0 0 0 0 0 0 127 0" result="hardAlpha"/>
<feOffset dx="4" dy="3"/>
<feGaussianBlur stdDeviation="5.7"/>
<feComposite in2="hardAlpha" operator="out"/>
<feColorMatrix type="matrix" values="0 0 0 0 0.128333 0 0 0 0 0.119778 0 0 0 0 0.119778 0 0 0 0.25 0"/>
<feBlend mode="normal" in2="BackgroundImageFix" result="effect1_dropShadow_6017_3379"/>
<feBlend mode="normal" in="SourceGraphic" in2="effect1_dropShadow_6017_3379" result="shape"/>
</filter>
</defs>
</svg>
