<svg xmlns="http://www.w3.org/2000/svg" width="36" height="42" fill="none"><mask id="a" width="36" height="42" x="0" y="0" maskUnits="userSpaceOnUse" style="mask-type:luminance"><path fill="#fff" d="M0 0h36v41.788H0V0Z"/></mask><g mask="url(#a)"><path fill="#006" d="M35.435-.035H6.36a.549.549 0 0 0-.545.545v26.163c0 .299.246.546.545.546a.55.55 0 0 0 .545-.546V1.056H34.89v34.34c0 1.41-.545 2.732-1.54 3.728a5.235 5.235 0 0 1-3.73 1.54 5.234 5.234 0 0 1-3.729-1.54 5.233 5.233 0 0 1-1.54-3.729.546.546 0 0 0-.547-.545h-16.9v-2.361a.55.55 0 0 0-.545-.546.549.549 0 0 0-.545.546v2.361H.544a.55.55 0 0 0-.546.545c0 1.701.661 3.293 1.86 4.499a6.323 6.323 0 0 0 4.5 1.86H29.62a6.335 6.335 0 0 0 4.5-1.86 6.32 6.32 0 0 0 1.861-4.499V.51a.55.55 0 0 0-.546-.545ZM6.36 40.664a5.235 5.235 0 0 1-3.73-1.541 5.183 5.183 0 0 1-1.512-3.183H23.29a6.315 6.315 0 0 0 1.839 3.953c.29.291.603.545.93.77h-19.7Zm-.545-10.357v-1.453c0-.298.246-.545.545-.545a.55.55 0 0 1 .545.545v1.453a.55.55 0 0 1-.545.545.549.549 0 0 1-.545-.545ZM9.63 9.776a.55.55 0 0 1-.546-.545V4.87a.55.55 0 0 1 .546-.545.55.55 0 0 1 .545.545v4.36a.55.55 0 0 1-.545.545Zm2.18 0a.549.549 0 0 1-.545-.545V4.87c0-.255.175-.473.422-.531a.54.54 0 0 1 .61.283l1.15 2.297V4.87c0-.297.246-.544.544-.544.299 0 .545.247.545.545v4.36a.545.545 0 0 1-.421.53.553.553 0 0 1-.61-.283l-1.15-2.296V9.23a.549.549 0 0 1-.545.545Zm4.908-.414-1.076-4.36a.549.549 0 0 1 .4-.662.55.55 0 0 1 .66.4l.553 2.246.574-2.246a.545.545 0 0 1 1.055.269l-1.106 4.36a.546.546 0 0 1-1.06 0v-.007Zm6.178-1.221V5.96c0-.901-.734-1.635-1.636-1.635-.9 0-1.635.734-1.635 1.635v2.18c0 .901.734 1.635 1.635 1.635.902 0 1.636-.734 1.636-1.635Zm-2.18 0V5.96a.55.55 0 0 1 .544-.545.55.55 0 0 1 .546.545v2.18a.55.55 0 0 1-.546.545.55.55 0 0 1-.545-.545Zm3.452 1.635a.549.549 0 0 1-.545-.545V4.87c0-.298.247-.545.545-.545.299 0 .545.247.545.545v4.36a.549.549 0 0 1-.545.545Zm2.843-3.88c-.306.305-.48.726-.48 1.155 0 .429.174.85.48 1.155.312.306.719.48 1.155.48a.55.55 0 0 1 .546.545.55.55 0 0 1-.546.545c-.727 0-1.41-.283-1.926-.8a2.745 2.745 0 0 1-.8-1.925c0-.713.29-1.418.8-1.926.516-.516 1.2-.8 1.927-.8a.55.55 0 0 1 .545.546.55.55 0 0 1-.546.545c-.436 0-.85.167-1.155.48Zm3.518-.48v1.09h.909a.55.55 0 0 1 .545.545.55.55 0 0 1-.545.545h-.91v1.09h1.636a.55.55 0 0 1 .546.545.55.55 0 0 1-.546.545h-2.18a.549.549 0 0 1-.545-.545V4.87c0-.298.247-.545.545-.545h2.18a.55.55 0 0 1 .546.545.55.55 0 0 1-.546.545H30.53ZM8.72 13.592v13.082c0 .298.247.545.545.545h23.262a.549.549 0 0 0 .545-.546V13.593a.549.549 0 0 0-.545-.545H9.266a.549.549 0 0 0-.545.545Zm23.262 8.176H15.627v-3.27h16.356v3.27Zm-17.447 0H9.811v-3.27h4.725v3.27Zm-4.725 1.09h4.725v3.27H9.811v-3.27Zm5.816 3.27v-3.27h16.356v3.27H15.627Zm16.356-8.72H15.627v-3.271h16.356v3.27ZM9.81 14.136h4.725v3.27H9.811v-3.27Zm-1.09 18.35c0-.298.247-.545.545-.545h7.27c.298 0 .545.247.545.546a.55.55 0 0 1-.545.545h-7.27a.55.55 0 0 1-.545-.545Z"/></g></svg>