<svg xmlns="http://www.w3.org/2000/svg" width="48" height="44" fill="none"><mask id="a" width="48" height="44" x="0" y="0" maskUnits="userSpaceOnUse" style="mask-type:luminance"><path fill="#fff" d="M0 0h47.828v44H0V0Z"/></mask><g mask="url(#a)"><path fill="#006" d="M2.264 1.897h43.293c.212 0 .382.165.382.376v29.12c0 .208-.17.372-.382.372H2.264a.374.374 0 0 1-.378-.371V2.273c0-.211.17-.376.378-.376ZM.947.023A.942.942 0 0 0 0 .96v31.75c0 .52.425.937.943.937h18.186c.523 0 .947.422.947.941v1.705c0 3.11-2.54 5.633-5.669 5.633h-.445v1.925h19.905v-1.925h-.446c-3.129 0-5.668-2.523-5.668-5.633v-1.705c0-.519.424-.94.947-.94h18.186a.94.94 0 0 0 .942-.938V.96a.94.94 0 0 0-.942-.937H.947Z"/></g><path fill="#006" d="M8.136 24.918a.54.54 0 0 0 0 1.08h9.919a.539.539 0 0 0 0-1.08h-9.92ZM8.136 22.637a.54.54 0 0 0 0 1.08h9.919a.54.54 0 0 0 0-1.08h-9.92ZM13.64 6.148v6.532l5.689 3.263c1.639-3.423.182-7.516-3.261-9.145a6.96 6.96 0 0 0-2.429-.65Z"/><path fill="#006" d="M12.552 6.148v7.153l6.233 3.578c-2.161 3.123-6.459 3.912-9.6 1.764-3.143-2.148-3.94-6.418-1.78-9.54a6.919 6.919 0 0 1 5.147-2.955ZM33.753 14.67l-2.37-3.732a1.09 1.09 0 0 0-1.753-.114l-3.057 3.66-.841-.693 3.062-3.658a2.184 2.184 0 0 1 3.511.228l2.37 3.73a1.086 1.086 0 0 0 1.787.072l3.516-4.667-.522-.389 1.987-.658-.076 2.085-.519-.389-3.515 4.663a2.18 2.18 0 0 1-3.041.439 2.178 2.178 0 0 1-.535-.578h-.004ZM38.95 14.371h2.072v9.798H38.95v-9.798ZM34.148 24.168v-5.574h2.076v5.574h-2.076Z"/><path fill="#006" d="M29.345 24.168V13.133h2.077v11.035h-2.077ZM26.62 24.167h-2.073v-7.925h2.072v7.925Z"/></svg>