<svg xmlns="http://www.w3.org/2000/svg" width="43" height="52" fill="none"><path fill="#006" fill-rule="evenodd" d="M21.504 32.344c-3.763 0-6.81-3.044-6.81-6.835a6.805 6.805 0 0 1 6.81-6.806c3.763 0 6.84 3.045 6.84 6.806 0 3.79-3.077 6.835-6.84 6.835Zm0-12.298a5.467 5.467 0 0 0-5.466 5.463 5.467 5.467 0 0 0 10.932 0 5.467 5.467 0 0 0-5.466-5.463Z" clip-rule="evenodd"/><mask id="a" width="23" height="41" x="0" y="3" maskUnits="userSpaceOnUse" style="mask-type:luminance"><path fill="#fff" d="M0 3.871h22.34v39.541H0V3.872Z"/></mask><g mask="url(#a)"><path fill="#006" fill-rule="evenodd" d="M9.767 43.387a.6.6 0 0 1-.388-.12C3.525 39.237 0 32.611 0 25.507 0 13.657 9.647 4.016 21.504 4.016c.389 0 .687.298.687.686a.676.676 0 0 1-.687.687c-11.08 0-20.13 9.044-20.13 20.118a20.135 20.135 0 0 0 8.78 16.626c.3.21.39.656.18.955-.15.18-.358.299-.567.299Z" clip-rule="evenodd"/></g><mask id="b" width="8" height="10" x="20" y="0" maskUnits="userSpaceOnUse" style="mask-type:luminance"><path fill="#fff" d="M20.652 0h7.309v9.491h-7.309V0Z"/></mask><g mask="url(#b)"><path fill="#006" fill-rule="evenodd" d="M21.504 9.364c-.09 0-.209-.03-.299-.06a.696.696 0 0 1-.388-.626V.738c0-.269.15-.478.388-.597a.69.69 0 0 1 .718.03l5.644 3.97c.18.149.269.357.269.567 0 .238-.09.447-.269.567l-5.644 3.97a.69.69 0 0 1-.419.12Zm.687-7.313v5.313l3.793-2.656-3.793-2.657Z" clip-rule="evenodd"/></g><mask id="c" width="24" height="41" x="20" y="7" maskUnits="userSpaceOnUse" style="mask-type:luminance"><path fill="#fff" d="M20.653 7.61h22.355v39.54H20.653V7.61Z"/></mask><g mask="url(#c)"><path fill="#006" fill-rule="evenodd" d="M21.504 47c-.358 0-.687-.298-.687-.656 0-.388.33-.687.687-.687 11.11 0 20.16-9.044 20.16-20.148a20.084 20.084 0 0 0-8.78-16.597.685.685 0 0 1-.18-.955c.21-.328.627-.388.956-.179a21.493 21.493 0 0 1 9.348 17.73C43.008 37.359 33.361 47 21.504 47Z" clip-rule="evenodd"/></g><mask id="d" width="8" height="11" x="15" y="41" maskUnits="userSpaceOnUse" style="mask-type:luminance"><path fill="#fff" d="M15.03 41.54h7.31v9.482h-7.31v-9.483Z"/></mask><g mask="url(#d)"><path fill="#006" fill-rule="evenodd" d="M21.504 51.003a.704.704 0 0 1-.388-.15l-5.645-3.97a.667.667 0 0 1-.299-.537.68.68 0 0 1 .299-.567l5.645-3.97c.209-.149.478-.179.716-.06.21.12.359.359.359.598v7.97c0 .238-.15.477-.359.596a.604.604 0 0 1-.328.09Zm-4.45-4.657 3.763 2.657V43.69l-3.763 2.656Z" clip-rule="evenodd"/></g><path fill="#006" fill-rule="evenodd" d="M23.625 40.047h-4.212a.703.703 0 0 1-.686-.567l-.747-4.627a9.935 9.935 0 0 1-2.777-1.612l-4.391 1.672c-.299.12-.657-.03-.836-.298l-2.09-3.642a.686.686 0 0 1 .149-.895l3.643-2.956a9.545 9.545 0 0 1-.15-1.612c0-.537.06-1.074.15-1.612l-3.643-2.955a.648.648 0 0 1-.15-.865l2.091-3.642a.686.686 0 0 1 .836-.298l4.39 1.671a9.935 9.935 0 0 1 2.778-1.611l.747-4.628a.703.703 0 0 1 .686-.566h4.212c.328 0 .627.239.657.566l.747 4.628c1.015.388 1.971.925 2.807 1.611l4.36-1.671c.33-.12.687 0 .837.298l2.12 3.642c.15.298.09.657-.18.865l-3.613 2.955c.09.538.12 1.075.12 1.612a9.71 9.71 0 0 1-.12 1.612l3.614 2.956c.269.208.329.596.18.895l-2.121 3.642c-.15.268-.508.388-.836.268l-4.361-1.642a10.096 10.096 0 0 1-2.807 1.612l-.747 4.627c-.03.328-.329.567-.657.567Zm-3.644-1.373h3.046l.717-4.447c.06-.24.24-.448.478-.538a8.362 8.362 0 0 0 3.017-1.76c.179-.15.448-.21.686-.12l4.242 1.612 1.493-2.627-3.495-2.866a.67.67 0 0 1-.208-.656c.089-.568.149-1.165.149-1.762 0-.567-.06-1.164-.15-1.73a.723.723 0 0 1 .21-.687l3.494-2.836-1.493-2.627-4.242 1.612a.65.65 0 0 1-.686-.15c-.896-.775-1.912-1.372-3.017-1.73a.784.784 0 0 1-.478-.538l-.717-4.448h-3.046l-.717 4.448a.683.683 0 0 1-.448.537 8.216 8.216 0 0 0-3.016 1.732c-.21.18-.478.238-.717.15l-4.211-1.613-1.523 2.627 3.494 2.836c.209.179.298.418.239.686a8.61 8.61 0 0 0 0 3.492.628.628 0 0 1-.24.657L9.35 30.794l1.523 2.627 4.21-1.612c.24-.09.509-.03.718.12a7.89 7.89 0 0 0 3.016 1.76c.24.09.419.298.448.538l.717 4.447Z" clip-rule="evenodd"/></svg>