<svg width="142" height="142" fill="none" xmlns="http://www.w3.org/2000/svg"><g filter="url(#a)"><circle cx="67" cy="68" r="59" fill="#152968"/></g><path d="M40.288 70.693c0-.646-.519-1.17-1.161-1.17h-12.35c-.642 0-1.161.524-1.161 1.17 0 .646.52 1.17 1.16 1.17h12.35c.643 0 1.162-.524 1.162-1.17ZM39.127 51.004h-12.35c-.642 0-1.161.523-1.161 1.17 0 .646.52 1.17 1.16 1.17h12.35c.643 0 1.162-.524 1.162-1.17 0-.647-.519-1.17-1.161-1.17Z" fill="#fff"/><mask id="b" style="mask-type:luminance" maskUnits="userSpaceOnUse" x="18" y="60" width="18" height="3"><path d="M18 60.063h17.64v2.645H18v-2.645Z" fill="#fff"/></mask><g mask="url(#b)"><path d="M19.162 62.61h15.29c.642 0 1.161-.524 1.161-1.17 0-.647-.519-1.17-1.16-1.17H19.162c-.643 0-1.162.523-1.162 1.17 0 .646.52 1.17 1.162 1.17Z" fill="#fff"/></g><path d="M94.007 89.098a2.375 2.375 0 0 0-2.367 2.384 2.375 2.375 0 0 0 2.367 2.385 2.375 2.375 0 0 0 2.367-2.385 2.376 2.376 0 0 0-2.367-2.384ZM49.834 89.098a2.375 2.375 0 0 0-2.367 2.384 2.375 2.375 0 0 0 2.367 2.385 2.375 2.375 0 0 0 2.365-2.385 2.375 2.375 0 0 0-2.365-2.384ZM98.862 75.15H85.724V61.91h4.543l8.595 8.663v4.577Zm-15.46-15.58v17.92h17.782v-7.886L91.228 59.57h-7.826Z" fill="#fff"/><mask id="c" style="mask-type:luminance" maskUnits="userSpaceOnUse" x="36" y="41" width="71" height="59"><path d="M36.806 41H107v58.81H36.806V41Z" fill="#fff"/></mask><g mask="url(#c)"><path d="M104.678 89.185c0 .606-.489 1.1-1.09 1.1h-1.416c-.581-4.021-4.015-7.122-8.164-7.122-4.15 0-7.584 3.101-8.165 7.122H57.997c-.58-4.021-4.014-7.122-8.163-7.122-4.148 0-7.581 3.1-8.163 7.12a2.54 2.54 0 0 1-2.508-2.547v-6.24h40.703V56.059h8.715c2.68 0 5.2 1.051 7.095 2.962l6.064 6.109a10.088 10.088 0 0 1 2.938 7.15v16.905Zm-10.67 8.287c-3.275 0-5.94-2.684-5.94-5.985 0-3.3 2.665-5.984 5.94-5.984 3.274 0 5.938 2.684 5.938 5.984s-2.664 5.985-5.938 5.985Zm-44.174 0c-3.275 0-5.938-2.684-5.938-5.985 0-3.3 2.663-5.984 5.938-5.984 3.274 0 5.938 2.684 5.938 5.984s-2.664 5.985-5.938 5.985Zm47.485-40.106a12.226 12.226 0 0 0-8.738-3.646h-8.715v-9.018c0-2.042-1.647-3.702-3.673-3.702h-35.68c-2.025 0-3.672 1.66-3.672 3.702v3.267c0 .646.52 1.17 1.16 1.17.643 0 1.162-.524 1.162-1.17v-3.267c0-.751.605-1.362 1.35-1.362h35.68c.745 0 1.352.61 1.352 1.361v34.455H39.163v-3.673c0-.646-.52-1.17-1.162-1.17-.64 0-1.16.524-1.16 1.17v12.253c0 2.684 2.16 4.868 4.819 4.885.552 4.054 4.002 7.19 8.174 7.19 4.171 0 7.621-3.134 8.175-7.187h27.825c.553 4.053 4.002 7.188 8.174 7.188s7.62-3.135 8.174-7.188h1.406c1.882 0 3.413-1.542 3.413-3.44V72.28a12.42 12.42 0 0 0-3.62-8.805l-6.062-6.109Z" fill="#fff"/></g><defs><filter id="a" x=".6" y=".6" width="140.8" height="140.8" filterUnits="userSpaceOnUse" color-interpolation-filters="sRGB"><feFlood flood-opacity="0" result="BackgroundImageFix"/><feColorMatrix in="SourceAlpha" values="0 0 0 0 0 0 0 0 0 0 0 0 0 0 0 0 0 0 127 0" result="hardAlpha"/><feOffset dx="4" dy="3"/><feGaussianBlur stdDeviation="5.7"/><feComposite in2="hardAlpha" operator="out"/><feColorMatrix values="0 0 0 0 0.128333 0 0 0 0 0.119778 0 0 0 0 0.119778 0 0 0 0.25 0"/><feBlend in2="BackgroundImageFix" result="effect1_dropShadow_5335_2976"/><feBlend in="SourceGraphic" in2="effect1_dropShadow_5335_2976" result="shape"/></filter></defs></svg>