<svg width="947" height="191" viewBox="0 0 947 191" fill="none" xmlns="http://www.w3.org/2000/svg">
<g filter="url(#filter0_d_5176_2045)">
<rect x="11" y="9" width="927" height="171.118" rx="6.73692" fill="#FCFCFC"/>
</g>
<path d="M230.782 85.5769C227.635 85.5769 224.509 85.1673 221.405 84.3481C218.343 83.4857 215.713 82.2785 213.514 80.7263L217.654 72.7067C219.378 73.957 221.362 74.9487 223.604 75.6817C225.889 76.4147 228.195 76.7812 230.524 76.7812C233.154 76.7812 235.223 76.2638 236.733 75.229C238.242 74.1942 238.996 72.7498 238.996 70.8958C238.996 69.7316 238.694 68.6968 238.091 67.7914C237.487 66.886 236.409 66.1961 234.857 65.7218C233.348 65.2475 231.214 65.0104 228.454 65.0104H216.877L219.206 39.5287H246.822V47.9364H222.957L228.39 43.1504L226.773 61.324L221.34 56.5381H230.912C235.396 56.5381 238.996 57.1632 241.712 58.4136C244.472 59.6209 246.477 61.2808 247.727 63.3935C248.978 65.5062 249.603 67.8992 249.603 70.5724C249.603 73.2456 248.934 75.7248 247.598 78.01C246.261 80.252 244.192 82.0845 241.389 83.5073C238.63 84.887 235.094 85.5769 230.782 85.5769ZM273.256 85.5769C269.548 85.5769 266.228 84.6714 263.296 82.8605C260.364 81.0065 258.057 78.3333 256.376 74.8409C254.694 71.3485 253.854 67.1231 253.854 62.1647C253.854 57.2064 254.694 52.981 256.376 49.4885C258.057 45.9961 260.364 43.3445 263.296 41.5336C266.228 39.6796 269.548 38.7526 273.256 38.7526C277.007 38.7526 280.327 39.6796 283.216 41.5336C286.148 43.3445 288.454 45.9961 290.136 49.4885C291.817 52.981 292.658 57.2064 292.658 62.1647C292.658 67.1231 291.817 71.3485 290.136 74.8409C288.454 78.3333 286.148 81.0065 283.216 82.8605C280.327 84.6714 277.007 85.5769 273.256 85.5769ZM273.256 76.7165C275.024 76.7165 276.554 76.2206 277.848 75.229C279.184 74.2373 280.219 72.6635 280.952 70.5077C281.728 68.3519 282.116 65.5709 282.116 62.1647C282.116 58.7585 281.728 55.9775 280.952 53.8217C280.219 51.6659 279.184 50.0922 277.848 49.1005C276.554 48.1088 275.024 47.613 273.256 47.613C271.531 47.613 270.001 48.1088 268.664 49.1005C267.371 50.0922 266.336 51.6659 265.56 53.8217C264.827 55.9775 264.46 58.7585 264.46 62.1647C264.46 65.5709 264.827 68.3519 265.56 70.5077C266.336 72.6635 267.371 74.2373 268.664 75.229C270.001 76.2206 271.531 76.7165 273.256 76.7165ZM317.151 85.5769C313.443 85.5769 310.123 84.6714 307.191 82.8605C304.259 81.0065 301.953 78.3333 300.271 74.8409C298.59 71.3485 297.749 67.1231 297.749 62.1647C297.749 57.2064 298.59 52.981 300.271 49.4885C301.953 45.9961 304.259 43.3445 307.191 41.5336C310.123 39.6796 313.443 38.7526 317.151 38.7526C320.902 38.7526 324.222 39.6796 327.111 41.5336C330.043 43.3445 332.35 45.9961 334.031 49.4885C335.713 52.981 336.553 57.2064 336.553 62.1647C336.553 67.1231 335.713 71.3485 334.031 74.8409C332.35 78.3333 330.043 81.0065 327.111 82.8605C324.222 84.6714 320.902 85.5769 317.151 85.5769ZM317.151 76.7165C318.919 76.7165 320.45 76.2206 321.743 75.229C323.08 74.2373 324.114 72.6635 324.847 70.5077C325.623 68.3519 326.012 65.5709 326.012 62.1647C326.012 58.7585 325.623 55.9775 324.847 53.8217C324.114 51.6659 323.08 50.0922 321.743 49.1005C320.45 48.1088 318.919 47.613 317.151 47.613C315.426 47.613 313.896 48.1088 312.559 49.1005C311.266 50.0922 310.231 51.6659 309.455 53.8217C308.722 55.9775 308.355 58.7585 308.355 62.1647C308.355 65.5709 308.722 68.3519 309.455 70.5077C310.231 72.6635 311.266 74.2373 312.559 75.229C313.896 76.2206 315.426 76.7165 317.151 76.7165ZM354.573 77.1045V47.2249H362.916V77.1045H354.573ZM343.384 66.1099V58.2196H374.169V66.1099H343.384Z" fill="#000066"/>
<path d="M211.734 118.949V103.859H213.502L223.483 116.254H222.556V103.859H224.712V118.949H222.945L212.963 106.553H213.89V118.949H211.734ZM233.735 119.079C232.758 119.079 231.895 118.899 231.148 118.54C230.415 118.18 229.84 117.634 229.423 116.901C229.021 116.154 228.82 115.22 228.82 114.099V107.523H230.889V113.861C230.889 114.983 231.155 115.823 231.687 116.384C232.233 116.944 232.995 117.225 233.972 117.225C234.691 117.225 235.316 117.081 235.848 116.793C236.379 116.492 236.789 116.06 237.076 115.5C237.364 114.925 237.508 114.235 237.508 113.43V107.523H239.577V118.949H237.615V115.866L237.939 116.686C237.565 117.447 237.005 118.037 236.257 118.453C235.51 118.87 234.669 119.079 233.735 119.079ZM257.81 107.416C258.73 107.416 259.542 107.595 260.246 107.955C260.95 108.314 261.497 108.86 261.885 109.593C262.287 110.326 262.488 111.253 262.488 112.374V118.949H260.419V112.611C260.419 111.504 260.16 110.671 259.643 110.11C259.125 109.55 258.399 109.27 257.465 109.27C256.775 109.27 256.172 109.413 255.654 109.701C255.137 109.988 254.734 110.412 254.447 110.973C254.174 111.533 254.037 112.23 254.037 113.064V118.949H251.968V112.611C251.968 111.504 251.709 110.671 251.192 110.11C250.689 109.55 249.963 109.27 249.014 109.27C248.339 109.27 247.742 109.413 247.225 109.701C246.708 109.988 246.305 110.412 246.018 110.973C245.73 111.533 245.587 112.23 245.587 113.064V118.949H243.517V107.523H245.5V110.563L245.177 109.787C245.536 109.04 246.09 108.458 246.837 108.041C247.584 107.624 248.454 107.416 249.446 107.416C250.538 107.416 251.479 107.689 252.27 108.235C253.06 108.767 253.578 109.579 253.822 110.671L252.981 110.326C253.326 109.449 253.93 108.745 254.792 108.213C255.654 107.681 256.66 107.416 257.81 107.416ZM272.354 119.079C271.377 119.079 270.493 118.863 269.702 118.432C268.926 117.986 268.308 117.332 267.848 116.47C267.403 115.608 267.18 114.53 267.18 113.236C267.18 111.943 267.41 110.865 267.87 110.003C268.344 109.14 268.969 108.494 269.746 108.062C270.536 107.631 271.406 107.416 272.354 107.416C273.475 107.416 274.467 107.66 275.329 108.149C276.191 108.637 276.874 109.32 277.377 110.197C277.88 111.059 278.132 112.072 278.132 113.236C278.132 114.4 277.88 115.421 277.377 116.298C276.874 117.174 276.191 117.857 275.329 118.346C274.467 118.834 273.475 119.079 272.354 119.079ZM266.296 118.949V102.953H268.366V110.563L268.15 113.215L268.28 115.866V118.949H266.296ZM272.182 117.268C272.915 117.268 273.569 117.102 274.143 116.772C274.733 116.441 275.193 115.974 275.523 115.371C275.868 114.753 276.041 114.041 276.041 113.236C276.041 112.417 275.868 111.713 275.523 111.124C275.193 110.52 274.733 110.053 274.143 109.722C273.569 109.392 272.915 109.226 272.182 109.226C271.463 109.226 270.809 109.392 270.22 109.722C269.645 110.053 269.185 110.52 268.84 111.124C268.51 111.713 268.344 112.417 268.344 113.236C268.344 114.041 268.51 114.753 268.84 115.371C269.185 115.974 269.645 116.441 270.22 116.772C270.809 117.102 271.463 117.268 272.182 117.268ZM286.079 119.079C284.857 119.079 283.779 118.827 282.845 118.324C281.925 117.821 281.207 117.131 280.689 116.254C280.186 115.378 279.935 114.372 279.935 113.236C279.935 112.101 280.179 111.095 280.668 110.218C281.171 109.341 281.854 108.659 282.716 108.17C283.593 107.667 284.577 107.416 285.669 107.416C286.776 107.416 287.753 107.66 288.601 108.149C289.449 108.637 290.11 109.327 290.585 110.218C291.073 111.095 291.318 112.122 291.318 113.301C291.318 113.387 291.31 113.488 291.296 113.603C291.296 113.718 291.289 113.826 291.274 113.926H281.552V112.439H290.197L289.356 112.956C289.37 112.223 289.219 111.569 288.903 110.994C288.587 110.419 288.148 109.974 287.588 109.658C287.042 109.327 286.402 109.162 285.669 109.162C284.951 109.162 284.311 109.327 283.751 109.658C283.19 109.974 282.752 110.427 282.436 111.016C282.119 111.591 281.961 112.252 281.961 112.999V113.344C281.961 114.106 282.134 114.788 282.479 115.392C282.838 115.981 283.334 116.441 283.966 116.772C284.599 117.102 285.324 117.268 286.144 117.268C286.819 117.268 287.43 117.153 287.976 116.923C288.537 116.693 289.025 116.348 289.442 115.888L290.585 117.225C290.067 117.828 289.42 118.288 288.644 118.604C287.883 118.92 287.027 119.079 286.079 119.079ZM294.191 118.949V107.523H296.175V110.628L295.981 109.852C296.297 109.061 296.829 108.458 297.576 108.041C298.323 107.624 299.243 107.416 300.335 107.416V109.421C300.249 109.406 300.163 109.399 300.077 109.399C300.005 109.399 299.933 109.399 299.861 109.399C298.754 109.399 297.878 109.73 297.231 110.391C296.584 111.052 296.261 112.007 296.261 113.258V118.949H294.191ZM313.717 119.079C312.567 119.079 311.547 118.827 310.656 118.324C309.764 117.821 309.06 117.131 308.543 116.254C308.025 115.363 307.767 114.357 307.767 113.236C307.767 112.101 308.025 111.095 308.543 110.218C309.06 109.341 309.764 108.659 310.656 108.17C311.547 107.667 312.567 107.416 313.717 107.416C314.852 107.416 315.865 107.667 316.756 108.17C317.662 108.659 318.366 109.341 318.869 110.218C319.387 111.08 319.645 112.087 319.645 113.236C319.645 114.372 319.387 115.378 318.869 116.254C318.366 117.131 317.662 117.821 316.756 118.324C315.865 118.827 314.852 119.079 313.717 119.079ZM313.717 117.268C314.45 117.268 315.104 117.102 315.679 116.772C316.268 116.441 316.728 115.974 317.058 115.371C317.389 114.753 317.554 114.041 317.554 113.236C317.554 112.417 317.389 111.713 317.058 111.124C316.728 110.52 316.268 110.053 315.679 109.722C315.104 109.392 314.45 109.226 313.717 109.226C312.984 109.226 312.33 109.392 311.755 109.722C311.18 110.053 310.72 110.52 310.375 111.124C310.03 111.713 309.858 112.417 309.858 113.236C309.858 114.041 310.03 114.753 310.375 115.371C310.72 115.974 311.18 116.441 311.755 116.772C312.33 117.102 312.984 117.268 313.717 117.268ZM322.809 118.949V106.51C322.809 105.389 323.133 104.498 323.779 103.837C324.44 103.161 325.375 102.824 326.582 102.824C327.027 102.824 327.451 102.881 327.854 102.996C328.271 103.097 328.623 103.262 328.91 103.492L328.285 105.066C328.069 104.893 327.825 104.764 327.552 104.678C327.279 104.577 326.992 104.527 326.69 104.527C326.086 104.527 325.626 104.699 325.31 105.044C324.994 105.375 324.836 105.871 324.836 106.532V108.062L324.879 109.011V118.949H322.809ZM320.869 109.226V107.523H328.156V109.226H320.869ZM218.482 145.122C217.332 145.122 216.269 144.935 215.291 144.561C214.328 144.173 213.488 143.634 212.769 142.944C212.065 142.24 211.512 141.421 211.109 140.487C210.707 139.552 210.505 138.525 210.505 137.404C210.505 136.283 210.707 135.255 211.109 134.321C211.512 133.387 212.072 132.575 212.791 131.885C213.509 131.181 214.35 130.642 215.313 130.268C216.29 129.88 217.354 129.686 218.504 129.686C219.668 129.686 220.738 129.887 221.716 130.29C222.707 130.678 223.548 131.26 224.238 132.036L222.837 133.394C222.262 132.79 221.615 132.345 220.897 132.057C220.178 131.756 219.409 131.605 218.59 131.605C217.742 131.605 216.951 131.748 216.218 132.036C215.5 132.323 214.875 132.726 214.343 133.243C213.811 133.761 213.394 134.379 213.092 135.097C212.805 135.801 212.661 136.57 212.661 137.404C212.661 138.237 212.805 139.014 213.092 139.732C213.394 140.436 213.811 141.047 214.343 141.565C214.875 142.082 215.5 142.484 216.218 142.772C216.951 143.059 217.742 143.203 218.59 143.203C219.409 143.203 220.178 143.059 220.897 142.772C221.615 142.47 222.262 142.01 222.837 141.392L224.238 142.75C223.548 143.526 222.707 144.116 221.716 144.518C220.738 144.92 219.661 145.122 218.482 145.122ZM231.461 145.079C230.484 145.079 229.622 144.899 228.874 144.54C228.141 144.18 227.566 143.634 227.15 142.901C226.747 142.154 226.546 141.22 226.546 140.099V133.523H228.616V139.861C228.616 140.983 228.881 141.823 229.413 142.384C229.959 142.944 230.721 143.225 231.698 143.225C232.417 143.225 233.042 143.081 233.574 142.793C234.106 142.492 234.515 142.06 234.803 141.5C235.09 140.925 235.234 140.235 235.234 139.43V133.523H237.303V144.949H235.342V141.866L235.665 142.686C235.291 143.447 234.731 144.037 233.983 144.453C233.236 144.87 232.395 145.079 231.461 145.079ZM244.52 145.079C243.572 145.079 242.666 144.949 241.804 144.691C240.956 144.432 240.288 144.116 239.799 143.742L240.661 142.104C241.15 142.434 241.754 142.714 242.472 142.944C243.191 143.174 243.924 143.289 244.671 143.289C245.634 143.289 246.324 143.153 246.741 142.88C247.172 142.607 247.387 142.226 247.387 141.737C247.387 141.378 247.258 141.097 246.999 140.896C246.741 140.695 246.396 140.544 245.965 140.444C245.548 140.343 245.081 140.257 244.563 140.185C244.046 140.099 243.529 139.998 243.011 139.883C242.494 139.754 242.019 139.581 241.588 139.366C241.157 139.136 240.812 138.827 240.553 138.439C240.295 138.036 240.165 137.504 240.165 136.843C240.165 136.153 240.359 135.55 240.748 135.032C241.136 134.515 241.682 134.12 242.386 133.847C243.105 133.559 243.952 133.416 244.93 133.416C245.677 133.416 246.432 133.509 247.193 133.696C247.969 133.868 248.602 134.12 249.091 134.45L248.207 136.089C247.689 135.744 247.15 135.507 246.59 135.377C246.029 135.248 245.469 135.183 244.908 135.183C244.003 135.183 243.327 135.334 242.882 135.636C242.436 135.924 242.213 136.297 242.213 136.757C242.213 137.145 242.343 137.447 242.602 137.663C242.875 137.864 243.22 138.022 243.636 138.137C244.067 138.252 244.542 138.352 245.059 138.439C245.577 138.511 246.094 138.611 246.611 138.74C247.129 138.855 247.596 139.021 248.013 139.236C248.444 139.452 248.789 139.754 249.047 140.142C249.32 140.53 249.457 141.047 249.457 141.694C249.457 142.384 249.256 142.98 248.853 143.483C248.451 143.986 247.883 144.382 247.15 144.669C246.417 144.942 245.541 145.079 244.52 145.079ZM255.967 145.079C254.817 145.079 253.926 144.77 253.294 144.152C252.661 143.534 252.345 142.65 252.345 141.5V131.023H254.415V141.414C254.415 142.032 254.566 142.506 254.868 142.837C255.184 143.167 255.629 143.332 256.204 143.332C256.851 143.332 257.39 143.153 257.821 142.793L258.468 144.281C258.152 144.554 257.771 144.755 257.325 144.885C256.894 145.014 256.441 145.079 255.967 145.079ZM250.405 135.226V133.523H257.692V135.226H250.405ZM265.485 145.079C264.335 145.079 263.314 144.827 262.423 144.324C261.532 143.821 260.828 143.131 260.311 142.254C259.793 141.363 259.535 140.357 259.535 139.236C259.535 138.101 259.793 137.095 260.311 136.218C260.828 135.341 261.532 134.659 262.423 134.17C263.314 133.667 264.335 133.416 265.485 133.416C266.62 133.416 267.633 133.667 268.524 134.17C269.43 134.659 270.134 135.341 270.637 136.218C271.154 137.08 271.413 138.087 271.413 139.236C271.413 140.372 271.154 141.378 270.637 142.254C270.134 143.131 269.43 143.821 268.524 144.324C267.633 144.827 266.62 145.079 265.485 145.079ZM265.485 143.268C266.218 143.268 266.872 143.102 267.446 142.772C268.036 142.441 268.496 141.974 268.826 141.371C269.157 140.753 269.322 140.041 269.322 139.236C269.322 138.417 269.157 137.713 268.826 137.124C268.496 136.52 268.036 136.053 267.446 135.722C266.872 135.392 266.218 135.226 265.485 135.226C264.752 135.226 264.098 135.392 263.523 135.722C262.948 136.053 262.488 136.52 262.143 137.124C261.798 137.713 261.626 138.417 261.626 139.236C261.626 140.041 261.798 140.753 262.143 141.371C262.488 141.974 262.948 142.441 263.523 142.772C264.098 143.102 264.752 143.268 265.485 143.268ZM288.568 133.416C289.488 133.416 290.3 133.595 291.004 133.955C291.709 134.314 292.255 134.86 292.643 135.593C293.045 136.326 293.246 137.253 293.246 138.374V144.949H291.177V138.611C291.177 137.504 290.918 136.671 290.401 136.11C289.883 135.55 289.158 135.27 288.223 135.27C287.534 135.27 286.93 135.413 286.413 135.701C285.895 135.988 285.493 136.412 285.205 136.973C284.932 137.533 284.796 138.23 284.796 139.064V144.949H282.726V138.611C282.726 137.504 282.467 136.671 281.95 136.11C281.447 135.55 280.721 135.27 279.773 135.27C279.097 135.27 278.501 135.413 277.983 135.701C277.466 135.988 277.063 136.412 276.776 136.973C276.489 137.533 276.345 138.23 276.345 139.064V144.949H274.275V133.523H276.259V136.563L275.935 135.787C276.295 135.04 276.848 134.458 277.595 134.041C278.343 133.624 279.212 133.416 280.204 133.416C281.296 133.416 282.237 133.689 283.028 134.235C283.818 134.767 284.336 135.579 284.58 136.671L283.739 136.326C284.084 135.449 284.688 134.745 285.55 134.213C286.413 133.681 287.419 133.416 288.568 133.416ZM302.142 145.079C300.921 145.079 299.843 144.827 298.909 144.324C297.989 143.821 297.27 143.131 296.753 142.254C296.25 141.378 295.998 140.372 295.998 139.236C295.998 138.101 296.242 137.095 296.731 136.218C297.234 135.341 297.917 134.659 298.779 134.17C299.656 133.667 300.64 133.416 301.733 133.416C302.839 133.416 303.817 133.66 304.665 134.149C305.512 134.637 306.174 135.327 306.648 136.218C307.137 137.095 307.381 138.122 307.381 139.301C307.381 139.387 307.374 139.488 307.359 139.603C307.359 139.718 307.352 139.826 307.338 139.926H297.615V138.439H306.26L305.419 138.956C305.433 138.223 305.283 137.569 304.966 136.994C304.65 136.419 304.212 135.974 303.651 135.658C303.105 135.327 302.466 135.162 301.733 135.162C301.014 135.162 300.374 135.327 299.814 135.658C299.253 135.974 298.815 136.427 298.499 137.016C298.183 137.591 298.025 138.252 298.025 138.999V139.344C298.025 140.106 298.197 140.788 298.542 141.392C298.901 141.981 299.397 142.441 300.03 142.772C300.662 143.102 301.388 143.268 302.207 143.268C302.882 143.268 303.493 143.153 304.039 142.923C304.6 142.693 305.089 142.348 305.505 141.888L306.648 143.225C306.13 143.828 305.484 144.288 304.708 144.604C303.946 144.92 303.091 145.079 302.142 145.079ZM310.255 144.949V133.523H312.238V136.628L312.044 135.852C312.36 135.061 312.892 134.458 313.639 134.041C314.387 133.624 315.306 133.416 316.399 133.416V135.421C316.313 135.406 316.226 135.399 316.14 135.399C316.068 135.399 315.996 135.399 315.924 135.399C314.818 135.399 313.941 135.73 313.294 136.391C312.648 137.052 312.324 138.007 312.324 139.258V144.949H310.255ZM322.353 145.079C321.404 145.079 320.499 144.949 319.636 144.691C318.788 144.432 318.12 144.116 317.631 143.742L318.494 142.104C318.982 142.434 319.586 142.714 320.305 142.944C321.023 143.174 321.756 143.289 322.504 143.289C323.467 143.289 324.156 143.153 324.573 142.88C325.004 142.607 325.22 142.226 325.22 141.737C325.22 141.378 325.091 141.097 324.832 140.896C324.573 140.695 324.228 140.544 323.797 140.444C323.38 140.343 322.913 140.257 322.396 140.185C321.878 140.099 321.361 139.998 320.844 139.883C320.326 139.754 319.852 139.581 319.421 139.366C318.99 139.136 318.645 138.827 318.386 138.439C318.127 138.036 317.998 137.504 317.998 136.843C317.998 136.153 318.192 135.55 318.58 135.032C318.968 134.515 319.514 134.12 320.218 133.847C320.937 133.559 321.785 133.416 322.762 133.416C323.51 133.416 324.264 133.509 325.026 133.696C325.802 133.868 326.434 134.12 326.923 134.45L326.039 136.089C325.522 135.744 324.983 135.507 324.422 135.377C323.862 135.248 323.301 135.183 322.741 135.183C321.835 135.183 321.16 135.334 320.714 135.636C320.269 135.924 320.046 136.297 320.046 136.757C320.046 137.145 320.175 137.447 320.434 137.663C320.707 137.864 321.052 138.022 321.469 138.137C321.9 138.252 322.374 138.352 322.892 138.439C323.409 138.511 323.926 138.611 324.444 138.74C324.961 138.855 325.428 139.021 325.845 139.236C326.276 139.452 326.621 139.754 326.88 140.142C327.153 140.53 327.289 141.047 327.289 141.694C327.289 142.384 327.088 142.98 326.686 143.483C326.283 143.986 325.716 144.382 324.983 144.669C324.25 144.942 323.373 145.079 322.353 145.079ZM340.365 145.122C339.215 145.122 338.116 144.949 337.067 144.604C336.018 144.245 335.191 143.785 334.588 143.225L335.385 141.543C335.96 142.046 336.693 142.463 337.584 142.793C338.475 143.124 339.402 143.289 340.365 143.289C341.242 143.289 341.953 143.189 342.499 142.987C343.046 142.786 343.448 142.513 343.707 142.168C343.965 141.809 344.095 141.406 344.095 140.961C344.095 140.444 343.922 140.027 343.577 139.711C343.247 139.394 342.808 139.143 342.262 138.956C341.731 138.755 341.141 138.582 340.495 138.439C339.848 138.295 339.194 138.13 338.533 137.943C337.886 137.742 337.29 137.49 336.743 137.188C336.212 136.886 335.78 136.484 335.45 135.981C335.119 135.464 334.954 134.803 334.954 133.998C334.954 133.222 335.155 132.51 335.558 131.863C335.974 131.202 336.607 130.678 337.455 130.29C338.317 129.887 339.409 129.686 340.732 129.686C341.608 129.686 342.478 129.801 343.34 130.031C344.203 130.261 344.95 130.591 345.582 131.023L344.871 132.747C344.224 132.316 343.541 132.007 342.823 131.82C342.104 131.619 341.407 131.518 340.732 131.518C339.884 131.518 339.187 131.626 338.641 131.842C338.094 132.057 337.692 132.345 337.433 132.704C337.189 133.063 337.067 133.466 337.067 133.911C337.067 134.443 337.232 134.867 337.563 135.183C337.908 135.5 338.346 135.751 338.878 135.938C339.424 136.125 340.02 136.297 340.667 136.455C341.314 136.599 341.96 136.764 342.607 136.951C343.268 137.138 343.865 137.382 344.397 137.684C344.943 137.986 345.381 138.388 345.712 138.891C346.042 139.394 346.207 140.041 346.207 140.832C346.207 141.593 345.999 142.305 345.582 142.966C345.165 143.613 344.519 144.137 343.642 144.54C342.78 144.928 341.687 145.122 340.365 145.122ZM354.143 145.079C352.921 145.079 351.843 144.827 350.909 144.324C349.989 143.821 349.271 143.131 348.753 142.254C348.25 141.378 347.999 140.372 347.999 139.236C347.999 138.101 348.243 137.095 348.732 136.218C349.235 135.341 349.917 134.659 350.78 134.17C351.656 133.667 352.641 133.416 353.733 133.416C354.84 133.416 355.817 133.66 356.665 134.149C357.513 134.637 358.174 135.327 358.648 136.218C359.137 137.095 359.381 138.122 359.381 139.301C359.381 139.387 359.374 139.488 359.36 139.603C359.36 139.718 359.353 139.826 359.338 139.926H349.616V138.439H358.26L357.42 138.956C357.434 138.223 357.283 137.569 356.967 136.994C356.651 136.419 356.212 135.974 355.652 135.658C355.106 135.327 354.466 135.162 353.733 135.162C353.015 135.162 352.375 135.327 351.815 135.658C351.254 135.974 350.816 136.427 350.5 137.016C350.183 137.591 350.025 138.252 350.025 138.999V139.344C350.025 140.106 350.198 140.788 350.543 141.392C350.902 141.981 351.398 142.441 352.03 142.772C352.663 143.102 353.388 143.268 354.208 143.268C354.883 143.268 355.494 143.153 356.04 142.923C356.6 142.693 357.089 142.348 357.506 141.888L358.648 143.225C358.131 143.828 357.484 144.288 356.708 144.604C355.947 144.92 355.091 145.079 354.143 145.079ZM362.255 144.949V133.523H364.239V136.628L364.045 135.852C364.361 135.061 364.893 134.458 365.64 134.041C366.387 133.624 367.307 133.416 368.399 133.416V135.421C368.313 135.406 368.227 135.399 368.141 135.399C368.069 135.399 367.997 135.399 367.925 135.399C366.818 135.399 365.942 135.73 365.295 136.391C364.648 137.052 364.325 138.007 364.325 139.258V144.949H362.255ZM374.41 144.949L369.408 133.523H371.564L376.005 143.871H374.97L379.498 133.523H381.524L376.523 144.949H374.41ZM388.227 145.079C387.006 145.079 385.928 144.827 384.994 144.324C384.074 143.821 383.355 143.131 382.838 142.254C382.335 141.378 382.083 140.372 382.083 139.236C382.083 138.101 382.328 137.095 382.816 136.218C383.319 135.341 384.002 134.659 384.864 134.17C385.741 133.667 386.726 133.416 387.818 133.416C388.924 133.416 389.902 133.66 390.75 134.149C391.598 134.637 392.259 135.327 392.733 136.218C393.222 137.095 393.466 138.122 393.466 139.301C393.466 139.387 393.459 139.488 393.444 139.603C393.444 139.718 393.437 139.826 393.423 139.926H383.7V138.439H392.345L391.504 138.956C391.519 138.223 391.368 137.569 391.052 136.994C390.735 136.419 390.297 135.974 389.736 135.658C389.19 135.327 388.551 135.162 387.818 135.162C387.099 135.162 386.46 135.327 385.899 135.658C385.339 135.974 384.9 136.427 384.584 137.016C384.268 137.591 384.11 138.252 384.11 138.999V139.344C384.11 140.106 384.282 140.788 384.627 141.392C384.987 141.981 385.482 142.441 386.115 142.772C386.747 143.102 387.473 143.268 388.292 143.268C388.968 143.268 389.578 143.153 390.125 142.923C390.685 142.693 391.174 142.348 391.59 141.888L392.733 143.225C392.216 143.828 391.569 144.288 390.793 144.604C390.031 144.92 389.176 145.079 388.227 145.079ZM401.061 145.079C399.954 145.079 398.963 144.834 398.086 144.346C397.224 143.857 396.541 143.174 396.038 142.298C395.535 141.421 395.284 140.4 395.284 139.236C395.284 138.072 395.535 137.059 396.038 136.197C396.541 135.32 397.224 134.637 398.086 134.149C398.963 133.66 399.954 133.416 401.061 133.416C402.024 133.416 402.894 133.631 403.67 134.062C404.446 134.494 405.064 135.14 405.524 136.003C405.998 136.865 406.235 137.943 406.235 139.236C406.235 140.53 406.005 141.608 405.545 142.47C405.1 143.332 404.489 143.986 403.713 144.432C402.937 144.863 402.053 145.079 401.061 145.079ZM401.234 143.268C401.952 143.268 402.599 143.102 403.174 142.772C403.763 142.441 404.223 141.974 404.554 141.371C404.898 140.753 405.071 140.041 405.071 139.236C405.071 138.417 404.898 137.713 404.554 137.124C404.223 136.52 403.763 136.053 403.174 135.722C402.599 135.392 401.952 135.226 401.234 135.226C400.501 135.226 399.847 135.392 399.272 135.722C398.697 136.053 398.237 136.52 397.892 137.124C397.547 137.713 397.375 138.417 397.375 139.236C397.375 140.041 397.547 140.753 397.892 141.371C398.237 141.974 398.697 142.441 399.272 142.772C399.847 143.102 400.501 143.268 401.234 143.268ZM405.136 144.949V141.866L405.265 139.215L405.049 136.563V128.953H407.119V144.949H405.136Z" fill="#252525"/>
<path d="M180.209 67.5021C180.209 68.0225 180.183 68.541 180.132 69.0594C180.082 69.5758 180.005 70.0902 179.904 70.6005C179.802 71.1108 179.677 71.6151 179.525 72.1132C179.375 72.6114 179.199 73.1015 179 73.5814C178.802 74.0614 178.579 74.5312 178.334 74.9909C178.089 75.4506 177.822 75.8961 177.534 76.3274C177.245 76.7608 176.935 77.178 176.605 77.581C176.277 77.9839 175.926 78.3687 175.56 78.7353C175.191 79.1038 174.806 79.4521 174.406 79.7822C174.003 80.1123 173.585 80.4221 173.154 80.7117C172.721 81.0013 172.275 81.2686 171.817 81.5137C171.358 81.7587 170.888 81.9815 170.408 82.1799C169.928 82.3784 169.44 82.5546 168.942 82.7064C168.444 82.8563 167.939 82.9819 167.431 83.0851C166.921 83.1864 166.406 83.2613 165.888 83.314C165.372 83.3646 164.853 83.3889 164.333 83.3889C163.812 83.3889 163.294 83.3646 162.777 83.314C162.259 83.2613 161.745 83.1864 161.234 83.0851C160.726 82.9819 160.222 82.8563 159.724 82.7064C159.225 82.5546 158.737 82.3784 158.257 82.1799C157.778 81.9815 157.308 81.7587 156.848 81.5137C156.39 81.2686 155.945 81.0013 155.511 80.7117C155.08 80.4221 154.663 80.1123 154.26 79.7822C153.859 79.4521 153.474 79.1038 153.106 78.7353C152.739 78.3687 152.389 77.9839 152.061 77.581C151.731 77.178 151.421 76.7608 151.131 76.3274C150.844 75.8961 150.576 75.4506 150.331 74.9909C150.086 74.5312 149.863 74.0614 149.665 73.5814C149.467 73.1015 149.29 72.6114 149.141 72.1132C148.989 71.6151 148.863 71.1108 148.762 70.6005C148.661 70.0902 148.584 69.5758 148.533 69.0594C148.482 68.541 148.456 68.0225 148.456 67.5021C148.456 66.9817 148.482 66.4612 148.533 65.9448C148.584 65.4264 148.661 64.912 148.762 64.4017C148.863 63.8914 148.989 63.3871 149.141 62.889C149.29 62.3908 149.467 61.9027 149.665 61.4208C149.863 60.9408 150.086 60.471 150.331 60.0113C150.576 59.5536 150.844 59.1061 151.131 58.6748C151.421 58.2414 151.731 57.8242 152.061 57.4212C152.389 57.0203 152.739 56.6355 153.106 56.2669C153.474 55.8984 153.859 55.55 154.26 55.22C154.663 54.8899 155.08 54.58 155.511 54.2904C155.945 54.0009 156.39 53.7335 156.848 53.4885C157.308 53.2435 157.778 53.0207 158.257 52.8223C158.737 52.6238 159.225 52.4476 159.724 52.2978C160.222 52.1459 160.726 52.0203 161.234 51.9191C161.745 51.8178 162.259 51.7409 162.777 51.6902C163.294 51.6396 163.812 51.6133 164.333 51.6133C164.853 51.6133 165.372 51.6396 165.888 51.6902C166.406 51.7409 166.921 51.8178 167.431 51.9191C167.939 52.0203 168.444 52.1459 168.942 52.2978C169.44 52.4476 169.928 52.6238 170.408 52.8223C170.888 53.0207 171.358 53.2435 171.817 53.4885C172.275 53.7335 172.721 54.0009 173.154 54.2904C173.585 54.58 174.003 54.8899 174.406 55.22C174.806 55.55 175.191 55.8984 175.56 56.2669C175.926 56.6355 176.277 57.0203 176.605 57.4212C176.935 57.8242 177.245 58.2414 177.534 58.6748C177.822 59.1061 178.089 59.5536 178.334 60.0113C178.579 60.471 178.802 60.9408 179 61.4208C179.199 61.9027 179.375 62.3908 179.525 62.889C179.677 63.3871 179.802 63.8914 179.904 64.4017C180.005 64.912 180.082 65.4264 180.132 65.9448C180.183 66.4612 180.209 66.9817 180.209 67.5021Z" fill="#000066"/>
<mask id="mask0_5176_2045" style="mask-type:luminance" maskUnits="userSpaceOnUse" x="166" y="80" width="26" height="40">
<path d="M166.277 80.8906H191.55V119.772H166.277V80.8906Z" fill="white"/>
</mask>
<g mask="url(#mask0_5176_2045)">
<path d="M185.154 81.2539C184.636 82.0396 184.077 82.793 183.476 83.5159C182.874 84.2389 182.234 84.9254 181.556 85.5775C180.877 86.2275 180.165 86.8391 179.417 87.4102C178.67 87.9812 177.892 88.5078 177.086 88.9918C176.28 89.4758 175.45 89.9132 174.594 90.304C173.739 90.6949 172.864 91.0351 171.971 91.3267C171.078 91.6203 170.171 91.8613 169.249 92.0517C168.33 92.242 167.4 92.3797 166.465 92.4668C168.057 96.8653 168.856 101.406 168.869 106.086V119.702H177.941C178.387 119.702 178.832 119.682 179.276 119.637C179.719 119.593 180.158 119.528 180.596 119.441C181.033 119.354 181.465 119.247 181.892 119.117C182.317 118.987 182.736 118.837 183.15 118.667C183.561 118.495 183.964 118.305 184.356 118.094C184.749 117.886 185.13 117.655 185.501 117.408C185.871 117.161 186.23 116.895 186.574 116.612C186.918 116.328 187.248 116.031 187.564 115.715C187.878 115.399 188.178 115.069 188.461 114.725C188.743 114.38 189.008 114.022 189.255 113.651C189.504 113.281 189.733 112.898 189.944 112.505C190.152 112.11 190.343 111.709 190.513 111.296C190.685 110.885 190.835 110.464 190.964 110.038C191.094 109.611 191.201 109.18 191.288 108.742C191.375 108.303 191.44 107.864 191.485 107.42C191.527 106.977 191.55 106.531 191.55 106.086V97.005C191.548 95.549 191.406 94.1051 191.124 92.6754C190.843 91.2477 190.43 89.8565 189.881 88.5078C189.334 87.157 188.662 85.8731 187.866 84.652C187.07 83.4329 186.167 82.2989 185.154 81.2539Z" fill="#000066"/>
</g>
<path d="M98.558 67.5021C98.558 68.0225 98.5317 68.541 98.4811 69.0594C98.4305 69.5758 98.3535 70.0902 98.2522 70.6005C98.151 71.1108 98.0254 71.6151 97.8736 72.1132C97.7237 72.6114 97.5475 73.1015 97.3491 73.5814C97.1506 74.0614 96.9278 74.5312 96.6828 74.9909C96.4378 75.4506 96.1705 75.8961 95.8829 76.3274C95.5933 76.7608 95.2835 77.178 94.9534 77.581C94.6253 77.9839 94.275 78.3687 93.9084 78.7353C93.5399 79.1038 93.1551 79.4521 92.7541 79.7822C92.3511 80.1123 91.934 80.4221 91.5026 80.7117C91.0693 81.0013 90.6237 81.2686 90.1661 81.5137C89.7064 81.7587 89.2366 81.9815 88.7566 82.1799C88.2767 82.3784 87.7886 82.5546 87.2905 82.7064C86.7923 82.8563 86.288 82.9819 85.7797 83.0851C85.2694 83.1864 84.755 83.2613 84.2366 83.314C83.7202 83.3646 83.2018 83.3889 82.6814 83.3889C82.1609 83.3889 81.6425 83.3646 81.1261 83.314C80.6077 83.2613 80.0933 83.1864 79.583 83.0851C79.0747 82.9819 78.5704 82.8563 78.0723 82.7064C77.5741 82.5546 77.086 82.3784 76.6061 82.1799C76.1262 81.9815 75.6563 81.7587 75.1966 81.5137C74.739 81.2686 74.2935 81.0013 73.8601 80.7117C73.4287 80.4221 73.0116 80.1123 72.6086 79.7822C72.2076 79.4521 71.8229 79.1038 71.4543 78.7353C71.0877 78.3687 70.7374 77.9839 70.4093 77.581C70.0793 77.178 69.7694 76.7608 69.4798 76.3274C69.1923 75.8961 68.925 75.4506 68.6799 74.9909C68.4349 74.5312 68.2121 74.0614 68.0137 73.5814C67.8152 73.1015 67.639 72.6114 67.4892 72.1132C67.3373 71.6151 67.2117 71.1108 67.1105 70.6005C67.0092 70.0902 66.9323 69.5758 66.8816 69.0594C66.831 68.541 66.8047 68.0225 66.8047 67.5021C66.8047 66.9817 66.831 66.4612 66.8816 65.9448C66.9323 65.4264 67.0092 64.912 67.1105 64.4017C67.2117 63.8914 67.3373 63.3871 67.4892 62.889C67.639 62.3908 67.8152 61.9027 68.0137 61.4208C68.2121 60.9408 68.4349 60.471 68.6799 60.0113C68.925 59.5536 69.1923 59.1061 69.4798 58.6748C69.7694 58.2414 70.0793 57.8242 70.4093 57.4212C70.7374 57.0203 71.0877 56.6355 71.4543 56.2669C71.8229 55.8984 72.2076 55.55 72.6086 55.22C73.0116 54.8899 73.4287 54.58 73.8601 54.2904C74.2935 54.0009 74.739 53.7335 75.1966 53.4885C75.6563 53.2435 76.1262 53.0207 76.6061 52.8223C77.086 52.6238 77.5741 52.4476 78.0723 52.2978C78.5704 52.1459 79.0747 52.0203 79.583 51.9191C80.0933 51.8178 80.6077 51.7409 81.1261 51.6902C81.6425 51.6396 82.1609 51.6133 82.6814 51.6133C83.2018 51.6133 83.7202 51.6396 84.2366 51.6902C84.755 51.7409 85.2694 51.8178 85.7797 51.9191C86.288 52.0203 86.7923 52.1459 87.2905 52.2978C87.7886 52.4476 88.2767 52.6238 88.7566 52.8223C89.2366 53.0207 89.7064 53.2435 90.1661 53.4885C90.6237 53.7335 91.0693 54.0009 91.5026 54.2904C91.934 54.58 92.3511 54.8899 92.7541 55.22C93.1551 55.55 93.5399 55.8984 93.9084 56.2669C94.275 56.6355 94.6253 57.0203 94.9534 57.4212C95.2835 57.8242 95.5933 58.2414 95.8829 58.6748C96.1705 59.1061 96.4378 59.5536 96.6828 60.0113C96.9278 60.471 97.1506 60.9408 97.3491 61.4208C97.5475 61.9027 97.7237 62.3908 97.8736 62.889C98.0254 63.3871 98.151 63.8914 98.2522 64.4017C98.3535 64.912 98.4305 65.4264 98.4811 65.9448C98.5317 66.4612 98.558 66.9817 98.558 67.5021Z" fill="#000066"/>
<mask id="mask1_5176_2045" style="mask-type:luminance" maskUnits="userSpaceOnUse" x="55" y="80" width="26" height="40">
<path d="M55.4639 80.8906H80.7369V119.772H55.4639V80.8906Z" fill="white"/>
</mask>
<g mask="url(#mask1_5176_2045)">
<path d="M61.8591 81.2539C60.8465 82.2989 59.9434 83.4329 59.1475 84.652C58.3516 85.8731 57.6793 87.157 57.1325 88.5078C56.5837 89.8565 56.1706 91.2477 55.8891 92.6754C55.6076 94.1051 55.4659 95.549 55.4639 97.005V106.086C55.4639 106.531 55.4861 106.977 55.5287 107.42C55.5732 107.864 55.638 108.303 55.7251 108.742C55.8122 109.18 55.9195 109.611 56.0491 110.038C56.1787 110.464 56.3286 110.885 56.5007 111.296C56.6708 111.709 56.8612 112.11 57.0698 112.505C57.2804 112.898 57.5092 113.281 57.7583 113.651C58.0053 114.022 58.2706 114.38 58.5521 114.725C58.8356 115.069 59.1353 115.399 59.4492 115.715C59.7651 116.031 60.0952 116.328 60.4395 116.612C60.7838 116.895 61.1422 117.161 61.5128 117.408C61.8834 117.655 62.2641 117.886 62.657 118.094C63.0498 118.305 63.4528 118.495 63.8639 118.667C64.277 118.837 64.6962 118.987 65.1215 119.117C65.5488 119.247 65.9801 119.354 66.4176 119.441C66.855 119.528 67.2944 119.593 67.7379 119.637C68.1814 119.682 68.6269 119.702 69.0724 119.702H78.1448V106.086C78.157 101.406 78.9569 96.8653 80.5486 92.4668C79.613 92.3797 78.6835 92.242 77.7641 92.0517C76.8427 91.8613 75.9355 91.6203 75.0424 91.3267C74.1493 91.0351 73.2745 90.6949 72.4199 90.304C71.5633 89.9132 70.733 89.4758 69.927 88.9918C69.121 88.5078 68.3434 87.9812 67.5962 87.4102C66.8489 86.8391 66.1361 86.2275 65.4577 85.5775C64.7793 84.9254 64.1393 84.2389 63.5379 83.5159C62.9364 82.793 62.3775 82.0396 61.8591 81.2539Z" fill="#000066"/>
</g>
<mask id="mask2_5176_2045" style="mask-type:luminance" maskUnits="userSpaceOnUse" x="86" y="80" width="75" height="58">
<path d="M86.958 80.8906H160.055V137.889H86.958V80.8906Z" fill="white"/>
</mask>
<g mask="url(#mask2_5176_2045)">
<path d="M147.73 81.2109C147.358 81.6504 146.975 82.0777 146.58 82.4948C146.187 82.914 145.78 83.3191 145.365 83.716C144.948 84.1109 144.521 84.4936 144.083 84.8662C143.648 85.2388 143.2 85.5993 142.743 85.9476C142.287 86.2959 141.821 86.6321 141.345 86.9541C140.869 87.2761 140.387 87.5859 139.895 87.8836C139.403 88.1793 138.903 88.4628 138.397 88.7321C137.891 89.0014 137.376 89.2566 136.856 89.4976C136.333 89.7406 135.807 89.9674 135.274 90.18C134.739 90.3927 134.201 90.5911 133.658 90.7754C133.113 90.9597 132.565 91.1278 132.012 91.2817C131.459 91.4356 130.902 91.5733 130.341 91.6968C129.78 91.8224 129.217 91.9297 128.65 92.0229C128.083 92.116 127.514 92.193 126.943 92.2558C126.374 92.3185 125.801 92.3651 125.228 92.3955C124.655 92.4279 124.081 92.4421 123.506 92.4421C122.931 92.4421 122.358 92.4279 121.785 92.3955C121.212 92.3651 120.639 92.3185 120.07 92.2558C119.499 92.193 118.93 92.116 118.363 92.0229C117.796 91.9297 117.233 91.8224 116.672 91.6968C116.111 91.5733 115.554 91.4356 115.001 91.2817C114.448 91.1278 113.899 90.9597 113.355 90.7754C112.812 90.5911 112.273 90.3927 111.739 90.18C111.206 89.9674 110.679 89.7406 110.157 89.4976C109.637 89.2566 109.122 89.0014 108.616 88.7321C108.11 88.4628 107.609 88.1793 107.117 87.8836C106.625 87.5859 106.143 87.2761 105.667 86.9541C105.191 86.6321 104.726 86.2959 104.27 85.9476C103.812 85.5993 103.365 85.2388 102.929 84.8662C102.492 84.4936 102.065 84.1109 101.648 83.716C101.232 83.3191 100.825 82.914 100.433 82.4948C100.038 82.0777 99.6549 81.6504 99.2823 81.2109C98.3467 81.9521 97.4556 82.7419 96.6091 83.5823C95.7627 84.4227 94.9668 85.3077 94.2195 86.2372C93.4723 87.1667 92.7797 88.1367 92.1418 89.1452C91.5039 90.1537 90.9247 91.1946 90.4043 92.2679C89.8838 93.3412 89.4241 94.4408 89.0272 95.5647C88.6303 96.6907 88.2982 97.8349 88.0309 98.9973C87.7615 100.16 87.559 101.334 87.4234 102.521C87.2877 103.706 87.2188 104.894 87.2168 106.089V124.246C87.2168 124.692 87.2391 125.137 87.2816 125.581C87.3262 126.024 87.391 126.466 87.478 126.903C87.5651 127.34 87.6724 127.772 87.802 128.199C87.9317 128.626 88.0815 129.045 88.2536 129.459C88.4237 129.87 88.6141 130.273 88.8227 130.666C89.0333 131.058 89.2621 131.441 89.5112 131.812C89.7583 132.182 90.0236 132.541 90.3051 132.885C90.5886 133.231 90.8883 133.561 91.2022 133.875C91.5181 134.191 91.8482 134.491 92.1924 134.774C92.5367 135.056 92.8951 135.321 93.2657 135.57C93.6363 135.817 94.017 136.046 94.4099 136.257C94.8028 136.467 95.2058 136.658 95.6169 136.828C96.03 136.998 96.4492 137.148 96.8744 137.277C97.3017 137.407 97.7331 137.516 98.1705 137.604C98.6079 137.691 99.0473 137.755 99.4908 137.8C99.9343 137.842 100.38 137.865 100.825 137.865H146.187C146.633 137.865 147.078 137.842 147.522 137.8C147.965 137.755 148.405 137.691 148.842 137.604C149.28 137.516 149.711 137.407 150.138 137.277C150.564 137.148 150.983 136.998 151.396 136.828C151.807 136.658 152.21 136.467 152.603 136.257C152.996 136.046 153.376 135.817 153.747 135.57C154.118 135.321 154.476 135.056 154.82 134.772C155.164 134.491 155.495 134.191 155.811 133.875C156.124 133.561 156.424 133.231 156.708 132.885C156.989 132.541 157.254 132.182 157.501 131.812C157.751 131.441 157.979 131.058 158.19 130.666C158.399 130.273 158.589 129.87 158.759 129.459C158.931 129.045 159.081 128.626 159.211 128.199C159.34 127.772 159.448 127.34 159.535 126.903C159.622 126.466 159.687 126.024 159.731 125.581C159.774 125.137 159.796 124.692 159.796 124.246V106.089C159.794 104.894 159.725 103.706 159.589 102.521C159.454 101.334 159.251 100.16 158.982 98.9973C158.714 97.8349 158.382 96.6907 157.985 95.5647C157.589 94.4408 157.129 93.3412 156.608 92.2679C156.088 91.1946 155.509 90.1537 154.871 89.1452C154.233 88.1367 153.54 87.1667 152.793 86.2372C152.046 85.3077 151.25 84.4227 150.404 83.5823C149.557 82.7419 148.666 81.9521 147.73 81.2109Z" fill="#000066"/>
</g>
<mask id="mask3_5176_2045" style="mask-type:luminance" maskUnits="userSpaceOnUse" x="100" y="37" width="47" height="47">
<path d="M100.437 37.9688H146.576V83.4886H100.437V37.9688Z" fill="white"/>
</mask>
<g mask="url(#mask3_5176_2045)">
<path d="M146.187 60.6972C146.187 61.4404 146.151 62.1815 146.078 62.9227C146.005 63.6619 145.896 64.397 145.752 65.126C145.606 65.8551 145.426 66.574 145.211 67.2868C144.994 67.9976 144.745 68.6962 144.46 69.3827C144.176 70.0713 143.858 70.7416 143.51 71.3977C143.16 72.0518 142.777 72.6897 142.364 73.3074C141.953 73.925 141.509 74.5224 141.039 75.0975C140.568 75.6706 140.069 76.2215 139.545 76.748C139.018 77.2725 138.47 77.7707 137.894 78.2425C137.321 78.7143 136.724 79.1578 136.106 79.5689C135.489 79.982 134.853 80.3648 134.199 80.7151C133.542 81.0655 132.872 81.3834 132.186 81.6669C131.499 81.9525 130.801 82.2015 130.09 82.4182C129.379 82.6329 128.66 82.8131 127.931 82.9589C127.202 83.1047 126.469 83.2121 125.73 83.285C124.991 83.3579 124.249 83.3943 123.506 83.3943C122.763 83.3943 122.022 83.3579 121.283 83.285C120.543 83.2121 119.81 83.1047 119.081 82.9589C118.352 82.8131 117.633 82.6329 116.923 82.4182C116.212 82.2015 115.513 81.9525 114.827 81.6669C114.14 81.3834 113.47 81.0655 112.814 80.7151C112.16 80.3648 111.524 79.982 110.906 79.5689C110.288 79.1578 109.691 78.7143 109.118 78.2425C108.543 77.7707 107.994 77.2725 107.467 76.748C106.943 76.2215 106.445 75.6706 105.973 75.0975C105.503 74.5224 105.06 73.925 104.649 73.3074C104.235 72.6897 103.853 72.0518 103.502 71.3977C103.154 70.7416 102.836 70.0713 102.553 69.3827C102.267 68.6962 102.018 67.9976 101.801 67.2868C101.587 66.574 101.406 65.8551 101.261 65.126C101.117 64.397 101.007 63.6619 100.935 62.9227C100.862 62.1815 100.825 61.4404 100.825 60.6972C100.825 59.954 100.862 59.2128 100.935 58.4736C101.007 57.7324 101.117 56.9994 101.261 56.2703C101.406 55.5413 101.587 54.8204 101.801 54.1096C102.018 53.3967 102.267 52.6981 102.553 52.0116C102.836 51.3251 103.154 50.6527 103.502 49.9986C103.853 49.3425 104.235 48.7046 104.649 48.087C105.06 47.4693 105.503 46.8739 105.973 46.2988C106.445 45.7237 106.943 45.1729 107.467 44.6484C107.994 44.1218 108.543 43.6237 109.118 43.1518C109.691 42.68 110.288 42.2385 110.906 41.8254C111.524 41.4123 112.16 41.0295 112.814 40.6792C113.47 40.3288 114.14 40.0129 114.827 39.7274C115.513 39.4439 116.212 39.1928 116.923 38.9781C117.633 38.7614 118.352 38.5812 119.081 38.4354C119.81 38.2916 120.543 38.1823 121.283 38.1094C122.022 38.0365 122.763 38 123.506 38C124.249 38 124.991 38.0365 125.73 38.1094C126.469 38.1823 127.202 38.2916 127.931 38.4354C128.66 38.5812 129.379 38.7614 130.09 38.9781C130.801 39.1928 131.499 39.4439 132.186 39.7274C132.872 40.0129 133.542 40.3288 134.199 40.6792C134.853 41.0295 135.489 41.4123 136.106 41.8254C136.724 42.2385 137.321 42.68 137.894 43.1518C138.47 43.6237 139.018 44.1218 139.545 44.6484C140.069 45.1729 140.568 45.7237 141.039 46.2988C141.509 46.8739 141.953 47.4693 142.364 48.087C142.777 48.7046 143.16 49.3425 143.51 49.9986C143.858 50.6527 144.176 51.3251 144.46 52.0116C144.745 52.6981 144.994 53.3967 145.211 54.1096C145.426 54.8204 145.606 55.5413 145.752 56.2703C145.896 56.9994 146.005 57.7324 146.078 58.4736C146.151 59.2128 146.187 59.954 146.187 60.6972Z" fill="#000066"/>
</g>
<path d="M666.721 86.2527C663.573 86.2527 660.447 85.8431 657.343 85.0238C654.282 84.1615 651.652 82.9543 649.453 81.4021L653.592 73.3824C655.317 74.6328 657.3 75.6245 659.542 76.3575C661.827 77.0904 664.134 77.4569 666.462 77.4569C669.092 77.4569 671.162 76.9395 672.671 75.9047C674.18 74.87 674.934 73.4256 674.934 71.5716C674.934 70.4074 674.633 69.3726 674.029 68.4672C673.425 67.5617 672.347 66.8719 670.795 66.3976C669.286 65.9233 667.152 65.6862 664.392 65.6862H652.816L655.144 40.2045H682.76V48.6121H658.895L664.328 43.8262L662.711 61.9997L657.278 57.2138H666.85C671.334 57.2138 674.934 57.839 677.651 59.0894C680.41 60.2967 682.415 61.9566 683.665 64.0693C684.916 66.182 685.541 68.575 685.541 71.2482C685.541 73.9214 684.873 76.4006 683.536 78.6857C682.2 80.9278 680.13 82.7602 677.327 84.1831C674.568 85.5628 671.032 86.2527 666.721 86.2527ZM709.194 86.2527C705.486 86.2527 702.166 85.3472 699.234 83.5363C696.302 81.6823 693.996 79.0091 692.314 75.5167C690.633 72.0243 689.792 67.7989 689.792 62.8405C689.792 57.8821 690.633 53.6567 692.314 50.1643C693.996 46.6719 696.302 44.0203 699.234 42.2094C702.166 40.3554 705.486 39.4284 709.194 39.4284C712.945 39.4284 716.265 40.3554 719.154 42.2094C722.086 44.0203 724.393 46.6719 726.074 50.1643C727.756 53.6567 728.597 57.8821 728.597 62.8405C728.597 67.7989 727.756 72.0243 726.074 75.5167C724.393 79.0091 722.086 81.6823 719.154 83.5363C716.265 85.3472 712.945 86.2527 709.194 86.2527ZM709.194 77.3923C710.962 77.3923 712.493 76.8964 713.786 75.9047C715.123 74.9131 716.157 73.3393 716.89 71.1835C717.667 69.0277 718.055 66.2467 718.055 62.8405C718.055 59.4343 717.667 56.6533 716.89 54.4975C716.157 52.3417 715.123 50.768 713.786 49.7763C712.493 48.7846 710.962 48.2888 709.194 48.2888C707.47 48.2888 705.939 48.7846 704.602 49.7763C703.309 50.768 702.274 52.3417 701.498 54.4975C700.765 56.6533 700.398 59.4343 700.398 62.8405C700.398 66.2467 700.765 69.0277 701.498 71.1835C702.274 73.3393 703.309 74.9131 704.602 75.9047C705.939 76.8964 707.47 77.3923 709.194 77.3923ZM733.254 95.4364L737.523 79.9146L738.945 85.7353C737.091 85.7353 735.561 85.1963 734.354 84.1184C733.189 83.0405 732.607 81.553 732.607 79.6559C732.607 77.7587 733.211 76.2497 734.418 75.1287C735.625 74.0076 737.113 73.4471 738.881 73.4471C740.692 73.4471 742.179 74.0292 743.343 75.1933C744.507 76.3144 745.089 77.8019 745.089 79.6559C745.089 80.2164 745.046 80.7769 744.96 81.3374C744.874 81.8548 744.701 82.5015 744.443 83.2776C744.227 84.0106 743.861 84.9592 743.343 86.1233L739.657 95.4364H733.254ZM768.374 86.2527C764.666 86.2527 761.346 85.3472 758.414 83.5363C755.482 81.6823 753.175 79.0091 751.494 75.5167C749.812 72.0243 748.971 67.7989 748.971 62.8405C748.971 57.8821 749.812 53.6567 751.494 50.1643C753.175 46.6719 755.482 44.0203 758.414 42.2094C761.346 40.3554 764.666 39.4284 768.374 39.4284C772.125 39.4284 775.445 40.3554 778.334 42.2094C781.266 44.0203 783.572 46.6719 785.254 50.1643C786.935 53.6567 787.776 57.8821 787.776 62.8405C787.776 67.7989 786.935 72.0243 785.254 75.5167C783.572 79.0091 781.266 81.6823 778.334 83.5363C775.445 85.3472 772.125 86.2527 768.374 86.2527ZM768.374 77.3923C770.142 77.3923 771.672 76.8964 772.966 75.9047C774.302 74.9131 775.337 73.3393 776.07 71.1835C776.846 69.0277 777.234 66.2467 777.234 62.8405C777.234 59.4343 776.846 56.6533 776.07 54.4975C775.337 52.3417 774.302 50.768 772.966 49.7763C771.672 48.7846 770.142 48.2888 768.374 48.2888C766.649 48.2888 765.119 48.7846 763.782 49.7763C762.488 50.768 761.454 52.3417 760.678 54.4975C759.945 56.6533 759.578 59.4343 759.578 62.8405C759.578 66.2467 759.945 69.0277 760.678 71.1835C761.454 73.3393 762.488 74.9131 763.782 75.9047C765.119 76.8964 766.649 77.3923 768.374 77.3923ZM812.269 86.2527C808.561 86.2527 805.241 85.3472 802.309 83.5363C799.377 81.6823 797.071 79.0091 795.389 75.5167C793.707 72.0243 792.867 67.7989 792.867 62.8405C792.867 57.8821 793.707 53.6567 795.389 50.1643C797.071 46.6719 799.377 44.0203 802.309 42.2094C805.241 40.3554 808.561 39.4284 812.269 39.4284C816.02 39.4284 819.34 40.3554 822.229 42.2094C825.161 44.0203 827.468 46.6719 829.149 50.1643C830.831 53.6567 831.671 57.8821 831.671 62.8405C831.671 67.7989 830.831 72.0243 829.149 75.5167C827.468 79.0091 825.161 81.6823 822.229 83.5363C819.34 85.3472 816.02 86.2527 812.269 86.2527ZM812.269 77.3923C814.037 77.3923 815.567 76.8964 816.861 75.9047C818.198 74.9131 819.232 73.3393 819.965 71.1835C820.741 69.0277 821.129 66.2467 821.129 62.8405C821.129 59.4343 820.741 56.6533 819.965 54.4975C819.232 52.3417 818.198 50.768 816.861 49.7763C815.567 48.7846 814.037 48.2888 812.269 48.2888C810.544 48.2888 809.014 48.7846 807.677 49.7763C806.384 50.768 805.349 52.3417 804.573 54.4975C803.84 56.6533 803.473 59.4343 803.473 62.8405C803.473 66.2467 803.84 69.0277 804.573 71.1835C805.349 73.3393 806.384 74.9131 807.677 75.9047C809.014 76.8964 810.544 77.3923 812.269 77.3923ZM856.164 86.2527C852.456 86.2527 849.136 85.3472 846.204 83.5363C843.273 81.6823 840.966 79.0091 839.284 75.5167C837.603 72.0243 836.762 67.7989 836.762 62.8405C836.762 57.8821 837.603 53.6567 839.284 50.1643C840.966 46.6719 843.273 44.0203 846.204 42.2094C849.136 40.3554 852.456 39.4284 856.164 39.4284C859.915 39.4284 863.235 40.3554 866.124 42.2094C869.056 44.0203 871.363 46.6719 873.044 50.1643C874.726 53.6567 875.567 57.8821 875.567 62.8405C875.567 67.7989 874.726 72.0243 873.044 75.5167C871.363 79.0091 869.056 81.6823 866.124 83.5363C863.235 85.3472 859.915 86.2527 856.164 86.2527ZM856.164 77.3923C857.932 77.3923 859.463 76.8964 860.756 75.9047C862.093 74.9131 863.128 73.3393 863.861 71.1835C864.637 69.0277 865.025 66.2467 865.025 62.8405C865.025 59.4343 864.637 56.6533 863.861 54.4975C863.128 52.3417 862.093 50.768 860.756 49.7763C859.463 48.7846 857.932 48.2888 856.164 48.2888C854.44 48.2888 852.909 48.7846 851.572 49.7763C850.279 50.768 849.244 52.3417 848.468 54.4975C847.735 56.6533 847.369 59.4343 847.369 62.8405C847.369 66.2467 847.735 69.0277 848.468 71.1835C849.244 73.3393 850.279 74.9131 851.572 75.9047C852.909 76.8964 854.44 77.3923 856.164 77.3923ZM893.586 77.7803V47.9007H901.929V77.7803H893.586ZM882.397 66.7857V58.8954H913.182V66.7857H882.397Z" fill="#000066"/>
<path d="M645.186 119.625V104.534H651.546C653.156 104.534 654.571 104.85 655.793 105.483C657.029 106.115 657.985 106.999 658.66 108.135C659.35 109.27 659.695 110.585 659.695 112.08C659.695 113.574 659.35 114.889 658.66 116.025C657.985 117.16 657.029 118.044 655.793 118.676C654.571 119.309 653.156 119.625 651.546 119.625H645.186ZM647.342 117.749H651.417C652.667 117.749 653.745 117.512 654.65 117.038C655.57 116.564 656.282 115.903 656.785 115.055C657.288 114.192 657.539 113.201 657.539 112.08C657.539 110.944 657.288 109.953 656.785 109.105C656.282 108.257 655.57 107.596 654.65 107.121C653.745 106.647 652.667 106.41 651.417 106.41H647.342V117.749ZM667.589 119.754C666.439 119.754 665.419 119.503 664.528 119C663.637 118.497 662.933 117.807 662.415 116.93C661.898 116.039 661.639 115.033 661.639 113.912C661.639 112.777 661.898 111.771 662.415 110.894C662.933 110.017 663.637 109.335 664.528 108.846C665.419 108.343 666.439 108.091 667.589 108.091C668.724 108.091 669.738 108.343 670.629 108.846C671.534 109.335 672.238 110.017 672.741 110.894C673.259 111.756 673.518 112.762 673.518 113.912C673.518 115.047 673.259 116.054 672.741 116.93C672.238 117.807 671.534 118.497 670.629 119C669.738 119.503 668.724 119.754 667.589 119.754ZM667.589 117.943C668.322 117.943 668.976 117.778 669.551 117.448C670.14 117.117 670.6 116.65 670.931 116.046C671.261 115.428 671.426 114.717 671.426 113.912C671.426 113.093 671.261 112.389 670.931 111.799C670.6 111.196 670.14 110.729 669.551 110.398C668.976 110.068 668.322 109.902 667.589 109.902C666.856 109.902 666.202 110.068 665.627 110.398C665.052 110.729 664.592 111.196 664.248 111.799C663.903 112.389 663.73 113.093 663.73 113.912C663.73 114.717 663.903 115.428 664.248 116.046C664.592 116.65 665.052 117.117 665.627 117.448C666.202 117.778 666.856 117.943 667.589 117.943ZM678.478 119.625L674.232 108.199H676.193L679.966 118.547H679.039L682.963 108.199H684.709L688.546 118.547H687.641L691.5 108.199H693.354L689.085 119.625H687.102L683.502 110.183H684.105L680.462 119.625H678.478ZM701.555 108.091C702.489 108.091 703.308 108.271 704.012 108.63C704.731 108.99 705.291 109.536 705.694 110.269C706.096 111.002 706.297 111.929 706.297 113.05V119.625H704.228V113.287C704.228 112.18 703.955 111.347 703.409 110.786C702.877 110.226 702.122 109.945 701.145 109.945C700.412 109.945 699.772 110.089 699.226 110.377C698.68 110.664 698.256 111.088 697.954 111.648C697.667 112.209 697.523 112.906 697.523 113.74V119.625H695.454V108.199H697.437V111.282L697.114 110.463C697.487 109.715 698.062 109.133 698.838 108.717C699.614 108.3 700.52 108.091 701.555 108.091ZM710.127 119.625V103.629H712.197V119.625H710.127ZM721.042 119.754C719.893 119.754 718.872 119.503 717.981 119C717.09 118.497 716.386 117.807 715.868 116.93C715.351 116.039 715.092 115.033 715.092 113.912C715.092 112.777 715.351 111.771 715.868 110.894C716.386 110.017 717.09 109.335 717.981 108.846C718.872 108.343 719.893 108.091 721.042 108.091C722.178 108.091 723.191 108.343 724.082 108.846C724.987 109.335 725.692 110.017 726.195 110.894C726.712 111.756 726.971 112.762 726.971 113.912C726.971 115.047 726.712 116.054 726.195 116.93C725.692 117.807 724.987 118.497 724.082 119C723.191 119.503 722.178 119.754 721.042 119.754ZM721.042 117.943C721.775 117.943 722.429 117.778 723.004 117.448C723.593 117.117 724.053 116.65 724.384 116.046C724.714 115.428 724.88 114.717 724.88 113.912C724.88 113.093 724.714 112.389 724.384 111.799C724.053 111.196 723.593 110.729 723.004 110.398C722.429 110.068 721.775 109.902 721.042 109.902C720.309 109.902 719.655 110.068 719.081 110.398C718.506 110.729 718.046 111.196 717.701 111.799C717.356 112.389 717.183 113.093 717.183 113.912C717.183 114.717 717.356 115.428 717.701 116.046C718.046 116.65 718.506 117.117 719.081 117.448C719.655 117.778 720.309 117.943 721.042 117.943ZM736.82 119.625V117.21L736.713 116.758V112.64C736.713 111.763 736.454 111.088 735.936 110.614C735.433 110.125 734.672 109.881 733.651 109.881C732.976 109.881 732.315 109.996 731.668 110.226C731.021 110.441 730.475 110.736 730.03 111.11L729.167 109.557C729.756 109.083 730.461 108.724 731.28 108.479C732.113 108.221 732.983 108.091 733.888 108.091C735.455 108.091 736.662 108.472 737.51 109.234C738.358 109.996 738.782 111.16 738.782 112.726V119.625H736.82ZM733.069 119.754C732.221 119.754 731.474 119.611 730.827 119.323C730.195 119.036 729.706 118.641 729.361 118.137C729.016 117.62 728.844 117.038 728.844 116.391C728.844 115.773 728.988 115.213 729.275 114.71C729.577 114.207 730.058 113.804 730.719 113.502C731.395 113.201 732.3 113.05 733.436 113.05H737.057V114.537H733.522C732.487 114.537 731.79 114.71 731.431 115.055C731.072 115.4 730.892 115.816 730.892 116.305C730.892 116.866 731.115 117.318 731.56 117.663C732.006 117.994 732.624 118.159 733.414 118.159C734.19 118.159 734.866 117.987 735.441 117.642C736.03 117.297 736.454 116.794 736.713 116.133L737.122 117.555C736.849 118.231 736.368 118.77 735.678 119.172C734.988 119.56 734.118 119.754 733.069 119.754ZM747.333 119.754C746.227 119.754 745.235 119.51 744.358 119.021C743.496 118.533 742.813 117.85 742.31 116.973C741.807 116.097 741.556 115.076 741.556 113.912C741.556 112.748 741.807 111.735 742.31 110.872C742.813 109.996 743.496 109.313 744.358 108.824C745.235 108.336 746.227 108.091 747.333 108.091C748.296 108.091 749.166 108.307 749.942 108.738C750.718 109.169 751.336 109.816 751.796 110.678C752.27 111.541 752.507 112.619 752.507 113.912C752.507 115.206 752.277 116.283 751.817 117.146C751.372 118.008 750.761 118.662 749.985 119.108C749.209 119.539 748.325 119.754 747.333 119.754ZM747.506 117.943C748.224 117.943 748.871 117.778 749.446 117.448C750.035 117.117 750.495 116.65 750.826 116.046C751.171 115.428 751.343 114.717 751.343 113.912C751.343 113.093 751.171 112.389 750.826 111.799C750.495 111.196 750.035 110.729 749.446 110.398C748.871 110.068 748.224 109.902 747.506 109.902C746.773 109.902 746.119 110.068 745.544 110.398C744.969 110.729 744.509 111.196 744.164 111.799C743.819 112.389 743.647 113.093 743.647 113.912C743.647 114.717 743.819 115.428 744.164 116.046C744.509 116.65 744.969 117.117 745.544 117.448C746.119 117.778 746.773 117.943 747.506 117.943ZM751.408 119.625V116.542L751.537 113.891L751.322 111.239V103.629H753.391V119.625H751.408ZM760.584 119.754C759.635 119.754 758.73 119.625 757.867 119.366C757.02 119.108 756.351 118.791 755.863 118.418L756.725 116.779C757.214 117.11 757.817 117.39 758.536 117.62C759.254 117.85 759.987 117.965 760.735 117.965C761.698 117.965 762.388 117.828 762.804 117.555C763.235 117.282 763.451 116.901 763.451 116.413C763.451 116.054 763.322 115.773 763.063 115.572C762.804 115.371 762.459 115.22 762.028 115.119C761.611 115.019 761.144 114.933 760.627 114.861C760.11 114.774 759.592 114.674 759.075 114.559C758.557 114.429 758.083 114.257 757.652 114.041C757.221 113.811 756.876 113.502 756.617 113.114C756.358 112.712 756.229 112.18 756.229 111.519C756.229 110.829 756.423 110.226 756.811 109.708C757.199 109.191 757.745 108.796 758.45 108.523C759.168 108.235 760.016 108.091 760.993 108.091C761.741 108.091 762.495 108.185 763.257 108.372C764.033 108.544 764.665 108.796 765.154 109.126L764.27 110.765C763.753 110.42 763.214 110.183 762.653 110.053C762.093 109.924 761.532 109.859 760.972 109.859C760.066 109.859 759.391 110.01 758.945 110.312C758.5 110.599 758.277 110.973 758.277 111.433C758.277 111.821 758.406 112.123 758.665 112.338C758.938 112.54 759.283 112.698 759.7 112.813C760.131 112.928 760.605 113.028 761.123 113.114C761.64 113.186 762.158 113.287 762.675 113.416C763.192 113.531 763.659 113.697 764.076 113.912C764.507 114.128 764.852 114.429 765.111 114.818C765.384 115.206 765.521 115.723 765.521 116.37C765.521 117.06 765.319 117.656 764.917 118.159C764.515 118.662 763.947 119.057 763.214 119.345C762.481 119.618 761.604 119.754 760.584 119.754ZM778.79 119.754C777.641 119.754 776.62 119.503 775.729 119C774.838 118.497 774.134 117.807 773.616 116.93C773.099 116.039 772.84 115.033 772.84 113.912C772.84 112.777 773.099 111.771 773.616 110.894C774.134 110.017 774.838 109.335 775.729 108.846C776.62 108.343 777.641 108.091 778.79 108.091C779.926 108.091 780.939 108.343 781.83 108.846C782.735 109.335 783.44 110.017 783.943 110.894C784.46 111.756 784.719 112.762 784.719 113.912C784.719 115.047 784.46 116.054 783.943 116.93C783.44 117.807 782.735 118.497 781.83 119C780.939 119.503 779.926 119.754 778.79 119.754ZM778.79 117.943C779.523 117.943 780.177 117.778 780.752 117.448C781.341 117.117 781.801 116.65 782.132 116.046C782.462 115.428 782.628 114.717 782.628 113.912C782.628 113.093 782.462 112.389 782.132 111.799C781.801 111.196 781.341 110.729 780.752 110.398C780.177 110.068 779.523 109.902 778.79 109.902C778.057 109.902 777.403 110.068 776.829 110.398C776.254 110.729 775.794 111.196 775.449 111.799C775.104 112.389 774.931 113.093 774.931 113.912C774.931 114.717 775.104 115.428 775.449 116.046C775.794 116.65 776.254 117.117 776.829 117.448C777.403 117.778 778.057 117.943 778.79 117.943ZM787.883 119.625V107.186C787.883 106.065 788.206 105.174 788.853 104.513C789.514 103.837 790.448 103.5 791.655 103.5C792.101 103.5 792.525 103.557 792.927 103.672C793.344 103.773 793.696 103.938 793.984 104.168L793.359 105.742C793.143 105.569 792.899 105.44 792.626 105.354C792.353 105.253 792.065 105.203 791.763 105.203C791.16 105.203 790.7 105.375 790.384 105.72C790.067 106.051 789.909 106.546 789.909 107.208V108.738L789.952 109.687V119.625H787.883ZM785.943 109.902V108.199H793.229V109.902H785.943ZM651.999 145.797C650.849 145.797 649.778 145.603 648.787 145.215C647.809 144.827 646.961 144.288 646.243 143.599C645.524 142.894 644.964 142.075 644.561 141.141C644.159 140.207 643.958 139.186 643.958 138.08C643.958 136.973 644.159 135.953 644.561 135.018C644.964 134.084 645.524 133.272 646.243 132.582C646.961 131.878 647.809 131.332 648.787 130.944C649.764 130.556 650.835 130.362 651.999 130.362C653.149 130.362 654.205 130.556 655.168 130.944C656.145 131.318 656.993 131.857 657.712 132.561C658.445 133.251 659.005 134.063 659.393 134.997C659.796 135.931 659.997 136.959 659.997 138.08C659.997 139.201 659.796 140.228 659.393 141.162C659.005 142.097 658.445 142.916 657.712 143.62C656.993 144.31 656.145 144.849 655.168 145.237C654.205 145.611 653.149 145.797 651.999 145.797ZM651.999 143.879C652.832 143.879 653.601 143.735 654.306 143.448C655.024 143.16 655.642 142.758 656.16 142.24C656.691 141.709 657.101 141.091 657.388 140.386C657.69 139.682 657.841 138.913 657.841 138.08C657.841 137.246 657.69 136.477 657.388 135.773C657.101 135.069 656.691 134.458 656.16 133.94C655.642 133.409 655.024 132.999 654.306 132.712C653.601 132.424 652.832 132.281 651.999 132.281C651.151 132.281 650.368 132.424 649.649 132.712C648.945 132.999 648.327 133.409 647.795 133.94C647.263 134.458 646.846 135.069 646.545 135.773C646.257 136.477 646.113 137.246 646.113 138.08C646.113 138.913 646.257 139.682 646.545 140.386C646.846 141.091 647.263 141.709 647.795 142.24C648.327 142.758 648.945 143.16 649.649 143.448C650.368 143.735 651.151 143.879 651.999 143.879ZM667.798 145.754C666.82 145.754 665.958 145.575 665.211 145.215C664.478 144.856 663.903 144.31 663.486 143.577C663.084 142.83 662.882 141.895 662.882 140.774V134.199H664.952V140.537C664.952 141.658 665.218 142.499 665.75 143.06C666.296 143.62 667.057 143.9 668.035 143.9C668.753 143.9 669.379 143.757 669.91 143.469C670.442 143.167 670.852 142.736 671.139 142.176C671.427 141.601 671.57 140.911 671.57 140.106V134.199H673.64V145.625H671.678V142.542L672.001 143.361C671.628 144.123 671.067 144.712 670.32 145.129C669.573 145.546 668.732 145.754 667.798 145.754ZM677.58 145.625V134.199H679.563V137.304L679.369 136.527C679.685 135.737 680.217 135.133 680.964 134.717C681.712 134.3 682.632 134.091 683.724 134.091V136.096C683.638 136.082 683.551 136.075 683.465 136.075C683.393 136.075 683.321 136.075 683.25 136.075C682.143 136.075 681.266 136.405 680.619 137.066C679.973 137.728 679.649 138.683 679.649 139.934V145.625H677.58ZM690.228 145.625L697.062 130.534H699.196L706.052 145.625H703.788L697.687 131.742H698.55L692.449 145.625H690.228ZM693.138 141.852L693.721 140.128H702.214L702.84 141.852H693.138ZM714.059 145.754C713.11 145.754 712.241 145.539 711.45 145.108C710.674 144.662 710.049 144.008 709.575 143.146C709.115 142.283 708.885 141.206 708.885 139.912C708.885 138.619 709.108 137.541 709.553 136.678C710.013 135.816 710.631 135.169 711.407 134.738C712.198 134.307 713.082 134.091 714.059 134.091C715.18 134.091 716.172 134.336 717.034 134.824C717.896 135.313 718.579 135.996 719.082 136.872C719.585 137.735 719.837 138.748 719.837 139.912C719.837 141.076 719.585 142.097 719.082 142.973C718.579 143.85 717.896 144.533 717.034 145.021C716.172 145.51 715.18 145.754 714.059 145.754ZM708.001 149.807V134.199H709.984V137.282L709.855 139.934L710.071 142.585V149.807H708.001ZM713.887 143.943C714.62 143.943 715.273 143.778 715.848 143.448C716.438 143.117 716.897 142.65 717.228 142.046C717.573 141.428 717.745 140.717 717.745 139.912C717.745 139.093 717.573 138.389 717.228 137.799C716.897 137.196 716.438 136.729 715.848 136.398C715.273 136.068 714.62 135.902 713.887 135.902C713.168 135.902 712.514 136.068 711.925 136.398C711.35 136.729 710.89 137.196 710.545 137.799C710.214 138.389 710.049 139.093 710.049 139.912C710.049 140.717 710.214 141.428 710.545 142.046C710.89 142.65 711.35 143.117 711.925 143.448C712.514 143.778 713.168 143.943 713.887 143.943ZM728.754 145.754C727.805 145.754 726.936 145.539 726.145 145.108C725.369 144.662 724.744 144.008 724.27 143.146C723.81 142.283 723.58 141.206 723.58 139.912C723.58 138.619 723.803 137.541 724.248 136.678C724.708 135.816 725.326 135.169 726.102 134.738C726.893 134.307 727.777 134.091 728.754 134.091C729.875 134.091 730.867 134.336 731.729 134.824C732.591 135.313 733.274 135.996 733.777 136.872C734.28 137.735 734.531 138.748 734.531 139.912C734.531 141.076 734.28 142.097 733.777 142.973C733.274 143.85 732.591 144.533 731.729 145.021C730.867 145.51 729.875 145.754 728.754 145.754ZM722.696 149.807V134.199H724.679V137.282L724.55 139.934L724.766 142.585V149.807H722.696ZM728.581 143.943C729.314 143.943 729.968 143.778 730.543 143.448C731.132 143.117 731.592 142.65 731.923 142.046C732.268 141.428 732.44 140.717 732.44 139.912C732.44 139.093 732.268 138.389 731.923 137.799C731.592 137.196 731.132 136.729 730.543 136.398C729.968 136.068 729.314 135.902 728.581 135.902C727.863 135.902 727.209 136.068 726.62 136.398C726.045 136.729 725.585 137.196 725.24 137.799C724.909 138.389 724.744 139.093 724.744 139.912C724.744 140.717 724.909 141.428 725.24 142.046C725.585 142.65 726.045 143.117 726.62 143.448C727.209 143.778 727.863 143.943 728.581 143.943ZM737.391 145.625V129.629H739.461V145.625H737.391ZM743.412 145.625V134.199H745.482V145.625H743.412ZM744.447 132C744.044 132 743.707 131.871 743.434 131.612C743.175 131.354 743.046 131.037 743.046 130.664C743.046 130.276 743.175 129.952 743.434 129.694C743.707 129.435 744.044 129.305 744.447 129.305C744.849 129.305 745.18 129.435 745.439 129.694C745.712 129.938 745.848 130.247 745.848 130.621C745.848 131.009 745.719 131.339 745.46 131.612C745.201 131.871 744.864 132 744.447 132ZM754.413 145.754C753.249 145.754 752.207 145.503 751.287 145C750.382 144.497 749.67 143.807 749.153 142.93C748.636 142.054 748.377 141.047 748.377 139.912C748.377 138.777 748.636 137.771 749.153 136.894C749.67 136.017 750.382 135.335 751.287 134.846C752.207 134.343 753.249 134.091 754.413 134.091C755.448 134.091 756.368 134.3 757.173 134.717C757.992 135.119 758.624 135.723 759.07 136.527L757.496 137.541C757.122 136.98 756.662 136.571 756.116 136.312C755.584 136.039 755.01 135.902 754.392 135.902C753.644 135.902 752.976 136.068 752.387 136.398C751.797 136.729 751.33 137.196 750.985 137.799C750.64 138.389 750.468 139.093 750.468 139.912C750.468 140.731 750.64 141.443 750.985 142.046C751.33 142.65 751.797 143.117 752.387 143.448C752.976 143.778 753.644 143.943 754.392 143.943C755.01 143.943 755.584 143.814 756.116 143.555C756.662 143.282 757.122 142.866 757.496 142.305L759.07 143.297C758.624 144.087 757.992 144.698 757.173 145.129C756.368 145.546 755.448 145.754 754.413 145.754ZM768.842 145.625V143.21L768.734 142.758V138.64C768.734 137.763 768.475 137.088 767.958 136.614C767.455 136.125 766.693 135.881 765.673 135.881C764.997 135.881 764.336 135.996 763.689 136.226C763.043 136.441 762.496 136.736 762.051 137.11L761.189 135.557C761.778 135.083 762.482 134.724 763.301 134.479C764.135 134.221 765.004 134.091 765.91 134.091C767.476 134.091 768.684 134.472 769.532 135.234C770.38 135.996 770.804 137.16 770.804 138.726V145.625H768.842ZM765.091 145.754C764.243 145.754 763.495 145.611 762.849 145.323C762.216 145.036 761.728 144.641 761.383 144.137C761.038 143.62 760.865 143.038 760.865 142.391C760.865 141.773 761.009 141.213 761.296 140.71C761.598 140.207 762.08 139.804 762.741 139.502C763.416 139.201 764.322 139.05 765.457 139.05H769.079V140.537H765.543C764.509 140.537 763.812 140.71 763.452 141.055C763.093 141.4 762.913 141.816 762.913 142.305C762.913 142.866 763.136 143.318 763.582 143.663C764.027 143.994 764.645 144.159 765.436 144.159C766.212 144.159 766.887 143.987 767.462 143.642C768.051 143.297 768.475 142.794 768.734 142.133L769.144 143.555C768.871 144.231 768.389 144.77 767.699 145.172C767.009 145.56 766.14 145.754 765.091 145.754ZM778.557 145.754C777.407 145.754 776.516 145.445 775.884 144.827C775.251 144.209 774.935 143.325 774.935 142.176V131.698H777.005V142.089C777.005 142.707 777.156 143.182 777.458 143.512C777.774 143.843 778.219 144.008 778.794 144.008C779.441 144.008 779.98 143.828 780.411 143.469L781.058 144.957C780.742 145.23 780.361 145.431 779.915 145.56C779.484 145.69 779.031 145.754 778.557 145.754ZM772.995 135.902V134.199H780.282V135.902H772.995ZM783.56 145.625V134.199H785.629V145.625H783.56ZM784.595 132C784.192 132 783.855 131.871 783.581 131.612C783.323 131.354 783.193 131.037 783.193 130.664C783.193 130.276 783.323 129.952 783.581 129.694C783.855 129.435 784.192 129.305 784.595 129.305C784.997 129.305 785.328 129.435 785.586 129.694C785.859 129.938 785.996 130.247 785.996 130.621C785.996 131.009 785.867 131.339 785.608 131.612C785.349 131.871 785.011 132 784.595 132ZM794.475 145.754C793.325 145.754 792.305 145.503 791.413 145C790.522 144.497 789.818 143.807 789.301 142.93C788.783 142.039 788.525 141.033 788.525 139.912C788.525 138.777 788.783 137.771 789.301 136.894C789.818 136.017 790.522 135.335 791.413 134.846C792.305 134.343 793.325 134.091 794.475 134.091C795.61 134.091 796.623 134.343 797.514 134.846C798.42 135.335 799.124 136.017 799.627 136.894C800.145 137.756 800.403 138.762 800.403 139.912C800.403 141.047 800.145 142.054 799.627 142.93C799.124 143.807 798.42 144.497 797.514 145C796.623 145.503 795.61 145.754 794.475 145.754ZM794.475 143.943C795.208 143.943 795.862 143.778 796.437 143.448C797.026 143.117 797.486 142.65 797.816 142.046C798.147 141.428 798.312 140.717 798.312 139.912C798.312 139.093 798.147 138.389 797.816 137.799C797.486 137.196 797.026 136.729 796.437 136.398C795.862 136.068 795.208 135.902 794.475 135.902C793.742 135.902 793.088 136.068 792.513 136.398C791.938 136.729 791.478 137.196 791.133 137.799C790.788 138.389 790.616 139.093 790.616 139.912C790.616 140.717 790.788 141.428 791.133 142.046C791.478 142.65 791.938 143.117 792.513 143.448C793.088 143.778 793.742 143.943 794.475 143.943ZM809.366 134.091C810.301 134.091 811.12 134.271 811.824 134.63C812.543 134.99 813.103 135.536 813.506 136.269C813.908 137.002 814.109 137.929 814.109 139.05V145.625H812.04V139.287C812.04 138.18 811.766 137.347 811.22 136.786C810.689 136.226 809.934 135.945 808.957 135.945C808.224 135.945 807.584 136.089 807.038 136.377C806.492 136.664 806.068 137.088 805.766 137.648C805.479 138.209 805.335 138.906 805.335 139.74V145.625H803.265V134.199H805.249V137.282L804.925 136.463C805.299 135.715 805.874 135.133 806.65 134.717C807.426 134.3 808.332 134.091 809.366 134.091Z" fill="#252525"/>
<mask id="mask4_5176_2045" style="mask-type:luminance" maskUnits="userSpaceOnUse" x="523" y="37" width="106" height="106">
<path d="M523.68 37.9688H628.102V142.391H523.68V37.9688Z" fill="white"/>
</mask>
<g mask="url(#mask4_5176_2045)">
<path d="M575.891 37.9688C547.07 37.9688 523.68 61.3591 523.68 90.1799C523.68 119.003 547.07 142.393 575.891 142.393C604.714 142.393 628.104 119.003 628.104 90.1799C628.104 61.3591 604.714 37.9688 575.891 37.9688ZM590.614 124.105H561.129C558.267 124.105 555.945 121.781 555.945 118.921C555.945 116.059 558.267 113.737 561.129 113.737H590.614C593.517 113.737 595.798 116.059 595.798 118.921C595.798 121.781 593.476 124.105 590.614 124.105ZM596.171 87.3607L580.661 103.534C579.376 104.819 577.716 105.524 575.891 105.524C574.068 105.524 572.408 104.819 571.122 103.534L571.082 103.493L555.613 87.4015C553.621 85.3279 553.704 82.0524 555.737 80.0623C557.811 78.0702 561.086 78.1537 563.076 80.1866L570.709 88.149V61.3163C570.709 58.4544 573.031 56.1322 575.891 56.1322C578.753 56.1322 581.075 58.4544 581.075 61.3163V88.149L588.705 80.1866C590.697 78.113 593.973 78.0702 596.046 80.0623C598.079 82.0117 598.161 85.2871 596.171 87.3607Z" fill="#000066"/>
</g>
<defs>
<filter id="filter0_d_5176_2045" x="0.827252" y="0.848328" width="945.998" height="190.115" filterUnits="userSpaceOnUse" color-interpolation-filters="sRGB">
<feFlood flood-opacity="0" result="BackgroundImageFix"/>
<feColorMatrix in="SourceAlpha" type="matrix" values="0 0 0 0 0 0 0 0 0 0 0 0 0 0 0 0 0 0 127 0" result="hardAlpha"/>
<feMorphology radius="0.673692" operator="dilate" in="SourceAlpha" result="effect1_dropShadow_5176_2045"/>
<feOffset dx="-0.673692" dy="1.34738"/>
<feGaussianBlur stdDeviation="4.41268"/>
<feComposite in2="hardAlpha" operator="out"/>
<feColorMatrix type="matrix" values="0 0 0 0 0 0 0 0 0 0 0 0 0 0 0 0 0 0 0.25 0"/>
<feBlend mode="normal" in2="BackgroundImageFix" result="effect1_dropShadow_5176_2045"/>
<feBlend mode="normal" in="SourceGraphic" in2="effect1_dropShadow_5176_2045" result="shape"/>
</filter>
</defs>
</svg>
